M48
INCH
T28C0.031
T27C0.026
%
T27
X002000Y015535
X002000Y004535
X003000Y015535
X003000Y004535
X004000Y004535
X005000Y004535
X006000Y004535
X007000Y004535
X008000Y004535
X009000Y004535
X010000Y004535
X011000Y004535
X012000Y004535
X013000Y004535
X014000Y004535
X015000Y004535
X016000Y004535
X017000Y004535
X018000Y004535
X019000Y004535
X020000Y015535
X020000Y004535
X021000Y015535
X021000Y004535
T28
X015900Y002035
X016400Y003035
X016900Y002035
X017400Y003035
X017900Y002035
X018400Y003035
X018900Y002035
X019400Y003035
M30
