G04 start of page 12 for group -3984 idx -3984 *
G04 Title: roomunit-psu, fab *
G04 Creator: pcb 1.99z *
G04 CreationDate: tor 11 jun 2015 09:01:47 UTC *
G04 For: jonatan *
G04 Format: Gerber/RS-274X *
G04 PCB-Dimensions (mil): 2401.57 2401.57 *
G04 PCB-Coordinate-Origin: lower left *
%MOIN*%
%FSLAX25Y25*%
%LNFAB*%
%ADD106C,0.0100*%
%ADD105C,0.0075*%
%ADD104C,0.0060*%
%ADD103R,0.0080X0.0080*%
G54D103*X136208Y58268D02*G75*G03X137808Y58268I800J0D01*G01*
G75*G03X136208Y58268I-800J0D01*G01*
X143688Y173228D02*G75*G03X145288Y173228I800J0D01*G01*
G75*G03X143688Y173228I-800J0D01*G01*
X150775Y154724D02*G75*G03X152375Y154724I800J0D01*G01*
G75*G03X150775Y154724I-800J0D01*G01*
X137389Y98425D02*G75*G03X138989Y98425I800J0D01*G01*
G75*G03X137389Y98425I-800J0D01*G01*
X119279Y183071D02*G75*G03X120879Y183071I800J0D01*G01*
G75*G03X119279Y183071I-800J0D01*G01*
X63767Y129134D02*G75*G03X65367Y129134I800J0D01*G01*
G75*G03X63767Y129134I-800J0D01*G01*
X169279Y57874D02*G75*G03X170879Y57874I800J0D01*G01*
G75*G03X169279Y57874I-800J0D01*G01*
X161011Y78346D02*G75*G03X162611Y78346I800J0D01*G01*
G75*G03X161011Y78346I-800J0D01*G01*
X14200Y251407D02*G75*G03X15800Y251407I800J0D01*G01*
G75*G03X14200Y251407I-800J0D01*G01*
G54D104*X135000Y253657D02*X136500Y250657D01*
X138000Y253657D01*
X136500Y250657D02*Y247657D01*
X139800Y250957D02*X142050D01*
X139800Y247657D02*X142800D01*
X139800Y253657D02*Y247657D01*
Y253657D02*X142800D01*
X147600D02*X148350Y252907D01*
X145350Y253657D02*X147600D01*
X144600Y252907D02*X145350Y253657D01*
X144600Y252907D02*Y251407D01*
X145350Y250657D01*
X147600D01*
X148350Y249907D01*
Y248407D01*
X147600Y247657D02*X148350Y248407D01*
X145350Y247657D02*X147600D01*
X144600Y248407D02*X145350Y247657D01*
X98000Y248407D02*X98750Y247657D01*
X98000Y249607D02*Y248407D01*
Y249607D02*X99050Y250657D01*
X99950D01*
X101000Y249607D01*
Y248407D01*
X100250Y247657D02*X101000Y248407D01*
X98750Y247657D02*X100250D01*
X98000Y251707D02*X99050Y250657D01*
X98000Y252907D02*Y251707D01*
Y252907D02*X98750Y253657D01*
X100250D01*
X101000Y252907D01*
Y251707D01*
X99950Y250657D02*X101000Y251707D01*
X45000Y248407D02*X45750Y247657D01*
X45000Y252907D02*Y248407D01*
Y252907D02*X45750Y253657D01*
X47250D01*
X48000Y252907D01*
Y248407D01*
X47250Y247657D02*X48000Y248407D01*
X45750Y247657D02*X47250D01*
X45000Y249157D02*X48000Y252157D01*
X49800Y247657D02*X50550D01*
X52350Y248407D02*X53100Y247657D01*
X52350Y252907D02*Y248407D01*
Y252907D02*X53100Y253657D01*
X54600D01*
X55350Y252907D01*
Y248407D01*
X54600Y247657D02*X55350Y248407D01*
X53100Y247657D02*X54600D01*
X52350Y249157D02*X55350Y252157D01*
X57150Y252907D02*X57900Y253657D01*
X59400D01*
X60150Y252907D01*
X59400Y247657D02*X60150Y248407D01*
X57900Y247657D02*X59400D01*
X57150Y248407D02*X57900Y247657D01*
Y250957D02*X59400D01*
X60150Y252907D02*Y251707D01*
Y250207D02*Y248407D01*
Y250207D02*X59400Y250957D01*
X60150Y251707D02*X59400Y250957D01*
X61950Y252907D02*X62700Y253657D01*
X64950D01*
X65700Y252907D01*
Y251407D01*
X61950Y247657D02*X65700Y251407D01*
X61950Y247657D02*X65700D01*
X36202Y85846D02*X38602Y83446D01*
X36202D02*X38602Y85846D01*
X35330Y95807D02*X37730Y93407D01*
X35330D02*X37730Y95807D01*
X34458Y105770D02*X36858Y103370D01*
X34458D02*X36858Y105770D01*
X33587Y115731D02*X35987Y113331D01*
X33587D02*X35987Y115731D01*
X32715Y125693D02*X35115Y123293D01*
X32715D02*X35115Y125693D01*
X31844Y135656D02*X34244Y133256D01*
X31844D02*X34244Y135656D01*
X30972Y145617D02*X33372Y143217D01*
X30972D02*X33372Y145617D01*
X30101Y155579D02*X32501Y153179D01*
X30101D02*X32501Y155579D01*
X201556Y85846D02*X203956Y83446D01*
X201556D02*X203956Y85846D01*
X202428Y95807D02*X204828Y93407D01*
X202428D02*X204828Y95807D01*
X203299Y105770D02*X205699Y103370D01*
X203299D02*X205699Y105770D01*
X204170Y115731D02*X206570Y113331D01*
X204170D02*X206570Y115731D01*
X205042Y125693D02*X207442Y123293D01*
X205042D02*X207442Y125693D01*
X205914Y135656D02*X208314Y133256D01*
X205914D02*X208314Y135656D01*
X206785Y145617D02*X209185Y143217D01*
X206785D02*X209185Y145617D01*
X207657Y155579D02*X210057Y153179D01*
X207657D02*X210057Y155579D01*
X13800Y267607D02*X16200Y265207D01*
X13800D02*X16200Y267607D01*
X135000Y268657D02*X136500Y265657D01*
X138000Y268657D01*
X136500Y265657D02*Y262657D01*
X139800Y265957D02*X142050D01*
X139800Y262657D02*X142800D01*
X139800Y268657D02*Y262657D01*
Y268657D02*X142800D01*
X147600D02*X148350Y267907D01*
X145350Y268657D02*X147600D01*
X144600Y267907D02*X145350Y268657D01*
X144600Y267907D02*Y266407D01*
X145350Y265657D01*
X147600D01*
X148350Y264907D01*
Y263407D01*
X147600Y262657D02*X148350Y263407D01*
X145350Y262657D02*X147600D01*
X144600Y263407D02*X145350Y262657D01*
X98000Y267457D02*X99200Y268657D01*
Y262657D01*
X98000D02*X100250D01*
X104300Y268657D02*X105050Y267907D01*
X102800Y268657D02*X104300D01*
X102050Y267907D02*X102800Y268657D01*
X102050Y267907D02*Y263407D01*
X102800Y262657D01*
X104300Y265957D02*X105050Y265207D01*
X102050Y265957D02*X104300D01*
X102800Y262657D02*X104300D01*
X105050Y263407D01*
Y265207D02*Y263407D01*
X45000D02*X45750Y262657D01*
X45000Y267907D02*Y263407D01*
Y267907D02*X45750Y268657D01*
X47250D01*
X48000Y267907D01*
Y263407D01*
X47250Y262657D02*X48000Y263407D01*
X45750Y262657D02*X47250D01*
X45000Y264157D02*X48000Y267157D01*
X49800Y262657D02*X50550D01*
X52350Y263407D02*X53100Y262657D01*
X52350Y267907D02*Y263407D01*
Y267907D02*X53100Y268657D01*
X54600D01*
X55350Y267907D01*
Y263407D01*
X54600Y262657D02*X55350Y263407D01*
X53100Y262657D02*X54600D01*
X52350Y264157D02*X55350Y267157D01*
X57150Y267907D02*X57900Y268657D01*
X60150D01*
X60900Y267907D01*
Y266407D01*
X57150Y262657D02*X60900Y266407D01*
X57150Y262657D02*X60900D01*
X62700Y263407D02*X63450Y262657D01*
X62700Y264607D02*Y263407D01*
Y264607D02*X63750Y265657D01*
X64650D01*
X65700Y264607D01*
Y263407D01*
X64950Y262657D02*X65700Y263407D01*
X63450Y262657D02*X64950D01*
X62700Y266707D02*X63750Y265657D01*
X62700Y267907D02*Y266707D01*
Y267907D02*X63450Y268657D01*
X64950D01*
X65700Y267907D01*
Y266707D01*
X64650Y265657D02*X65700Y266707D01*
X120079Y98844D02*Y95644D01*
X118479Y97244D02*X121679D01*
X188976Y144907D02*Y141707D01*
X187376Y143307D02*X190576D01*
X60630Y117348D02*Y114148D01*
X59030Y115748D02*X62230D01*
X15000Y283007D02*Y279807D01*
X13400Y281407D02*X16600D01*
X135000Y283657D02*X136500Y280657D01*
X138000Y283657D01*
X136500Y280657D02*Y277657D01*
X139800Y280957D02*X142050D01*
X139800Y277657D02*X142800D01*
X139800Y283657D02*Y277657D01*
Y283657D02*X142800D01*
X147600D02*X148350Y282907D01*
X145350Y283657D02*X147600D01*
X144600Y282907D02*X145350Y283657D01*
X144600Y282907D02*Y281407D01*
X145350Y280657D01*
X147600D01*
X148350Y279907D01*
Y278407D01*
X147600Y277657D02*X148350Y278407D01*
X145350Y277657D02*X147600D01*
X144600Y278407D02*X145350Y277657D01*
X98000Y282907D02*X98750Y283657D01*
X100250D01*
X101000Y282907D01*
X100250Y277657D02*X101000Y278407D01*
X98750Y277657D02*X100250D01*
X98000Y278407D02*X98750Y277657D01*
Y280957D02*X100250D01*
X101000Y282907D02*Y281707D01*
Y280207D02*Y278407D01*
Y280207D02*X100250Y280957D01*
X101000Y281707D02*X100250Y280957D01*
X45000Y278407D02*X45750Y277657D01*
X45000Y282907D02*Y278407D01*
Y282907D02*X45750Y283657D01*
X47250D01*
X48000Y282907D01*
Y278407D01*
X47250Y277657D02*X48000Y278407D01*
X45750Y277657D02*X47250D01*
X45000Y279157D02*X48000Y282157D01*
X49800Y277657D02*X50550D01*
X52350Y278407D02*X53100Y277657D01*
X52350Y282907D02*Y278407D01*
Y282907D02*X53100Y283657D01*
X54600D01*
X55350Y282907D01*
Y278407D01*
X54600Y277657D02*X55350Y278407D01*
X53100Y277657D02*X54600D01*
X52350Y279157D02*X55350Y282157D01*
X57150Y282457D02*X58350Y283657D01*
Y277657D01*
X57150D02*X59400D01*
X63450Y283657D02*X64200Y282907D01*
X61950Y283657D02*X63450D01*
X61200Y282907D02*X61950Y283657D01*
X61200Y282907D02*Y278407D01*
X61950Y277657D01*
X63450Y280957D02*X64200Y280207D01*
X61200Y280957D02*X63450D01*
X61950Y277657D02*X63450D01*
X64200Y278407D01*
Y280207D02*Y278407D01*
X191732Y103543D02*Y101943D01*
Y103543D02*X193119Y104343D01*
X191732Y103543D02*X190346Y104343D01*
X189567Y97244D02*Y95644D01*
Y97244D02*X190954Y98044D01*
X189567Y97244D02*X188180Y98044D01*
X188189Y104921D02*Y103321D01*
Y104921D02*X189576Y105721D01*
X188189Y104921D02*X186802Y105721D01*
X190157Y110827D02*Y109227D01*
Y110827D02*X191544Y111627D01*
X190157Y110827D02*X188771Y111627D01*
X180906Y121654D02*Y120054D01*
Y121654D02*X182292Y122454D01*
X180906Y121654D02*X179519Y122454D01*
X190157Y118307D02*Y116707D01*
Y118307D02*X191544Y119107D01*
X190157Y118307D02*X188771Y119107D01*
X189370Y114567D02*Y112967D01*
Y114567D02*X190757Y115367D01*
X189370Y114567D02*X187983Y115367D01*
X185630Y107677D02*Y106077D01*
Y107677D02*X187017Y108477D01*
X185630Y107677D02*X184243Y108477D01*
X160039Y89961D02*Y88361D01*
Y89961D02*X161426Y90761D01*
X160039Y89961D02*X158653Y90761D01*
X151575Y114961D02*Y113361D01*
Y114961D02*X152961Y115761D01*
X151575Y114961D02*X150188Y115761D01*
X155906Y120079D02*Y118479D01*
Y120079D02*X157292Y120879D01*
X155906Y120079D02*X154519Y120879D01*
X151969Y107874D02*Y106274D01*
Y107874D02*X153355Y108674D01*
X151969Y107874D02*X150582Y108674D01*
X166142Y122835D02*Y121235D01*
Y122835D02*X167528Y123635D01*
X166142Y122835D02*X164755Y123635D01*
X129528Y114961D02*Y113361D01*
Y114961D02*X130914Y115761D01*
X129528Y114961D02*X128141Y115761D01*
X133465Y120079D02*Y118479D01*
Y120079D02*X134851Y120879D01*
X133465Y120079D02*X132078Y120879D01*
X165551Y116339D02*Y114739D01*
Y116339D02*X166938Y117139D01*
X165551Y116339D02*X164165Y117139D01*
X173425Y116339D02*Y114739D01*
Y116339D02*X174812Y117139D01*
X173425Y116339D02*X172039Y117139D01*
X173425Y96457D02*Y94857D01*
Y96457D02*X174812Y97257D01*
X173425Y96457D02*X172039Y97257D01*
X165551Y101575D02*Y99975D01*
Y101575D02*X166938Y102375D01*
X165551Y101575D02*X164165Y102375D01*
X165551Y109055D02*Y107455D01*
Y109055D02*X166938Y109855D01*
X165551Y109055D02*X164165Y109855D01*
X173425Y109055D02*Y107455D01*
Y109055D02*X174812Y109855D01*
X173425Y109055D02*X172039Y109855D01*
X15000Y296407D02*Y294807D01*
Y296407D02*X16387Y297207D01*
X15000Y296407D02*X13613Y297207D01*
X135000Y298657D02*X136500Y295657D01*
X138000Y298657D01*
X136500Y295657D02*Y292657D01*
X139800Y295957D02*X142050D01*
X139800Y292657D02*X142800D01*
X139800Y298657D02*Y292657D01*
Y298657D02*X142800D01*
X147600D02*X148350Y297907D01*
X145350Y298657D02*X147600D01*
X144600Y297907D02*X145350Y298657D01*
X144600Y297907D02*Y296407D01*
X145350Y295657D01*
X147600D01*
X148350Y294907D01*
Y293407D01*
X147600Y292657D02*X148350Y293407D01*
X145350Y292657D02*X147600D01*
X144600Y293407D02*X145350Y292657D01*
X98000Y297907D02*X98750Y298657D01*
X101000D01*
X101750Y297907D01*
Y296407D01*
X98000Y292657D02*X101750Y296407D01*
X98000Y292657D02*X101750D01*
X103550Y297457D02*X104750Y298657D01*
Y292657D01*
X103550D02*X105800D01*
X45000Y293407D02*X45750Y292657D01*
X45000Y297907D02*Y293407D01*
Y297907D02*X45750Y298657D01*
X47250D01*
X48000Y297907D01*
Y293407D01*
X47250Y292657D02*X48000Y293407D01*
X45750Y292657D02*X47250D01*
X45000Y294157D02*X48000Y297157D01*
X49800Y292657D02*X50550D01*
X52350Y293407D02*X53100Y292657D01*
X52350Y297907D02*Y293407D01*
Y297907D02*X53100Y298657D01*
X54600D01*
X55350Y297907D01*
Y293407D01*
X54600Y292657D02*X55350Y293407D01*
X53100Y292657D02*X54600D01*
X52350Y294157D02*X55350Y297157D01*
X57150Y297457D02*X58350Y298657D01*
Y292657D01*
X57150D02*X59400D01*
X61200Y297907D02*X61950Y298657D01*
X64200D01*
X64950Y297907D01*
Y296407D01*
X61200Y292657D02*X64950Y296407D01*
X61200Y292657D02*X64950D01*
X3000Y313657D02*X3750Y312907D01*
X750Y313657D02*X3000D01*
X0Y312907D02*X750Y313657D01*
X0Y312907D02*Y311407D01*
X750Y310657D01*
X3000D01*
X3750Y309907D01*
Y308407D01*
X3000Y307657D02*X3750Y308407D01*
X750Y307657D02*X3000D01*
X0Y308407D02*X750Y307657D01*
X5550Y310657D02*Y308407D01*
X6300Y307657D01*
X8550Y310657D02*Y306157D01*
X7800Y305407D02*X8550Y306157D01*
X6300Y305407D02*X7800D01*
X5550Y306157D02*X6300Y305407D01*
Y307657D02*X7800D01*
X8550Y308407D01*
X11100Y309907D02*Y307657D01*
Y309907D02*X11850Y310657D01*
X12600D01*
X13350Y309907D01*
Y307657D01*
Y309907D02*X14100Y310657D01*
X14850D01*
X15600Y309907D01*
Y307657D01*
X10350Y310657D02*X11100Y309907D01*
X17400Y313657D02*Y307657D01*
Y308407D02*X18150Y307657D01*
X19650D01*
X20400Y308407D01*
Y309907D02*Y308407D01*
X19650Y310657D02*X20400Y309907D01*
X18150Y310657D02*X19650D01*
X17400Y309907D02*X18150Y310657D01*
X22200Y309907D02*Y308407D01*
Y309907D02*X22950Y310657D01*
X24450D01*
X25200Y309907D01*
Y308407D01*
X24450Y307657D02*X25200Y308407D01*
X22950Y307657D02*X24450D01*
X22200Y308407D02*X22950Y307657D01*
X27000Y313657D02*Y308407D01*
X27750Y307657D01*
X0Y304407D02*X29250D01*
X41750Y313657D02*Y307657D01*
X43700Y313657D02*X44750Y312607D01*
Y308707D01*
X43700Y307657D02*X44750Y308707D01*
X41000Y307657D02*X43700D01*
X41000Y313657D02*X43700D01*
G54D105*X46550Y312157D02*Y312007D01*
G54D104*Y309907D02*Y307657D01*
X50300Y310657D02*X51050Y309907D01*
X48800Y310657D02*X50300D01*
X48050Y309907D02*X48800Y310657D01*
X48050Y309907D02*Y308407D01*
X48800Y307657D01*
X51050Y310657D02*Y308407D01*
X51800Y307657D01*
X48800D02*X50300D01*
X51050Y308407D01*
X54350Y309907D02*Y307657D01*
Y309907D02*X55100Y310657D01*
X55850D01*
X56600Y309907D01*
Y307657D01*
Y309907D02*X57350Y310657D01*
X58100D01*
X58850Y309907D01*
Y307657D01*
X53600Y310657D02*X54350Y309907D01*
X60650Y307657D02*X61400D01*
X65900Y308407D02*X66650Y307657D01*
X65900Y312907D02*X66650Y313657D01*
X65900Y312907D02*Y308407D01*
X68450Y313657D02*X69950D01*
X69200D02*Y307657D01*
X68450D02*X69950D01*
X72500Y309907D02*Y307657D01*
Y309907D02*X73250Y310657D01*
X74000D01*
X74750Y309907D01*
Y307657D01*
X71750Y310657D02*X72500Y309907D01*
X77300Y310657D02*X79550D01*
X76550Y309907D02*X77300Y310657D01*
X76550Y309907D02*Y308407D01*
X77300Y307657D01*
X79550D01*
X81350Y313657D02*Y307657D01*
Y309907D02*X82100Y310657D01*
X83600D01*
X84350Y309907D01*
Y307657D01*
X86150Y313657D02*X86900Y312907D01*
Y308407D01*
X86150Y307657D02*X86900Y308407D01*
X41000Y304407D02*X88700D01*
X96050Y307657D02*X98000D01*
X95000Y308707D02*X96050Y307657D01*
X95000Y312607D02*Y308707D01*
Y312607D02*X96050Y313657D01*
X98000D01*
X99800Y309907D02*Y308407D01*
Y309907D02*X100550Y310657D01*
X102050D01*
X102800Y309907D01*
Y308407D01*
X102050Y307657D02*X102800Y308407D01*
X100550Y307657D02*X102050D01*
X99800Y308407D02*X100550Y307657D01*
X104600Y310657D02*Y308407D01*
X105350Y307657D01*
X106850D01*
X107600Y308407D01*
Y310657D02*Y308407D01*
X110150Y309907D02*Y307657D01*
Y309907D02*X110900Y310657D01*
X111650D01*
X112400Y309907D01*
Y307657D01*
X109400Y310657D02*X110150Y309907D01*
X114950Y313657D02*Y308407D01*
X115700Y307657D01*
X114200Y311407D02*X115700D01*
X95000Y304407D02*X117200D01*
X130750Y313657D02*Y307657D01*
X130000Y313657D02*X133000D01*
X133750Y312907D01*
Y311407D01*
X133000Y310657D02*X133750Y311407D01*
X130750Y310657D02*X133000D01*
X135550Y313657D02*Y308407D01*
X136300Y307657D01*
X140050Y310657D02*X140800Y309907D01*
X138550Y310657D02*X140050D01*
X137800Y309907D02*X138550Y310657D01*
X137800Y309907D02*Y308407D01*
X138550Y307657D01*
X140800Y310657D02*Y308407D01*
X141550Y307657D01*
X138550D02*X140050D01*
X140800Y308407D01*
X144100Y313657D02*Y308407D01*
X144850Y307657D01*
X143350Y311407D02*X144850D01*
X147100Y307657D02*X149350D01*
X146350Y308407D02*X147100Y307657D01*
X146350Y309907D02*Y308407D01*
Y309907D02*X147100Y310657D01*
X148600D01*
X149350Y309907D01*
X146350Y309157D02*X149350D01*
Y309907D02*Y309157D01*
X154150Y313657D02*Y307657D01*
X153400D02*X154150Y308407D01*
X151900Y307657D02*X153400D01*
X151150Y308407D02*X151900Y307657D01*
X151150Y309907D02*Y308407D01*
Y309907D02*X151900Y310657D01*
X153400D01*
X154150Y309907D01*
X157450Y310657D02*Y309907D01*
Y308407D02*Y307657D01*
X155950Y312907D02*Y312157D01*
Y312907D02*X156700Y313657D01*
X158200D01*
X158950Y312907D01*
Y312157D01*
X157450Y310657D02*X158950Y312157D01*
X130000Y304407D02*X160750D01*
X0Y328657D02*X3000D01*
X1500D02*Y322657D01*
X4800Y328657D02*Y322657D01*
Y324907D02*X5550Y325657D01*
X7050D01*
X7800Y324907D01*
Y322657D01*
X10350D02*X12600D01*
X9600Y323407D02*X10350Y322657D01*
X9600Y324907D02*Y323407D01*
Y324907D02*X10350Y325657D01*
X11850D01*
X12600Y324907D01*
X9600Y324157D02*X12600D01*
Y324907D02*Y324157D01*
X15150Y324907D02*Y322657D01*
Y324907D02*X15900Y325657D01*
X17400D01*
X14400D02*X15150Y324907D01*
X19950Y322657D02*X22200D01*
X19200Y323407D02*X19950Y322657D01*
X19200Y324907D02*Y323407D01*
Y324907D02*X19950Y325657D01*
X21450D01*
X22200Y324907D01*
X19200Y324157D02*X22200D01*
Y324907D02*Y324157D01*
X28950Y325657D02*X29700Y324907D01*
X27450Y325657D02*X28950D01*
X26700Y324907D02*X27450Y325657D01*
X26700Y324907D02*Y323407D01*
X27450Y322657D01*
X29700Y325657D02*Y323407D01*
X30450Y322657D01*
X27450D02*X28950D01*
X29700Y323407D01*
X33000Y324907D02*Y322657D01*
Y324907D02*X33750Y325657D01*
X35250D01*
X32250D02*X33000Y324907D01*
X37800Y322657D02*X40050D01*
X37050Y323407D02*X37800Y322657D01*
X37050Y324907D02*Y323407D01*
Y324907D02*X37800Y325657D01*
X39300D01*
X40050Y324907D01*
X37050Y324157D02*X40050D01*
Y324907D02*Y324157D01*
X44550Y324907D02*X47550Y328657D01*
X44550Y324907D02*X48300D01*
X47550Y328657D02*Y322657D01*
X55800Y328657D02*Y322657D01*
X55050D02*X55800Y323407D01*
X53550Y322657D02*X55050D01*
X52800Y323407D02*X53550Y322657D01*
X52800Y324907D02*Y323407D01*
Y324907D02*X53550Y325657D01*
X55050D01*
X55800Y324907D01*
G54D105*X57600Y327157D02*Y327007D01*
G54D104*Y324907D02*Y322657D01*
X59850Y327907D02*Y322657D01*
Y327907D02*X60600Y328657D01*
X61350D01*
X59100Y325657D02*X60600D01*
X63600Y327907D02*Y322657D01*
Y327907D02*X64350Y328657D01*
X65100D01*
X62850Y325657D02*X64350D01*
X67350Y322657D02*X69600D01*
X66600Y323407D02*X67350Y322657D01*
X66600Y324907D02*Y323407D01*
Y324907D02*X67350Y325657D01*
X68850D01*
X69600Y324907D01*
X66600Y324157D02*X69600D01*
Y324907D02*Y324157D01*
X72150Y324907D02*Y322657D01*
Y324907D02*X72900Y325657D01*
X74400D01*
X71400D02*X72150Y324907D01*
X76950Y322657D02*X79200D01*
X76200Y323407D02*X76950Y322657D01*
X76200Y324907D02*Y323407D01*
Y324907D02*X76950Y325657D01*
X78450D01*
X79200Y324907D01*
X76200Y324157D02*X79200D01*
Y324907D02*Y324157D01*
X81750Y324907D02*Y322657D01*
Y324907D02*X82500Y325657D01*
X83250D01*
X84000Y324907D01*
Y322657D01*
X81000Y325657D02*X81750Y324907D01*
X86550Y328657D02*Y323407D01*
X87300Y322657D01*
X85800Y326407D02*X87300D01*
X94500Y328657D02*Y322657D01*
X93750D02*X94500Y323407D01*
X92250Y322657D02*X93750D01*
X91500Y323407D02*X92250Y322657D01*
X91500Y324907D02*Y323407D01*
Y324907D02*X92250Y325657D01*
X93750D01*
X94500Y324907D01*
X97050D02*Y322657D01*
Y324907D02*X97800Y325657D01*
X99300D01*
X96300D02*X97050Y324907D01*
G54D105*X101100Y327157D02*Y327007D01*
G54D104*Y324907D02*Y322657D01*
X102600Y328657D02*Y323407D01*
X103350Y322657D01*
X104850Y328657D02*Y323407D01*
X105600Y322657D01*
X110550D02*X112800D01*
X113550Y323407D01*
X112800Y324157D02*X113550Y323407D01*
X110550Y324157D02*X112800D01*
X109800Y324907D02*X110550Y324157D01*
X109800Y324907D02*X110550Y325657D01*
X112800D01*
X113550Y324907D01*
X109800Y323407D02*X110550Y322657D01*
G54D105*X115350Y327157D02*Y327007D01*
G54D104*Y324907D02*Y322657D01*
X116850Y325657D02*X119850D01*
X116850Y322657D02*X119850Y325657D01*
X116850Y322657D02*X119850D01*
X122400D02*X124650D01*
X121650Y323407D02*X122400Y322657D01*
X121650Y324907D02*Y323407D01*
Y324907D02*X122400Y325657D01*
X123900D01*
X124650Y324907D01*
X121650Y324157D02*X124650D01*
Y324907D02*Y324157D01*
X127200Y322657D02*X129450D01*
X130200Y323407D01*
X129450Y324157D02*X130200Y323407D01*
X127200Y324157D02*X129450D01*
X126450Y324907D02*X127200Y324157D01*
X126450Y324907D02*X127200Y325657D01*
X129450D01*
X130200Y324907D01*
X126450Y323407D02*X127200Y322657D01*
X134700Y325657D02*Y323407D01*
X135450Y322657D01*
X136950D01*
X137700Y323407D01*
Y325657D02*Y323407D01*
X140250Y322657D02*X142500D01*
X143250Y323407D01*
X142500Y324157D02*X143250Y323407D01*
X140250Y324157D02*X142500D01*
X139500Y324907D02*X140250Y324157D01*
X139500Y324907D02*X140250Y325657D01*
X142500D01*
X143250Y324907D01*
X139500Y323407D02*X140250Y322657D01*
X145800D02*X148050D01*
X145050Y323407D02*X145800Y322657D01*
X145050Y324907D02*Y323407D01*
Y324907D02*X145800Y325657D01*
X147300D01*
X148050Y324907D01*
X145050Y324157D02*X148050D01*
Y324907D02*Y324157D01*
X152850Y328657D02*Y322657D01*
X152100D02*X152850Y323407D01*
X150600Y322657D02*X152100D01*
X149850Y323407D02*X150600Y322657D01*
X149850Y324907D02*Y323407D01*
Y324907D02*X150600Y325657D01*
X152100D01*
X152850Y324907D01*
G54D105*X157350Y327157D02*Y327007D01*
G54D104*Y324907D02*Y322657D01*
X159600Y324907D02*Y322657D01*
Y324907D02*X160350Y325657D01*
X161100D01*
X161850Y324907D01*
Y322657D01*
X158850Y325657D02*X159600Y324907D01*
X167100Y328657D02*Y323407D01*
X167850Y322657D01*
X166350Y326407D02*X167850D01*
X169350Y328657D02*Y322657D01*
Y324907D02*X170100Y325657D01*
X171600D01*
X172350Y324907D01*
Y322657D01*
G54D105*X174150Y327157D02*Y327007D01*
G54D104*Y324907D02*Y322657D01*
X176400D02*X178650D01*
X179400Y323407D01*
X178650Y324157D02*X179400Y323407D01*
X176400Y324157D02*X178650D01*
X175650Y324907D02*X176400Y324157D01*
X175650Y324907D02*X176400Y325657D01*
X178650D01*
X179400Y324907D01*
X175650Y323407D02*X176400Y322657D01*
X183900Y328657D02*Y323407D01*
X184650Y322657D01*
X188400Y325657D02*X189150Y324907D01*
X186900Y325657D02*X188400D01*
X186150Y324907D02*X186900Y325657D01*
X186150Y324907D02*Y323407D01*
X186900Y322657D01*
X189150Y325657D02*Y323407D01*
X189900Y322657D01*
X186900D02*X188400D01*
X189150Y323407D01*
X191700Y325657D02*Y323407D01*
X192450Y322657D01*
X194700Y325657D02*Y321157D01*
X193950Y320407D02*X194700Y321157D01*
X192450Y320407D02*X193950D01*
X191700Y321157D02*X192450Y320407D01*
Y322657D02*X193950D01*
X194700Y323407D01*
X196500Y324907D02*Y323407D01*
Y324907D02*X197250Y325657D01*
X198750D01*
X199500Y324907D01*
Y323407D01*
X198750Y322657D02*X199500Y323407D01*
X197250Y322657D02*X198750D01*
X196500Y323407D02*X197250Y322657D01*
X201300Y325657D02*Y323407D01*
X202050Y322657D01*
X203550D01*
X204300Y323407D01*
Y325657D02*Y323407D01*
X206850Y328657D02*Y323407D01*
X207600Y322657D01*
X206100Y326407D02*X207600D01*
X209100Y321157D02*X210600Y322657D01*
X215100Y324907D02*X218100Y328657D01*
X215100Y324907D02*X218850D01*
X218100Y328657D02*Y322657D01*
X220650Y323407D02*X221400Y322657D01*
X220650Y324607D02*Y323407D01*
Y324607D02*X221700Y325657D01*
X222600D01*
X223650Y324607D01*
Y323407D01*
X222900Y322657D02*X223650Y323407D01*
X221400Y322657D02*X222900D01*
X220650Y326707D02*X221700Y325657D01*
X220650Y327907D02*Y326707D01*
Y327907D02*X221400Y328657D01*
X222900D01*
X223650Y327907D01*
Y326707D01*
X222600Y325657D02*X223650Y326707D01*
X228150Y328657D02*Y322657D01*
Y324907D02*X228900Y325657D01*
X230400D01*
X231150Y324907D01*
Y322657D01*
X232950Y324907D02*Y323407D01*
Y324907D02*X233700Y325657D01*
X235200D01*
X235950Y324907D01*
Y323407D01*
X235200Y322657D02*X235950Y323407D01*
X233700Y322657D02*X235200D01*
X232950Y323407D02*X233700Y322657D01*
X237750Y328657D02*Y323407D01*
X238500Y322657D01*
X240750D02*X243000D01*
X240000Y323407D02*X240750Y322657D01*
X240000Y324907D02*Y323407D01*
Y324907D02*X240750Y325657D01*
X242250D01*
X243000Y324907D01*
X240000Y324157D02*X243000D01*
Y324907D02*Y324157D01*
X245550Y322657D02*X247800D01*
X248550Y323407D01*
X247800Y324157D02*X248550Y323407D01*
X245550Y324157D02*X247800D01*
X244800Y324907D02*X245550Y324157D01*
X244800Y324907D02*X245550Y325657D01*
X247800D01*
X248550Y324907D01*
X244800Y323407D02*X245550Y322657D01*
X253800Y328657D02*Y323407D01*
X254550Y322657D01*
X253050Y326407D02*X254550D01*
X256050Y324907D02*Y323407D01*
Y324907D02*X256800Y325657D01*
X258300D01*
X259050Y324907D01*
Y323407D01*
X258300Y322657D02*X259050Y323407D01*
X256800Y322657D02*X258300D01*
X256050Y323407D02*X256800Y322657D01*
X261600Y328657D02*Y323407D01*
X262350Y322657D01*
X260850Y326407D02*X262350D01*
X266100Y325657D02*X266850Y324907D01*
X264600Y325657D02*X266100D01*
X263850Y324907D02*X264600Y325657D01*
X263850Y324907D02*Y323407D01*
X264600Y322657D01*
X266850Y325657D02*Y323407D01*
X267600Y322657D01*
X264600D02*X266100D01*
X266850Y323407D01*
X269400Y328657D02*Y323407D01*
X270150Y322657D01*
G54D106*X177559Y35433D02*X62598D01*
X17717Y120079D02*G75*G02X120079Y222441I102362J0D01*G01*
G75*G02X222441Y120079I0J-102362D01*G01*
Y120079D02*G75*G02X177319Y35217I-102362J0D01*G01*
X62839Y35217D02*G75*G02X17717Y120079I57240J84862D01*G01*
G54D104*X33754Y-9500D02*X36754D01*
X37504Y-8750D01*
Y-6950D02*Y-8750D01*
X36754Y-6200D02*X37504Y-6950D01*
X34504Y-6200D02*X36754D01*
X34504Y-3500D02*Y-9500D01*
X33754Y-3500D02*X36754D01*
X37504Y-4250D01*
Y-5450D01*
X36754Y-6200D02*X37504Y-5450D01*
X39304Y-7250D02*Y-8750D01*
Y-7250D02*X40054Y-6500D01*
X41554D01*
X42304Y-7250D01*
Y-8750D01*
X41554Y-9500D02*X42304Y-8750D01*
X40054Y-9500D02*X41554D01*
X39304Y-8750D02*X40054Y-9500D01*
X46354Y-6500D02*X47104Y-7250D01*
X44854Y-6500D02*X46354D01*
X44104Y-7250D02*X44854Y-6500D01*
X44104Y-7250D02*Y-8750D01*
X44854Y-9500D01*
X47104Y-6500D02*Y-8750D01*
X47854Y-9500D01*
X44854D02*X46354D01*
X47104Y-8750D01*
X50404Y-7250D02*Y-9500D01*
Y-7250D02*X51154Y-6500D01*
X52654D01*
X49654D02*X50404Y-7250D01*
X57454Y-3500D02*Y-9500D01*
X56704D02*X57454Y-8750D01*
X55204Y-9500D02*X56704D01*
X54454Y-8750D02*X55204Y-9500D01*
X54454Y-7250D02*Y-8750D01*
Y-7250D02*X55204Y-6500D01*
X56704D01*
X57454Y-7250D01*
X61954D02*Y-8750D01*
Y-7250D02*X62704Y-6500D01*
X64204D01*
X64954Y-7250D01*
Y-8750D01*
X64204Y-9500D02*X64954Y-8750D01*
X62704Y-9500D02*X64204D01*
X61954Y-8750D02*X62704Y-9500D01*
X66754Y-6500D02*Y-8750D01*
X67504Y-9500D01*
X69004D01*
X69754Y-8750D01*
Y-6500D02*Y-8750D01*
X72304Y-3500D02*Y-8750D01*
X73054Y-9500D01*
X71554Y-5750D02*X73054D01*
X74554Y-3500D02*Y-8750D01*
X75304Y-9500D01*
G54D105*X76804Y-5000D02*Y-5150D01*
G54D104*Y-7250D02*Y-9500D01*
X79054Y-7250D02*Y-9500D01*
Y-7250D02*X79804Y-6500D01*
X80554D01*
X81304Y-7250D01*
Y-9500D01*
X78304Y-6500D02*X79054Y-7250D01*
X83854Y-9500D02*X86104D01*
X83104Y-8750D02*X83854Y-9500D01*
X83104Y-7250D02*Y-8750D01*
Y-7250D02*X83854Y-6500D01*
X85354D01*
X86104Y-7250D01*
X83104Y-8000D02*X86104D01*
Y-7250D02*Y-8000D01*
G54D105*X90604Y-5000D02*Y-5150D01*
G54D104*Y-7250D02*Y-9500D01*
X92854D02*X95104D01*
X95854Y-8750D01*
X95104Y-8000D02*X95854Y-8750D01*
X92854Y-8000D02*X95104D01*
X92104Y-7250D02*X92854Y-8000D01*
X92104Y-7250D02*X92854Y-6500D01*
X95104D01*
X95854Y-7250D01*
X92104Y-8750D02*X92854Y-9500D01*
X101104Y-3500D02*Y-8750D01*
X101854Y-9500D01*
X100354Y-5750D02*X101854D01*
X103354Y-3500D02*Y-9500D01*
Y-7250D02*X104104Y-6500D01*
X105604D01*
X106354Y-7250D01*
Y-9500D01*
X108904D02*X111154D01*
X108154Y-8750D02*X108904Y-9500D01*
X108154Y-7250D02*Y-8750D01*
Y-7250D02*X108904Y-6500D01*
X110404D01*
X111154Y-7250D01*
X108154Y-8000D02*X111154D01*
Y-7250D02*Y-8000D01*
X116404Y-6500D02*X118654D01*
X115654Y-7250D02*X116404Y-6500D01*
X115654Y-7250D02*Y-8750D01*
X116404Y-9500D01*
X118654D01*
X121204D02*X123454D01*
X120454Y-8750D02*X121204Y-9500D01*
X120454Y-7250D02*Y-8750D01*
Y-7250D02*X121204Y-6500D01*
X122704D01*
X123454Y-7250D01*
X120454Y-8000D02*X123454D01*
Y-7250D02*Y-8000D01*
X126004Y-7250D02*Y-9500D01*
Y-7250D02*X126754Y-6500D01*
X127504D01*
X128254Y-7250D01*
Y-9500D01*
X125254Y-6500D02*X126004Y-7250D01*
X130804Y-3500D02*Y-8750D01*
X131554Y-9500D01*
X130054Y-5750D02*X131554D01*
X133804Y-9500D02*X136054D01*
X133054Y-8750D02*X133804Y-9500D01*
X133054Y-7250D02*Y-8750D01*
Y-7250D02*X133804Y-6500D01*
X135304D01*
X136054Y-7250D01*
X133054Y-8000D02*X136054D01*
Y-7250D02*Y-8000D01*
X138604Y-7250D02*Y-9500D01*
Y-7250D02*X139354Y-6500D01*
X140854D01*
X137854D02*X138604Y-7250D01*
X142654Y-3500D02*Y-8750D01*
X143404Y-9500D01*
G54D105*X144904Y-5000D02*Y-5150D01*
G54D104*Y-7250D02*Y-9500D01*
X147154Y-7250D02*Y-9500D01*
Y-7250D02*X147904Y-6500D01*
X148654D01*
X149404Y-7250D01*
Y-9500D01*
X146404Y-6500D02*X147154Y-7250D01*
X151954Y-9500D02*X154204D01*
X151204Y-8750D02*X151954Y-9500D01*
X151204Y-7250D02*Y-8750D01*
Y-7250D02*X151954Y-6500D01*
X153454D01*
X154204Y-7250D01*
X151204Y-8000D02*X154204D01*
Y-7250D02*Y-8000D01*
X158704Y-7250D02*Y-8750D01*
Y-7250D02*X159454Y-6500D01*
X160954D01*
X161704Y-7250D01*
Y-8750D01*
X160954Y-9500D02*X161704Y-8750D01*
X159454Y-9500D02*X160954D01*
X158704Y-8750D02*X159454Y-9500D01*
X164254Y-4250D02*Y-9500D01*
Y-4250D02*X165004Y-3500D01*
X165754D01*
X163504Y-6500D02*X165004D01*
X170704Y-3500D02*Y-8750D01*
X171454Y-9500D01*
X169954Y-5750D02*X171454D01*
X172954Y-3500D02*Y-9500D01*
Y-7250D02*X173704Y-6500D01*
X175204D01*
X175954Y-7250D01*
Y-9500D01*
G54D105*X177754Y-5000D02*Y-5150D01*
G54D104*Y-7250D02*Y-9500D01*
X180004D02*X182254D01*
X183004Y-8750D01*
X182254Y-8000D02*X183004Y-8750D01*
X180004Y-8000D02*X182254D01*
X179254Y-7250D02*X180004Y-8000D01*
X179254Y-7250D02*X180004Y-6500D01*
X182254D01*
X183004Y-7250D01*
X179254Y-8750D02*X180004Y-9500D01*
X188254Y-7250D02*Y-11750D01*
X187504Y-6500D02*X188254Y-7250D01*
X189004Y-6500D01*
X190504D01*
X191254Y-7250D01*
Y-8750D01*
X190504Y-9500D02*X191254Y-8750D01*
X189004Y-9500D02*X190504D01*
X188254Y-8750D02*X189004Y-9500D01*
X195304Y-6500D02*X196054Y-7250D01*
X193804Y-6500D02*X195304D01*
X193054Y-7250D02*X193804Y-6500D01*
X193054Y-7250D02*Y-8750D01*
X193804Y-9500D01*
X196054Y-6500D02*Y-8750D01*
X196804Y-9500D01*
X193804D02*X195304D01*
X196054Y-8750D01*
X199354Y-3500D02*Y-8750D01*
X200104Y-9500D01*
X198604Y-5750D02*X200104D01*
X201604Y-3500D02*Y-9500D01*
Y-7250D02*X202354Y-6500D01*
X203854D01*
X204604Y-7250D01*
Y-9500D01*
X200750Y268657D02*Y262657D01*
X202700Y268657D02*X203750Y267607D01*
Y263707D01*
X202700Y262657D02*X203750Y263707D01*
X200000Y262657D02*X202700D01*
X200000Y268657D02*X202700D01*
X207800Y265657D02*X208550Y264907D01*
X206300Y265657D02*X207800D01*
X205550Y264907D02*X206300Y265657D01*
X205550Y264907D02*Y263407D01*
X206300Y262657D01*
X208550Y265657D02*Y263407D01*
X209300Y262657D01*
X206300D02*X207800D01*
X208550Y263407D01*
X211850Y268657D02*Y263407D01*
X212600Y262657D01*
X211100Y266407D02*X212600D01*
X214850Y262657D02*X217100D01*
X214100Y263407D02*X214850Y262657D01*
X214100Y264907D02*Y263407D01*
Y264907D02*X214850Y265657D01*
X216350D01*
X217100Y264907D01*
X214100Y264157D02*X217100D01*
Y264907D02*Y264157D01*
X218900Y266407D02*X219650D01*
X218900Y264907D02*X219650D01*
X224900Y268657D02*Y263407D01*
X225650Y262657D01*
X224150Y266407D02*X225650D01*
X227150Y264907D02*Y263407D01*
Y264907D02*X227900Y265657D01*
X229400D01*
X230150Y264907D01*
Y263407D01*
X229400Y262657D02*X230150Y263407D01*
X227900Y262657D02*X229400D01*
X227150Y263407D02*X227900Y262657D01*
X232700Y264907D02*Y262657D01*
Y264907D02*X233450Y265657D01*
X234950D01*
X231950D02*X232700Y264907D01*
X239450Y267457D02*X240650Y268657D01*
Y262657D01*
X239450D02*X241700D01*
X243500Y267457D02*X244700Y268657D01*
Y262657D01*
X243500D02*X245750D01*
G54D105*X251000Y267157D02*Y267007D01*
G54D104*Y264907D02*Y261157D01*
X250250Y260407D02*X251000Y261157D01*
X252500Y265657D02*Y263407D01*
X253250Y262657D01*
X254750D01*
X255500Y263407D01*
Y265657D02*Y263407D01*
X258050Y264907D02*Y262657D01*
Y264907D02*X258800Y265657D01*
X259550D01*
X260300Y264907D01*
Y262657D01*
X257300Y265657D02*X258050Y264907D01*
X264800Y267907D02*X265550Y268657D01*
X267800D01*
X268550Y267907D01*
Y266407D01*
X264800Y262657D02*X268550Y266407D01*
X264800Y262657D02*X268550D01*
X270350Y263407D02*X271100Y262657D01*
X270350Y267907D02*Y263407D01*
Y267907D02*X271100Y268657D01*
X272600D01*
X273350Y267907D01*
Y263407D01*
X272600Y262657D02*X273350Y263407D01*
X271100Y262657D02*X272600D01*
X270350Y264157D02*X273350Y267157D01*
X275150Y267457D02*X276350Y268657D01*
Y262657D01*
X275150D02*X277400D01*
X279200Y268657D02*X282200D01*
X279200D02*Y265657D01*
X279950Y266407D01*
X281450D01*
X282200Y265657D01*
Y263407D01*
X281450Y262657D02*X282200Y263407D01*
X279950Y262657D02*X281450D01*
X279200Y263407D02*X279950Y262657D01*
X286700Y263407D02*X287450Y262657D01*
X286700Y267907D02*Y263407D01*
Y267907D02*X287450Y268657D01*
X288950D01*
X289700Y267907D01*
Y263407D01*
X288950Y262657D02*X289700Y263407D01*
X287450Y262657D02*X288950D01*
X286700Y264157D02*X289700Y267157D01*
X292250Y262657D02*X294500Y265657D01*
Y267907D02*Y265657D01*
X293750Y268657D02*X294500Y267907D01*
X292250Y268657D02*X293750D01*
X291500Y267907D02*X292250Y268657D01*
X291500Y267907D02*Y266407D01*
X292250Y265657D01*
X294500D01*
X296300Y266407D02*X297050D01*
X296300Y264907D02*X297050D01*
X298850Y263407D02*X299600Y262657D01*
X298850Y267907D02*Y263407D01*
Y267907D02*X299600Y268657D01*
X301100D01*
X301850Y267907D01*
Y263407D01*
X301100Y262657D02*X301850Y263407D01*
X299600Y262657D02*X301100D01*
X298850Y264157D02*X301850Y267157D01*
X303650Y267457D02*X304850Y268657D01*
Y262657D01*
X303650D02*X305900D01*
X307700Y266407D02*X308450D01*
X307700Y264907D02*X308450D01*
X310250D02*X313250Y268657D01*
X310250Y264907D02*X314000D01*
X313250Y268657D02*Y262657D01*
X316550D02*X319550Y268657D01*
X315800D02*X319550D01*
X324050D02*Y263407D01*
X324800Y262657D01*
X326300D01*
X327050Y263407D01*
Y268657D02*Y263407D01*
X328850Y268657D02*X331850D01*
X330350D02*Y262657D01*
X334700D02*X336650D01*
X333650Y263707D02*X334700Y262657D01*
X333650Y267607D02*Y263707D01*
Y267607D02*X334700Y268657D01*
X336650D01*
X200000Y282157D02*Y277657D01*
Y282157D02*X201050Y283657D01*
X202700D01*
X203750Y282157D01*
Y277657D01*
X200000Y280657D02*X203750D01*
X205550D02*Y278407D01*
X206300Y277657D01*
X207800D01*
X208550Y278407D01*
Y280657D02*Y278407D01*
X211100Y283657D02*Y278407D01*
X211850Y277657D01*
X210350Y281407D02*X211850D01*
X213350Y283657D02*Y277657D01*
Y279907D02*X214100Y280657D01*
X215600D01*
X216350Y279907D01*
Y277657D01*
X218150Y279907D02*Y278407D01*
Y279907D02*X218900Y280657D01*
X220400D01*
X221150Y279907D01*
Y278407D01*
X220400Y277657D02*X221150Y278407D01*
X218900Y277657D02*X220400D01*
X218150Y278407D02*X218900Y277657D01*
X223700Y279907D02*Y277657D01*
Y279907D02*X224450Y280657D01*
X225950D01*
X222950D02*X223700Y279907D01*
X227750Y281407D02*X228500D01*
X227750Y279907D02*X228500D01*
X234050Y283657D02*X235250D01*
Y278407D01*
X234500Y277657D02*X235250Y278407D01*
X233750Y277657D02*X234500D01*
X233000Y278407D02*X233750Y277657D01*
X233000Y279157D02*Y278407D01*
X237050Y279907D02*Y278407D01*
Y279907D02*X237800Y280657D01*
X239300D01*
X240050Y279907D01*
Y278407D01*
X239300Y277657D02*X240050Y278407D01*
X237800Y277657D02*X239300D01*
X237050Y278407D02*X237800Y277657D01*
X242600Y279907D02*Y277657D01*
Y279907D02*X243350Y280657D01*
X244100D01*
X244850Y279907D01*
Y277657D01*
X241850Y280657D02*X242600Y279907D01*
X248900Y280657D02*X249650Y279907D01*
X247400Y280657D02*X248900D01*
X246650Y279907D02*X247400Y280657D01*
X246650Y279907D02*Y278407D01*
X247400Y277657D01*
X249650Y280657D02*Y278407D01*
X250400Y277657D01*
X247400D02*X248900D01*
X249650Y278407D01*
X252950Y283657D02*Y278407D01*
X253700Y277657D01*
X252200Y281407D02*X253700D01*
X257450Y280657D02*X258200Y279907D01*
X255950Y280657D02*X257450D01*
X255200Y279907D02*X255950Y280657D01*
X255200Y279907D02*Y278407D01*
X255950Y277657D01*
X258200Y280657D02*Y278407D01*
X258950Y277657D01*
X255950D02*X257450D01*
X258200Y278407D01*
X261500Y279907D02*Y277657D01*
Y279907D02*X262250Y280657D01*
X263000D01*
X263750Y279907D01*
Y277657D01*
X260750Y280657D02*X261500Y279907D01*
X268250Y282157D02*Y277657D01*
Y282157D02*X269300Y283657D01*
X270950D01*
X272000Y282157D01*
Y277657D01*
X268250Y280657D02*X272000D01*
X273800Y283657D02*Y277657D01*
Y279907D02*X276050Y277657D01*
X273800Y279907D02*X275300Y281407D01*
X278600Y277657D02*X280850D01*
X277850Y278407D02*X278600Y277657D01*
X277850Y279907D02*Y278407D01*
Y279907D02*X278600Y280657D01*
X280100D01*
X280850Y279907D01*
X277850Y279157D02*X280850D01*
Y279907D02*Y279157D01*
X283400Y279907D02*Y277657D01*
Y279907D02*X284150Y280657D01*
X285650D01*
X282650D02*X283400Y279907D01*
X287450Y283657D02*Y278407D01*
X288200Y277657D01*
G54D105*X289700Y282157D02*Y282007D01*
G54D104*Y279907D02*Y277657D01*
X291950Y279907D02*Y277657D01*
Y279907D02*X292700Y280657D01*
X293450D01*
X294200Y279907D01*
Y277657D01*
X291200Y280657D02*X291950Y279907D01*
X299000Y283657D02*Y277657D01*
X298250D02*X299000Y278407D01*
X296750Y277657D02*X298250D01*
X296000Y278407D02*X296750Y277657D01*
X296000Y279907D02*Y278407D01*
Y279907D02*X296750Y280657D01*
X298250D01*
X299000Y279907D01*
X200000Y298657D02*X203000D01*
X201500D02*Y292657D01*
G54D105*X204800Y297157D02*Y297007D01*
G54D104*Y294907D02*Y292657D01*
X207050Y298657D02*Y293407D01*
X207800Y292657D01*
X206300Y296407D02*X207800D01*
X209300Y298657D02*Y293407D01*
X210050Y292657D01*
X212300D02*X214550D01*
X211550Y293407D02*X212300Y292657D01*
X211550Y294907D02*Y293407D01*
Y294907D02*X212300Y295657D01*
X213800D01*
X214550Y294907D01*
X211550Y294157D02*X214550D01*
Y294907D02*Y294157D01*
X216350Y296407D02*X217100D01*
X216350Y294907D02*X217100D01*
X222350D02*Y292657D01*
Y294907D02*X223100Y295657D01*
X224600D01*
X221600D02*X222350Y294907D01*
X226400D02*Y293407D01*
Y294907D02*X227150Y295657D01*
X228650D01*
X229400Y294907D01*
Y293407D01*
X228650Y292657D02*X229400Y293407D01*
X227150Y292657D02*X228650D01*
X226400Y293407D02*X227150Y292657D01*
X231200Y294907D02*Y293407D01*
Y294907D02*X231950Y295657D01*
X233450D01*
X234200Y294907D01*
Y293407D01*
X233450Y292657D02*X234200Y293407D01*
X231950Y292657D02*X233450D01*
X231200Y293407D02*X231950Y292657D01*
X236750Y294907D02*Y292657D01*
Y294907D02*X237500Y295657D01*
X238250D01*
X239000Y294907D01*
Y292657D01*
Y294907D02*X239750Y295657D01*
X240500D01*
X241250Y294907D01*
Y292657D01*
X236000Y295657D02*X236750Y294907D01*
X243050Y295657D02*Y293407D01*
X243800Y292657D01*
X245300D01*
X246050Y293407D01*
Y295657D02*Y293407D01*
X248600Y294907D02*Y292657D01*
Y294907D02*X249350Y295657D01*
X250100D01*
X250850Y294907D01*
Y292657D01*
X247850Y295657D02*X248600Y294907D01*
G54D105*X252650Y297157D02*Y297007D01*
G54D104*Y294907D02*Y292657D01*
X254900Y298657D02*Y293407D01*
X255650Y292657D01*
X254150Y296407D02*X255650D01*
X257150Y295657D02*X260150D01*
X262700Y294907D02*Y290407D01*
X261950Y295657D02*X262700Y294907D01*
X263450Y295657D01*
X264950D01*
X265700Y294907D01*
Y293407D01*
X264950Y292657D02*X265700Y293407D01*
X263450Y292657D02*X264950D01*
X262700Y293407D02*X263450Y292657D01*
X268250D02*X270500D01*
X271250Y293407D01*
X270500Y294157D02*X271250Y293407D01*
X268250Y294157D02*X270500D01*
X267500Y294907D02*X268250Y294157D01*
X267500Y294907D02*X268250Y295657D01*
X270500D01*
X271250Y294907D01*
X267500Y293407D02*X268250Y292657D01*
X273050Y295657D02*Y293407D01*
X273800Y292657D01*
X275300D01*
X276050Y293407D01*
Y295657D02*Y293407D01*
X280550Y295657D02*X283550D01*
X288050Y298657D02*Y292657D01*
Y298657D02*X291050D01*
X288050Y295957D02*X290300D01*
X295100Y295657D02*X295850Y294907D01*
X293600Y295657D02*X295100D01*
X292850Y294907D02*X293600Y295657D01*
X292850Y294907D02*Y293407D01*
X293600Y292657D01*
X295850Y295657D02*Y293407D01*
X296600Y292657D01*
X293600D02*X295100D01*
X295850Y293407D01*
X298400Y298657D02*Y292657D01*
Y293407D02*X299150Y292657D01*
X300650D01*
X301400Y293407D01*
Y294907D02*Y293407D01*
X300650Y295657D02*X301400Y294907D01*
X299150Y295657D02*X300650D01*
X298400Y294907D02*X299150Y295657D01*
X303950Y294907D02*Y292657D01*
Y294907D02*X304700Y295657D01*
X306200D01*
X303200D02*X303950Y294907D01*
G54D105*X308000Y297157D02*Y297007D01*
G54D104*Y294907D02*Y292657D01*
X310250Y295657D02*X312500D01*
X309500Y294907D02*X310250Y295657D01*
X309500Y294907D02*Y293407D01*
X310250Y292657D01*
X312500D01*
X316550Y295657D02*X317300Y294907D01*
X315050Y295657D02*X316550D01*
X314300Y294907D02*X315050Y295657D01*
X314300Y294907D02*Y293407D01*
X315050Y292657D01*
X317300Y295657D02*Y293407D01*
X318050Y292657D01*
X315050D02*X316550D01*
X317300Y293407D01*
X320600Y298657D02*Y293407D01*
X321350Y292657D01*
X319850Y296407D02*X321350D01*
G54D105*X322850Y297157D02*Y297007D01*
G54D104*Y294907D02*Y292657D01*
X324350Y294907D02*Y293407D01*
Y294907D02*X325100Y295657D01*
X326600D01*
X327350Y294907D01*
Y293407D01*
X326600Y292657D02*X327350Y293407D01*
X325100Y292657D02*X326600D01*
X324350Y293407D02*X325100Y292657D01*
X329900Y294907D02*Y292657D01*
Y294907D02*X330650Y295657D01*
X331400D01*
X332150Y294907D01*
Y292657D01*
X329150Y295657D02*X329900Y294907D01*
X337400Y298657D02*Y292657D01*
X339350Y298657D02*X340400Y297607D01*
Y293707D01*
X339350Y292657D02*X340400Y293707D01*
X336650Y292657D02*X339350D01*
X336650Y298657D02*X339350D01*
X342950Y294907D02*Y292657D01*
Y294907D02*X343700Y295657D01*
X345200D01*
X342200D02*X342950Y294907D01*
X349250Y295657D02*X350000Y294907D01*
X347750Y295657D02*X349250D01*
X347000Y294907D02*X347750Y295657D01*
X347000Y294907D02*Y293407D01*
X347750Y292657D01*
X350000Y295657D02*Y293407D01*
X350750Y292657D01*
X347750D02*X349250D01*
X350000Y293407D01*
X352550Y295657D02*Y293407D01*
X353300Y292657D01*
X354050D01*
X354800Y293407D01*
Y295657D02*Y293407D01*
X355550Y292657D01*
X356300D01*
X357050Y293407D01*
Y295657D02*Y293407D01*
G54D105*X358850Y297157D02*Y297007D01*
G54D104*Y294907D02*Y292657D01*
X361100Y294907D02*Y292657D01*
Y294907D02*X361850Y295657D01*
X362600D01*
X363350Y294907D01*
Y292657D01*
X360350Y295657D02*X361100Y294907D01*
X367400Y295657D02*X368150Y294907D01*
X365900Y295657D02*X367400D01*
X365150Y294907D02*X365900Y295657D01*
X365150Y294907D02*Y293407D01*
X365900Y292657D01*
X367400D01*
X368150Y293407D01*
X365150Y291157D02*X365900Y290407D01*
X367400D01*
X368150Y291157D01*
Y295657D02*Y291157D01*
M02*
