G04 start of page 9 for group -4078 idx -4078 *
G04 Title: roomunit-psu, bottomsilk *
G04 Creator: pcb 1.99z *
G04 CreationDate: tor 11 jun 2015 09:01:47 UTC *
G04 For: jonatan *
G04 Format: Gerber/RS-274X *
G04 PCB-Dimensions (mil): 2401.57 2401.57 *
G04 PCB-Coordinate-Origin: lower left *
%MOIN*%
%FSLAX25Y25*%
%LNBOTTOMSILK*%
%ADD84C,0.0100*%
%ADD83C,0.0200*%
%ADD82C,0.0079*%
%ADD81C,0.0071*%
G54D81*X172803Y41520D02*X174803D01*
X172803D02*X172303Y41020D01*
Y40020D02*Y41020D01*
X172803Y39520D02*X172303Y40020D01*
X172803Y39520D02*X174303D01*
Y37520D02*Y41520D01*
X173503Y39520D02*X172303Y37520D01*
X171103Y38020D02*Y41020D01*
X170603Y41520D01*
X169603D02*X170603D01*
X169603D02*X169103Y41020D01*
Y38020D02*Y41020D01*
X169603Y37520D02*X169103Y38020D01*
X169603Y37520D02*X170603D01*
X171103Y38020D02*X170603Y37520D01*
X167903Y38020D02*Y41020D01*
X167403Y41520D01*
X166403D02*X167403D01*
X166403D02*X165903Y41020D01*
Y38020D02*Y41020D01*
X166403Y37520D02*X165903Y38020D01*
X166403Y37520D02*X167403D01*
X167903Y38020D02*X167403Y37520D01*
X164703D02*Y41520D01*
X163203Y39520D01*
X161703Y41520D01*
Y37520D02*Y41520D01*
X160503Y38020D02*Y41520D01*
Y38020D02*X160003Y37520D01*
X159003D02*X160003D01*
X159003D02*X158503Y38020D01*
Y41520D01*
X157303Y37520D02*Y41520D01*
X154803Y37520D01*
Y41520D01*
X152603D02*X153603D01*
X153103Y37520D02*Y41520D01*
X152603Y37520D02*X153603D01*
X149403Y41520D02*X151403D01*
X150403Y37520D02*Y41520D01*
X145903Y37520D02*Y41520D01*
X144403D02*X146403D01*
X144403D02*X143903Y41020D01*
Y40020D02*Y41020D01*
X144403Y39520D02*X143903Y40020D01*
X144403Y39520D02*X145903D01*
X140703Y41520D02*X140203Y41020D01*
X140703Y41520D02*X142203D01*
X142703Y41020D02*X142203Y41520D01*
X142703Y40020D02*Y41020D01*
Y40020D02*X142203Y39520D01*
X140703D02*X142203D01*
X140703D02*X140203Y39020D01*
Y38020D02*Y39020D01*
X140703Y37520D02*X140203Y38020D01*
X140703Y37520D02*X142203D01*
X142703Y38020D02*X142203Y37520D01*
X139003Y38020D02*Y41520D01*
Y38020D02*X138503Y37520D01*
X137503D02*X138503D01*
X137503D02*X137003Y38020D01*
Y41520D01*
X134003Y40720D02*X133203Y41520D01*
Y37520D02*Y41520D01*
X132503Y37520D02*X134003D01*
X130803D02*X131303D01*
X129603Y38020D02*X129103Y37520D01*
X129603Y38020D02*Y41020D01*
X129103Y41520D01*
X128103D02*X129103D01*
X128103D02*X127603Y41020D01*
Y38020D02*Y41020D01*
X128103Y37520D02*X127603Y38020D01*
X128103Y37520D02*X129103D01*
X129603Y38520D02*X127603Y40520D01*
X122603Y37520D02*X123903D01*
X124603Y38220D02*X123903Y37520D01*
X124603Y38220D02*Y40820D01*
X123903Y41520D01*
X122603D02*X123903D01*
X119403Y37520D02*X120703D01*
X121403Y38220D02*X120703Y37520D01*
X121403Y38220D02*Y40820D01*
X120703Y41520D01*
X119403D02*X120703D01*
X116203Y39520D02*X118203D01*
X113003Y37520D02*X115003D01*
X113003D02*X112503Y38020D01*
Y39220D01*
X113003Y39720D02*X112503Y39220D01*
X113003Y39720D02*X114503D01*
Y37520D02*Y41520D01*
X113003D02*X115003D01*
X113003D02*X112503Y41020D01*
Y40220D02*Y41020D01*
X113003Y39720D02*X112503Y40220D01*
X111303Y41520D02*X110303Y39520D01*
X109303Y41520D01*
X110303Y37520D02*Y39520D01*
X106103D02*X108103D01*
X102903Y41520D02*X102403Y41020D01*
X102903Y41520D02*X104403D01*
X104903Y41020D02*X104403Y41520D01*
X104903Y40020D02*Y41020D01*
Y40020D02*X104403Y39520D01*
X102903D02*X104403D01*
X102903D02*X102403Y39020D01*
Y38020D02*Y39020D01*
X102903Y37520D02*X102403Y38020D01*
X102903Y37520D02*X104403D01*
X104903Y38020D02*X104403Y37520D01*
X101203D02*Y40520D01*
X100503Y41520D01*
X99403D02*X100503D01*
X99403D02*X98703Y40520D01*
Y37520D02*Y40520D01*
Y39520D02*X101203D01*
X95703Y39020D02*X93703Y41520D01*
X93203Y39020D02*X95703D01*
X93703Y37520D02*Y41520D01*
X91503Y37520D02*X92003D01*
X90303Y38020D02*X89803Y37520D01*
X90303Y38020D02*Y41020D01*
X89803Y41520D01*
X88803D02*X89803D01*
X88803D02*X88303Y41020D01*
Y38020D02*Y41020D01*
X88803Y37520D02*X88303Y38020D01*
X88803Y37520D02*X89803D01*
X90303Y38520D02*X88303Y40520D01*
X173303Y47819D02*X174103D01*
X173303Y44319D02*Y47819D01*
X173803Y43819D02*X173303Y44319D01*
X173803Y43819D02*X174303D01*
X174803Y44319D02*X174303Y43819D01*
X174803Y44319D02*Y44819D01*
X172103Y44319D02*Y45319D01*
X171603Y45819D01*
X170603D02*X171603D01*
X170603D02*X170103Y45319D01*
Y44319D02*Y45319D01*
X170603Y43819D02*X170103Y44319D01*
X170603Y43819D02*X171603D01*
X172103Y44319D02*X171603Y43819D01*
X168403D02*Y45319D01*
X167903Y45819D01*
X167403D02*X167903D01*
X167403D02*X166903Y45319D01*
Y43819D02*Y45319D01*
X168903Y45819D02*X168403Y45319D01*
X164203Y45819D02*X163703Y45319D01*
X164203Y45819D02*X165203D01*
X165703Y45319D02*X165203Y45819D01*
X165703Y44319D02*Y45319D01*
Y44319D02*X165203Y43819D01*
X163703Y44319D02*Y45819D01*
Y44319D02*X163203Y43819D01*
X164203D02*X165203D01*
X164203D02*X163703Y44319D01*
X161503D02*Y47819D01*
Y44319D02*X161003Y43819D01*
Y46319D02*X162003D01*
X158503Y45819D02*X158003Y45319D01*
X158503Y45819D02*X159503D01*
X160003Y45319D02*X159503Y45819D01*
X160003Y44319D02*Y45319D01*
Y44319D02*X159503Y43819D01*
X158003Y44319D02*Y45819D01*
Y44319D02*X157503Y43819D01*
X158503D02*X159503D01*
X158503D02*X158003Y44319D01*
X155803Y43819D02*Y45319D01*
X155303Y45819D01*
X154803D02*X155303D01*
X154803D02*X154303Y45319D01*
Y43819D02*Y45319D01*
X156303Y45819D02*X155803Y45319D01*
X151303Y43819D02*Y46819D01*
X150603Y47819D01*
X149503D02*X150603D01*
X149503D02*X148803Y46819D01*
Y43819D02*Y46819D01*
Y45819D02*X151303D01*
X147603Y43819D02*Y47819D01*
Y45319D02*X146103Y43819D01*
X147603Y45319D02*X146603Y46319D01*
X142903Y43819D02*X144403D01*
X144903Y44319D02*X144403Y43819D01*
X144903Y44319D02*Y45319D01*
X144403Y45819D01*
X143403D02*X144403D01*
X143403D02*X142903Y45319D01*
Y44819D02*X144903D01*
X142903D02*Y45319D01*
X141203Y43819D02*Y45319D01*
X140703Y45819D01*
X139703D02*X140703D01*
X141703D02*X141203Y45319D01*
X138503Y44319D02*Y47819D01*
Y44319D02*X138003Y43819D01*
X137003Y46719D02*Y46819D01*
Y43819D02*Y45319D01*
X135503Y43819D02*Y45319D01*
X135003Y45819D01*
X134503D02*X135003D01*
X134503D02*X134003Y45319D01*
Y43819D02*Y45319D01*
X136003Y45819D02*X135503Y45319D01*
X130803Y43819D02*Y47819D01*
X131303Y43819D02*X130803Y44319D01*
X131303Y43819D02*X132303D01*
X132803Y44319D02*X132303Y43819D01*
X132803Y44319D02*Y45319D01*
X132303Y45819D01*
X131303D02*X132303D01*
X131303D02*X130803Y45319D01*
X127803Y47319D02*X127303Y47819D01*
X125803D02*X127303D01*
X125803D02*X125303Y47319D01*
Y46319D02*Y47319D01*
X127803Y43819D02*X125303Y46319D01*
Y43819D02*X127803D01*
X124103Y44319D02*X123603Y43819D01*
X124103Y44319D02*Y47319D01*
X123603Y47819D01*
X122603D02*X123603D01*
X122603D02*X122103Y47319D01*
Y44319D02*Y47319D01*
X122603Y43819D02*X122103Y44319D01*
X122603Y43819D02*X123603D01*
X124103Y44819D02*X122103Y46819D01*
X120903Y47019D02*X120103Y47819D01*
Y43819D02*Y47819D01*
X119403Y43819D02*X120903D01*
X116203Y47819D02*X118203D01*
Y45819D02*Y47819D01*
Y45819D02*X117703Y46319D01*
X116703D02*X117703D01*
X116703D02*X116203Y45819D01*
Y44319D02*Y45819D01*
X116703Y43819D02*X116203Y44319D01*
X116703Y43819D02*X117703D01*
X118203Y44319D02*X117703Y43819D01*
G54D82*X185630Y134587D02*X188386D01*
X185630D02*X184843Y133799D01*
Y126083D01*
X188386D01*
Y134587D02*Y126083D01*
X193504Y134587D02*X196260D01*
X193504D02*X192717Y133799D01*
Y126083D01*
X196260D01*
Y134587D02*Y126083D01*
X191339Y100477D02*X195276D01*
X191339D02*X190551Y99690D01*
Y90277D01*
X195276D01*
Y100477D02*Y90277D01*
X193307Y115831D02*X197244D01*
X193307D02*X192520Y115044D01*
Y105631D01*
X197244D01*
Y115831D02*Y105631D01*
G54D83*X197775Y85082D02*X203876Y154815D01*
X207737Y84210D02*X213838Y153944D01*
G54D84*X198211Y90063D02*X208173Y89191D01*
G54D83*X197775Y85081D02*G75*G03X207737Y84210I4981J-436D01*G01*
X213838Y153943D02*G75*G03X203876Y154815I-4981J436D01*G01*
G54D82*X44291Y123957D02*X47047D01*
X44291D02*X43504Y123169D01*
Y115453D01*
X47047D01*
Y123957D02*Y115453D01*
G54D83*X32420Y84210D02*X26320Y153944D01*
X42383Y85082D02*X36281Y154815D01*
G54D84*X31985Y89191D02*X41947Y90063D01*
G54D83*X32421Y84210D02*G75*G03X42383Y85081I4981J436D01*G01*
X36282Y154815D02*G75*G03X26320Y153943I-4981J-436D01*G01*
G54D82*X155057Y89764D02*Y82677D01*
Y89764D02*X154269Y90551D01*
X133310D02*X154269D01*
X133310D02*Y82677D01*
X155057D01*
G54D81*X55087Y71772D02*X56387D01*
X57087Y72472D02*X56387Y71772D01*
X57087Y72472D02*Y75072D01*
X56387Y75772D01*
X55087D02*X56387D01*
X53887Y72272D02*Y75272D01*
X53387Y75772D01*
X52387D02*X53387D01*
X52387D02*X51887Y75272D01*
Y72272D02*Y75272D01*
X52387Y71772D02*X51887Y72272D01*
X52387Y71772D02*X53387D01*
X53887Y72272D02*X53387Y71772D01*
X50687D02*Y75772D01*
X48187Y71772D01*
Y75772D01*
X46987Y71772D02*Y75772D01*
X44487Y71772D01*
Y75772D01*
X41287D02*X43287D01*
Y73772D02*Y75772D01*
Y73772D02*X42787Y74272D01*
X41787D02*X42787D01*
X41787D02*X41287Y73772D01*
Y72272D02*Y73772D01*
X41787Y71772D02*X41287Y72272D01*
X41787Y71772D02*X42787D01*
X43287Y72272D02*X42787Y71772D01*
X40087Y72272D02*X39587Y71772D01*
X40087Y72272D02*Y75272D01*
X39587Y75772D01*
X38587D02*X39587D01*
X38587D02*X38087Y75272D01*
Y72272D02*Y75272D01*
X38587Y71772D02*X38087Y72272D01*
X38587Y71772D02*X39587D01*
X40087Y72772D02*X38087Y74772D01*
X36887Y75272D02*X36387Y75772D01*
X34887D02*X36387D01*
X34887D02*X34387Y75272D01*
Y74272D02*Y75272D01*
X36887Y71772D02*X34387Y74272D01*
Y71772D02*X36887D01*
X53331Y116535D02*Y118535D01*
X52831Y119035D01*
X51831D02*X52831D01*
X51331Y118535D02*X51831Y119035D01*
X51331Y117035D02*Y118535D01*
X49331Y117035D02*X53331D01*
X51331Y117835D02*X49331Y119035D01*
X53331Y120235D02*Y122235D01*
X51331Y120235D02*X53331D01*
X51331D02*X51831Y120735D01*
Y121735D01*
X51331Y122235D01*
X49831D02*X51331D01*
X49331Y121735D02*X49831Y122235D01*
X49331Y120735D02*Y121735D01*
X49831Y120235D02*X49331Y120735D01*
X49831Y123435D02*X49331Y123935D01*
X49831Y123435D02*X52831D01*
X53331Y123935D01*
Y124935D01*
X52831Y125435D01*
X49831D02*X52831D01*
X49331Y124935D02*X49831Y125435D01*
X49331Y123935D02*Y124935D01*
X50331Y123435D02*X52331Y125435D01*
X49331Y127135D02*X53331Y129135D01*
Y126635D02*Y129135D01*
X189157Y136614D02*Y138614D01*
X188657Y139114D01*
X187657D02*X188657D01*
X187157Y138614D02*X187657Y139114D01*
X187157Y137114D02*Y138614D01*
X185157Y137114D02*X189157D01*
X187157Y137914D02*X185157Y139114D01*
X189157Y140314D02*Y142314D01*
X187157Y140314D02*X189157D01*
X187157D02*X187657Y140814D01*
Y141814D01*
X187157Y142314D01*
X185657D02*X187157D01*
X185157Y141814D02*X185657Y142314D01*
X185157Y140814D02*Y141814D01*
X185657Y140314D02*X185157Y140814D01*
X185657Y143514D02*X185157Y144014D01*
X185657Y143514D02*X188657D01*
X189157Y144014D01*
Y145014D01*
X188657Y145514D01*
X185657D02*X188657D01*
X185157Y145014D02*X185657Y145514D01*
X185157Y144014D02*Y145014D01*
X186157Y143514D02*X188157Y145514D01*
X186657Y146714D02*X189157Y148714D01*
X186657Y146714D02*Y149214D01*
X185157Y148714D02*X189157D01*
X197031Y136614D02*Y138614D01*
X196531Y139114D01*
X195531D02*X196531D01*
X195031Y138614D02*X195531Y139114D01*
X195031Y137114D02*Y138614D01*
X193031Y137114D02*X197031D01*
X195031Y137914D02*X193031Y139114D01*
X197031Y140314D02*Y142314D01*
X195031Y140314D02*X197031D01*
X195031D02*X195531Y140814D01*
Y141814D01*
X195031Y142314D01*
X193531D02*X195031D01*
X193031Y141814D02*X193531Y142314D01*
X193031Y140814D02*Y141814D01*
X193531Y140314D02*X193031Y140814D01*
X193531Y143514D02*X193031Y144014D01*
X193531Y143514D02*X196531D01*
X197031Y144014D01*
Y145014D01*
X196531Y145514D01*
X193531D02*X196531D01*
X193031Y145014D02*X193531Y145514D01*
X193031Y144014D02*Y145014D01*
X194031Y143514D02*X196031Y145514D01*
X196531Y146714D02*X197031Y147214D01*
Y148714D01*
X196531Y149214D01*
X195531D02*X196531D01*
X193031Y146714D02*X195531Y149214D01*
X193031Y146714D02*Y149214D01*
X202724Y71772D02*X204024D01*
X204724Y72472D02*X204024Y71772D01*
X204724Y72472D02*Y75072D01*
X204024Y75772D01*
X202724D02*X204024D01*
X201524Y72272D02*Y75272D01*
X201024Y75772D01*
X200024D02*X201024D01*
X200024D02*X199524Y75272D01*
Y72272D02*Y75272D01*
X200024Y71772D02*X199524Y72272D01*
X200024Y71772D02*X201024D01*
X201524Y72272D02*X201024Y71772D01*
X198324D02*Y75772D01*
X195824Y71772D01*
Y75772D01*
X194624Y71772D02*Y75772D01*
X192124Y71772D01*
Y75772D01*
X188924D02*X190924D01*
Y73772D02*Y75772D01*
Y73772D02*X190424Y74272D01*
X189424D02*X190424D01*
X189424D02*X188924Y73772D01*
Y72272D02*Y73772D01*
X189424Y71772D02*X188924Y72272D01*
X189424Y71772D02*X190424D01*
X190924Y72272D02*X190424Y71772D01*
X187724Y72272D02*X187224Y71772D01*
X187724Y72272D02*Y75272D01*
X187224Y75772D01*
X186224D02*X187224D01*
X186224D02*X185724Y75272D01*
Y72272D02*Y75272D01*
X186224Y71772D02*X185724Y72272D01*
X186224Y71772D02*X187224D01*
X187724Y72772D02*X185724Y74772D01*
X184524Y74972D02*X183724Y75772D01*
Y71772D02*Y75772D01*
X183024Y71772D02*X184524D01*
X138551Y76102D02*X139851D01*
X140551Y76802D02*X139851Y76102D01*
X140551Y76802D02*Y79402D01*
X139851Y80102D01*
X138551D02*X139851D01*
X135351D02*X137351D01*
Y78102D02*Y80102D01*
Y78102D02*X136851Y78602D01*
X135851D02*X136851D01*
X135851D02*X135351Y78102D01*
Y76602D02*Y78102D01*
X135851Y76102D02*X135351Y76602D01*
X135851Y76102D02*X136851D01*
X137351Y76602D02*X136851Y76102D01*
X134151Y76602D02*X133651Y76102D01*
X134151Y76602D02*Y79602D01*
X133651Y80102D01*
X132651D02*X133651D01*
X132651D02*X132151Y79602D01*
Y76602D02*Y79602D01*
X132651Y76102D02*X132151Y76602D01*
X132651Y76102D02*X133651D01*
X134151Y77102D02*X132151Y79102D01*
X130951Y77602D02*X128951Y80102D01*
X128451Y77602D02*X130951D01*
X128951Y76102D02*Y80102D01*
X187583Y85433D02*Y87433D01*
X187083Y87933D01*
X186083D02*X187083D01*
X185583Y87433D02*X186083Y87933D01*
X185583Y85933D02*Y87433D01*
X183583Y85933D02*X187583D01*
X185583Y86733D02*X183583Y87933D01*
X187583Y89133D02*Y91133D01*
X185583Y89133D02*X187583D01*
X185583D02*X186083Y89633D01*
Y90633D01*
X185583Y91133D01*
X184083D02*X185583D01*
X183583Y90633D02*X184083Y91133D01*
X183583Y89633D02*Y90633D01*
X184083Y89133D02*X183583Y89633D01*
X184083Y92333D02*X183583Y92833D01*
X184083Y92333D02*X187083D01*
X187583Y92833D01*
Y93833D01*
X187083Y94333D01*
X184083D02*X187083D01*
X183583Y93833D02*X184083Y94333D01*
X183583Y92833D02*Y93833D01*
X184583Y92333D02*X186583Y94333D01*
X184083Y95533D02*X183583Y96033D01*
X184083Y95533D02*X187083D01*
X187583Y96033D01*
Y97033D01*
X187083Y97533D01*
X184083D02*X187083D01*
X183583Y97033D02*X184083Y97533D01*
X183583Y96033D02*Y97033D01*
X184583Y95533D02*X186583Y97533D01*
X189945Y110236D02*Y112236D01*
X189445Y112736D01*
X188445D02*X189445D01*
X187945Y112236D02*X188445Y112736D01*
X187945Y110736D02*Y112236D01*
X185945Y110736D02*X189945D01*
X187945Y111536D02*X185945Y112736D01*
X189945Y113936D02*Y115936D01*
X187945Y113936D02*X189945D01*
X187945D02*X188445Y114436D01*
Y115436D01*
X187945Y115936D01*
X186445D02*X187945D01*
X185945Y115436D02*X186445Y115936D01*
X185945Y114436D02*Y115436D01*
X186445Y113936D02*X185945Y114436D01*
X186445Y117136D02*X185945Y117636D01*
X186445Y117136D02*X189445D01*
X189945Y117636D01*
Y118636D01*
X189445Y119136D01*
X186445D02*X189445D01*
X185945Y118636D02*X186445Y119136D01*
X185945Y117636D02*Y118636D01*
X186945Y117136D02*X188945Y119136D01*
X189145Y120336D02*X189945Y121136D01*
X185945D02*X189945D01*
X185945Y120336D02*Y121836D01*
M02*
