M48
METRIC,000.000
T95C0.350
T94C4.000
T93C1.600
T92C0.550
T91C0.800
T90C0.900
T89C1.850
T88C1.000
T87C0.700
T86C1.200
%
T95
X008750Y036000
X022700Y085100
X031050Y017750
X033600Y006900
X034500Y085100
X034550Y004200
X034950Y016400
X035450Y006350
X039700Y073900
X039750Y085050
X040000Y016400
X040000Y014100
X040200Y070000
X040800Y005200
X042000Y052600
X043100Y088850
X043500Y092150
X044000Y079800
X044250Y016400
X045050Y095350
X045200Y052600
X046450Y093300
X047200Y093950
X047450Y096250
X047600Y085750
X047600Y083000
X048200Y098900
X048300Y081100
X048800Y096600
X049650Y083950
X050700Y097600
X051000Y086700
X051200Y081000
X051500Y087600
X051600Y084800
X051800Y079400
X052300Y016800
X052400Y083000
X052800Y092550
X053000Y089500
X054500Y085600
X054850Y096500
X054950Y052600
X056900Y088750
X057200Y096500
X057750Y081250
X058800Y052600
X059900Y073950
X064050Y079900
X064950Y060400
X068400Y080100
X073100Y079400
X073750Y016200
X073950Y038500
X076150Y078600
X076250Y038500
X077350Y076100
X079200Y089750
X079200Y077050
X079400Y071900
X079400Y059100
X080550Y073800
X080650Y062650
X081350Y061500
X083050Y055850
X084300Y064100
X084300Y056750
X085200Y044050
X086000Y045500
X086600Y072900
X087300Y065250
X087550Y041900
X087550Y038800
X087650Y031950
X088600Y033400
X089700Y009200
X091400Y060900
X092200Y060200
X092300Y055200
X092350Y009000
X092850Y070900
X093100Y065500
X094400Y091950
X094450Y063750
X098150Y002000
T92
X013188Y086852
X016780Y086852
X016780Y083260
T87
X027450Y058212
X027672Y055682
X027893Y053152
X028114Y050621
X028336Y048091
X028557Y045561
X028779Y043030
X029000Y040500
X071000Y040500
X071221Y043030
X071443Y045561
X071664Y048091
X071886Y050621
X072107Y053152
X072328Y055682
X072550Y058212
X093000Y037700
X093000Y035160
X093000Y032620
X093000Y030080
T91
X014510Y007660
X015780Y010200
X017050Y007660
X018320Y010200
X019590Y007660
X020860Y010200
X022130Y007660
X023400Y010200
X052350Y067400
X096700Y060550
T90
X044785Y069600
X046055Y072140
X047325Y069600
X048595Y072140
X049865Y069600
X053675Y072140
X054945Y074680
X054945Y069600
X056215Y072140
X078660Y013670
X078660Y011130
X081200Y013670
X081200Y011130
X083740Y013670
X083740Y011130
T88
X045039Y076966
X047579Y076966
X053421Y076966
X055961Y076966
X061460Y016300
X061460Y011500
X061460Y006700
X064000Y016300
X064000Y011500
X064000Y006700
X066540Y016300
X066540Y011500
X066540Y006700
X071060Y091200
X073600Y091200
X076140Y091200
X091760Y052260
X091760Y049720
X091760Y047180
X091760Y044640
X091760Y042100
X094300Y052260
X094300Y049720
X094300Y047180
X094300Y044640
X094300Y042100
T86
X004960Y026500
X007500Y026500
X013750Y029500
X013750Y024500
X026250Y029500
X026250Y024500
X033750Y029500
X033750Y024500
X046250Y029500
X046250Y024500
X053750Y029500
X053750Y024500
X066250Y029500
X066250Y024500
X073750Y029500
X073750Y024500
X086250Y029500
X086250Y024500
T93
X042753Y066298
X058247Y066298
T89
X046250Y010550
X046250Y005550
X053750Y010550
X053750Y005550
T94
X020000Y050000
X080000Y050000
M30
