G04 This is an RS-274x file exported by *
G04 gerbv version 2.6A *
G04 More information is available about gerbv at *
G04 http://gerbv.geda-project.org/ *
G04 --End of header info--*
%MOIN*%
%FSLAX34Y34*%
%IPPOS*%
G04 --Define apertures--*
%ADD10C,0.0150*%
%ADD11C,0.0001*%
%ADD12C,0.0500*%
%ADD13C,0.0551*%
%ADD14C,0.0256*%
%ADD15C,0.0315*%
%ADD16C,0.0591*%
G04 --Start main section--*
G54D10*
G01X0016250Y0002485D02*
G01X0016450Y0002485D01*
G01X0016450Y0002485D02*
G01X0016900Y0002035D01*
G01X0017900Y0002035D02*
G01X0017900Y0003335D01*
G01X0017900Y0003335D02*
G01X0017600Y0003635D01*
G01X0016250Y0002485D02*
G01X0016100Y0002635D01*
G01X0017600Y0003635D02*
G01X0013900Y0003635D01*
G01X0013900Y0003635D02*
G01X0013000Y0004535D01*
G01X0016100Y0002635D02*
G01X0005900Y0002635D01*
G01X0005900Y0002635D02*
G01X0004000Y0004535D01*
G54D11*
G36*
G01X0022610Y0000816D02*
G01X0020999Y0000816D01*
G01X0020999Y0004166D01*
G01X0021000Y0004166D01*
G01X0021058Y0004171D01*
G01X0021114Y0004184D01*
G01X0021168Y0004206D01*
G01X0021217Y0004237D01*
G01X0021261Y0004274D01*
G01X0021299Y0004318D01*
G01X0021329Y0004368D01*
G01X0021351Y0004421D01*
G01X0021365Y0004478D01*
G01X0021368Y0004535D01*
G01X0021365Y0004593D01*
G01X0021351Y0004650D01*
G01X0021329Y0004703D01*
G01X0021299Y0004753D01*
G01X0021261Y0004797D01*
G01X0021217Y0004834D01*
G01X0021168Y0004864D01*
G01X0021114Y0004887D01*
G01X0021058Y0004900D01*
G01X0021000Y0004905D01*
G01X0020999Y0004905D01*
G01X0020999Y0015166D01*
G01X0021000Y0015166D01*
G01X0021058Y0015171D01*
G01X0021114Y0015184D01*
G01X0021168Y0015206D01*
G01X0021217Y0015237D01*
G01X0021261Y0015274D01*
G01X0021299Y0015318D01*
G01X0021329Y0015368D01*
G01X0021351Y0015421D01*
G01X0021365Y0015478D01*
G01X0021368Y0015535D01*
G01X0021365Y0015593D01*
G01X0021351Y0015650D01*
G01X0021329Y0015703D01*
G01X0021299Y0015753D01*
G01X0021261Y0015797D01*
G01X0021217Y0015834D01*
G01X0021168Y0015864D01*
G01X0021114Y0015887D01*
G01X0021058Y0015900D01*
G01X0021000Y0015905D01*
G01X0020999Y0015905D01*
G01X0020999Y0016114D01*
G01X0022610Y0016114D01*
G01X0022610Y0000816D01*
G37*
G36*
G01X0020999Y0000816D02*
G01X0019999Y0000816D01*
G01X0019999Y0001057D01*
G01X0020045Y0001046D01*
G01X0020110Y0001041D01*
G01X0020175Y0001046D01*
G01X0020238Y0001061D01*
G01X0020298Y0001086D01*
G01X0020354Y0001120D01*
G01X0020403Y0001162D01*
G01X0020446Y0001212D01*
G01X0020480Y0001267D01*
G01X0020504Y0001327D01*
G01X0020520Y0001391D01*
G01X0020523Y0001455D01*
G01X0020520Y0001520D01*
G01X0020504Y0001584D01*
G01X0020480Y0001644D01*
G01X0020446Y0001699D01*
G01X0020403Y0001749D01*
G01X0020354Y0001791D01*
G01X0020298Y0001825D01*
G01X0020238Y0001850D01*
G01X0020175Y0001865D01*
G01X0020110Y0001870D01*
G01X0020045Y0001865D01*
G01X0019999Y0001854D01*
G01X0019999Y0004166D01*
G01X0020000Y0004166D01*
G01X0020058Y0004171D01*
G01X0020114Y0004184D01*
G01X0020168Y0004206D01*
G01X0020217Y0004237D01*
G01X0020261Y0004274D01*
G01X0020299Y0004318D01*
G01X0020329Y0004368D01*
G01X0020351Y0004421D01*
G01X0020365Y0004478D01*
G01X0020368Y0004535D01*
G01X0020365Y0004593D01*
G01X0020351Y0004650D01*
G01X0020329Y0004703D01*
G01X0020299Y0004753D01*
G01X0020261Y0004797D01*
G01X0020217Y0004834D01*
G01X0020168Y0004864D01*
G01X0020114Y0004887D01*
G01X0020058Y0004900D01*
G01X0020000Y0004905D01*
G01X0019999Y0004905D01*
G01X0019999Y0015166D01*
G01X0020000Y0015166D01*
G01X0020058Y0015171D01*
G01X0020114Y0015184D01*
G01X0020168Y0015206D01*
G01X0020217Y0015237D01*
G01X0020261Y0015274D01*
G01X0020299Y0015318D01*
G01X0020329Y0015368D01*
G01X0020351Y0015421D01*
G01X0020365Y0015478D01*
G01X0020368Y0015535D01*
G01X0020365Y0015593D01*
G01X0020351Y0015650D01*
G01X0020329Y0015703D01*
G01X0020299Y0015753D01*
G01X0020261Y0015797D01*
G01X0020217Y0015834D01*
G01X0020168Y0015864D01*
G01X0020114Y0015887D01*
G01X0020058Y0015900D01*
G01X0020000Y0015905D01*
G01X0019999Y0015905D01*
G01X0019999Y0016114D01*
G01X0020999Y0016114D01*
G01X0020999Y0015905D01*
G01X0020942Y0015900D01*
G01X0020886Y0015887D01*
G01X0020832Y0015864D01*
G01X0020783Y0015834D01*
G01X0020739Y0015797D01*
G01X0020701Y0015753D01*
G01X0020671Y0015703D01*
G01X0020649Y0015650D01*
G01X0020635Y0015593D01*
G01X0020631Y0015535D01*
G01X0020635Y0015478D01*
G01X0020649Y0015421D01*
G01X0020671Y0015368D01*
G01X0020701Y0015318D01*
G01X0020739Y0015274D01*
G01X0020783Y0015237D01*
G01X0020832Y0015206D01*
G01X0020886Y0015184D01*
G01X0020942Y0015171D01*
G01X0020999Y0015166D01*
G01X0020999Y0004905D01*
G01X0020942Y0004900D01*
G01X0020886Y0004887D01*
G01X0020832Y0004864D01*
G01X0020783Y0004834D01*
G01X0020739Y0004797D01*
G01X0020701Y0004753D01*
G01X0020671Y0004703D01*
G01X0020649Y0004650D01*
G01X0020635Y0004593D01*
G01X0020631Y0004535D01*
G01X0020635Y0004478D01*
G01X0020649Y0004421D01*
G01X0020671Y0004368D01*
G01X0020701Y0004318D01*
G01X0020739Y0004274D01*
G01X0020783Y0004237D01*
G01X0020832Y0004206D01*
G01X0020886Y0004184D01*
G01X0020942Y0004171D01*
G01X0020999Y0004166D01*
G01X0020999Y0000816D01*
G37*
G36*
G01X0016115Y0003410D02*
G01X0016277Y0003410D01*
G01X0016221Y0003387D01*
G01X0016168Y0003355D01*
G01X0016121Y0003315D01*
G01X0016115Y0003308D01*
G01X0016115Y0003410D01*
G37*
G36*
G01X0019999Y0000816D02*
G01X0019399Y0000816D01*
G01X0019399Y0002641D01*
G01X0019400Y0002641D01*
G01X0019462Y0002645D01*
G01X0019522Y0002660D01*
G01X0019579Y0002684D01*
G01X0019632Y0002716D01*
G01X0019679Y0002756D01*
G01X0019720Y0002803D01*
G01X0019752Y0002856D01*
G01X0019776Y0002913D01*
G01X0019790Y0002974D01*
G01X0019794Y0003035D01*
G01X0019790Y0003097D01*
G01X0019776Y0003157D01*
G01X0019752Y0003215D01*
G01X0019720Y0003268D01*
G01X0019679Y0003315D01*
G01X0019632Y0003355D01*
G01X0019579Y0003387D01*
G01X0019522Y0003411D01*
G01X0019462Y0003426D01*
G01X0019400Y0003430D01*
G01X0019399Y0003430D01*
G01X0019399Y0016114D01*
G01X0019999Y0016114D01*
G01X0019999Y0015905D01*
G01X0019942Y0015900D01*
G01X0019886Y0015887D01*
G01X0019832Y0015864D01*
G01X0019783Y0015834D01*
G01X0019739Y0015797D01*
G01X0019701Y0015753D01*
G01X0019671Y0015703D01*
G01X0019649Y0015650D01*
G01X0019635Y0015593D01*
G01X0019631Y0015535D01*
G01X0019635Y0015478D01*
G01X0019649Y0015421D01*
G01X0019671Y0015368D01*
G01X0019701Y0015318D01*
G01X0019739Y0015274D01*
G01X0019783Y0015237D01*
G01X0019832Y0015206D01*
G01X0019886Y0015184D01*
G01X0019942Y0015171D01*
G01X0019999Y0015166D01*
G01X0019999Y0004905D01*
G01X0019942Y0004900D01*
G01X0019886Y0004887D01*
G01X0019832Y0004864D01*
G01X0019783Y0004834D01*
G01X0019739Y0004797D01*
G01X0019701Y0004753D01*
G01X0019671Y0004703D01*
G01X0019649Y0004650D01*
G01X0019635Y0004593D01*
G01X0019631Y0004535D01*
G01X0019635Y0004478D01*
G01X0019649Y0004421D01*
G01X0019671Y0004368D01*
G01X0019701Y0004318D01*
G01X0019739Y0004274D01*
G01X0019783Y0004237D01*
G01X0019832Y0004206D01*
G01X0019886Y0004184D01*
G01X0019942Y0004171D01*
G01X0019999Y0004166D01*
G01X0019999Y0001854D01*
G01X0019982Y0001850D01*
G01X0019922Y0001825D01*
G01X0019866Y0001791D01*
G01X0019817Y0001749D01*
G01X0019775Y0001699D01*
G01X0019741Y0001644D01*
G01X0019716Y0001584D01*
G01X0019700Y0001520D01*
G01X0019695Y0001455D01*
G01X0019700Y0001391D01*
G01X0019716Y0001327D01*
G01X0019741Y0001267D01*
G01X0019775Y0001212D01*
G01X0019817Y0001162D01*
G01X0019866Y0001120D01*
G01X0019922Y0001086D01*
G01X0019982Y0001061D01*
G01X0019999Y0001057D01*
G01X0019999Y0000816D01*
G37*
G36*
G01X0019399Y0000816D02*
G01X0018899Y0000816D01*
G01X0018899Y0001641D01*
G01X0018900Y0001641D01*
G01X0018962Y0001645D01*
G01X0019022Y0001660D01*
G01X0019079Y0001684D01*
G01X0019132Y0001716D01*
G01X0019179Y0001756D01*
G01X0019220Y0001803D01*
G01X0019252Y0001856D01*
G01X0019276Y0001913D01*
G01X0019290Y0001974D01*
G01X0019294Y0002035D01*
G01X0019290Y0002097D01*
G01X0019276Y0002158D01*
G01X0019252Y0002215D01*
G01X0019220Y0002268D01*
G01X0019179Y0002315D01*
G01X0019132Y0002355D01*
G01X0019079Y0002387D01*
G01X0019022Y0002411D01*
G01X0018962Y0002426D01*
G01X0018900Y0002430D01*
G01X0018899Y0002430D01*
G01X0018899Y0004181D01*
G01X0018942Y0004171D01*
G01X0019000Y0004166D01*
G01X0019058Y0004171D01*
G01X0019114Y0004184D01*
G01X0019168Y0004206D01*
G01X0019217Y0004237D01*
G01X0019261Y0004274D01*
G01X0019299Y0004318D01*
G01X0019329Y0004368D01*
G01X0019351Y0004421D01*
G01X0019365Y0004478D01*
G01X0019368Y0004535D01*
G01X0019365Y0004593D01*
G01X0019351Y0004650D01*
G01X0019329Y0004703D01*
G01X0019299Y0004753D01*
G01X0019261Y0004797D01*
G01X0019217Y0004834D01*
G01X0019168Y0004864D01*
G01X0019114Y0004887D01*
G01X0019058Y0004900D01*
G01X0019000Y0004905D01*
G01X0018942Y0004900D01*
G01X0018899Y0004890D01*
G01X0018899Y0016114D01*
G01X0019399Y0016114D01*
G01X0019399Y0003430D01*
G01X0019338Y0003426D01*
G01X0019278Y0003411D01*
G01X0019221Y0003387D01*
G01X0019168Y0003355D01*
G01X0019121Y0003315D01*
G01X0019081Y0003268D01*
G01X0019048Y0003215D01*
G01X0019024Y0003157D01*
G01X0019010Y0003097D01*
G01X0019005Y0003035D01*
G01X0019010Y0002974D01*
G01X0019024Y0002913D01*
G01X0019048Y0002856D01*
G01X0019081Y0002803D01*
G01X0019121Y0002756D01*
G01X0019168Y0002716D01*
G01X0019221Y0002684D01*
G01X0019278Y0002660D01*
G01X0019338Y0002645D01*
G01X0019399Y0002641D01*
G01X0019399Y0000816D01*
G37*
G36*
G01X0018899Y0000816D02*
G01X0017999Y0000816D01*
G01X0017999Y0001654D01*
G01X0018022Y0001660D01*
G01X0018079Y0001684D01*
G01X0018132Y0001716D01*
G01X0018179Y0001756D01*
G01X0018220Y0001803D01*
G01X0018252Y0001856D01*
G01X0018276Y0001913D01*
G01X0018290Y0001974D01*
G01X0018294Y0002035D01*
G01X0018290Y0002097D01*
G01X0018276Y0002158D01*
G01X0018252Y0002215D01*
G01X0018220Y0002268D01*
G01X0018179Y0002315D01*
G01X0018132Y0002355D01*
G01X0018125Y0002359D01*
G01X0018125Y0002753D01*
G01X0018168Y0002716D01*
G01X0018221Y0002684D01*
G01X0018278Y0002660D01*
G01X0018338Y0002645D01*
G01X0018400Y0002641D01*
G01X0018462Y0002645D01*
G01X0018522Y0002660D01*
G01X0018579Y0002684D01*
G01X0018632Y0002716D01*
G01X0018679Y0002756D01*
G01X0018720Y0002803D01*
G01X0018752Y0002856D01*
G01X0018776Y0002913D01*
G01X0018790Y0002974D01*
G01X0018794Y0003035D01*
G01X0018790Y0003097D01*
G01X0018776Y0003157D01*
G01X0018752Y0003215D01*
G01X0018720Y0003268D01*
G01X0018679Y0003315D01*
G01X0018632Y0003355D01*
G01X0018579Y0003387D01*
G01X0018522Y0003411D01*
G01X0018462Y0003426D01*
G01X0018400Y0003430D01*
G01X0018338Y0003426D01*
G01X0018278Y0003411D01*
G01X0018221Y0003387D01*
G01X0018168Y0003355D01*
G01X0018125Y0003318D01*
G01X0018125Y0003327D01*
G01X0018126Y0003335D01*
G01X0018123Y0003371D01*
G01X0018115Y0003405D01*
G01X0018111Y0003415D01*
G01X0018101Y0003438D01*
G01X0018090Y0003457D01*
G01X0018083Y0003468D01*
G01X0018083Y0003468D01*
G01X0018060Y0003495D01*
G01X0018053Y0003501D01*
G01X0017999Y0003554D01*
G01X0017999Y0004166D01*
G01X0018000Y0004166D01*
G01X0018058Y0004171D01*
G01X0018114Y0004184D01*
G01X0018168Y0004206D01*
G01X0018217Y0004237D01*
G01X0018261Y0004274D01*
G01X0018299Y0004318D01*
G01X0018329Y0004368D01*
G01X0018351Y0004421D01*
G01X0018365Y0004478D01*
G01X0018368Y0004535D01*
G01X0018365Y0004593D01*
G01X0018351Y0004650D01*
G01X0018329Y0004703D01*
G01X0018299Y0004753D01*
G01X0018261Y0004797D01*
G01X0018217Y0004834D01*
G01X0018168Y0004864D01*
G01X0018114Y0004887D01*
G01X0018058Y0004900D01*
G01X0018000Y0004905D01*
G01X0017999Y0004905D01*
G01X0017999Y0016114D01*
G01X0018899Y0016114D01*
G01X0018899Y0004890D01*
G01X0018886Y0004887D01*
G01X0018832Y0004864D01*
G01X0018783Y0004834D01*
G01X0018739Y0004797D01*
G01X0018701Y0004753D01*
G01X0018671Y0004703D01*
G01X0018649Y0004650D01*
G01X0018635Y0004593D01*
G01X0018631Y0004535D01*
G01X0018635Y0004478D01*
G01X0018649Y0004421D01*
G01X0018671Y0004368D01*
G01X0018701Y0004318D01*
G01X0018739Y0004274D01*
G01X0018783Y0004237D01*
G01X0018832Y0004206D01*
G01X0018886Y0004184D01*
G01X0018899Y0004181D01*
G01X0018899Y0002430D01*
G01X0018838Y0002426D01*
G01X0018778Y0002411D01*
G01X0018721Y0002387D01*
G01X0018668Y0002355D01*
G01X0018621Y0002315D01*
G01X0018581Y0002268D01*
G01X0018548Y0002215D01*
G01X0018524Y0002158D01*
G01X0018510Y0002097D01*
G01X0018505Y0002035D01*
G01X0018510Y0001974D01*
G01X0018524Y0001913D01*
G01X0018548Y0001856D01*
G01X0018581Y0001803D01*
G01X0018621Y0001756D01*
G01X0018668Y0001716D01*
G01X0018721Y0001684D01*
G01X0018778Y0001660D01*
G01X0018838Y0001645D01*
G01X0018899Y0001641D01*
G01X0018899Y0000816D01*
G37*
G36*
G01X0017999Y0003554D02*
G01X0017765Y0003788D01*
G01X0017760Y0003795D01*
G01X0017733Y0003818D01*
G01X0017703Y0003837D01*
G01X0017670Y0003850D01*
G01X0017635Y0003858D01*
G01X0017635Y0003858D01*
G01X0017600Y0003861D01*
G01X0017591Y0003860D01*
G01X0017297Y0003860D01*
G01X0017297Y0004356D01*
G01X0017298Y0004356D01*
G01X0017306Y0004359D01*
G01X0017315Y0004363D01*
G01X0017322Y0004369D01*
G01X0017329Y0004375D01*
G01X0017334Y0004383D01*
G01X0017339Y0004391D01*
G01X0017351Y0004422D01*
G01X0017359Y0004454D01*
G01X0017365Y0004486D01*
G01X0017368Y0004519D01*
G01X0017368Y0004552D01*
G01X0017365Y0004585D01*
G01X0017359Y0004617D01*
G01X0017351Y0004649D01*
G01X0017339Y0004680D01*
G01X0017335Y0004688D01*
G01X0017329Y0004696D01*
G01X0017322Y0004702D01*
G01X0017315Y0004708D01*
G01X0017307Y0004712D01*
G01X0017298Y0004715D01*
G01X0017297Y0004715D01*
G01X0017297Y0016114D01*
G01X0017999Y0016114D01*
G01X0017999Y0004905D01*
G01X0017942Y0004900D01*
G01X0017886Y0004887D01*
G01X0017832Y0004864D01*
G01X0017783Y0004834D01*
G01X0017739Y0004797D01*
G01X0017701Y0004753D01*
G01X0017671Y0004703D01*
G01X0017649Y0004650D01*
G01X0017635Y0004593D01*
G01X0017631Y0004535D01*
G01X0017635Y0004478D01*
G01X0017649Y0004421D01*
G01X0017671Y0004368D01*
G01X0017701Y0004318D01*
G01X0017739Y0004274D01*
G01X0017783Y0004237D01*
G01X0017832Y0004206D01*
G01X0017886Y0004184D01*
G01X0017942Y0004171D01*
G01X0017999Y0004166D01*
G01X0017999Y0003554D01*
G37*
G36*
G01X0017297Y0003860D02*
G01X0017000Y0003860D01*
G01X0017000Y0004167D01*
G01X0017017Y0004167D01*
G01X0017049Y0004170D01*
G01X0017082Y0004176D01*
G01X0017114Y0004185D01*
G01X0017145Y0004197D01*
G01X0017153Y0004201D01*
G01X0017160Y0004206D01*
G01X0017167Y0004213D01*
G01X0017172Y0004221D01*
G01X0017177Y0004229D01*
G01X0017179Y0004238D01*
G01X0017181Y0004247D01*
G01X0017181Y0004257D01*
G01X0017179Y0004266D01*
G01X0017176Y0004275D01*
G01X0017172Y0004283D01*
G01X0017166Y0004290D01*
G01X0017159Y0004297D01*
G01X0017152Y0004302D01*
G01X0017144Y0004306D01*
G01X0017135Y0004309D01*
G01X0017125Y0004311D01*
G01X0017116Y0004310D01*
G01X0017107Y0004309D01*
G01X0017098Y0004306D01*
G01X0017077Y0004298D01*
G01X0017056Y0004292D01*
G01X0017034Y0004288D01*
G01X0017011Y0004286D01*
G01X0017000Y0004286D01*
G01X0017000Y0004785D01*
G01X0017011Y0004785D01*
G01X0017034Y0004783D01*
G01X0017056Y0004779D01*
G01X0017077Y0004773D01*
G01X0017098Y0004765D01*
G01X0017107Y0004762D01*
G01X0017116Y0004761D01*
G01X0017125Y0004761D01*
G01X0017135Y0004762D01*
G01X0017143Y0004765D01*
G01X0017152Y0004769D01*
G01X0017159Y0004774D01*
G01X0017166Y0004781D01*
G01X0017172Y0004788D01*
G01X0017176Y0004797D01*
G01X0017179Y0004805D01*
G01X0017180Y0004814D01*
G01X0017180Y0004824D01*
G01X0017179Y0004833D01*
G01X0017176Y0004842D01*
G01X0017172Y0004850D01*
G01X0017167Y0004858D01*
G01X0017160Y0004864D01*
G01X0017153Y0004870D01*
G01X0017144Y0004874D01*
G01X0017114Y0004886D01*
G01X0017082Y0004895D01*
G01X0017049Y0004901D01*
G01X0017017Y0004904D01*
G01X0017000Y0004904D01*
G01X0017000Y0016114D01*
G01X0017297Y0016114D01*
G01X0017297Y0004715D01*
G01X0017288Y0004716D01*
G01X0017279Y0004716D01*
G01X0017270Y0004714D01*
G01X0017261Y0004711D01*
G01X0017253Y0004707D01*
G01X0017245Y0004702D01*
G01X0017239Y0004695D01*
G01X0017233Y0004687D01*
G01X0017229Y0004679D01*
G01X0017226Y0004670D01*
G01X0017225Y0004661D01*
G01X0017225Y0004651D01*
G01X0017227Y0004642D01*
G01X0017230Y0004633D01*
G01X0017238Y0004613D01*
G01X0017244Y0004591D01*
G01X0017248Y0004569D01*
G01X0017250Y0004547D01*
G01X0017250Y0004524D01*
G01X0017248Y0004502D01*
G01X0017244Y0004480D01*
G01X0017238Y0004458D01*
G01X0017230Y0004437D01*
G01X0017227Y0004429D01*
G01X0017225Y0004419D01*
G01X0017225Y0004410D01*
G01X0017227Y0004401D01*
G01X0017229Y0004392D01*
G01X0017233Y0004384D01*
G01X0017239Y0004376D01*
G01X0017245Y0004370D01*
G01X0017253Y0004364D01*
G01X0017261Y0004360D01*
G01X0017270Y0004357D01*
G01X0017279Y0004355D01*
G01X0017288Y0004355D01*
G01X0017297Y0004356D01*
G01X0017297Y0003860D01*
G37*
G36*
G01X0017000Y0003860D02*
G01X0016704Y0003860D01*
G01X0016704Y0004356D01*
G01X0016712Y0004355D01*
G01X0016721Y0004355D01*
G01X0016730Y0004357D01*
G01X0016739Y0004359D01*
G01X0016747Y0004364D01*
G01X0016755Y0004369D01*
G01X0016761Y0004376D01*
G01X0016767Y0004384D01*
G01X0016771Y0004392D01*
G01X0016774Y0004401D01*
G01X0016775Y0004410D01*
G01X0016775Y0004420D01*
G01X0016773Y0004429D01*
G01X0016770Y0004437D01*
G01X0016762Y0004458D01*
G01X0016756Y0004480D01*
G01X0016752Y0004502D01*
G01X0016750Y0004524D01*
G01X0016750Y0004547D01*
G01X0016752Y0004569D01*
G01X0016756Y0004591D01*
G01X0016762Y0004613D01*
G01X0016770Y0004634D01*
G01X0016773Y0004642D01*
G01X0016775Y0004651D01*
G01X0016775Y0004661D01*
G01X0016774Y0004670D01*
G01X0016771Y0004679D01*
G01X0016767Y0004687D01*
G01X0016761Y0004695D01*
G01X0016755Y0004701D01*
G01X0016747Y0004707D01*
G01X0016739Y0004711D01*
G01X0016730Y0004714D01*
G01X0016721Y0004716D01*
G01X0016712Y0004716D01*
G01X0016704Y0004715D01*
G01X0016704Y0016114D01*
G01X0017000Y0016114D01*
G01X0017000Y0004904D01*
G01X0016984Y0004904D01*
G01X0016951Y0004901D01*
G01X0016918Y0004895D01*
G01X0016886Y0004886D01*
G01X0016855Y0004874D01*
G01X0016847Y0004870D01*
G01X0016840Y0004865D01*
G01X0016833Y0004858D01*
G01X0016828Y0004850D01*
G01X0016824Y0004842D01*
G01X0016821Y0004833D01*
G01X0016819Y0004824D01*
G01X0016820Y0004814D01*
G01X0016821Y0004805D01*
G01X0016824Y0004796D01*
G01X0016828Y0004788D01*
G01X0016834Y0004781D01*
G01X0016841Y0004774D01*
G01X0016848Y0004769D01*
G01X0016857Y0004765D01*
G01X0016866Y0004762D01*
G01X0016875Y0004760D01*
G01X0016884Y0004760D01*
G01X0016893Y0004762D01*
G01X0016902Y0004765D01*
G01X0016923Y0004773D01*
G01X0016945Y0004779D01*
G01X0016967Y0004783D01*
G01X0016989Y0004785D01*
G01X0017000Y0004785D01*
G01X0017000Y0004286D01*
G01X0016989Y0004286D01*
G01X0016967Y0004288D01*
G01X0016945Y0004292D01*
G01X0016923Y0004298D01*
G01X0016902Y0004306D01*
G01X0016893Y0004309D01*
G01X0016884Y0004310D01*
G01X0016875Y0004310D01*
G01X0016866Y0004309D01*
G01X0016857Y0004306D01*
G01X0016848Y0004302D01*
G01X0016841Y0004297D01*
G01X0016834Y0004290D01*
G01X0016829Y0004283D01*
G01X0016824Y0004274D01*
G01X0016821Y0004266D01*
G01X0016820Y0004256D01*
G01X0016820Y0004247D01*
G01X0016821Y0004238D01*
G01X0016824Y0004229D01*
G01X0016828Y0004221D01*
G01X0016833Y0004213D01*
G01X0016840Y0004207D01*
G01X0016847Y0004201D01*
G01X0016856Y0004197D01*
G01X0016886Y0004185D01*
G01X0016918Y0004176D01*
G01X0016951Y0004170D01*
G01X0016984Y0004167D01*
G01X0017000Y0004167D01*
G01X0017000Y0003860D01*
G37*
G36*
G01X0016704Y0003860D02*
G01X0016297Y0003860D01*
G01X0016297Y0004356D01*
G01X0016298Y0004356D01*
G01X0016306Y0004359D01*
G01X0016315Y0004363D01*
G01X0016322Y0004369D01*
G01X0016329Y0004375D01*
G01X0016334Y0004383D01*
G01X0016339Y0004391D01*
G01X0016350Y0004422D01*
G01X0016359Y0004454D01*
G01X0016365Y0004486D01*
G01X0016368Y0004519D01*
G01X0016368Y0004552D01*
G01X0016365Y0004585D01*
G01X0016359Y0004617D01*
G01X0016350Y0004649D01*
G01X0016339Y0004680D01*
G01X0016335Y0004688D01*
G01X0016329Y0004696D01*
G01X0016322Y0004702D01*
G01X0016315Y0004708D01*
G01X0016307Y0004712D01*
G01X0016298Y0004715D01*
G01X0016297Y0004715D01*
G01X0016297Y0016114D01*
G01X0016704Y0016114D01*
G01X0016704Y0004715D01*
G01X0016703Y0004714D01*
G01X0016694Y0004712D01*
G01X0016685Y0004708D01*
G01X0016678Y0004702D01*
G01X0016671Y0004696D01*
G01X0016666Y0004688D01*
G01X0016661Y0004680D01*
G01X0016650Y0004649D01*
G01X0016641Y0004617D01*
G01X0016635Y0004585D01*
G01X0016632Y0004552D01*
G01X0016632Y0004519D01*
G01X0016635Y0004486D01*
G01X0016641Y0004454D01*
G01X0016650Y0004422D01*
G01X0016661Y0004391D01*
G01X0016665Y0004383D01*
G01X0016671Y0004375D01*
G01X0016678Y0004369D01*
G01X0016685Y0004363D01*
G01X0016694Y0004359D01*
G01X0016703Y0004356D01*
G01X0016704Y0004356D01*
G01X0016704Y0003860D01*
G37*
G36*
G01X0016297Y0003860D02*
G01X0016115Y0003860D01*
G01X0016115Y0004185D01*
G01X0016145Y0004197D01*
G01X0016153Y0004201D01*
G01X0016160Y0004206D01*
G01X0016167Y0004213D01*
G01X0016172Y0004221D01*
G01X0016177Y0004229D01*
G01X0016179Y0004238D01*
G01X0016181Y0004247D01*
G01X0016181Y0004257D01*
G01X0016179Y0004266D01*
G01X0016176Y0004275D01*
G01X0016172Y0004283D01*
G01X0016166Y0004290D01*
G01X0016159Y0004297D01*
G01X0016152Y0004302D01*
G01X0016144Y0004306D01*
G01X0016135Y0004309D01*
G01X0016125Y0004311D01*
G01X0016116Y0004310D01*
G01X0016115Y0004310D01*
G01X0016115Y0004761D01*
G01X0016116Y0004761D01*
G01X0016125Y0004761D01*
G01X0016135Y0004762D01*
G01X0016143Y0004765D01*
G01X0016152Y0004769D01*
G01X0016159Y0004774D01*
G01X0016166Y0004781D01*
G01X0016172Y0004788D01*
G01X0016176Y0004797D01*
G01X0016179Y0004805D01*
G01X0016180Y0004814D01*
G01X0016180Y0004824D01*
G01X0016179Y0004833D01*
G01X0016176Y0004842D01*
G01X0016172Y0004850D01*
G01X0016167Y0004858D01*
G01X0016160Y0004864D01*
G01X0016153Y0004870D01*
G01X0016144Y0004874D01*
G01X0016115Y0004885D01*
G01X0016115Y0016114D01*
G01X0016297Y0016114D01*
G01X0016297Y0004715D01*
G01X0016288Y0004716D01*
G01X0016279Y0004716D01*
G01X0016270Y0004714D01*
G01X0016261Y0004711D01*
G01X0016253Y0004707D01*
G01X0016245Y0004702D01*
G01X0016239Y0004695D01*
G01X0016233Y0004687D01*
G01X0016229Y0004679D01*
G01X0016226Y0004670D01*
G01X0016225Y0004661D01*
G01X0016225Y0004651D01*
G01X0016227Y0004642D01*
G01X0016230Y0004633D01*
G01X0016238Y0004613D01*
G01X0016244Y0004591D01*
G01X0016248Y0004569D01*
G01X0016250Y0004547D01*
G01X0016250Y0004524D01*
G01X0016248Y0004502D01*
G01X0016244Y0004480D01*
G01X0016238Y0004458D01*
G01X0016230Y0004437D01*
G01X0016227Y0004429D01*
G01X0016225Y0004419D01*
G01X0016225Y0004410D01*
G01X0016227Y0004401D01*
G01X0016229Y0004392D01*
G01X0016233Y0004384D01*
G01X0016239Y0004376D01*
G01X0016245Y0004370D01*
G01X0016253Y0004364D01*
G01X0016261Y0004360D01*
G01X0016270Y0004357D01*
G01X0016279Y0004355D01*
G01X0016288Y0004355D01*
G01X0016297Y0004356D01*
G01X0016297Y0003860D01*
G37*
G36*
G01X0017999Y0000816D02*
G01X0016115Y0000816D01*
G01X0016115Y0001706D01*
G01X0016136Y0001720D01*
G01X0016165Y0001744D01*
G01X0016192Y0001770D01*
G01X0016216Y0001800D01*
G01X0016237Y0001831D01*
G01X0016255Y0001864D01*
G01X0016270Y0001899D01*
G01X0016272Y0001908D01*
G01X0016274Y0001918D01*
G01X0016273Y0001927D01*
G01X0016271Y0001936D01*
G01X0016268Y0001945D01*
G01X0016264Y0001953D01*
G01X0016258Y0001960D01*
G01X0016251Y0001967D01*
G01X0016243Y0001972D01*
G01X0016235Y0001976D01*
G01X0016226Y0001978D01*
G01X0016216Y0001979D01*
G01X0016207Y0001979D01*
G01X0016198Y0001977D01*
G01X0016189Y0001974D01*
G01X0016181Y0001969D01*
G01X0016174Y0001964D01*
G01X0016167Y0001957D01*
G01X0016162Y0001949D01*
G01X0016158Y0001940D01*
G01X0016148Y0001916D01*
G01X0016136Y0001893D01*
G01X0016121Y0001871D01*
G01X0016115Y0001863D01*
G01X0016115Y0002207D01*
G01X0016121Y0002200D01*
G01X0016136Y0002178D01*
G01X0016148Y0002155D01*
G01X0016159Y0002131D01*
G01X0016162Y0002122D01*
G01X0016168Y0002115D01*
G01X0016174Y0002108D01*
G01X0016181Y0002102D01*
G01X0016189Y0002097D01*
G01X0016198Y0002094D01*
G01X0016207Y0002092D01*
G01X0016216Y0002092D01*
G01X0016226Y0002093D01*
G01X0016235Y0002096D01*
G01X0016243Y0002099D01*
G01X0016251Y0002105D01*
G01X0016258Y0002111D01*
G01X0016263Y0002118D01*
G01X0016268Y0002126D01*
G01X0016271Y0002135D01*
G01X0016273Y0002144D01*
G01X0016273Y0002153D01*
G01X0016272Y0002163D01*
G01X0016269Y0002172D01*
G01X0016255Y0002207D01*
G01X0016237Y0002240D01*
G01X0016222Y0002262D01*
G01X0016250Y0002260D01*
G01X0016259Y0002260D01*
G01X0016357Y0002260D01*
G01X0016512Y0002105D01*
G01X0016510Y0002097D01*
G01X0016505Y0002035D01*
G01X0016510Y0001974D01*
G01X0016524Y0001913D01*
G01X0016548Y0001856D01*
G01X0016581Y0001803D01*
G01X0016621Y0001756D01*
G01X0016668Y0001716D01*
G01X0016721Y0001684D01*
G01X0016778Y0001660D01*
G01X0016838Y0001645D01*
G01X0016900Y0001641D01*
G01X0016962Y0001645D01*
G01X0017022Y0001660D01*
G01X0017079Y0001684D01*
G01X0017132Y0001716D01*
G01X0017179Y0001756D01*
G01X0017220Y0001803D01*
G01X0017252Y0001856D01*
G01X0017276Y0001913D01*
G01X0017290Y0001974D01*
G01X0017294Y0002035D01*
G01X0017290Y0002097D01*
G01X0017276Y0002158D01*
G01X0017252Y0002215D01*
G01X0017220Y0002268D01*
G01X0017179Y0002315D01*
G01X0017132Y0002355D01*
G01X0017079Y0002387D01*
G01X0017022Y0002411D01*
G01X0016962Y0002426D01*
G01X0016900Y0002430D01*
G01X0016838Y0002426D01*
G01X0016830Y0002424D01*
G01X0016615Y0002638D01*
G01X0016610Y0002645D01*
G01X0016583Y0002668D01*
G01X0016583Y0002668D01*
G01X0016571Y0002675D01*
G01X0016566Y0002678D01*
G01X0016579Y0002684D01*
G01X0016632Y0002716D01*
G01X0016679Y0002756D01*
G01X0016720Y0002803D01*
G01X0016752Y0002856D01*
G01X0016776Y0002913D01*
G01X0016790Y0002974D01*
G01X0016794Y0003035D01*
G01X0016790Y0003097D01*
G01X0016776Y0003157D01*
G01X0016752Y0003215D01*
G01X0016720Y0003268D01*
G01X0016679Y0003315D01*
G01X0016632Y0003355D01*
G01X0016579Y0003387D01*
G01X0016524Y0003410D01*
G01X0017277Y0003410D01*
G01X0017221Y0003387D01*
G01X0017168Y0003355D01*
G01X0017121Y0003315D01*
G01X0017081Y0003268D01*
G01X0017048Y0003215D01*
G01X0017024Y0003157D01*
G01X0017010Y0003097D01*
G01X0017005Y0003035D01*
G01X0017010Y0002974D01*
G01X0017024Y0002913D01*
G01X0017048Y0002856D01*
G01X0017081Y0002803D01*
G01X0017121Y0002756D01*
G01X0017168Y0002716D01*
G01X0017221Y0002684D01*
G01X0017278Y0002660D01*
G01X0017338Y0002645D01*
G01X0017400Y0002641D01*
G01X0017462Y0002645D01*
G01X0017522Y0002660D01*
G01X0017579Y0002684D01*
G01X0017632Y0002716D01*
G01X0017675Y0002753D01*
G01X0017675Y0002359D01*
G01X0017668Y0002355D01*
G01X0017621Y0002315D01*
G01X0017581Y0002268D01*
G01X0017548Y0002215D01*
G01X0017524Y0002158D01*
G01X0017510Y0002097D01*
G01X0017505Y0002035D01*
G01X0017510Y0001974D01*
G01X0017524Y0001913D01*
G01X0017548Y0001856D01*
G01X0017581Y0001803D01*
G01X0017621Y0001756D01*
G01X0017668Y0001716D01*
G01X0017721Y0001684D01*
G01X0017778Y0001660D01*
G01X0017838Y0001645D01*
G01X0017900Y0001641D01*
G01X0017962Y0001645D01*
G01X0017999Y0001654D01*
G01X0017999Y0000816D01*
G37*
G36*
G01X0015704Y0003410D02*
G01X0016115Y0003410D01*
G01X0016115Y0003308D01*
G01X0016081Y0003268D01*
G01X0016048Y0003215D01*
G01X0016024Y0003157D01*
G01X0016010Y0003097D01*
G01X0016005Y0003035D01*
G01X0016010Y0002974D01*
G01X0016024Y0002913D01*
G01X0016046Y0002860D01*
G01X0015704Y0002860D01*
G01X0015704Y0003410D01*
G37*
G36*
G01X0016115Y0003860D02*
G01X0015704Y0003860D01*
G01X0015704Y0004356D01*
G01X0015712Y0004355D01*
G01X0015721Y0004355D01*
G01X0015730Y0004357D01*
G01X0015739Y0004359D01*
G01X0015747Y0004364D01*
G01X0015755Y0004369D01*
G01X0015761Y0004376D01*
G01X0015767Y0004384D01*
G01X0015771Y0004392D01*
G01X0015774Y0004401D01*
G01X0015775Y0004410D01*
G01X0015775Y0004420D01*
G01X0015773Y0004429D01*
G01X0015770Y0004437D01*
G01X0015762Y0004458D01*
G01X0015756Y0004480D01*
G01X0015752Y0004502D01*
G01X0015750Y0004524D01*
G01X0015750Y0004547D01*
G01X0015752Y0004569D01*
G01X0015756Y0004591D01*
G01X0015762Y0004613D01*
G01X0015770Y0004634D01*
G01X0015773Y0004642D01*
G01X0015775Y0004651D01*
G01X0015775Y0004661D01*
G01X0015774Y0004670D01*
G01X0015771Y0004679D01*
G01X0015767Y0004687D01*
G01X0015761Y0004695D01*
G01X0015755Y0004701D01*
G01X0015747Y0004707D01*
G01X0015739Y0004711D01*
G01X0015730Y0004714D01*
G01X0015721Y0004716D01*
G01X0015712Y0004716D01*
G01X0015704Y0004715D01*
G01X0015704Y0016114D01*
G01X0016115Y0016114D01*
G01X0016115Y0004885D01*
G01X0016114Y0004886D01*
G01X0016082Y0004895D01*
G01X0016049Y0004901D01*
G01X0016017Y0004904D01*
G01X0015984Y0004904D01*
G01X0015951Y0004901D01*
G01X0015918Y0004895D01*
G01X0015886Y0004886D01*
G01X0015855Y0004874D01*
G01X0015847Y0004870D01*
G01X0015840Y0004865D01*
G01X0015833Y0004858D01*
G01X0015828Y0004850D01*
G01X0015824Y0004842D01*
G01X0015821Y0004833D01*
G01X0015819Y0004824D01*
G01X0015820Y0004814D01*
G01X0015821Y0004805D01*
G01X0015824Y0004796D01*
G01X0015828Y0004788D01*
G01X0015834Y0004781D01*
G01X0015841Y0004774D01*
G01X0015848Y0004769D01*
G01X0015857Y0004765D01*
G01X0015865Y0004762D01*
G01X0015875Y0004760D01*
G01X0015884Y0004760D01*
G01X0015893Y0004762D01*
G01X0015902Y0004765D01*
G01X0015923Y0004773D01*
G01X0015945Y0004779D01*
G01X0015966Y0004783D01*
G01X0015989Y0004785D01*
G01X0016011Y0004785D01*
G01X0016034Y0004783D01*
G01X0016056Y0004779D01*
G01X0016077Y0004773D01*
G01X0016098Y0004765D01*
G01X0016107Y0004762D01*
G01X0016115Y0004761D01*
G01X0016115Y0004310D01*
G01X0016107Y0004309D01*
G01X0016098Y0004306D01*
G01X0016077Y0004298D01*
G01X0016056Y0004292D01*
G01X0016034Y0004288D01*
G01X0016011Y0004286D01*
G01X0015989Y0004286D01*
G01X0015966Y0004288D01*
G01X0015945Y0004292D01*
G01X0015923Y0004298D01*
G01X0015902Y0004306D01*
G01X0015893Y0004309D01*
G01X0015884Y0004310D01*
G01X0015875Y0004310D01*
G01X0015865Y0004309D01*
G01X0015857Y0004306D01*
G01X0015848Y0004302D01*
G01X0015841Y0004297D01*
G01X0015834Y0004290D01*
G01X0015829Y0004283D01*
G01X0015824Y0004274D01*
G01X0015821Y0004266D01*
G01X0015820Y0004256D01*
G01X0015820Y0004247D01*
G01X0015821Y0004238D01*
G01X0015824Y0004229D01*
G01X0015828Y0004221D01*
G01X0015833Y0004213D01*
G01X0015840Y0004207D01*
G01X0015847Y0004201D01*
G01X0015856Y0004197D01*
G01X0015886Y0004185D01*
G01X0015918Y0004176D01*
G01X0015951Y0004170D01*
G01X0015984Y0004167D01*
G01X0016017Y0004167D01*
G01X0016049Y0004170D01*
G01X0016082Y0004176D01*
G01X0016114Y0004185D01*
G01X0016115Y0004185D01*
G01X0016115Y0003860D01*
G37*
G36*
G01X0014999Y0003410D02*
G01X0015704Y0003410D01*
G01X0015704Y0002860D01*
G01X0014999Y0002860D01*
G01X0014999Y0003410D01*
G37*
G36*
G01X0015704Y0003860D02*
G01X0014999Y0003860D01*
G01X0014999Y0004166D01*
G01X0015000Y0004166D01*
G01X0015058Y0004171D01*
G01X0015114Y0004184D01*
G01X0015168Y0004206D01*
G01X0015217Y0004237D01*
G01X0015261Y0004274D01*
G01X0015299Y0004318D01*
G01X0015329Y0004368D01*
G01X0015351Y0004421D01*
G01X0015365Y0004478D01*
G01X0015368Y0004535D01*
G01X0015365Y0004593D01*
G01X0015351Y0004650D01*
G01X0015329Y0004703D01*
G01X0015299Y0004753D01*
G01X0015261Y0004797D01*
G01X0015217Y0004834D01*
G01X0015168Y0004864D01*
G01X0015114Y0004887D01*
G01X0015058Y0004900D01*
G01X0015000Y0004905D01*
G01X0014999Y0004905D01*
G01X0014999Y0016114D01*
G01X0015704Y0016114D01*
G01X0015704Y0004715D01*
G01X0015703Y0004714D01*
G01X0015694Y0004712D01*
G01X0015685Y0004708D01*
G01X0015678Y0004702D01*
G01X0015671Y0004696D01*
G01X0015666Y0004688D01*
G01X0015661Y0004680D01*
G01X0015650Y0004649D01*
G01X0015641Y0004617D01*
G01X0015635Y0004585D01*
G01X0015632Y0004552D01*
G01X0015632Y0004519D01*
G01X0015635Y0004486D01*
G01X0015641Y0004454D01*
G01X0015650Y0004422D01*
G01X0015661Y0004391D01*
G01X0015665Y0004383D01*
G01X0015671Y0004375D01*
G01X0015678Y0004369D01*
G01X0015685Y0004363D01*
G01X0015694Y0004359D01*
G01X0015703Y0004356D01*
G01X0015704Y0004356D01*
G01X0015704Y0003860D01*
G37*
G36*
G01X0013999Y0003410D02*
G01X0014999Y0003410D01*
G01X0014999Y0002860D01*
G01X0013999Y0002860D01*
G01X0013999Y0003410D01*
G37*
G36*
G01X0014999Y0003860D02*
G01X0013999Y0003860D01*
G01X0013999Y0004166D01*
G01X0014000Y0004166D01*
G01X0014058Y0004171D01*
G01X0014114Y0004184D01*
G01X0014168Y0004206D01*
G01X0014217Y0004237D01*
G01X0014261Y0004274D01*
G01X0014299Y0004318D01*
G01X0014329Y0004368D01*
G01X0014351Y0004421D01*
G01X0014365Y0004478D01*
G01X0014368Y0004535D01*
G01X0014365Y0004593D01*
G01X0014351Y0004650D01*
G01X0014329Y0004703D01*
G01X0014299Y0004753D01*
G01X0014261Y0004797D01*
G01X0014217Y0004834D01*
G01X0014168Y0004864D01*
G01X0014114Y0004887D01*
G01X0014058Y0004900D01*
G01X0014000Y0004905D01*
G01X0013999Y0004905D01*
G01X0013999Y0016114D01*
G01X0014999Y0016114D01*
G01X0014999Y0004905D01*
G01X0014942Y0004900D01*
G01X0014886Y0004887D01*
G01X0014832Y0004864D01*
G01X0014783Y0004834D01*
G01X0014739Y0004797D01*
G01X0014701Y0004753D01*
G01X0014671Y0004703D01*
G01X0014649Y0004650D01*
G01X0014635Y0004593D01*
G01X0014631Y0004535D01*
G01X0014635Y0004478D01*
G01X0014649Y0004421D01*
G01X0014671Y0004368D01*
G01X0014701Y0004318D01*
G01X0014739Y0004274D01*
G01X0014783Y0004237D01*
G01X0014832Y0004206D01*
G01X0014886Y0004184D01*
G01X0014942Y0004171D01*
G01X0014999Y0004166D01*
G01X0014999Y0003860D01*
G37*
G36*
G01X0013999Y0003860D02*
G01X0013993Y0003860D01*
G01X0013365Y0004488D01*
G01X0013368Y0004535D01*
G01X0013365Y0004593D01*
G01X0013351Y0004650D01*
G01X0013329Y0004703D01*
G01X0013299Y0004753D01*
G01X0013261Y0004797D01*
G01X0013217Y0004834D01*
G01X0013168Y0004864D01*
G01X0013114Y0004887D01*
G01X0013058Y0004900D01*
G01X0013000Y0004905D01*
G01X0012942Y0004900D01*
G01X0012886Y0004887D01*
G01X0012832Y0004864D01*
G01X0012783Y0004834D01*
G01X0012739Y0004797D01*
G01X0012701Y0004753D01*
G01X0012671Y0004703D01*
G01X0012649Y0004650D01*
G01X0012635Y0004593D01*
G01X0012631Y0004535D01*
G01X0012635Y0004478D01*
G01X0012649Y0004421D01*
G01X0012671Y0004368D01*
G01X0012701Y0004318D01*
G01X0012739Y0004274D01*
G01X0012783Y0004237D01*
G01X0012832Y0004206D01*
G01X0012886Y0004184D01*
G01X0012942Y0004171D01*
G01X0013000Y0004166D01*
G01X0013047Y0004170D01*
G01X0013735Y0003483D01*
G01X0013740Y0003476D01*
G01X0013767Y0003453D01*
G01X0013767Y0003453D01*
G01X0013786Y0003441D01*
G01X0013798Y0003434D01*
G01X0013830Y0003421D01*
G01X0013865Y0003413D01*
G01X0013865Y0003413D01*
G01X0013900Y0003410D01*
G01X0013909Y0003410D01*
G01X0013999Y0003410D01*
G01X0013999Y0002860D01*
G01X0012297Y0002860D01*
G01X0012297Y0004356D01*
G01X0012297Y0004356D01*
G01X0012306Y0004359D01*
G01X0012315Y0004363D01*
G01X0012322Y0004369D01*
G01X0012329Y0004375D01*
G01X0012334Y0004383D01*
G01X0012339Y0004391D01*
G01X0012351Y0004422D01*
G01X0012359Y0004454D01*
G01X0012365Y0004486D01*
G01X0012368Y0004519D01*
G01X0012368Y0004552D01*
G01X0012365Y0004585D01*
G01X0012359Y0004617D01*
G01X0012351Y0004649D01*
G01X0012339Y0004680D01*
G01X0012335Y0004688D01*
G01X0012329Y0004696D01*
G01X0012322Y0004702D01*
G01X0012315Y0004708D01*
G01X0012307Y0004712D01*
G01X0012297Y0004715D01*
G01X0012297Y0004715D01*
G01X0012297Y0016114D01*
G01X0013999Y0016114D01*
G01X0013999Y0004905D01*
G01X0013942Y0004900D01*
G01X0013886Y0004887D01*
G01X0013832Y0004864D01*
G01X0013783Y0004834D01*
G01X0013739Y0004797D01*
G01X0013701Y0004753D01*
G01X0013671Y0004703D01*
G01X0013649Y0004650D01*
G01X0013635Y0004593D01*
G01X0013631Y0004535D01*
G01X0013635Y0004478D01*
G01X0013649Y0004421D01*
G01X0013671Y0004368D01*
G01X0013701Y0004318D01*
G01X0013739Y0004274D01*
G01X0013783Y0004237D01*
G01X0013832Y0004206D01*
G01X0013886Y0004184D01*
G01X0013942Y0004171D01*
G01X0013999Y0004166D01*
G01X0013999Y0003860D01*
G37*
G36*
G01X0012297Y0002860D02*
G01X0012000Y0002860D01*
G01X0012000Y0004167D01*
G01X0012017Y0004167D01*
G01X0012049Y0004170D01*
G01X0012082Y0004176D01*
G01X0012114Y0004185D01*
G01X0012145Y0004197D01*
G01X0012153Y0004201D01*
G01X0012160Y0004206D01*
G01X0012167Y0004213D01*
G01X0012172Y0004221D01*
G01X0012176Y0004229D01*
G01X0012179Y0004238D01*
G01X0012181Y0004247D01*
G01X0012181Y0004257D01*
G01X0012179Y0004266D01*
G01X0012176Y0004275D01*
G01X0012172Y0004283D01*
G01X0012166Y0004290D01*
G01X0012159Y0004297D01*
G01X0012152Y0004302D01*
G01X0012144Y0004306D01*
G01X0012135Y0004309D01*
G01X0012125Y0004311D01*
G01X0012116Y0004310D01*
G01X0012107Y0004309D01*
G01X0012098Y0004306D01*
G01X0012077Y0004298D01*
G01X0012055Y0004292D01*
G01X0012034Y0004288D01*
G01X0012011Y0004286D01*
G01X0012000Y0004286D01*
G01X0012000Y0004785D01*
G01X0012011Y0004785D01*
G01X0012034Y0004783D01*
G01X0012055Y0004779D01*
G01X0012077Y0004773D01*
G01X0012098Y0004765D01*
G01X0012107Y0004762D01*
G01X0012116Y0004761D01*
G01X0012125Y0004761D01*
G01X0012135Y0004762D01*
G01X0012143Y0004765D01*
G01X0012152Y0004769D01*
G01X0012159Y0004774D01*
G01X0012166Y0004781D01*
G01X0012172Y0004788D01*
G01X0012176Y0004797D01*
G01X0012179Y0004805D01*
G01X0012180Y0004814D01*
G01X0012180Y0004824D01*
G01X0012179Y0004833D01*
G01X0012176Y0004842D01*
G01X0012172Y0004850D01*
G01X0012167Y0004858D01*
G01X0012160Y0004864D01*
G01X0012153Y0004870D01*
G01X0012144Y0004874D01*
G01X0012114Y0004886D01*
G01X0012082Y0004895D01*
G01X0012049Y0004901D01*
G01X0012017Y0004904D01*
G01X0012000Y0004904D01*
G01X0012000Y0016114D01*
G01X0012297Y0016114D01*
G01X0012297Y0004715D01*
G01X0012288Y0004716D01*
G01X0012279Y0004716D01*
G01X0012270Y0004714D01*
G01X0012261Y0004711D01*
G01X0012253Y0004707D01*
G01X0012245Y0004702D01*
G01X0012239Y0004695D01*
G01X0012233Y0004687D01*
G01X0012229Y0004679D01*
G01X0012226Y0004670D01*
G01X0012225Y0004661D01*
G01X0012225Y0004651D01*
G01X0012227Y0004642D01*
G01X0012230Y0004633D01*
G01X0012238Y0004613D01*
G01X0012244Y0004591D01*
G01X0012248Y0004569D01*
G01X0012250Y0004547D01*
G01X0012250Y0004524D01*
G01X0012248Y0004502D01*
G01X0012244Y0004480D01*
G01X0012238Y0004458D01*
G01X0012230Y0004437D01*
G01X0012227Y0004429D01*
G01X0012225Y0004419D01*
G01X0012225Y0004410D01*
G01X0012227Y0004401D01*
G01X0012229Y0004392D01*
G01X0012233Y0004384D01*
G01X0012239Y0004376D01*
G01X0012245Y0004370D01*
G01X0012253Y0004364D01*
G01X0012261Y0004360D01*
G01X0012270Y0004357D01*
G01X0012279Y0004355D01*
G01X0012288Y0004355D01*
G01X0012297Y0004356D01*
G01X0012297Y0002860D01*
G37*
G36*
G01X0012000Y0002860D02*
G01X0011704Y0002860D01*
G01X0011704Y0004356D01*
G01X0011712Y0004355D01*
G01X0011721Y0004355D01*
G01X0011730Y0004357D01*
G01X0011739Y0004359D01*
G01X0011747Y0004364D01*
G01X0011755Y0004369D01*
G01X0011761Y0004376D01*
G01X0011767Y0004384D01*
G01X0011771Y0004392D01*
G01X0011774Y0004401D01*
G01X0011775Y0004410D01*
G01X0011775Y0004420D01*
G01X0011773Y0004429D01*
G01X0011770Y0004437D01*
G01X0011762Y0004458D01*
G01X0011756Y0004480D01*
G01X0011752Y0004502D01*
G01X0011750Y0004524D01*
G01X0011750Y0004547D01*
G01X0011752Y0004569D01*
G01X0011756Y0004591D01*
G01X0011762Y0004613D01*
G01X0011770Y0004634D01*
G01X0011773Y0004642D01*
G01X0011775Y0004651D01*
G01X0011775Y0004661D01*
G01X0011773Y0004670D01*
G01X0011771Y0004679D01*
G01X0011767Y0004687D01*
G01X0011761Y0004695D01*
G01X0011755Y0004701D01*
G01X0011747Y0004707D01*
G01X0011739Y0004711D01*
G01X0011730Y0004714D01*
G01X0011721Y0004716D01*
G01X0011712Y0004716D01*
G01X0011704Y0004715D01*
G01X0011704Y0016114D01*
G01X0012000Y0016114D01*
G01X0012000Y0004904D01*
G01X0011984Y0004904D01*
G01X0011951Y0004901D01*
G01X0011918Y0004895D01*
G01X0011886Y0004886D01*
G01X0011855Y0004874D01*
G01X0011847Y0004870D01*
G01X0011840Y0004865D01*
G01X0011833Y0004858D01*
G01X0011828Y0004850D01*
G01X0011824Y0004842D01*
G01X0011821Y0004833D01*
G01X0011819Y0004824D01*
G01X0011820Y0004814D01*
G01X0011821Y0004805D01*
G01X0011824Y0004796D01*
G01X0011828Y0004788D01*
G01X0011834Y0004781D01*
G01X0011841Y0004774D01*
G01X0011848Y0004769D01*
G01X0011857Y0004765D01*
G01X0011866Y0004762D01*
G01X0011875Y0004760D01*
G01X0011884Y0004760D01*
G01X0011893Y0004762D01*
G01X0011902Y0004765D01*
G01X0011923Y0004773D01*
G01X0011945Y0004779D01*
G01X0011967Y0004783D01*
G01X0011989Y0004785D01*
G01X0012000Y0004785D01*
G01X0012000Y0004286D01*
G01X0011989Y0004286D01*
G01X0011967Y0004288D01*
G01X0011945Y0004292D01*
G01X0011923Y0004298D01*
G01X0011902Y0004306D01*
G01X0011893Y0004309D01*
G01X0011884Y0004310D01*
G01X0011875Y0004310D01*
G01X0011866Y0004309D01*
G01X0011857Y0004306D01*
G01X0011848Y0004302D01*
G01X0011841Y0004297D01*
G01X0011834Y0004290D01*
G01X0011829Y0004283D01*
G01X0011824Y0004274D01*
G01X0011821Y0004266D01*
G01X0011820Y0004256D01*
G01X0011820Y0004247D01*
G01X0011821Y0004238D01*
G01X0011824Y0004229D01*
G01X0011828Y0004221D01*
G01X0011833Y0004213D01*
G01X0011840Y0004207D01*
G01X0011847Y0004201D01*
G01X0011856Y0004197D01*
G01X0011886Y0004185D01*
G01X0011918Y0004176D01*
G01X0011951Y0004170D01*
G01X0011984Y0004167D01*
G01X0012000Y0004167D01*
G01X0012000Y0002860D01*
G37*
G36*
G01X0011704Y0002860D02*
G01X0011297Y0002860D01*
G01X0011297Y0004356D01*
G01X0011298Y0004356D01*
G01X0011306Y0004359D01*
G01X0011315Y0004363D01*
G01X0011322Y0004369D01*
G01X0011329Y0004375D01*
G01X0011334Y0004383D01*
G01X0011339Y0004391D01*
G01X0011350Y0004422D01*
G01X0011359Y0004454D01*
G01X0011365Y0004486D01*
G01X0011368Y0004519D01*
G01X0011368Y0004552D01*
G01X0011365Y0004585D01*
G01X0011359Y0004617D01*
G01X0011350Y0004649D01*
G01X0011339Y0004680D01*
G01X0011335Y0004688D01*
G01X0011329Y0004696D01*
G01X0011322Y0004702D01*
G01X0011315Y0004708D01*
G01X0011307Y0004712D01*
G01X0011298Y0004715D01*
G01X0011297Y0004715D01*
G01X0011297Y0016114D01*
G01X0011704Y0016114D01*
G01X0011704Y0004715D01*
G01X0011703Y0004714D01*
G01X0011694Y0004712D01*
G01X0011685Y0004708D01*
G01X0011678Y0004702D01*
G01X0011671Y0004696D01*
G01X0011666Y0004688D01*
G01X0011661Y0004680D01*
G01X0011650Y0004649D01*
G01X0011641Y0004617D01*
G01X0011635Y0004585D01*
G01X0011632Y0004552D01*
G01X0011632Y0004519D01*
G01X0011635Y0004486D01*
G01X0011641Y0004454D01*
G01X0011650Y0004422D01*
G01X0011661Y0004391D01*
G01X0011665Y0004383D01*
G01X0011671Y0004375D01*
G01X0011678Y0004369D01*
G01X0011685Y0004363D01*
G01X0011693Y0004359D01*
G01X0011703Y0004356D01*
G01X0011704Y0004356D01*
G01X0011704Y0002860D01*
G37*
G36*
G01X0011297Y0002860D02*
G01X0011212Y0002860D01*
G01X0011212Y0016114D01*
G01X0011297Y0016114D01*
G01X0011297Y0004715D01*
G01X0011288Y0004716D01*
G01X0011279Y0004716D01*
G01X0011270Y0004714D01*
G01X0011261Y0004711D01*
G01X0011253Y0004707D01*
G01X0011245Y0004702D01*
G01X0011239Y0004695D01*
G01X0011233Y0004687D01*
G01X0011229Y0004679D01*
G01X0011226Y0004670D01*
G01X0011225Y0004661D01*
G01X0011225Y0004651D01*
G01X0011227Y0004642D01*
G01X0011230Y0004633D01*
G01X0011238Y0004613D01*
G01X0011244Y0004591D01*
G01X0011248Y0004569D01*
G01X0011250Y0004547D01*
G01X0011250Y0004524D01*
G01X0011248Y0004502D01*
G01X0011244Y0004480D01*
G01X0011238Y0004458D01*
G01X0011230Y0004437D01*
G01X0011227Y0004429D01*
G01X0011225Y0004419D01*
G01X0011225Y0004410D01*
G01X0011227Y0004401D01*
G01X0011229Y0004392D01*
G01X0011233Y0004384D01*
G01X0011239Y0004376D01*
G01X0011245Y0004370D01*
G01X0011253Y0004364D01*
G01X0011261Y0004360D01*
G01X0011270Y0004357D01*
G01X0011279Y0004355D01*
G01X0011288Y0004355D01*
G01X0011297Y0004356D01*
G01X0011297Y0002860D01*
G37*
G36*
G01X0016115Y0000816D02*
G01X0015685Y0000816D01*
G01X0015685Y0001706D01*
G01X0015696Y0001698D01*
G01X0015729Y0001680D01*
G01X0015764Y0001666D01*
G01X0015773Y0001663D01*
G01X0015782Y0001662D01*
G01X0015791Y0001662D01*
G01X0015801Y0001664D01*
G01X0015809Y0001667D01*
G01X0015817Y0001672D01*
G01X0015825Y0001678D01*
G01X0015831Y0001685D01*
G01X0015836Y0001692D01*
G01X0015840Y0001701D01*
G01X0015843Y0001710D01*
G01X0015844Y0001719D01*
G01X0015844Y0001728D01*
G01X0015842Y0001738D01*
G01X0015838Y0001746D01*
G01X0015834Y0001755D01*
G01X0015828Y0001762D01*
G01X0015821Y0001768D01*
G01X0015813Y0001773D01*
G01X0015805Y0001777D01*
G01X0015780Y0001787D01*
G01X0015757Y0001800D01*
G01X0015735Y0001815D01*
G01X0015715Y0001831D01*
G01X0015696Y0001850D01*
G01X0015685Y0001863D01*
G01X0015685Y0002207D01*
G01X0015696Y0002221D01*
G01X0015715Y0002239D01*
G01X0015735Y0002256D01*
G01X0015757Y0002271D01*
G01X0015780Y0002284D01*
G01X0015805Y0002294D01*
G01X0015813Y0002298D01*
G01X0015821Y0002303D01*
G01X0015828Y0002309D01*
G01X0015834Y0002317D01*
G01X0015838Y0002325D01*
G01X0015841Y0002333D01*
G01X0015843Y0002343D01*
G01X0015844Y0002352D01*
G01X0015842Y0002361D01*
G01X0015840Y0002370D01*
G01X0015836Y0002378D01*
G01X0015831Y0002386D01*
G01X0015825Y0002393D01*
G01X0015817Y0002399D01*
G01X0015809Y0002403D01*
G01X0015800Y0002407D01*
G01X0015791Y0002408D01*
G01X0015782Y0002409D01*
G01X0015773Y0002408D01*
G01X0015764Y0002405D01*
G01X0015729Y0002391D01*
G01X0015696Y0002373D01*
G01X0015685Y0002365D01*
G01X0015685Y0002410D01*
G01X0016007Y0002410D01*
G01X0016009Y0002409D01*
G01X0016000Y0002407D01*
G01X0015991Y0002404D01*
G01X0015983Y0002399D01*
G01X0015975Y0002393D01*
G01X0015969Y0002386D01*
G01X0015964Y0002379D01*
G01X0015960Y0002370D01*
G01X0015957Y0002361D01*
G01X0015956Y0002352D01*
G01X0015957Y0002342D01*
G01X0015958Y0002333D01*
G01X0015962Y0002325D01*
G01X0015966Y0002316D01*
G01X0015972Y0002309D01*
G01X0015979Y0002303D01*
G01X0015987Y0002298D01*
G01X0015995Y0002294D01*
G01X0016020Y0002284D01*
G01X0016043Y0002271D01*
G01X0016065Y0002256D01*
G01X0016085Y0002239D01*
G01X0016104Y0002221D01*
G01X0016115Y0002207D01*
G01X0016115Y0001863D01*
G01X0016104Y0001850D01*
G01X0016085Y0001831D01*
G01X0016065Y0001815D01*
G01X0016043Y0001800D01*
G01X0016020Y0001787D01*
G01X0015995Y0001777D01*
G01X0015987Y0001773D01*
G01X0015979Y0001768D01*
G01X0015972Y0001762D01*
G01X0015966Y0001754D01*
G01X0015962Y0001746D01*
G01X0015959Y0001737D01*
G01X0015957Y0001728D01*
G01X0015957Y0001719D01*
G01X0015958Y0001710D01*
G01X0015960Y0001701D01*
G01X0015964Y0001693D01*
G01X0015969Y0001685D01*
G01X0015975Y0001678D01*
G01X0015983Y0001672D01*
G01X0015991Y0001668D01*
G01X0016000Y0001664D01*
G01X0016009Y0001663D01*
G01X0016018Y0001662D01*
G01X0016027Y0001663D01*
G01X0016036Y0001666D01*
G01X0016071Y0001680D01*
G01X0016104Y0001698D01*
G01X0016115Y0001706D01*
G01X0016115Y0000816D01*
G37*
G36*
G01X0015685Y0000816D02*
G01X0015189Y0000816D01*
G01X0015189Y0001041D01*
G01X0015190Y0001041D01*
G01X0015255Y0001046D01*
G01X0015318Y0001061D01*
G01X0015378Y0001086D01*
G01X0015434Y0001120D01*
G01X0015483Y0001162D01*
G01X0015526Y0001212D01*
G01X0015560Y0001267D01*
G01X0015584Y0001327D01*
G01X0015600Y0001391D01*
G01X0015603Y0001455D01*
G01X0015600Y0001520D01*
G01X0015584Y0001584D01*
G01X0015560Y0001644D01*
G01X0015526Y0001699D01*
G01X0015483Y0001749D01*
G01X0015434Y0001791D01*
G01X0015378Y0001825D01*
G01X0015318Y0001850D01*
G01X0015255Y0001865D01*
G01X0015190Y0001870D01*
G01X0015189Y0001870D01*
G01X0015189Y0002410D01*
G01X0015685Y0002410D01*
G01X0015685Y0002365D01*
G01X0015664Y0002351D01*
G01X0015635Y0002327D01*
G01X0015608Y0002300D01*
G01X0015584Y0002271D01*
G01X0015563Y0002240D01*
G01X0015545Y0002207D01*
G01X0015530Y0002172D01*
G01X0015528Y0002163D01*
G01X0015527Y0002153D01*
G01X0015527Y0002144D01*
G01X0015529Y0002135D01*
G01X0015532Y0002126D01*
G01X0015537Y0002118D01*
G01X0015542Y0002111D01*
G01X0015549Y0002104D01*
G01X0015557Y0002099D01*
G01X0015565Y0002095D01*
G01X0015574Y0002093D01*
G01X0015584Y0002092D01*
G01X0015593Y0002092D01*
G01X0015602Y0002094D01*
G01X0015611Y0002097D01*
G01X0015619Y0002102D01*
G01X0015626Y0002107D01*
G01X0015633Y0002114D01*
G01X0015638Y0002122D01*
G01X0015642Y0002131D01*
G01X0015652Y0002155D01*
G01X0015664Y0002178D01*
G01X0015679Y0002200D01*
G01X0015685Y0002207D01*
G01X0015685Y0001863D01*
G01X0015679Y0001871D01*
G01X0015664Y0001893D01*
G01X0015652Y0001916D01*
G01X0015641Y0001940D01*
G01X0015638Y0001949D01*
G01X0015633Y0001956D01*
G01X0015626Y0001963D01*
G01X0015619Y0001969D01*
G01X0015611Y0001974D01*
G01X0015602Y0001977D01*
G01X0015593Y0001979D01*
G01X0015584Y0001979D01*
G01X0015575Y0001978D01*
G01X0015566Y0001975D01*
G01X0015557Y0001972D01*
G01X0015549Y0001966D01*
G01X0015543Y0001960D01*
G01X0015537Y0001953D01*
G01X0015532Y0001945D01*
G01X0015529Y0001936D01*
G01X0015527Y0001927D01*
G01X0015527Y0001918D01*
G01X0015528Y0001908D01*
G01X0015531Y0001899D01*
G01X0015545Y0001864D01*
G01X0015563Y0001831D01*
G01X0015584Y0001800D01*
G01X0015608Y0001770D01*
G01X0015635Y0001744D01*
G01X0015664Y0001720D01*
G01X0015685Y0001706D01*
G01X0015685Y0000816D01*
G37*
G36*
G01X0015189Y0000816D02*
G01X0011212Y0000816D01*
G01X0011212Y0002410D01*
G01X0015189Y0002410D01*
G01X0015189Y0001870D01*
G01X0015125Y0001865D01*
G01X0015062Y0001850D01*
G01X0015002Y0001825D01*
G01X0014946Y0001791D01*
G01X0014897Y0001749D01*
G01X0014855Y0001699D01*
G01X0014821Y0001644D01*
G01X0014796Y0001584D01*
G01X0014780Y0001520D01*
G01X0014775Y0001455D01*
G01X0014780Y0001391D01*
G01X0014796Y0001327D01*
G01X0014821Y0001267D01*
G01X0014855Y0001212D01*
G01X0014897Y0001162D01*
G01X0014946Y0001120D01*
G01X0015002Y0001086D01*
G01X0015062Y0001061D01*
G01X0015125Y0001046D01*
G01X0015189Y0001041D01*
G01X0015189Y0000816D01*
G37*
G36*
G01X0011000Y0016114D02*
G01X0011212Y0016114D01*
G01X0011212Y0002860D01*
G01X0011000Y0002860D01*
G01X0011000Y0004167D01*
G01X0011017Y0004167D01*
G01X0011049Y0004170D01*
G01X0011082Y0004176D01*
G01X0011114Y0004185D01*
G01X0011145Y0004197D01*
G01X0011153Y0004201D01*
G01X0011160Y0004206D01*
G01X0011167Y0004213D01*
G01X0011172Y0004221D01*
G01X0011177Y0004229D01*
G01X0011179Y0004238D01*
G01X0011181Y0004247D01*
G01X0011181Y0004257D01*
G01X0011179Y0004266D01*
G01X0011176Y0004275D01*
G01X0011172Y0004283D01*
G01X0011166Y0004290D01*
G01X0011159Y0004297D01*
G01X0011152Y0004302D01*
G01X0011144Y0004306D01*
G01X0011135Y0004309D01*
G01X0011125Y0004311D01*
G01X0011116Y0004310D01*
G01X0011107Y0004309D01*
G01X0011098Y0004306D01*
G01X0011077Y0004298D01*
G01X0011056Y0004292D01*
G01X0011034Y0004288D01*
G01X0011011Y0004286D01*
G01X0011000Y0004286D01*
G01X0011000Y0004785D01*
G01X0011011Y0004785D01*
G01X0011034Y0004783D01*
G01X0011056Y0004779D01*
G01X0011077Y0004773D01*
G01X0011098Y0004765D01*
G01X0011107Y0004762D01*
G01X0011116Y0004761D01*
G01X0011125Y0004761D01*
G01X0011135Y0004762D01*
G01X0011143Y0004765D01*
G01X0011152Y0004769D01*
G01X0011159Y0004774D01*
G01X0011166Y0004781D01*
G01X0011172Y0004788D01*
G01X0011176Y0004797D01*
G01X0011179Y0004805D01*
G01X0011180Y0004814D01*
G01X0011180Y0004824D01*
G01X0011179Y0004833D01*
G01X0011176Y0004842D01*
G01X0011172Y0004850D01*
G01X0011167Y0004858D01*
G01X0011160Y0004864D01*
G01X0011153Y0004870D01*
G01X0011144Y0004874D01*
G01X0011114Y0004886D01*
G01X0011082Y0004895D01*
G01X0011049Y0004901D01*
G01X0011017Y0004904D01*
G01X0011000Y0004904D01*
G01X0011000Y0016114D01*
G37*
G36*
G01X0011212Y0000816D02*
G01X0011000Y0000816D01*
G01X0011000Y0002410D01*
G01X0011212Y0002410D01*
G01X0011212Y0000816D01*
G37*
G36*
G01X0010704Y0016114D02*
G01X0011000Y0016114D01*
G01X0011000Y0004904D01*
G01X0010984Y0004904D01*
G01X0010951Y0004901D01*
G01X0010918Y0004895D01*
G01X0010886Y0004886D01*
G01X0010855Y0004874D01*
G01X0010847Y0004870D01*
G01X0010840Y0004865D01*
G01X0010833Y0004858D01*
G01X0010828Y0004850D01*
G01X0010824Y0004842D01*
G01X0010821Y0004833D01*
G01X0010819Y0004824D01*
G01X0010820Y0004814D01*
G01X0010821Y0004805D01*
G01X0010824Y0004796D01*
G01X0010828Y0004788D01*
G01X0010834Y0004781D01*
G01X0010841Y0004774D01*
G01X0010848Y0004769D01*
G01X0010857Y0004765D01*
G01X0010865Y0004762D01*
G01X0010875Y0004760D01*
G01X0010884Y0004760D01*
G01X0010893Y0004762D01*
G01X0010902Y0004765D01*
G01X0010923Y0004773D01*
G01X0010945Y0004779D01*
G01X0010966Y0004783D01*
G01X0010989Y0004785D01*
G01X0011000Y0004785D01*
G01X0011000Y0004286D01*
G01X0010989Y0004286D01*
G01X0010966Y0004288D01*
G01X0010945Y0004292D01*
G01X0010923Y0004298D01*
G01X0010902Y0004306D01*
G01X0010893Y0004309D01*
G01X0010884Y0004310D01*
G01X0010875Y0004310D01*
G01X0010865Y0004309D01*
G01X0010857Y0004306D01*
G01X0010848Y0004302D01*
G01X0010841Y0004297D01*
G01X0010834Y0004290D01*
G01X0010829Y0004283D01*
G01X0010824Y0004274D01*
G01X0010821Y0004266D01*
G01X0010820Y0004256D01*
G01X0010820Y0004247D01*
G01X0010821Y0004238D01*
G01X0010824Y0004229D01*
G01X0010828Y0004221D01*
G01X0010833Y0004213D01*
G01X0010840Y0004207D01*
G01X0010847Y0004201D01*
G01X0010856Y0004197D01*
G01X0010886Y0004185D01*
G01X0010918Y0004176D01*
G01X0010951Y0004170D01*
G01X0010984Y0004167D01*
G01X0011000Y0004167D01*
G01X0011000Y0002860D01*
G01X0010704Y0002860D01*
G01X0010704Y0004356D01*
G01X0010712Y0004355D01*
G01X0010721Y0004355D01*
G01X0010730Y0004357D01*
G01X0010739Y0004359D01*
G01X0010747Y0004364D01*
G01X0010755Y0004369D01*
G01X0010761Y0004376D01*
G01X0010767Y0004384D01*
G01X0010771Y0004392D01*
G01X0010774Y0004401D01*
G01X0010775Y0004410D01*
G01X0010775Y0004420D01*
G01X0010773Y0004429D01*
G01X0010770Y0004437D01*
G01X0010762Y0004458D01*
G01X0010756Y0004480D01*
G01X0010752Y0004502D01*
G01X0010750Y0004524D01*
G01X0010750Y0004547D01*
G01X0010752Y0004569D01*
G01X0010756Y0004591D01*
G01X0010762Y0004613D01*
G01X0010770Y0004634D01*
G01X0010773Y0004642D01*
G01X0010775Y0004651D01*
G01X0010775Y0004661D01*
G01X0010774Y0004670D01*
G01X0010771Y0004679D01*
G01X0010767Y0004687D01*
G01X0010761Y0004695D01*
G01X0010755Y0004701D01*
G01X0010747Y0004707D01*
G01X0010739Y0004711D01*
G01X0010730Y0004714D01*
G01X0010721Y0004716D01*
G01X0010712Y0004716D01*
G01X0010704Y0004715D01*
G01X0010704Y0016114D01*
G37*
G36*
G01X0011000Y0000816D02*
G01X0010704Y0000816D01*
G01X0010704Y0002410D01*
G01X0011000Y0002410D01*
G01X0011000Y0000816D01*
G37*
G36*
G01X0010297Y0016114D02*
G01X0010704Y0016114D01*
G01X0010704Y0004715D01*
G01X0010703Y0004714D01*
G01X0010694Y0004712D01*
G01X0010685Y0004708D01*
G01X0010678Y0004702D01*
G01X0010671Y0004696D01*
G01X0010666Y0004688D01*
G01X0010661Y0004680D01*
G01X0010650Y0004649D01*
G01X0010641Y0004617D01*
G01X0010635Y0004585D01*
G01X0010632Y0004552D01*
G01X0010632Y0004519D01*
G01X0010635Y0004486D01*
G01X0010641Y0004454D01*
G01X0010650Y0004422D01*
G01X0010661Y0004391D01*
G01X0010665Y0004383D01*
G01X0010671Y0004375D01*
G01X0010678Y0004369D01*
G01X0010685Y0004363D01*
G01X0010694Y0004359D01*
G01X0010703Y0004356D01*
G01X0010704Y0004356D01*
G01X0010704Y0002860D01*
G01X0010297Y0002860D01*
G01X0010297Y0004356D01*
G01X0010298Y0004356D01*
G01X0010306Y0004359D01*
G01X0010315Y0004363D01*
G01X0010322Y0004369D01*
G01X0010329Y0004375D01*
G01X0010334Y0004383D01*
G01X0010339Y0004391D01*
G01X0010351Y0004422D01*
G01X0010359Y0004454D01*
G01X0010365Y0004486D01*
G01X0010368Y0004519D01*
G01X0010368Y0004552D01*
G01X0010365Y0004585D01*
G01X0010359Y0004617D01*
G01X0010351Y0004649D01*
G01X0010339Y0004680D01*
G01X0010335Y0004688D01*
G01X0010329Y0004696D01*
G01X0010322Y0004702D01*
G01X0010315Y0004708D01*
G01X0010307Y0004712D01*
G01X0010298Y0004715D01*
G01X0010297Y0004715D01*
G01X0010297Y0016114D01*
G37*
G36*
G01X0010000Y0016114D02*
G01X0010297Y0016114D01*
G01X0010297Y0004715D01*
G01X0010288Y0004716D01*
G01X0010279Y0004716D01*
G01X0010270Y0004714D01*
G01X0010261Y0004711D01*
G01X0010253Y0004707D01*
G01X0010245Y0004702D01*
G01X0010239Y0004695D01*
G01X0010233Y0004687D01*
G01X0010229Y0004679D01*
G01X0010226Y0004670D01*
G01X0010225Y0004661D01*
G01X0010225Y0004651D01*
G01X0010227Y0004642D01*
G01X0010230Y0004633D01*
G01X0010238Y0004613D01*
G01X0010244Y0004591D01*
G01X0010248Y0004569D01*
G01X0010250Y0004547D01*
G01X0010250Y0004524D01*
G01X0010248Y0004502D01*
G01X0010244Y0004480D01*
G01X0010238Y0004458D01*
G01X0010230Y0004437D01*
G01X0010227Y0004429D01*
G01X0010225Y0004419D01*
G01X0010225Y0004410D01*
G01X0010227Y0004401D01*
G01X0010229Y0004392D01*
G01X0010233Y0004384D01*
G01X0010239Y0004376D01*
G01X0010245Y0004370D01*
G01X0010253Y0004364D01*
G01X0010261Y0004360D01*
G01X0010270Y0004357D01*
G01X0010279Y0004355D01*
G01X0010288Y0004355D01*
G01X0010297Y0004356D01*
G01X0010297Y0002860D01*
G01X0010000Y0002860D01*
G01X0010000Y0004167D01*
G01X0010017Y0004167D01*
G01X0010049Y0004170D01*
G01X0010082Y0004176D01*
G01X0010114Y0004185D01*
G01X0010145Y0004197D01*
G01X0010153Y0004201D01*
G01X0010160Y0004206D01*
G01X0010167Y0004213D01*
G01X0010172Y0004221D01*
G01X0010177Y0004229D01*
G01X0010179Y0004238D01*
G01X0010181Y0004247D01*
G01X0010180Y0004257D01*
G01X0010179Y0004266D01*
G01X0010176Y0004275D01*
G01X0010172Y0004283D01*
G01X0010166Y0004290D01*
G01X0010159Y0004297D01*
G01X0010152Y0004302D01*
G01X0010144Y0004306D01*
G01X0010135Y0004309D01*
G01X0010125Y0004311D01*
G01X0010116Y0004310D01*
G01X0010107Y0004309D01*
G01X0010098Y0004306D01*
G01X0010077Y0004298D01*
G01X0010056Y0004292D01*
G01X0010034Y0004288D01*
G01X0010011Y0004286D01*
G01X0010000Y0004286D01*
G01X0010000Y0004785D01*
G01X0010011Y0004785D01*
G01X0010034Y0004783D01*
G01X0010056Y0004779D01*
G01X0010077Y0004773D01*
G01X0010098Y0004765D01*
G01X0010107Y0004762D01*
G01X0010116Y0004761D01*
G01X0010125Y0004761D01*
G01X0010135Y0004762D01*
G01X0010143Y0004765D01*
G01X0010152Y0004769D01*
G01X0010159Y0004774D01*
G01X0010166Y0004781D01*
G01X0010172Y0004788D01*
G01X0010176Y0004797D01*
G01X0010179Y0004805D01*
G01X0010180Y0004814D01*
G01X0010180Y0004824D01*
G01X0010179Y0004833D01*
G01X0010176Y0004842D01*
G01X0010172Y0004850D01*
G01X0010167Y0004858D01*
G01X0010160Y0004864D01*
G01X0010153Y0004870D01*
G01X0010144Y0004874D01*
G01X0010114Y0004886D01*
G01X0010082Y0004895D01*
G01X0010049Y0004901D01*
G01X0010017Y0004904D01*
G01X0010000Y0004904D01*
G01X0010000Y0016114D01*
G37*
G36*
G01X0010704Y0000816D02*
G01X0010000Y0000816D01*
G01X0010000Y0002410D01*
G01X0010704Y0002410D01*
G01X0010704Y0000816D01*
G37*
G36*
G01X0009704Y0016114D02*
G01X0010000Y0016114D01*
G01X0010000Y0004904D01*
G01X0009984Y0004904D01*
G01X0009951Y0004901D01*
G01X0009918Y0004895D01*
G01X0009886Y0004886D01*
G01X0009855Y0004874D01*
G01X0009847Y0004870D01*
G01X0009840Y0004865D01*
G01X0009833Y0004858D01*
G01X0009828Y0004850D01*
G01X0009824Y0004842D01*
G01X0009821Y0004833D01*
G01X0009819Y0004824D01*
G01X0009820Y0004814D01*
G01X0009821Y0004805D01*
G01X0009824Y0004796D01*
G01X0009828Y0004788D01*
G01X0009834Y0004781D01*
G01X0009841Y0004774D01*
G01X0009848Y0004769D01*
G01X0009857Y0004765D01*
G01X0009866Y0004762D01*
G01X0009875Y0004760D01*
G01X0009884Y0004760D01*
G01X0009893Y0004762D01*
G01X0009902Y0004765D01*
G01X0009923Y0004773D01*
G01X0009945Y0004779D01*
G01X0009967Y0004783D01*
G01X0009989Y0004785D01*
G01X0010000Y0004785D01*
G01X0010000Y0004286D01*
G01X0009989Y0004286D01*
G01X0009967Y0004288D01*
G01X0009945Y0004292D01*
G01X0009923Y0004298D01*
G01X0009902Y0004306D01*
G01X0009893Y0004309D01*
G01X0009884Y0004310D01*
G01X0009875Y0004310D01*
G01X0009866Y0004309D01*
G01X0009857Y0004306D01*
G01X0009848Y0004302D01*
G01X0009841Y0004297D01*
G01X0009834Y0004290D01*
G01X0009829Y0004283D01*
G01X0009824Y0004274D01*
G01X0009821Y0004266D01*
G01X0009820Y0004256D01*
G01X0009820Y0004247D01*
G01X0009821Y0004238D01*
G01X0009824Y0004229D01*
G01X0009828Y0004221D01*
G01X0009833Y0004213D01*
G01X0009840Y0004207D01*
G01X0009847Y0004201D01*
G01X0009856Y0004197D01*
G01X0009886Y0004185D01*
G01X0009918Y0004176D01*
G01X0009951Y0004170D01*
G01X0009984Y0004167D01*
G01X0010000Y0004167D01*
G01X0010000Y0002860D01*
G01X0009704Y0002860D01*
G01X0009704Y0004356D01*
G01X0009712Y0004355D01*
G01X0009721Y0004355D01*
G01X0009730Y0004357D01*
G01X0009739Y0004359D01*
G01X0009747Y0004364D01*
G01X0009755Y0004369D01*
G01X0009761Y0004376D01*
G01X0009767Y0004384D01*
G01X0009771Y0004392D01*
G01X0009774Y0004401D01*
G01X0009775Y0004410D01*
G01X0009775Y0004420D01*
G01X0009773Y0004429D01*
G01X0009770Y0004437D01*
G01X0009762Y0004458D01*
G01X0009756Y0004480D01*
G01X0009752Y0004502D01*
G01X0009750Y0004524D01*
G01X0009750Y0004547D01*
G01X0009752Y0004569D01*
G01X0009756Y0004591D01*
G01X0009762Y0004613D01*
G01X0009770Y0004634D01*
G01X0009773Y0004642D01*
G01X0009775Y0004651D01*
G01X0009775Y0004661D01*
G01X0009774Y0004670D01*
G01X0009771Y0004679D01*
G01X0009767Y0004687D01*
G01X0009761Y0004695D01*
G01X0009755Y0004701D01*
G01X0009747Y0004707D01*
G01X0009739Y0004711D01*
G01X0009730Y0004714D01*
G01X0009721Y0004716D01*
G01X0009712Y0004716D01*
G01X0009704Y0004715D01*
G01X0009704Y0016114D01*
G37*
G36*
G01X0010000Y0000816D02*
G01X0009704Y0000816D01*
G01X0009704Y0002410D01*
G01X0010000Y0002410D01*
G01X0010000Y0000816D01*
G37*
G36*
G01X0009297Y0016114D02*
G01X0009704Y0016114D01*
G01X0009704Y0004715D01*
G01X0009703Y0004714D01*
G01X0009694Y0004712D01*
G01X0009685Y0004708D01*
G01X0009678Y0004702D01*
G01X0009671Y0004696D01*
G01X0009666Y0004688D01*
G01X0009661Y0004680D01*
G01X0009650Y0004649D01*
G01X0009641Y0004617D01*
G01X0009635Y0004585D01*
G01X0009632Y0004552D01*
G01X0009632Y0004519D01*
G01X0009635Y0004486D01*
G01X0009641Y0004454D01*
G01X0009650Y0004422D01*
G01X0009661Y0004391D01*
G01X0009665Y0004383D01*
G01X0009671Y0004375D01*
G01X0009678Y0004369D01*
G01X0009685Y0004363D01*
G01X0009694Y0004359D01*
G01X0009703Y0004356D01*
G01X0009704Y0004356D01*
G01X0009704Y0002860D01*
G01X0009297Y0002860D01*
G01X0009297Y0004356D01*
G01X0009298Y0004356D01*
G01X0009306Y0004359D01*
G01X0009315Y0004363D01*
G01X0009322Y0004369D01*
G01X0009329Y0004375D01*
G01X0009334Y0004383D01*
G01X0009339Y0004391D01*
G01X0009351Y0004422D01*
G01X0009359Y0004454D01*
G01X0009365Y0004486D01*
G01X0009368Y0004519D01*
G01X0009368Y0004552D01*
G01X0009365Y0004585D01*
G01X0009359Y0004617D01*
G01X0009351Y0004649D01*
G01X0009339Y0004680D01*
G01X0009335Y0004688D01*
G01X0009329Y0004696D01*
G01X0009322Y0004702D01*
G01X0009315Y0004708D01*
G01X0009307Y0004712D01*
G01X0009298Y0004715D01*
G01X0009297Y0004715D01*
G01X0009297Y0016114D01*
G37*
G36*
G01X0009000Y0016114D02*
G01X0009297Y0016114D01*
G01X0009297Y0004715D01*
G01X0009288Y0004716D01*
G01X0009279Y0004716D01*
G01X0009270Y0004714D01*
G01X0009261Y0004711D01*
G01X0009253Y0004707D01*
G01X0009245Y0004702D01*
G01X0009239Y0004695D01*
G01X0009233Y0004687D01*
G01X0009229Y0004679D01*
G01X0009226Y0004670D01*
G01X0009225Y0004661D01*
G01X0009225Y0004651D01*
G01X0009227Y0004642D01*
G01X0009230Y0004633D01*
G01X0009238Y0004613D01*
G01X0009244Y0004591D01*
G01X0009248Y0004569D01*
G01X0009250Y0004547D01*
G01X0009250Y0004524D01*
G01X0009248Y0004502D01*
G01X0009244Y0004480D01*
G01X0009238Y0004458D01*
G01X0009230Y0004437D01*
G01X0009227Y0004429D01*
G01X0009225Y0004419D01*
G01X0009225Y0004410D01*
G01X0009227Y0004401D01*
G01X0009229Y0004392D01*
G01X0009233Y0004384D01*
G01X0009239Y0004376D01*
G01X0009245Y0004370D01*
G01X0009253Y0004364D01*
G01X0009261Y0004360D01*
G01X0009270Y0004357D01*
G01X0009279Y0004355D01*
G01X0009288Y0004355D01*
G01X0009297Y0004356D01*
G01X0009297Y0002860D01*
G01X0009000Y0002860D01*
G01X0009000Y0004167D01*
G01X0009017Y0004167D01*
G01X0009049Y0004170D01*
G01X0009082Y0004176D01*
G01X0009114Y0004185D01*
G01X0009145Y0004197D01*
G01X0009153Y0004201D01*
G01X0009160Y0004206D01*
G01X0009167Y0004213D01*
G01X0009172Y0004221D01*
G01X0009177Y0004229D01*
G01X0009179Y0004238D01*
G01X0009181Y0004247D01*
G01X0009181Y0004257D01*
G01X0009179Y0004266D01*
G01X0009176Y0004275D01*
G01X0009172Y0004283D01*
G01X0009166Y0004290D01*
G01X0009159Y0004297D01*
G01X0009152Y0004302D01*
G01X0009144Y0004306D01*
G01X0009135Y0004309D01*
G01X0009125Y0004311D01*
G01X0009116Y0004310D01*
G01X0009107Y0004309D01*
G01X0009098Y0004306D01*
G01X0009077Y0004298D01*
G01X0009056Y0004292D01*
G01X0009034Y0004288D01*
G01X0009011Y0004286D01*
G01X0009000Y0004286D01*
G01X0009000Y0004785D01*
G01X0009011Y0004785D01*
G01X0009034Y0004783D01*
G01X0009056Y0004779D01*
G01X0009077Y0004773D01*
G01X0009098Y0004765D01*
G01X0009107Y0004762D01*
G01X0009116Y0004761D01*
G01X0009125Y0004761D01*
G01X0009135Y0004762D01*
G01X0009143Y0004765D01*
G01X0009152Y0004769D01*
G01X0009159Y0004774D01*
G01X0009166Y0004781D01*
G01X0009172Y0004788D01*
G01X0009176Y0004797D01*
G01X0009179Y0004805D01*
G01X0009180Y0004814D01*
G01X0009180Y0004824D01*
G01X0009179Y0004833D01*
G01X0009176Y0004842D01*
G01X0009172Y0004850D01*
G01X0009167Y0004858D01*
G01X0009160Y0004864D01*
G01X0009153Y0004870D01*
G01X0009144Y0004874D01*
G01X0009114Y0004886D01*
G01X0009082Y0004895D01*
G01X0009049Y0004901D01*
G01X0009017Y0004904D01*
G01X0009000Y0004904D01*
G01X0009000Y0016114D01*
G37*
G36*
G01X0009704Y0000816D02*
G01X0009000Y0000816D01*
G01X0009000Y0002410D01*
G01X0009704Y0002410D01*
G01X0009704Y0000816D01*
G37*
G36*
G01X0008704Y0016114D02*
G01X0009000Y0016114D01*
G01X0009000Y0004904D01*
G01X0008984Y0004904D01*
G01X0008951Y0004901D01*
G01X0008918Y0004895D01*
G01X0008886Y0004886D01*
G01X0008855Y0004874D01*
G01X0008847Y0004870D01*
G01X0008840Y0004865D01*
G01X0008833Y0004858D01*
G01X0008828Y0004850D01*
G01X0008824Y0004842D01*
G01X0008821Y0004833D01*
G01X0008819Y0004824D01*
G01X0008820Y0004814D01*
G01X0008821Y0004805D01*
G01X0008824Y0004796D01*
G01X0008828Y0004788D01*
G01X0008834Y0004781D01*
G01X0008841Y0004774D01*
G01X0008848Y0004769D01*
G01X0008857Y0004765D01*
G01X0008866Y0004762D01*
G01X0008875Y0004760D01*
G01X0008884Y0004760D01*
G01X0008893Y0004762D01*
G01X0008902Y0004765D01*
G01X0008923Y0004773D01*
G01X0008945Y0004779D01*
G01X0008967Y0004783D01*
G01X0008989Y0004785D01*
G01X0009000Y0004785D01*
G01X0009000Y0004286D01*
G01X0008989Y0004286D01*
G01X0008967Y0004288D01*
G01X0008945Y0004292D01*
G01X0008923Y0004298D01*
G01X0008902Y0004306D01*
G01X0008893Y0004309D01*
G01X0008884Y0004310D01*
G01X0008875Y0004310D01*
G01X0008866Y0004309D01*
G01X0008857Y0004306D01*
G01X0008848Y0004302D01*
G01X0008841Y0004297D01*
G01X0008834Y0004290D01*
G01X0008829Y0004283D01*
G01X0008824Y0004274D01*
G01X0008821Y0004266D01*
G01X0008820Y0004256D01*
G01X0008820Y0004247D01*
G01X0008821Y0004238D01*
G01X0008824Y0004229D01*
G01X0008828Y0004221D01*
G01X0008833Y0004213D01*
G01X0008840Y0004207D01*
G01X0008847Y0004201D01*
G01X0008856Y0004197D01*
G01X0008886Y0004185D01*
G01X0008918Y0004176D01*
G01X0008951Y0004170D01*
G01X0008984Y0004167D01*
G01X0009000Y0004167D01*
G01X0009000Y0002860D01*
G01X0008704Y0002860D01*
G01X0008704Y0004356D01*
G01X0008712Y0004355D01*
G01X0008721Y0004355D01*
G01X0008730Y0004357D01*
G01X0008739Y0004359D01*
G01X0008747Y0004364D01*
G01X0008755Y0004369D01*
G01X0008761Y0004376D01*
G01X0008767Y0004384D01*
G01X0008771Y0004392D01*
G01X0008774Y0004401D01*
G01X0008775Y0004410D01*
G01X0008775Y0004420D01*
G01X0008773Y0004429D01*
G01X0008770Y0004437D01*
G01X0008762Y0004458D01*
G01X0008756Y0004480D01*
G01X0008752Y0004502D01*
G01X0008750Y0004524D01*
G01X0008750Y0004547D01*
G01X0008752Y0004569D01*
G01X0008756Y0004591D01*
G01X0008762Y0004613D01*
G01X0008770Y0004634D01*
G01X0008773Y0004642D01*
G01X0008775Y0004651D01*
G01X0008775Y0004661D01*
G01X0008774Y0004670D01*
G01X0008771Y0004679D01*
G01X0008767Y0004687D01*
G01X0008761Y0004695D01*
G01X0008755Y0004701D01*
G01X0008747Y0004707D01*
G01X0008739Y0004711D01*
G01X0008730Y0004714D01*
G01X0008721Y0004716D01*
G01X0008712Y0004716D01*
G01X0008704Y0004715D01*
G01X0008704Y0016114D01*
G37*
G36*
G01X0009000Y0000816D02*
G01X0008704Y0000816D01*
G01X0008704Y0002410D01*
G01X0009000Y0002410D01*
G01X0009000Y0000816D01*
G37*
G36*
G01X0008297Y0016114D02*
G01X0008704Y0016114D01*
G01X0008704Y0004715D01*
G01X0008703Y0004714D01*
G01X0008694Y0004712D01*
G01X0008685Y0004708D01*
G01X0008678Y0004702D01*
G01X0008671Y0004696D01*
G01X0008666Y0004688D01*
G01X0008661Y0004680D01*
G01X0008650Y0004649D01*
G01X0008641Y0004617D01*
G01X0008635Y0004585D01*
G01X0008632Y0004552D01*
G01X0008632Y0004519D01*
G01X0008635Y0004486D01*
G01X0008641Y0004454D01*
G01X0008650Y0004422D01*
G01X0008661Y0004391D01*
G01X0008665Y0004383D01*
G01X0008671Y0004375D01*
G01X0008678Y0004369D01*
G01X0008685Y0004363D01*
G01X0008694Y0004359D01*
G01X0008703Y0004356D01*
G01X0008704Y0004356D01*
G01X0008704Y0002860D01*
G01X0008297Y0002860D01*
G01X0008297Y0004356D01*
G01X0008298Y0004356D01*
G01X0008306Y0004359D01*
G01X0008315Y0004363D01*
G01X0008322Y0004369D01*
G01X0008329Y0004375D01*
G01X0008334Y0004383D01*
G01X0008339Y0004391D01*
G01X0008351Y0004422D01*
G01X0008359Y0004454D01*
G01X0008365Y0004486D01*
G01X0008368Y0004519D01*
G01X0008368Y0004552D01*
G01X0008365Y0004585D01*
G01X0008359Y0004617D01*
G01X0008351Y0004649D01*
G01X0008339Y0004680D01*
G01X0008335Y0004688D01*
G01X0008329Y0004696D01*
G01X0008322Y0004702D01*
G01X0008315Y0004708D01*
G01X0008307Y0004712D01*
G01X0008298Y0004715D01*
G01X0008297Y0004715D01*
G01X0008297Y0016114D01*
G37*
G36*
G01X0008000Y0016114D02*
G01X0008297Y0016114D01*
G01X0008297Y0004715D01*
G01X0008288Y0004716D01*
G01X0008279Y0004716D01*
G01X0008270Y0004714D01*
G01X0008261Y0004711D01*
G01X0008253Y0004707D01*
G01X0008245Y0004702D01*
G01X0008239Y0004695D01*
G01X0008233Y0004687D01*
G01X0008229Y0004679D01*
G01X0008226Y0004670D01*
G01X0008225Y0004661D01*
G01X0008225Y0004651D01*
G01X0008227Y0004642D01*
G01X0008230Y0004633D01*
G01X0008238Y0004613D01*
G01X0008244Y0004591D01*
G01X0008248Y0004569D01*
G01X0008250Y0004547D01*
G01X0008250Y0004524D01*
G01X0008248Y0004502D01*
G01X0008244Y0004480D01*
G01X0008238Y0004458D01*
G01X0008230Y0004437D01*
G01X0008227Y0004429D01*
G01X0008225Y0004419D01*
G01X0008225Y0004410D01*
G01X0008227Y0004401D01*
G01X0008229Y0004392D01*
G01X0008233Y0004384D01*
G01X0008239Y0004376D01*
G01X0008245Y0004370D01*
G01X0008253Y0004364D01*
G01X0008261Y0004360D01*
G01X0008270Y0004357D01*
G01X0008279Y0004355D01*
G01X0008288Y0004355D01*
G01X0008297Y0004356D01*
G01X0008297Y0002860D01*
G01X0008000Y0002860D01*
G01X0008000Y0004167D01*
G01X0008017Y0004167D01*
G01X0008049Y0004170D01*
G01X0008082Y0004176D01*
G01X0008114Y0004185D01*
G01X0008145Y0004197D01*
G01X0008153Y0004201D01*
G01X0008160Y0004206D01*
G01X0008167Y0004213D01*
G01X0008172Y0004221D01*
G01X0008177Y0004229D01*
G01X0008179Y0004238D01*
G01X0008181Y0004247D01*
G01X0008181Y0004257D01*
G01X0008179Y0004266D01*
G01X0008176Y0004275D01*
G01X0008172Y0004283D01*
G01X0008166Y0004290D01*
G01X0008159Y0004297D01*
G01X0008152Y0004302D01*
G01X0008144Y0004306D01*
G01X0008135Y0004309D01*
G01X0008125Y0004311D01*
G01X0008116Y0004310D01*
G01X0008107Y0004309D01*
G01X0008098Y0004306D01*
G01X0008077Y0004298D01*
G01X0008056Y0004292D01*
G01X0008034Y0004288D01*
G01X0008011Y0004286D01*
G01X0008000Y0004286D01*
G01X0008000Y0004785D01*
G01X0008011Y0004785D01*
G01X0008034Y0004783D01*
G01X0008056Y0004779D01*
G01X0008077Y0004773D01*
G01X0008098Y0004765D01*
G01X0008107Y0004762D01*
G01X0008116Y0004761D01*
G01X0008125Y0004761D01*
G01X0008135Y0004762D01*
G01X0008143Y0004765D01*
G01X0008152Y0004769D01*
G01X0008159Y0004774D01*
G01X0008166Y0004781D01*
G01X0008172Y0004788D01*
G01X0008176Y0004797D01*
G01X0008179Y0004805D01*
G01X0008180Y0004814D01*
G01X0008180Y0004824D01*
G01X0008179Y0004833D01*
G01X0008176Y0004842D01*
G01X0008172Y0004850D01*
G01X0008167Y0004858D01*
G01X0008160Y0004864D01*
G01X0008153Y0004870D01*
G01X0008144Y0004874D01*
G01X0008114Y0004886D01*
G01X0008082Y0004895D01*
G01X0008049Y0004901D01*
G01X0008017Y0004904D01*
G01X0008000Y0004904D01*
G01X0008000Y0016114D01*
G37*
G36*
G01X0008704Y0000816D02*
G01X0008000Y0000816D01*
G01X0008000Y0002410D01*
G01X0008704Y0002410D01*
G01X0008704Y0000816D01*
G37*
G36*
G01X0007704Y0016114D02*
G01X0008000Y0016114D01*
G01X0008000Y0004904D01*
G01X0007984Y0004904D01*
G01X0007951Y0004901D01*
G01X0007918Y0004895D01*
G01X0007886Y0004886D01*
G01X0007855Y0004874D01*
G01X0007847Y0004870D01*
G01X0007840Y0004865D01*
G01X0007833Y0004858D01*
G01X0007828Y0004850D01*
G01X0007824Y0004842D01*
G01X0007821Y0004833D01*
G01X0007819Y0004824D01*
G01X0007820Y0004814D01*
G01X0007821Y0004805D01*
G01X0007824Y0004796D01*
G01X0007828Y0004788D01*
G01X0007834Y0004781D01*
G01X0007841Y0004774D01*
G01X0007848Y0004769D01*
G01X0007857Y0004765D01*
G01X0007866Y0004762D01*
G01X0007875Y0004760D01*
G01X0007884Y0004760D01*
G01X0007893Y0004762D01*
G01X0007902Y0004765D01*
G01X0007923Y0004773D01*
G01X0007945Y0004779D01*
G01X0007967Y0004783D01*
G01X0007989Y0004785D01*
G01X0008000Y0004785D01*
G01X0008000Y0004286D01*
G01X0007989Y0004286D01*
G01X0007967Y0004288D01*
G01X0007945Y0004292D01*
G01X0007923Y0004298D01*
G01X0007902Y0004306D01*
G01X0007893Y0004309D01*
G01X0007884Y0004310D01*
G01X0007875Y0004310D01*
G01X0007866Y0004309D01*
G01X0007857Y0004306D01*
G01X0007848Y0004302D01*
G01X0007841Y0004297D01*
G01X0007834Y0004290D01*
G01X0007829Y0004283D01*
G01X0007824Y0004274D01*
G01X0007821Y0004266D01*
G01X0007820Y0004256D01*
G01X0007820Y0004247D01*
G01X0007821Y0004238D01*
G01X0007824Y0004229D01*
G01X0007828Y0004221D01*
G01X0007833Y0004213D01*
G01X0007840Y0004207D01*
G01X0007847Y0004201D01*
G01X0007856Y0004197D01*
G01X0007886Y0004185D01*
G01X0007918Y0004176D01*
G01X0007951Y0004170D01*
G01X0007984Y0004167D01*
G01X0008000Y0004167D01*
G01X0008000Y0002860D01*
G01X0007704Y0002860D01*
G01X0007704Y0004356D01*
G01X0007712Y0004355D01*
G01X0007721Y0004355D01*
G01X0007730Y0004357D01*
G01X0007739Y0004359D01*
G01X0007747Y0004364D01*
G01X0007755Y0004369D01*
G01X0007761Y0004376D01*
G01X0007767Y0004384D01*
G01X0007771Y0004392D01*
G01X0007774Y0004401D01*
G01X0007775Y0004410D01*
G01X0007775Y0004420D01*
G01X0007773Y0004429D01*
G01X0007770Y0004437D01*
G01X0007762Y0004458D01*
G01X0007756Y0004480D01*
G01X0007752Y0004502D01*
G01X0007750Y0004524D01*
G01X0007750Y0004547D01*
G01X0007752Y0004569D01*
G01X0007756Y0004591D01*
G01X0007762Y0004613D01*
G01X0007770Y0004634D01*
G01X0007773Y0004642D01*
G01X0007775Y0004651D01*
G01X0007775Y0004661D01*
G01X0007774Y0004670D01*
G01X0007771Y0004679D01*
G01X0007767Y0004687D01*
G01X0007761Y0004695D01*
G01X0007755Y0004701D01*
G01X0007747Y0004707D01*
G01X0007739Y0004711D01*
G01X0007730Y0004714D01*
G01X0007721Y0004716D01*
G01X0007712Y0004716D01*
G01X0007704Y0004715D01*
G01X0007704Y0016114D01*
G37*
G36*
G01X0008000Y0000816D02*
G01X0007704Y0000816D01*
G01X0007704Y0002410D01*
G01X0008000Y0002410D01*
G01X0008000Y0000816D01*
G37*
G36*
G01X0007297Y0016114D02*
G01X0007704Y0016114D01*
G01X0007704Y0004715D01*
G01X0007703Y0004714D01*
G01X0007694Y0004712D01*
G01X0007685Y0004708D01*
G01X0007678Y0004702D01*
G01X0007671Y0004696D01*
G01X0007666Y0004688D01*
G01X0007661Y0004680D01*
G01X0007650Y0004649D01*
G01X0007641Y0004617D01*
G01X0007635Y0004585D01*
G01X0007632Y0004552D01*
G01X0007632Y0004519D01*
G01X0007635Y0004486D01*
G01X0007641Y0004454D01*
G01X0007650Y0004422D01*
G01X0007661Y0004391D01*
G01X0007665Y0004383D01*
G01X0007671Y0004375D01*
G01X0007678Y0004369D01*
G01X0007685Y0004363D01*
G01X0007694Y0004359D01*
G01X0007703Y0004356D01*
G01X0007704Y0004356D01*
G01X0007704Y0002860D01*
G01X0007297Y0002860D01*
G01X0007297Y0004356D01*
G01X0007298Y0004356D01*
G01X0007306Y0004359D01*
G01X0007315Y0004363D01*
G01X0007322Y0004369D01*
G01X0007329Y0004375D01*
G01X0007334Y0004383D01*
G01X0007339Y0004391D01*
G01X0007351Y0004422D01*
G01X0007359Y0004454D01*
G01X0007365Y0004486D01*
G01X0007368Y0004519D01*
G01X0007368Y0004552D01*
G01X0007365Y0004585D01*
G01X0007359Y0004617D01*
G01X0007351Y0004649D01*
G01X0007339Y0004680D01*
G01X0007335Y0004688D01*
G01X0007329Y0004696D01*
G01X0007322Y0004702D01*
G01X0007315Y0004708D01*
G01X0007307Y0004712D01*
G01X0007298Y0004715D01*
G01X0007297Y0004715D01*
G01X0007297Y0016114D01*
G37*
G36*
G01X0007000Y0016114D02*
G01X0007297Y0016114D01*
G01X0007297Y0004715D01*
G01X0007288Y0004716D01*
G01X0007279Y0004716D01*
G01X0007270Y0004714D01*
G01X0007261Y0004711D01*
G01X0007253Y0004707D01*
G01X0007245Y0004702D01*
G01X0007239Y0004695D01*
G01X0007233Y0004687D01*
G01X0007229Y0004679D01*
G01X0007226Y0004670D01*
G01X0007225Y0004661D01*
G01X0007225Y0004651D01*
G01X0007227Y0004642D01*
G01X0007230Y0004633D01*
G01X0007238Y0004613D01*
G01X0007244Y0004591D01*
G01X0007248Y0004569D01*
G01X0007250Y0004547D01*
G01X0007250Y0004524D01*
G01X0007248Y0004502D01*
G01X0007244Y0004480D01*
G01X0007238Y0004458D01*
G01X0007230Y0004437D01*
G01X0007227Y0004429D01*
G01X0007225Y0004419D01*
G01X0007225Y0004410D01*
G01X0007227Y0004401D01*
G01X0007229Y0004392D01*
G01X0007233Y0004384D01*
G01X0007239Y0004376D01*
G01X0007245Y0004370D01*
G01X0007253Y0004364D01*
G01X0007261Y0004360D01*
G01X0007270Y0004357D01*
G01X0007279Y0004355D01*
G01X0007288Y0004355D01*
G01X0007297Y0004356D01*
G01X0007297Y0002860D01*
G01X0007000Y0002860D01*
G01X0007000Y0004167D01*
G01X0007017Y0004167D01*
G01X0007049Y0004170D01*
G01X0007082Y0004176D01*
G01X0007114Y0004185D01*
G01X0007145Y0004197D01*
G01X0007153Y0004201D01*
G01X0007160Y0004206D01*
G01X0007167Y0004213D01*
G01X0007172Y0004221D01*
G01X0007177Y0004229D01*
G01X0007179Y0004238D01*
G01X0007181Y0004247D01*
G01X0007181Y0004257D01*
G01X0007179Y0004266D01*
G01X0007176Y0004275D01*
G01X0007172Y0004283D01*
G01X0007166Y0004290D01*
G01X0007159Y0004297D01*
G01X0007152Y0004302D01*
G01X0007144Y0004306D01*
G01X0007135Y0004309D01*
G01X0007125Y0004311D01*
G01X0007116Y0004310D01*
G01X0007107Y0004309D01*
G01X0007098Y0004306D01*
G01X0007077Y0004298D01*
G01X0007056Y0004292D01*
G01X0007034Y0004288D01*
G01X0007011Y0004286D01*
G01X0007000Y0004286D01*
G01X0007000Y0004785D01*
G01X0007011Y0004785D01*
G01X0007034Y0004783D01*
G01X0007056Y0004779D01*
G01X0007077Y0004773D01*
G01X0007098Y0004765D01*
G01X0007107Y0004762D01*
G01X0007116Y0004761D01*
G01X0007125Y0004761D01*
G01X0007135Y0004762D01*
G01X0007143Y0004765D01*
G01X0007152Y0004769D01*
G01X0007159Y0004774D01*
G01X0007166Y0004781D01*
G01X0007171Y0004788D01*
G01X0007176Y0004797D01*
G01X0007179Y0004805D01*
G01X0007180Y0004814D01*
G01X0007180Y0004824D01*
G01X0007179Y0004833D01*
G01X0007176Y0004842D01*
G01X0007172Y0004850D01*
G01X0007167Y0004858D01*
G01X0007160Y0004864D01*
G01X0007153Y0004870D01*
G01X0007144Y0004874D01*
G01X0007114Y0004886D01*
G01X0007082Y0004895D01*
G01X0007049Y0004901D01*
G01X0007017Y0004904D01*
G01X0007000Y0004904D01*
G01X0007000Y0016114D01*
G37*
G36*
G01X0007704Y0000816D02*
G01X0007000Y0000816D01*
G01X0007000Y0002410D01*
G01X0007704Y0002410D01*
G01X0007704Y0000816D01*
G37*
G36*
G01X0006704Y0016114D02*
G01X0007000Y0016114D01*
G01X0007000Y0004904D01*
G01X0006984Y0004904D01*
G01X0006951Y0004901D01*
G01X0006918Y0004895D01*
G01X0006886Y0004886D01*
G01X0006855Y0004874D01*
G01X0006847Y0004870D01*
G01X0006840Y0004865D01*
G01X0006833Y0004858D01*
G01X0006828Y0004850D01*
G01X0006824Y0004842D01*
G01X0006821Y0004833D01*
G01X0006819Y0004824D01*
G01X0006819Y0004814D01*
G01X0006821Y0004805D01*
G01X0006824Y0004796D01*
G01X0006828Y0004788D01*
G01X0006834Y0004781D01*
G01X0006841Y0004774D01*
G01X0006848Y0004769D01*
G01X0006857Y0004765D01*
G01X0006866Y0004762D01*
G01X0006875Y0004760D01*
G01X0006884Y0004760D01*
G01X0006893Y0004762D01*
G01X0006902Y0004765D01*
G01X0006923Y0004773D01*
G01X0006945Y0004779D01*
G01X0006967Y0004783D01*
G01X0006989Y0004785D01*
G01X0007000Y0004785D01*
G01X0007000Y0004286D01*
G01X0006989Y0004286D01*
G01X0006967Y0004288D01*
G01X0006945Y0004292D01*
G01X0006923Y0004298D01*
G01X0006902Y0004306D01*
G01X0006893Y0004309D01*
G01X0006884Y0004310D01*
G01X0006875Y0004310D01*
G01X0006866Y0004309D01*
G01X0006857Y0004306D01*
G01X0006848Y0004302D01*
G01X0006841Y0004297D01*
G01X0006834Y0004290D01*
G01X0006829Y0004283D01*
G01X0006824Y0004274D01*
G01X0006821Y0004266D01*
G01X0006820Y0004256D01*
G01X0006820Y0004247D01*
G01X0006821Y0004238D01*
G01X0006824Y0004229D01*
G01X0006828Y0004221D01*
G01X0006833Y0004213D01*
G01X0006840Y0004207D01*
G01X0006847Y0004201D01*
G01X0006856Y0004197D01*
G01X0006886Y0004185D01*
G01X0006918Y0004176D01*
G01X0006951Y0004170D01*
G01X0006984Y0004167D01*
G01X0007000Y0004167D01*
G01X0007000Y0002860D01*
G01X0006704Y0002860D01*
G01X0006704Y0004356D01*
G01X0006712Y0004355D01*
G01X0006721Y0004355D01*
G01X0006730Y0004357D01*
G01X0006739Y0004359D01*
G01X0006747Y0004364D01*
G01X0006755Y0004369D01*
G01X0006761Y0004376D01*
G01X0006767Y0004384D01*
G01X0006771Y0004392D01*
G01X0006774Y0004401D01*
G01X0006775Y0004410D01*
G01X0006775Y0004420D01*
G01X0006773Y0004429D01*
G01X0006770Y0004437D01*
G01X0006762Y0004458D01*
G01X0006756Y0004480D01*
G01X0006752Y0004502D01*
G01X0006750Y0004524D01*
G01X0006750Y0004547D01*
G01X0006752Y0004569D01*
G01X0006756Y0004591D01*
G01X0006762Y0004613D01*
G01X0006770Y0004634D01*
G01X0006773Y0004642D01*
G01X0006775Y0004651D01*
G01X0006775Y0004661D01*
G01X0006774Y0004670D01*
G01X0006771Y0004679D01*
G01X0006767Y0004687D01*
G01X0006761Y0004695D01*
G01X0006755Y0004701D01*
G01X0006747Y0004707D01*
G01X0006739Y0004711D01*
G01X0006730Y0004714D01*
G01X0006721Y0004716D01*
G01X0006712Y0004716D01*
G01X0006704Y0004715D01*
G01X0006704Y0016114D01*
G37*
G36*
G01X0007000Y0000816D02*
G01X0006704Y0000816D01*
G01X0006704Y0002410D01*
G01X0007000Y0002410D01*
G01X0007000Y0000816D01*
G37*
G36*
G01X0006297Y0016114D02*
G01X0006704Y0016114D01*
G01X0006704Y0004715D01*
G01X0006703Y0004714D01*
G01X0006694Y0004712D01*
G01X0006685Y0004708D01*
G01X0006678Y0004702D01*
G01X0006671Y0004696D01*
G01X0006666Y0004688D01*
G01X0006661Y0004680D01*
G01X0006650Y0004649D01*
G01X0006641Y0004617D01*
G01X0006635Y0004585D01*
G01X0006632Y0004552D01*
G01X0006632Y0004519D01*
G01X0006635Y0004486D01*
G01X0006641Y0004454D01*
G01X0006650Y0004422D01*
G01X0006661Y0004391D01*
G01X0006665Y0004383D01*
G01X0006671Y0004375D01*
G01X0006678Y0004369D01*
G01X0006685Y0004363D01*
G01X0006694Y0004359D01*
G01X0006703Y0004356D01*
G01X0006704Y0004356D01*
G01X0006704Y0002860D01*
G01X0006297Y0002860D01*
G01X0006297Y0004356D01*
G01X0006298Y0004356D01*
G01X0006306Y0004359D01*
G01X0006315Y0004363D01*
G01X0006322Y0004369D01*
G01X0006329Y0004375D01*
G01X0006334Y0004383D01*
G01X0006339Y0004391D01*
G01X0006351Y0004422D01*
G01X0006359Y0004454D01*
G01X0006365Y0004486D01*
G01X0006368Y0004519D01*
G01X0006368Y0004552D01*
G01X0006365Y0004585D01*
G01X0006359Y0004617D01*
G01X0006351Y0004649D01*
G01X0006339Y0004680D01*
G01X0006335Y0004688D01*
G01X0006329Y0004696D01*
G01X0006322Y0004702D01*
G01X0006315Y0004708D01*
G01X0006307Y0004712D01*
G01X0006298Y0004715D01*
G01X0006297Y0004715D01*
G01X0006297Y0016114D01*
G37*
G36*
G01X0006000Y0016114D02*
G01X0006297Y0016114D01*
G01X0006297Y0004715D01*
G01X0006288Y0004716D01*
G01X0006279Y0004716D01*
G01X0006270Y0004714D01*
G01X0006261Y0004711D01*
G01X0006253Y0004707D01*
G01X0006245Y0004702D01*
G01X0006239Y0004695D01*
G01X0006233Y0004687D01*
G01X0006229Y0004679D01*
G01X0006226Y0004670D01*
G01X0006225Y0004661D01*
G01X0006225Y0004651D01*
G01X0006227Y0004642D01*
G01X0006230Y0004633D01*
G01X0006238Y0004613D01*
G01X0006244Y0004591D01*
G01X0006248Y0004569D01*
G01X0006250Y0004547D01*
G01X0006250Y0004524D01*
G01X0006248Y0004502D01*
G01X0006244Y0004480D01*
G01X0006238Y0004458D01*
G01X0006230Y0004437D01*
G01X0006227Y0004429D01*
G01X0006225Y0004419D01*
G01X0006225Y0004410D01*
G01X0006227Y0004401D01*
G01X0006229Y0004392D01*
G01X0006233Y0004384D01*
G01X0006239Y0004376D01*
G01X0006245Y0004370D01*
G01X0006253Y0004364D01*
G01X0006261Y0004360D01*
G01X0006270Y0004357D01*
G01X0006279Y0004355D01*
G01X0006288Y0004355D01*
G01X0006297Y0004356D01*
G01X0006297Y0002860D01*
G01X0006000Y0002860D01*
G01X0006000Y0004167D01*
G01X0006017Y0004167D01*
G01X0006049Y0004170D01*
G01X0006082Y0004176D01*
G01X0006114Y0004185D01*
G01X0006145Y0004197D01*
G01X0006153Y0004201D01*
G01X0006160Y0004206D01*
G01X0006167Y0004213D01*
G01X0006172Y0004221D01*
G01X0006177Y0004229D01*
G01X0006179Y0004238D01*
G01X0006181Y0004247D01*
G01X0006181Y0004257D01*
G01X0006179Y0004266D01*
G01X0006176Y0004275D01*
G01X0006172Y0004283D01*
G01X0006166Y0004290D01*
G01X0006159Y0004297D01*
G01X0006152Y0004302D01*
G01X0006143Y0004306D01*
G01X0006135Y0004309D01*
G01X0006125Y0004311D01*
G01X0006116Y0004310D01*
G01X0006107Y0004309D01*
G01X0006098Y0004306D01*
G01X0006077Y0004298D01*
G01X0006056Y0004292D01*
G01X0006034Y0004288D01*
G01X0006011Y0004286D01*
G01X0006000Y0004286D01*
G01X0006000Y0004785D01*
G01X0006011Y0004785D01*
G01X0006034Y0004783D01*
G01X0006056Y0004779D01*
G01X0006077Y0004773D01*
G01X0006098Y0004765D01*
G01X0006107Y0004762D01*
G01X0006116Y0004761D01*
G01X0006125Y0004761D01*
G01X0006135Y0004762D01*
G01X0006143Y0004765D01*
G01X0006152Y0004769D01*
G01X0006159Y0004774D01*
G01X0006166Y0004781D01*
G01X0006172Y0004788D01*
G01X0006176Y0004797D01*
G01X0006179Y0004805D01*
G01X0006180Y0004814D01*
G01X0006180Y0004824D01*
G01X0006179Y0004833D01*
G01X0006176Y0004842D01*
G01X0006172Y0004850D01*
G01X0006167Y0004858D01*
G01X0006160Y0004864D01*
G01X0006153Y0004870D01*
G01X0006144Y0004874D01*
G01X0006114Y0004886D01*
G01X0006082Y0004895D01*
G01X0006049Y0004901D01*
G01X0006017Y0004904D01*
G01X0006000Y0004904D01*
G01X0006000Y0016114D01*
G37*
G36*
G01X0006704Y0000816D02*
G01X0006000Y0000816D01*
G01X0006000Y0002410D01*
G01X0006704Y0002410D01*
G01X0006704Y0000816D01*
G37*
G36*
G01X0005704Y0016114D02*
G01X0006000Y0016114D01*
G01X0006000Y0004904D01*
G01X0005984Y0004904D01*
G01X0005951Y0004901D01*
G01X0005918Y0004895D01*
G01X0005886Y0004886D01*
G01X0005855Y0004874D01*
G01X0005847Y0004870D01*
G01X0005840Y0004865D01*
G01X0005833Y0004858D01*
G01X0005828Y0004850D01*
G01X0005824Y0004842D01*
G01X0005821Y0004833D01*
G01X0005819Y0004824D01*
G01X0005820Y0004814D01*
G01X0005821Y0004805D01*
G01X0005824Y0004796D01*
G01X0005828Y0004788D01*
G01X0005834Y0004781D01*
G01X0005841Y0004774D01*
G01X0005848Y0004769D01*
G01X0005857Y0004765D01*
G01X0005866Y0004762D01*
G01X0005875Y0004760D01*
G01X0005884Y0004760D01*
G01X0005893Y0004762D01*
G01X0005902Y0004765D01*
G01X0005923Y0004773D01*
G01X0005945Y0004779D01*
G01X0005967Y0004783D01*
G01X0005989Y0004785D01*
G01X0006000Y0004785D01*
G01X0006000Y0004286D01*
G01X0005989Y0004286D01*
G01X0005967Y0004288D01*
G01X0005945Y0004292D01*
G01X0005923Y0004298D01*
G01X0005902Y0004306D01*
G01X0005893Y0004309D01*
G01X0005884Y0004310D01*
G01X0005875Y0004310D01*
G01X0005866Y0004309D01*
G01X0005857Y0004306D01*
G01X0005848Y0004302D01*
G01X0005841Y0004297D01*
G01X0005834Y0004290D01*
G01X0005829Y0004283D01*
G01X0005824Y0004274D01*
G01X0005821Y0004266D01*
G01X0005820Y0004256D01*
G01X0005820Y0004247D01*
G01X0005821Y0004238D01*
G01X0005824Y0004229D01*
G01X0005828Y0004221D01*
G01X0005833Y0004213D01*
G01X0005840Y0004207D01*
G01X0005847Y0004201D01*
G01X0005856Y0004197D01*
G01X0005886Y0004185D01*
G01X0005918Y0004176D01*
G01X0005951Y0004170D01*
G01X0005984Y0004167D01*
G01X0006000Y0004167D01*
G01X0006000Y0002860D01*
G01X0005993Y0002860D01*
G01X0005704Y0003150D01*
G01X0005704Y0004356D01*
G01X0005712Y0004355D01*
G01X0005721Y0004355D01*
G01X0005730Y0004357D01*
G01X0005739Y0004359D01*
G01X0005747Y0004364D01*
G01X0005755Y0004369D01*
G01X0005761Y0004376D01*
G01X0005767Y0004384D01*
G01X0005771Y0004392D01*
G01X0005774Y0004401D01*
G01X0005775Y0004410D01*
G01X0005775Y0004420D01*
G01X0005773Y0004429D01*
G01X0005770Y0004437D01*
G01X0005762Y0004458D01*
G01X0005756Y0004480D01*
G01X0005752Y0004502D01*
G01X0005750Y0004524D01*
G01X0005750Y0004547D01*
G01X0005752Y0004569D01*
G01X0005756Y0004591D01*
G01X0005762Y0004613D01*
G01X0005770Y0004634D01*
G01X0005773Y0004642D01*
G01X0005775Y0004651D01*
G01X0005775Y0004661D01*
G01X0005774Y0004670D01*
G01X0005771Y0004679D01*
G01X0005767Y0004687D01*
G01X0005761Y0004695D01*
G01X0005755Y0004701D01*
G01X0005747Y0004707D01*
G01X0005739Y0004711D01*
G01X0005730Y0004714D01*
G01X0005721Y0004716D01*
G01X0005712Y0004716D01*
G01X0005704Y0004715D01*
G01X0005704Y0016114D01*
G37*
G36*
G01X0006000Y0000816D02*
G01X0005704Y0000816D01*
G01X0005704Y0002514D01*
G01X0005735Y0002483D01*
G01X0005740Y0002476D01*
G01X0005767Y0002453D01*
G01X0005767Y0002453D01*
G01X0005798Y0002434D01*
G01X0005830Y0002421D01*
G01X0005865Y0002413D01*
G01X0005900Y0002410D01*
G01X0005909Y0002410D01*
G01X0006000Y0002410D01*
G01X0006000Y0000816D01*
G37*
G36*
G01X0005296Y0016114D02*
G01X0005704Y0016114D01*
G01X0005704Y0004715D01*
G01X0005703Y0004714D01*
G01X0005694Y0004712D01*
G01X0005685Y0004708D01*
G01X0005678Y0004702D01*
G01X0005671Y0004696D01*
G01X0005666Y0004688D01*
G01X0005661Y0004680D01*
G01X0005649Y0004649D01*
G01X0005641Y0004617D01*
G01X0005635Y0004585D01*
G01X0005632Y0004552D01*
G01X0005632Y0004519D01*
G01X0005635Y0004486D01*
G01X0005641Y0004454D01*
G01X0005649Y0004422D01*
G01X0005661Y0004391D01*
G01X0005665Y0004383D01*
G01X0005671Y0004375D01*
G01X0005678Y0004369D01*
G01X0005685Y0004363D01*
G01X0005694Y0004359D01*
G01X0005703Y0004356D01*
G01X0005704Y0004356D01*
G01X0005704Y0003150D01*
G01X0005296Y0003557D01*
G01X0005296Y0004356D01*
G01X0005298Y0004356D01*
G01X0005306Y0004359D01*
G01X0005315Y0004363D01*
G01X0005322Y0004369D01*
G01X0005329Y0004375D01*
G01X0005334Y0004383D01*
G01X0005339Y0004391D01*
G01X0005351Y0004422D01*
G01X0005359Y0004454D01*
G01X0005365Y0004486D01*
G01X0005368Y0004519D01*
G01X0005368Y0004552D01*
G01X0005365Y0004585D01*
G01X0005359Y0004617D01*
G01X0005351Y0004649D01*
G01X0005339Y0004680D01*
G01X0005335Y0004688D01*
G01X0005329Y0004696D01*
G01X0005322Y0004702D01*
G01X0005315Y0004708D01*
G01X0005307Y0004712D01*
G01X0005298Y0004715D01*
G01X0005296Y0004715D01*
G01X0005296Y0016114D01*
G37*
G36*
G01X0005000Y0016114D02*
G01X0005296Y0016114D01*
G01X0005296Y0004715D01*
G01X0005288Y0004716D01*
G01X0005279Y0004716D01*
G01X0005270Y0004714D01*
G01X0005261Y0004711D01*
G01X0005253Y0004707D01*
G01X0005245Y0004702D01*
G01X0005239Y0004695D01*
G01X0005233Y0004687D01*
G01X0005229Y0004679D01*
G01X0005226Y0004670D01*
G01X0005225Y0004661D01*
G01X0005225Y0004651D01*
G01X0005227Y0004642D01*
G01X0005230Y0004633D01*
G01X0005238Y0004613D01*
G01X0005244Y0004591D01*
G01X0005248Y0004569D01*
G01X0005250Y0004547D01*
G01X0005250Y0004524D01*
G01X0005248Y0004502D01*
G01X0005244Y0004480D01*
G01X0005238Y0004458D01*
G01X0005230Y0004437D01*
G01X0005227Y0004429D01*
G01X0005225Y0004419D01*
G01X0005225Y0004410D01*
G01X0005226Y0004401D01*
G01X0005229Y0004392D01*
G01X0005233Y0004384D01*
G01X0005239Y0004376D01*
G01X0005245Y0004370D01*
G01X0005253Y0004364D01*
G01X0005261Y0004360D01*
G01X0005270Y0004357D01*
G01X0005279Y0004355D01*
G01X0005288Y0004355D01*
G01X0005296Y0004356D01*
G01X0005296Y0003557D01*
G01X0005000Y0003854D01*
G01X0005000Y0004167D01*
G01X0005017Y0004167D01*
G01X0005049Y0004170D01*
G01X0005082Y0004176D01*
G01X0005114Y0004185D01*
G01X0005145Y0004197D01*
G01X0005153Y0004201D01*
G01X0005160Y0004206D01*
G01X0005167Y0004213D01*
G01X0005172Y0004221D01*
G01X0005177Y0004229D01*
G01X0005179Y0004238D01*
G01X0005181Y0004247D01*
G01X0005181Y0004257D01*
G01X0005179Y0004266D01*
G01X0005176Y0004275D01*
G01X0005172Y0004283D01*
G01X0005166Y0004290D01*
G01X0005159Y0004297D01*
G01X0005152Y0004302D01*
G01X0005144Y0004306D01*
G01X0005135Y0004309D01*
G01X0005125Y0004311D01*
G01X0005116Y0004310D01*
G01X0005107Y0004309D01*
G01X0005098Y0004306D01*
G01X0005077Y0004298D01*
G01X0005056Y0004292D01*
G01X0005034Y0004288D01*
G01X0005011Y0004286D01*
G01X0005000Y0004286D01*
G01X0005000Y0004785D01*
G01X0005011Y0004785D01*
G01X0005034Y0004783D01*
G01X0005056Y0004779D01*
G01X0005077Y0004773D01*
G01X0005098Y0004765D01*
G01X0005107Y0004762D01*
G01X0005116Y0004761D01*
G01X0005125Y0004761D01*
G01X0005135Y0004762D01*
G01X0005143Y0004765D01*
G01X0005152Y0004769D01*
G01X0005159Y0004774D01*
G01X0005166Y0004781D01*
G01X0005172Y0004788D01*
G01X0005176Y0004797D01*
G01X0005179Y0004805D01*
G01X0005180Y0004814D01*
G01X0005180Y0004824D01*
G01X0005179Y0004833D01*
G01X0005176Y0004842D01*
G01X0005172Y0004850D01*
G01X0005167Y0004858D01*
G01X0005160Y0004864D01*
G01X0005153Y0004870D01*
G01X0005144Y0004874D01*
G01X0005114Y0004886D01*
G01X0005082Y0004895D01*
G01X0005049Y0004901D01*
G01X0005017Y0004904D01*
G01X0005000Y0004904D01*
G01X0005000Y0016114D01*
G37*
G36*
G01X0005704Y0000816D02*
G01X0005000Y0000816D01*
G01X0005000Y0003217D01*
G01X0005704Y0002514D01*
G01X0005704Y0000816D01*
G37*
G36*
G01X0004704Y0016114D02*
G01X0005000Y0016114D01*
G01X0005000Y0004904D01*
G01X0004984Y0004904D01*
G01X0004951Y0004901D01*
G01X0004918Y0004895D01*
G01X0004886Y0004886D01*
G01X0004855Y0004874D01*
G01X0004847Y0004870D01*
G01X0004840Y0004865D01*
G01X0004833Y0004858D01*
G01X0004828Y0004850D01*
G01X0004824Y0004842D01*
G01X0004821Y0004833D01*
G01X0004819Y0004824D01*
G01X0004820Y0004814D01*
G01X0004821Y0004805D01*
G01X0004824Y0004796D01*
G01X0004828Y0004788D01*
G01X0004834Y0004781D01*
G01X0004841Y0004774D01*
G01X0004848Y0004769D01*
G01X0004857Y0004765D01*
G01X0004866Y0004762D01*
G01X0004875Y0004760D01*
G01X0004884Y0004760D01*
G01X0004893Y0004762D01*
G01X0004902Y0004765D01*
G01X0004923Y0004773D01*
G01X0004945Y0004779D01*
G01X0004967Y0004783D01*
G01X0004989Y0004785D01*
G01X0005000Y0004785D01*
G01X0005000Y0004286D01*
G01X0004989Y0004286D01*
G01X0004967Y0004288D01*
G01X0004945Y0004292D01*
G01X0004923Y0004298D01*
G01X0004902Y0004306D01*
G01X0004893Y0004309D01*
G01X0004884Y0004310D01*
G01X0004875Y0004310D01*
G01X0004866Y0004309D01*
G01X0004857Y0004306D01*
G01X0004848Y0004302D01*
G01X0004841Y0004297D01*
G01X0004834Y0004290D01*
G01X0004829Y0004283D01*
G01X0004824Y0004274D01*
G01X0004821Y0004266D01*
G01X0004820Y0004256D01*
G01X0004820Y0004247D01*
G01X0004821Y0004238D01*
G01X0004824Y0004229D01*
G01X0004828Y0004221D01*
G01X0004833Y0004213D01*
G01X0004840Y0004207D01*
G01X0004847Y0004201D01*
G01X0004856Y0004197D01*
G01X0004886Y0004185D01*
G01X0004918Y0004176D01*
G01X0004951Y0004170D01*
G01X0004984Y0004167D01*
G01X0005000Y0004167D01*
G01X0005000Y0003854D01*
G01X0004704Y0004150D01*
G01X0004704Y0004356D01*
G01X0004712Y0004355D01*
G01X0004721Y0004355D01*
G01X0004730Y0004357D01*
G01X0004739Y0004359D01*
G01X0004747Y0004364D01*
G01X0004755Y0004369D01*
G01X0004761Y0004376D01*
G01X0004767Y0004384D01*
G01X0004771Y0004392D01*
G01X0004774Y0004401D01*
G01X0004775Y0004410D01*
G01X0004775Y0004420D01*
G01X0004773Y0004429D01*
G01X0004770Y0004437D01*
G01X0004762Y0004458D01*
G01X0004756Y0004480D01*
G01X0004752Y0004502D01*
G01X0004750Y0004524D01*
G01X0004750Y0004547D01*
G01X0004752Y0004569D01*
G01X0004756Y0004591D01*
G01X0004762Y0004613D01*
G01X0004770Y0004634D01*
G01X0004773Y0004642D01*
G01X0004775Y0004651D01*
G01X0004775Y0004661D01*
G01X0004774Y0004670D01*
G01X0004771Y0004679D01*
G01X0004767Y0004687D01*
G01X0004761Y0004695D01*
G01X0004755Y0004701D01*
G01X0004747Y0004707D01*
G01X0004739Y0004711D01*
G01X0004730Y0004714D01*
G01X0004721Y0004716D01*
G01X0004712Y0004716D01*
G01X0004704Y0004715D01*
G01X0004704Y0016114D01*
G37*
G36*
G01X0005000Y0000816D02*
G01X0004704Y0000816D01*
G01X0004704Y0003514D01*
G01X0005000Y0003217D01*
G01X0005000Y0000816D01*
G37*
G36*
G01X0004704Y0000816D02*
G01X0003243Y0000816D01*
G01X0002999Y0001059D01*
G01X0002999Y0004166D01*
G01X0003000Y0004166D01*
G01X0003058Y0004171D01*
G01X0003114Y0004184D01*
G01X0003168Y0004206D01*
G01X0003217Y0004237D01*
G01X0003261Y0004274D01*
G01X0003299Y0004318D01*
G01X0003329Y0004368D01*
G01X0003351Y0004421D01*
G01X0003365Y0004478D01*
G01X0003368Y0004535D01*
G01X0003365Y0004593D01*
G01X0003351Y0004650D01*
G01X0003329Y0004703D01*
G01X0003299Y0004753D01*
G01X0003261Y0004797D01*
G01X0003217Y0004834D01*
G01X0003168Y0004864D01*
G01X0003114Y0004887D01*
G01X0003058Y0004900D01*
G01X0003000Y0004905D01*
G01X0002999Y0004905D01*
G01X0002999Y0015166D01*
G01X0003000Y0015166D01*
G01X0003058Y0015171D01*
G01X0003114Y0015184D01*
G01X0003168Y0015206D01*
G01X0003217Y0015237D01*
G01X0003261Y0015274D01*
G01X0003299Y0015318D01*
G01X0003329Y0015368D01*
G01X0003351Y0015421D01*
G01X0003365Y0015478D01*
G01X0003368Y0015535D01*
G01X0003365Y0015593D01*
G01X0003351Y0015650D01*
G01X0003329Y0015703D01*
G01X0003299Y0015753D01*
G01X0003261Y0015797D01*
G01X0003217Y0015834D01*
G01X0003168Y0015864D01*
G01X0003114Y0015887D01*
G01X0003058Y0015900D01*
G01X0003000Y0015905D01*
G01X0002999Y0015905D01*
G01X0002999Y0016114D01*
G01X0004704Y0016114D01*
G01X0004704Y0004715D01*
G01X0004703Y0004714D01*
G01X0004694Y0004712D01*
G01X0004685Y0004708D01*
G01X0004678Y0004702D01*
G01X0004671Y0004696D01*
G01X0004666Y0004688D01*
G01X0004661Y0004680D01*
G01X0004650Y0004649D01*
G01X0004641Y0004617D01*
G01X0004635Y0004585D01*
G01X0004632Y0004552D01*
G01X0004632Y0004519D01*
G01X0004635Y0004486D01*
G01X0004641Y0004454D01*
G01X0004650Y0004422D01*
G01X0004661Y0004391D01*
G01X0004665Y0004383D01*
G01X0004671Y0004375D01*
G01X0004678Y0004369D01*
G01X0004685Y0004363D01*
G01X0004694Y0004359D01*
G01X0004703Y0004356D01*
G01X0004704Y0004356D01*
G01X0004704Y0004150D01*
G01X0004365Y0004488D01*
G01X0004368Y0004535D01*
G01X0004365Y0004593D01*
G01X0004351Y0004650D01*
G01X0004329Y0004703D01*
G01X0004299Y0004753D01*
G01X0004261Y0004797D01*
G01X0004217Y0004834D01*
G01X0004168Y0004864D01*
G01X0004114Y0004887D01*
G01X0004058Y0004900D01*
G01X0004000Y0004905D01*
G01X0003942Y0004900D01*
G01X0003886Y0004887D01*
G01X0003832Y0004864D01*
G01X0003783Y0004834D01*
G01X0003739Y0004797D01*
G01X0003701Y0004753D01*
G01X0003671Y0004703D01*
G01X0003649Y0004650D01*
G01X0003635Y0004593D01*
G01X0003631Y0004535D01*
G01X0003635Y0004478D01*
G01X0003649Y0004421D01*
G01X0003671Y0004368D01*
G01X0003701Y0004318D01*
G01X0003739Y0004274D01*
G01X0003783Y0004237D01*
G01X0003832Y0004206D01*
G01X0003886Y0004184D01*
G01X0003942Y0004171D01*
G01X0004000Y0004166D01*
G01X0004047Y0004170D01*
G01X0004704Y0003514D01*
G01X0004704Y0000816D01*
G37*
G36*
G01X0002999Y0001059D02*
G01X0002000Y0002058D01*
G01X0002000Y0004166D01*
G01X0002058Y0004171D01*
G01X0002114Y0004184D01*
G01X0002168Y0004206D01*
G01X0002217Y0004237D01*
G01X0002261Y0004274D01*
G01X0002299Y0004318D01*
G01X0002329Y0004368D01*
G01X0002351Y0004421D01*
G01X0002365Y0004478D01*
G01X0002368Y0004535D01*
G01X0002365Y0004593D01*
G01X0002351Y0004650D01*
G01X0002329Y0004703D01*
G01X0002299Y0004753D01*
G01X0002261Y0004797D01*
G01X0002217Y0004834D01*
G01X0002168Y0004864D01*
G01X0002114Y0004887D01*
G01X0002058Y0004900D01*
G01X0002000Y0004905D01*
G01X0002000Y0015168D01*
G01X0002269Y0015168D01*
G01X0002287Y0015173D01*
G01X0002304Y0015180D01*
G01X0002320Y0015190D01*
G01X0002334Y0015202D01*
G01X0002346Y0015216D01*
G01X0002356Y0015232D01*
G01X0002363Y0015249D01*
G01X0002367Y0015267D01*
G01X0002368Y0015285D01*
G01X0002367Y0015804D01*
G01X0002363Y0015822D01*
G01X0002356Y0015839D01*
G01X0002346Y0015855D01*
G01X0002334Y0015869D01*
G01X0002320Y0015881D01*
G01X0002304Y0015891D01*
G01X0002287Y0015898D01*
G01X0002269Y0015902D01*
G01X0002250Y0015904D01*
G01X0002000Y0015903D01*
G01X0002000Y0016114D01*
G01X0002999Y0016114D01*
G01X0002999Y0015905D01*
G01X0002942Y0015900D01*
G01X0002886Y0015887D01*
G01X0002832Y0015864D01*
G01X0002783Y0015834D01*
G01X0002739Y0015797D01*
G01X0002701Y0015753D01*
G01X0002671Y0015703D01*
G01X0002649Y0015650D01*
G01X0002635Y0015593D01*
G01X0002631Y0015535D01*
G01X0002635Y0015478D01*
G01X0002649Y0015421D01*
G01X0002671Y0015368D01*
G01X0002701Y0015318D01*
G01X0002739Y0015274D01*
G01X0002783Y0015237D01*
G01X0002832Y0015206D01*
G01X0002886Y0015184D01*
G01X0002942Y0015171D01*
G01X0002999Y0015166D01*
G01X0002999Y0004905D01*
G01X0002942Y0004900D01*
G01X0002886Y0004887D01*
G01X0002832Y0004864D01*
G01X0002783Y0004834D01*
G01X0002739Y0004797D01*
G01X0002701Y0004753D01*
G01X0002671Y0004703D01*
G01X0002649Y0004650D01*
G01X0002635Y0004593D01*
G01X0002631Y0004535D01*
G01X0002635Y0004478D01*
G01X0002649Y0004421D01*
G01X0002671Y0004368D01*
G01X0002701Y0004318D01*
G01X0002739Y0004274D01*
G01X0002783Y0004237D01*
G01X0002832Y0004206D01*
G01X0002886Y0004184D01*
G01X0002942Y0004171D01*
G01X0002999Y0004166D01*
G01X0002999Y0001059D01*
G37*
G36*
G01X0002000Y0002058D02*
G01X0000619Y0003440D01*
G01X0000619Y0016114D01*
G01X0002000Y0016114D01*
G01X0002000Y0015903D01*
G01X0001732Y0015902D01*
G01X0001713Y0015898D01*
G01X0001696Y0015891D01*
G01X0001680Y0015881D01*
G01X0001666Y0015869D01*
G01X0001654Y0015855D01*
G01X0001644Y0015839D01*
G01X0001637Y0015822D01*
G01X0001633Y0015804D01*
G01X0001632Y0015785D01*
G01X0001633Y0015267D01*
G01X0001637Y0015249D01*
G01X0001644Y0015232D01*
G01X0001654Y0015216D01*
G01X0001666Y0015202D01*
G01X0001680Y0015190D01*
G01X0001696Y0015180D01*
G01X0001713Y0015173D01*
G01X0001732Y0015168D01*
G01X0001750Y0015167D01*
G01X0002000Y0015168D01*
G01X0002000Y0004905D01*
G01X0001942Y0004900D01*
G01X0001886Y0004887D01*
G01X0001832Y0004864D01*
G01X0001783Y0004834D01*
G01X0001739Y0004797D01*
G01X0001701Y0004753D01*
G01X0001671Y0004703D01*
G01X0001649Y0004650D01*
G01X0001635Y0004593D01*
G01X0001631Y0004535D01*
G01X0001635Y0004478D01*
G01X0001649Y0004421D01*
G01X0001671Y0004368D01*
G01X0001701Y0004318D01*
G01X0001739Y0004274D01*
G01X0001783Y0004237D01*
G01X0001832Y0004206D01*
G01X0001886Y0004184D01*
G01X0001942Y0004171D01*
G01X0002000Y0004166D01*
G01X0002000Y0002058D01*
G37*
G36*
G01X0001750Y0015785D02*
G01X0001750Y0015285D01*
G01X0002250Y0015285D01*
G01X0002250Y0015785D01*
G01X0001750Y0015785D01*
G37*
G54D12*
G01X0003000Y0015535D03*
G01X0020000Y0015535D03*
G01X0021000Y0015535D03*
G54D13*
G01X0016900Y0002035D03*
G01X0015900Y0002035D03*
G01X0017400Y0003035D03*
G01X0016400Y0003035D03*
G01X0018900Y0002035D03*
G01X0017900Y0002035D03*
G01X0018400Y0003035D03*
G01X0019400Y0003035D03*
G54D12*
G01X0021000Y0004535D03*
G01X0020000Y0004535D03*
G01X0019000Y0004535D03*
G01X0018000Y0004535D03*
G01X0017000Y0004535D03*
G01X0016000Y0004535D03*
G01X0015000Y0004535D03*
G01X0014000Y0004535D03*
G01X0013000Y0004535D03*
G01X0012000Y0004535D03*
G01X0011000Y0004535D03*
G01X0010000Y0004535D03*
G01X0009000Y0004535D03*
G01X0008000Y0004535D03*
G01X0007000Y0004535D03*
G01X0006000Y0004535D03*
G01X0005000Y0004535D03*
G01X0004000Y0004535D03*
G01X0003000Y0004535D03*
G01X0002000Y0004535D03*
M02*
