G04 start of page 2 for group 0 idx 0 *
G04 Title: roomunit-psu, top *
G04 Creator: pcb 1.99z *
G04 CreationDate: tor 11 jun 2015 09:01:47 UTC *
G04 For: jonatan *
G04 Format: Gerber/RS-274X *
G04 PCB-Dimensions (mil): 2401.57 2401.57 *
G04 PCB-Coordinate-Origin: lower left *
%MOIN*%
%FSLAX25Y25*%
%LNTOP*%
%ADD35C,0.0157*%
%ADD34C,0.0118*%
%ADD33C,0.0630*%
%ADD32C,0.0315*%
%ADD31C,0.0276*%
%ADD30R,0.0200X0.0200*%
%ADD29R,0.0671X0.0671*%
%ADD28R,0.1102X0.1102*%
%ADD27R,0.0315X0.0315*%
%ADD26R,0.0945X0.0945*%
%ADD25R,0.0551X0.0551*%
%ADD24R,0.0130X0.0130*%
%ADD23R,0.0590X0.0590*%
%ADD22R,0.0394X0.0394*%
%ADD21R,0.0256X0.0256*%
%ADD20R,0.0787X0.0787*%
%ADD19R,0.0618X0.0618*%
%ADD18R,0.0403X0.0403*%
%ADD17R,0.0197X0.0197*%
%ADD16R,0.0512X0.0512*%
%ADD15C,0.0600*%
%ADD14C,0.0591*%
%ADD13C,0.0236*%
%ADD12C,0.0079*%
%ADD11C,0.0001*%
G54D11*G36*
X153937Y146789D02*X153959Y140242D01*
X154046Y139880D01*
X154188Y139537D01*
X154382Y139220D01*
X154624Y138937D01*
X154906Y138696D01*
X155223Y138501D01*
X155567Y138359D01*
X155929Y138272D01*
X156299Y138250D01*
X162393Y138270D01*
X159268Y135145D01*
X155929Y135134D01*
X155567Y135047D01*
X155223Y134905D01*
X154906Y134711D01*
X154624Y134469D01*
X154382Y134186D01*
X154188Y133869D01*
X154046Y133526D01*
X153959Y133164D01*
X153937Y132794D01*
X153959Y126247D01*
X154046Y125885D01*
X154188Y125542D01*
X154382Y125225D01*
X154509Y125077D01*
X148016Y118584D01*
X147981Y118554D01*
X147860Y118413D01*
X147763Y118254D01*
X147692Y118083D01*
X147649Y117902D01*
X147649Y117902D01*
X147634Y117717D01*
X147638Y117670D01*
Y113826D01*
X147634Y113780D01*
X147649Y113594D01*
X147692Y113413D01*
X147763Y113242D01*
X147860Y113083D01*
X147861Y113083D01*
X147981Y112942D01*
X148016Y112912D01*
X149526Y111402D01*
X149556Y111367D01*
X149697Y111246D01*
X149697Y111246D01*
X149856Y111149D01*
X150028Y111078D01*
X150208Y111035D01*
X150394Y111020D01*
X150440Y111024D01*
X154169D01*
X154142Y110910D01*
X154134Y110787D01*
X154142Y109364D01*
X154171Y109244D01*
X154218Y109129D01*
X154283Y109023D01*
X154363Y108929D01*
X154447Y108858D01*
X154363Y108786D01*
X154340Y108759D01*
X153945D01*
X153904Y108860D01*
X153726Y109151D01*
X153504Y109410D01*
X153245Y109631D01*
X152955Y109809D01*
X152640Y109940D01*
X152308Y110019D01*
X151969Y110046D01*
X151629Y110019D01*
X151297Y109940D01*
X150982Y109809D01*
X150692Y109631D01*
X150433Y109410D01*
X150211Y109151D01*
X150033Y108860D01*
X149903Y108545D01*
X149823Y108214D01*
X149796Y107874D01*
X149823Y107534D01*
X149903Y107203D01*
X150033Y106888D01*
X150211Y106597D01*
X150298Y106496D01*
X145669D01*
Y124488D01*
X147221Y124493D01*
X147583Y124580D01*
X147926Y124722D01*
X148243Y124916D01*
X148526Y125158D01*
X148767Y125440D01*
X148962Y125757D01*
X149104Y126101D01*
X149191Y126462D01*
X149213Y126833D01*
X149191Y133380D01*
X149104Y133742D01*
X148962Y134085D01*
X148767Y134402D01*
X148526Y134685D01*
X148243Y134926D01*
X147926Y135121D01*
X147583Y135263D01*
X147221Y135350D01*
X146850Y135372D01*
X143701Y135361D01*
Y138476D01*
X147221Y138488D01*
X147583Y138575D01*
X147926Y138717D01*
X148243Y138911D01*
X148526Y139153D01*
X148767Y139436D01*
X148962Y139753D01*
X149104Y140096D01*
X149191Y140458D01*
X149213Y140828D01*
X149191Y147375D01*
X149104Y147737D01*
X148962Y148080D01*
X148767Y148397D01*
X148526Y148680D01*
X148243Y148922D01*
X147926Y149116D01*
X147583Y149258D01*
X147221Y149345D01*
X146850Y149367D01*
X143701Y149357D01*
Y159843D01*
X151239D01*
X151407Y159437D01*
X151658Y159028D01*
X151970Y158663D01*
X152335Y158351D01*
X152744Y158100D01*
X153188Y157916D01*
X153655Y157804D01*
X154134Y157776D01*
X165636Y157804D01*
X166103Y157916D01*
X166547Y158100D01*
X166956Y158351D01*
X167322Y158663D01*
X167634Y159028D01*
X167866Y159408D01*
X167879Y154682D01*
X167977Y154275D01*
X168137Y153889D01*
X168355Y153532D01*
X168627Y153214D01*
X168945Y152942D01*
X169302Y152724D01*
X169688Y152564D01*
X170095Y152466D01*
X170512Y152441D01*
X170866Y152442D01*
Y145808D01*
X170855Y145669D01*
X170899Y145113D01*
X171029Y144571D01*
X171243Y144056D01*
X171534Y143580D01*
X171534Y143580D01*
X171896Y143156D01*
X172002Y143066D01*
X173540Y141528D01*
X173541Y141339D01*
X167068D01*
X166929Y141350D01*
X166373Y141306D01*
X165831Y141176D01*
X165316Y140962D01*
X164960Y140744D01*
X164939Y147160D01*
X164852Y147521D01*
X164710Y147865D01*
X164515Y148182D01*
X164274Y148464D01*
X163991Y148706D01*
X163674Y148900D01*
X163331Y149042D01*
X162969Y149129D01*
X162598Y149151D01*
X155929Y149129D01*
X155567Y149042D01*
X155223Y148900D01*
X154906Y148706D01*
X154624Y148464D01*
X154382Y148182D01*
X154188Y147865D01*
X154046Y147521D01*
X153959Y147160D01*
X153937Y146789D01*
G37*
G36*
X143701Y135361D02*X143212Y135360D01*
X142306Y136266D01*
X142216Y136371D01*
X141791Y136734D01*
X141316Y137025D01*
X140801Y137239D01*
X140389Y137337D01*
X140258Y137369D01*
X139702Y137413D01*
X139564Y137402D01*
X134449D01*
X133893Y137369D01*
X133465Y137266D01*
Y138342D01*
X135950Y138346D01*
X136071Y138375D01*
X136185Y138422D01*
X136291Y138487D01*
X136385Y138567D01*
X136466Y138662D01*
X136531Y138767D01*
X136578Y138882D01*
X136607Y139002D01*
X136614Y139126D01*
X136607Y143281D01*
X136578Y143402D01*
X136531Y143516D01*
X136466Y143622D01*
X136385Y143716D01*
X136291Y143796D01*
X136185Y143861D01*
X136071Y143909D01*
X135950Y143938D01*
X135827Y143945D01*
X133465Y143941D01*
Y159843D01*
X143701D01*
Y149357D01*
X140181Y149345D01*
X139819Y149258D01*
X139475Y149116D01*
X139158Y148922D01*
X138876Y148680D01*
X138634Y148397D01*
X138440Y148080D01*
X138298Y147737D01*
X138211Y147375D01*
X138189Y147005D01*
X138211Y140458D01*
X138298Y140096D01*
X138440Y139753D01*
X138634Y139436D01*
X138876Y139153D01*
X139158Y138911D01*
X139475Y138717D01*
X139819Y138575D01*
X140181Y138488D01*
X140551Y138466D01*
X143701Y138476D01*
Y135361D01*
G37*
G36*
X133465Y137266D02*X133350Y137239D01*
X133269Y137205D01*
X126575D01*
X126545Y137203D01*
X126516Y137205D01*
X123870Y137181D01*
X123478Y137087D01*
X123106Y136933D01*
X123051Y136899D01*
X122996Y136933D01*
X122624Y137087D01*
X122232Y137181D01*
X121831Y137205D01*
X119797Y137187D01*
X119488Y137205D01*
X114534D01*
X114462Y137249D01*
X114118Y137391D01*
X113780Y137473D01*
Y150107D01*
X123515Y159843D01*
X133465D01*
Y143941D01*
X130979Y143938D01*
X130858Y143909D01*
X130744Y143861D01*
X130638Y143796D01*
X130544Y143716D01*
X130463Y143622D01*
X130399Y143516D01*
X130351Y143402D01*
X130322Y143281D01*
X130315Y143157D01*
X130322Y139002D01*
X130351Y138882D01*
X130399Y138767D01*
X130463Y138662D01*
X130544Y138567D01*
X130638Y138487D01*
X130744Y138422D01*
X130858Y138375D01*
X130979Y138346D01*
X131102Y138339D01*
X133465Y138342D01*
Y137266D01*
G37*
G36*
X128543Y101102D02*X123302Y101095D01*
X123181Y101066D01*
X123067Y101019D01*
X122961Y100954D01*
X122867Y100873D01*
X122786Y100779D01*
X122721Y100674D01*
X122674Y100559D01*
X122645Y100439D01*
X122638Y100315D01*
X122640Y98543D01*
X122053D01*
X121996Y98637D01*
X121754Y98920D01*
X121471Y99161D01*
X121154Y99355D01*
X120811Y99498D01*
X120449Y99584D01*
X120079Y99614D01*
X119708Y99584D01*
X119347Y99498D01*
X119003Y99355D01*
X118686Y99161D01*
X118403Y98920D01*
X118162Y98637D01*
X117968Y98320D01*
X117825Y97976D01*
X117738Y97615D01*
X117709Y97244D01*
X117731Y96971D01*
X115354Y99348D01*
Y110534D01*
X118599Y113780D01*
X127712D01*
X127770Y113684D01*
X127992Y113425D01*
X128251Y113203D01*
X128541Y113025D01*
X128856Y112895D01*
X129188Y112815D01*
X129528Y112789D01*
X129867Y112815D01*
X130199Y112895D01*
X130514Y113025D01*
X130804Y113203D01*
X131063Y113425D01*
X131285Y113684D01*
X131463Y113975D01*
X131593Y114289D01*
X131673Y114621D01*
X131693Y114961D01*
X131673Y115300D01*
X131593Y115632D01*
X131463Y115947D01*
X131343Y116142D01*
X138583D01*
Y110232D01*
X136851Y110223D01*
X136640Y110173D01*
X136439Y110090D01*
X136254Y109976D01*
X136090Y109836D01*
X135949Y109671D01*
X135846Y109504D01*
X135744Y109671D01*
X135603Y109836D01*
X135438Y109976D01*
X135253Y110090D01*
X135053Y110173D01*
X134842Y110223D01*
X134626Y110236D01*
X132166Y110223D01*
X131955Y110173D01*
X131754Y110090D01*
X131569Y109976D01*
X131405Y109836D01*
X131264Y109671D01*
X131150Y109486D01*
X131067Y109285D01*
X131017Y109074D01*
X131016Y109055D01*
X129325D01*
X129323Y110439D01*
X129294Y110559D01*
X129247Y110674D01*
X129182Y110779D01*
X129102Y110873D01*
X129008Y110954D01*
X128902Y111019D01*
X128787Y111066D01*
X128667Y111095D01*
X128543Y111102D01*
X123302Y111095D01*
X123181Y111066D01*
X123067Y111019D01*
X122961Y110954D01*
X122867Y110873D01*
X122786Y110779D01*
X122721Y110674D01*
X122674Y110559D01*
X122645Y110439D01*
X122638Y110315D01*
X122645Y104286D01*
X122674Y104165D01*
X122721Y104051D01*
X122786Y103945D01*
X122867Y103851D01*
X122961Y103770D01*
X123067Y103706D01*
X123181Y103658D01*
X123302Y103629D01*
X123425Y103622D01*
X128667Y103629D01*
X128787Y103658D01*
X128902Y103706D01*
X129008Y103770D01*
X129102Y103851D01*
X129182Y103945D01*
X129247Y104051D01*
X129294Y104165D01*
X129323Y104286D01*
X129331Y104409D01*
X129328Y106693D01*
X131017D01*
X131017Y106674D01*
X131067Y106463D01*
X131150Y106262D01*
X131264Y106077D01*
X131405Y105912D01*
X131569Y105772D01*
X131754Y105658D01*
X131955Y105575D01*
X132166Y105525D01*
X132382Y105512D01*
X134842Y105525D01*
X135053Y105575D01*
X135253Y105658D01*
X135438Y105772D01*
X135603Y105912D01*
X135744Y106077D01*
X135846Y106244D01*
X135949Y106077D01*
X136090Y105912D01*
X136254Y105772D01*
X136439Y105658D01*
X136640Y105575D01*
X136851Y105525D01*
X137067Y105512D01*
X138605Y105520D01*
X138616Y105350D01*
X138746Y104807D01*
X138959Y104292D01*
X139251Y103816D01*
X139613Y103392D01*
X140037Y103030D01*
X140512Y102739D01*
X141028Y102525D01*
X141570Y102395D01*
X142126Y102351D01*
X142682Y102395D01*
X143224Y102525D01*
X143740Y102739D01*
X144215Y103030D01*
X144639Y103392D01*
X144936Y103740D01*
X154446D01*
X154363Y103669D01*
X154283Y103575D01*
X154218Y103469D01*
X154171Y103355D01*
X154142Y103234D01*
X154134Y103111D01*
X154142Y101688D01*
X154171Y101568D01*
X154218Y101453D01*
X154283Y101347D01*
X154363Y101253D01*
X154447Y101182D01*
X154363Y101110D01*
X154283Y101016D01*
X154218Y100910D01*
X154171Y100796D01*
X154142Y100675D01*
X154134Y100552D01*
X154142Y99129D01*
X154171Y99009D01*
X154218Y98894D01*
X154283Y98788D01*
X154363Y98694D01*
X154447Y98623D01*
X154363Y98551D01*
X154283Y98457D01*
X154218Y98351D01*
X154171Y98237D01*
X154142Y98116D01*
X154134Y97993D01*
X154142Y96572D01*
X154109Y96552D01*
X153944Y96411D01*
X153803Y96246D01*
X153690Y96061D01*
X153607Y95861D01*
X153556Y95650D01*
X153544Y95434D01*
X153556Y93918D01*
X153607Y93708D01*
X153690Y93507D01*
X153803Y93322D01*
X153944Y93157D01*
X154109Y93016D01*
X154294Y92903D01*
X154495Y92820D01*
X154705Y92770D01*
X154922Y92757D01*
X161043Y92770D01*
X161254Y92820D01*
X161356Y92863D01*
X161388Y92787D01*
X161517Y92575D01*
X161678Y92387D01*
X161867Y92226D01*
X162078Y92096D01*
X162307Y92002D01*
X162548Y91944D01*
X162795Y91929D01*
X167375Y91934D01*
X167232Y91875D01*
X166915Y91680D01*
X166632Y91439D01*
X166391Y91156D01*
X166196Y90839D01*
X166054Y90496D01*
X165967Y90134D01*
X165945Y89764D01*
X165958Y81978D01*
X165720Y82256D01*
X165061Y82819D01*
X164321Y83273D01*
X163520Y83605D01*
X162676Y83807D01*
X161811Y83875D01*
X160946Y83807D01*
X160103Y83605D01*
X159301Y83273D01*
X158561Y82819D01*
X157902Y82256D01*
X157589Y81890D01*
X157066D01*
X157065Y82457D01*
X156978Y82819D01*
X156836Y83162D01*
X156641Y83479D01*
X156400Y83762D01*
X156117Y84004D01*
X155800Y84198D01*
X155457Y84340D01*
X155095Y84427D01*
X154724Y84449D01*
X150417Y84427D01*
X150055Y84340D01*
X149712Y84198D01*
X149395Y84004D01*
X149112Y83762D01*
X148870Y83479D01*
X148676Y83162D01*
X148534Y82819D01*
X148447Y82457D01*
X148425Y82087D01*
X148438Y76772D01*
X128040D01*
X128008Y76791D01*
X128175Y76894D01*
X128340Y77034D01*
X128480Y77199D01*
X128594Y77384D01*
X128677Y77585D01*
X128727Y77796D01*
X128740Y78012D01*
X128738Y78346D01*
X130721D01*
X130721Y78189D01*
X130772Y77978D01*
X130855Y77778D01*
X130968Y77593D01*
X131109Y77428D01*
X131274Y77287D01*
X131459Y77174D01*
X131659Y77091D01*
X131870Y77040D01*
X132087Y77028D01*
X134271Y77040D01*
X134482Y77091D01*
X134683Y77174D01*
X134868Y77287D01*
X135033Y77428D01*
X135173Y77593D01*
X135287Y77778D01*
X135370Y77978D01*
X135420Y78189D01*
X135433Y78406D01*
X135420Y80866D01*
X135370Y81077D01*
X135287Y81277D01*
X135173Y81462D01*
X135033Y81627D01*
X134868Y81768D01*
X134701Y81870D01*
X134868Y81972D01*
X135033Y82113D01*
X135173Y82278D01*
X135287Y82463D01*
X135370Y82663D01*
X135420Y82874D01*
X135433Y83091D01*
X135423Y85032D01*
X139170Y88780D01*
X158224D01*
X158282Y88684D01*
X158504Y88425D01*
X158763Y88203D01*
X159053Y88025D01*
X159368Y87895D01*
X159700Y87815D01*
X160039Y87789D01*
X160379Y87815D01*
X160711Y87895D01*
X161025Y88025D01*
X161316Y88203D01*
X161575Y88425D01*
X161797Y88684D01*
X161975Y88975D01*
X162105Y89289D01*
X162185Y89621D01*
X162205Y89961D01*
X162185Y90300D01*
X162105Y90632D01*
X161975Y90947D01*
X161797Y91237D01*
X161575Y91496D01*
X161316Y91718D01*
X161025Y91896D01*
X160711Y92026D01*
X160379Y92106D01*
X160039Y92133D01*
X159700Y92106D01*
X159368Y92026D01*
X159053Y91896D01*
X158763Y91718D01*
X158504Y91496D01*
X158282Y91237D01*
X158224Y91142D01*
X138727D01*
X138681Y91145D01*
X138496Y91131D01*
X138315Y91087D01*
X138143Y91016D01*
X137985Y90919D01*
X137984Y90919D01*
X137843Y90798D01*
X137813Y90763D01*
X133761Y86711D01*
X131870Y86700D01*
X131659Y86649D01*
X131459Y86566D01*
X131274Y86453D01*
X131109Y86312D01*
X130968Y86147D01*
X130855Y85962D01*
X130772Y85762D01*
X130721Y85551D01*
X130712Y85394D01*
X129308D01*
X128085Y86617D01*
X130078Y86627D01*
X130289Y86678D01*
X130490Y86761D01*
X130675Y86874D01*
X130840Y87015D01*
X130980Y87180D01*
X131094Y87365D01*
X131177Y87565D01*
X131227Y87776D01*
X131240Y87992D01*
X131227Y90177D01*
X131177Y90388D01*
X131094Y90588D01*
X130980Y90773D01*
X130840Y90938D01*
X130675Y91079D01*
X130490Y91192D01*
X130289Y91275D01*
X130078Y91326D01*
X129862Y91339D01*
X127402Y91326D01*
X127191Y91275D01*
X126991Y91192D01*
X126806Y91079D01*
X126641Y90938D01*
X126500Y90773D01*
X126398Y90606D01*
X126295Y90773D01*
X126155Y90938D01*
X125990Y91079D01*
X125805Y91192D01*
X125604Y91275D01*
X125393Y91326D01*
X125177Y91339D01*
X123373Y91329D01*
X119806Y94896D01*
X120079Y94875D01*
X120449Y94904D01*
X120811Y94991D01*
X121154Y95133D01*
X121471Y95327D01*
X121754Y95569D01*
X121996Y95851D01*
X122190Y96168D01*
X122195Y96181D01*
X122643D01*
X122645Y94286D01*
X122674Y94165D01*
X122721Y94051D01*
X122786Y93945D01*
X122867Y93851D01*
X122961Y93770D01*
X123067Y93706D01*
X123181Y93658D01*
X123302Y93629D01*
X123425Y93622D01*
X128667Y93629D01*
X128787Y93658D01*
X128902Y93706D01*
X129008Y93770D01*
X129102Y93851D01*
X129182Y93945D01*
X129247Y94051D01*
X129294Y94165D01*
X129323Y94286D01*
X129331Y94409D01*
X129323Y100439D01*
X129294Y100559D01*
X129247Y100674D01*
X129182Y100779D01*
X129102Y100873D01*
X129008Y100954D01*
X128902Y101019D01*
X128787Y101066D01*
X128667Y101095D01*
X128543Y101102D01*
G37*
G36*
X176181Y120866D02*X178888D01*
X178970Y120667D01*
X179134Y120400D01*
Y119245D01*
X178026Y119244D01*
X177937Y119222D01*
X177936Y119372D01*
X177871Y119644D01*
X177765Y119901D01*
X177619Y120139D01*
X177438Y120351D01*
X177226Y120532D01*
X176988Y120678D01*
X176730Y120785D01*
X176459Y120850D01*
X176181Y120866D01*
G37*
G36*
X178445Y147441D02*X177953Y147437D01*
Y152463D01*
X178803Y152466D01*
X179210Y152564D01*
X179596Y152724D01*
X179953Y152942D01*
X180271Y153214D01*
X180542Y153532D01*
X180761Y153889D01*
X180921Y154275D01*
X181019Y154682D01*
X181043Y155099D01*
X181019Y164216D01*
X180921Y164623D01*
X180761Y165009D01*
X180542Y165366D01*
X180271Y165684D01*
X179953Y165955D01*
X179596Y166174D01*
X179210Y166334D01*
X178803Y166432D01*
X178386Y166456D01*
X177953Y166455D01*
Y175304D01*
X179536Y173720D01*
X179549Y169769D01*
X179636Y169408D01*
X179779Y169064D01*
X179973Y168747D01*
X180214Y168465D01*
X180497Y168223D01*
X180814Y168029D01*
X181158Y167887D01*
X181519Y167800D01*
X181890Y167778D01*
X185467Y167790D01*
X187169Y166087D01*
X187024Y166052D01*
X186680Y165910D01*
X186363Y165716D01*
X186080Y165474D01*
X185839Y165192D01*
X185645Y164875D01*
X185502Y164531D01*
X185416Y164170D01*
X185394Y163799D01*
X185416Y154728D01*
X185502Y154367D01*
X185645Y154023D01*
X185839Y153706D01*
X186080Y153423D01*
X186363Y153182D01*
X186680Y152988D01*
X187024Y152845D01*
X187385Y152758D01*
X187756Y152737D01*
X195923Y152758D01*
X193626Y104785D01*
X193569Y104878D01*
X193338Y105149D01*
X193067Y105380D01*
X192763Y105567D01*
X192434Y105703D01*
X192088Y105786D01*
X191732Y105814D01*
X191377Y105786D01*
X191031Y105703D01*
X190701Y105567D01*
X190398Y105380D01*
X190321Y105315D01*
X190255Y105592D01*
X190124Y105907D01*
X189946Y106198D01*
X189725Y106457D01*
X189466Y106678D01*
X189175Y106857D01*
X188860Y106987D01*
X188529Y107067D01*
X188189Y107093D01*
X187849Y107067D01*
X187702Y107031D01*
X187775Y107337D01*
X187795Y107677D01*
X187775Y108017D01*
X187696Y108348D01*
X187565Y108663D01*
X187387Y108954D01*
X187301Y109055D01*
X188904D01*
X189171Y108891D01*
X189486Y108761D01*
X189818Y108681D01*
X190157Y108655D01*
X190497Y108681D01*
X190829Y108761D01*
X191144Y108891D01*
X191434Y109070D01*
X191693Y109291D01*
X191915Y109550D01*
X192093Y109841D01*
X192223Y110156D01*
X192303Y110487D01*
X192323Y110827D01*
X192303Y111167D01*
X192223Y111498D01*
X192093Y111813D01*
X191915Y112103D01*
X191693Y112363D01*
X191434Y112584D01*
X191144Y112762D01*
X190829Y112892D01*
X190762Y112908D01*
X190906Y113031D01*
X191127Y113290D01*
X191305Y113581D01*
X191436Y113896D01*
X191515Y114227D01*
X191535Y114567D01*
X191515Y114907D01*
X191436Y115238D01*
X191305Y115553D01*
X191127Y115844D01*
X190906Y116103D01*
X190762Y116225D01*
X190829Y116241D01*
X191144Y116372D01*
X191434Y116550D01*
X191693Y116771D01*
X191915Y117030D01*
X192093Y117321D01*
X192223Y117636D01*
X192303Y117967D01*
X192323Y118307D01*
X192303Y118647D01*
X192223Y118978D01*
X192093Y119293D01*
X191915Y119584D01*
X191693Y119843D01*
X191434Y120064D01*
X191144Y120242D01*
X190829Y120373D01*
X190497Y120452D01*
X190157Y120479D01*
X189818Y120452D01*
X189486Y120373D01*
X189171Y120242D01*
X188881Y120064D01*
X188622Y119843D01*
X188400Y119584D01*
X188222Y119293D01*
X188092Y118978D01*
X188066Y118870D01*
X185632Y116436D01*
X184636D01*
X184613Y116463D01*
X184529Y116535D01*
X184613Y116606D01*
X184694Y116700D01*
X184758Y116806D01*
X184806Y116921D01*
X184835Y117041D01*
X184842Y117165D01*
X184835Y118587D01*
X184806Y118708D01*
X184758Y118822D01*
X184694Y118928D01*
X184613Y119022D01*
X184519Y119103D01*
X184413Y119167D01*
X184299Y119215D01*
X184178Y119244D01*
X184055Y119251D01*
X182480Y119249D01*
Y120163D01*
X182663Y120377D01*
X182841Y120667D01*
X182971Y120982D01*
X183051Y121314D01*
X183071Y121654D01*
X183051Y121993D01*
X182971Y122325D01*
X182841Y122640D01*
X182663Y122930D01*
X182441Y123189D01*
X182182Y123411D01*
X181892Y123589D01*
X181577Y123719D01*
X181245Y123799D01*
X180906Y123826D01*
X180566Y123799D01*
X180234Y123719D01*
X179919Y123589D01*
X179629Y123411D01*
X179370Y123189D01*
X179148Y122930D01*
X178970Y122640D01*
X178840Y122325D01*
X178760Y121993D01*
X178733Y121654D01*
X178760Y121314D01*
X178840Y120982D01*
X178970Y120667D01*
X179148Y120377D01*
X179370Y120118D01*
X179629Y119896D01*
X179919Y119718D01*
X180118Y119636D01*
Y119246D01*
X178026Y119244D01*
X177937Y119222D01*
X177936Y119372D01*
X177871Y119644D01*
X177765Y119901D01*
X177619Y120139D01*
X177438Y120351D01*
X177226Y120532D01*
X176988Y120678D01*
X176730Y120785D01*
X176459Y120850D01*
X176181Y120866D01*
X167021Y120855D01*
X167128Y120899D01*
X167418Y121077D01*
X167678Y121299D01*
X167899Y121558D01*
X168077Y121849D01*
X168207Y122163D01*
X168287Y122495D01*
X168307Y122835D01*
X168287Y123174D01*
X168207Y123506D01*
X168077Y123821D01*
X167902Y124106D01*
X173721Y129925D01*
X174797Y129927D01*
X174888Y129948D01*
X174974Y129984D01*
X175053Y130033D01*
X175124Y130093D01*
X175184Y130164D01*
X175233Y130243D01*
X175268Y130329D01*
X175290Y130419D01*
X175295Y130512D01*
X175291Y134252D01*
X176879D01*
X177268Y133862D01*
X177286Y130141D01*
X177372Y129780D01*
X177515Y129436D01*
X177709Y129119D01*
X177950Y128836D01*
X178233Y128595D01*
X178550Y128401D01*
X178894Y128258D01*
X179255Y128171D01*
X179626Y128150D01*
X182556Y128171D01*
X182917Y128258D01*
X183261Y128401D01*
X183578Y128595D01*
X183861Y128836D01*
X184102Y129119D01*
X184296Y129436D01*
X184439Y129780D01*
X184525Y130141D01*
X184547Y130512D01*
X184525Y135213D01*
X184439Y135575D01*
X184432Y135591D01*
X184416Y135792D01*
X184286Y136335D01*
X184072Y136850D01*
X183781Y137325D01*
X183781Y137325D01*
X183419Y137749D01*
X183313Y137840D01*
X180950Y140203D01*
X180860Y140309D01*
X180784Y140373D01*
X180785Y140377D01*
X180807Y140748D01*
X180785Y145449D01*
X180698Y145811D01*
X180556Y146154D01*
X180362Y146471D01*
X180120Y146754D01*
X179838Y146996D01*
X179521Y147190D01*
X179177Y147332D01*
X178816Y147419D01*
X178445Y147441D01*
G37*
G36*
X125984Y130133D02*X126271Y130136D01*
X126575Y130118D01*
X133465D01*
X134021Y130151D01*
X134563Y130281D01*
X134645Y130315D01*
X138198D01*
X138211Y126462D01*
X138298Y126101D01*
X138440Y125757D01*
X138583Y125524D01*
Y110232D01*
X136851Y110223D01*
X136640Y110173D01*
X136439Y110090D01*
X136254Y109976D01*
X136090Y109836D01*
X135949Y109671D01*
X135846Y109504D01*
X135744Y109671D01*
X135603Y109836D01*
X135438Y109976D01*
X135253Y110090D01*
X135053Y110173D01*
X134842Y110223D01*
X134626Y110236D01*
X132166Y110223D01*
X131955Y110173D01*
X131754Y110090D01*
X131569Y109976D01*
X131405Y109836D01*
X131264Y109671D01*
X131150Y109486D01*
X131067Y109285D01*
X131017Y109074D01*
X131016Y109055D01*
X129325D01*
X129323Y110439D01*
X129294Y110559D01*
X129247Y110674D01*
X129182Y110779D01*
X129102Y110873D01*
X129008Y110954D01*
X128902Y111019D01*
X128787Y111066D01*
X128667Y111095D01*
X128543Y111102D01*
X125984Y111099D01*
Y113780D01*
X127712D01*
X127770Y113684D01*
X127992Y113425D01*
X128251Y113203D01*
X128541Y113025D01*
X128856Y112895D01*
X129188Y112815D01*
X129528Y112789D01*
X129867Y112815D01*
X130199Y112895D01*
X130514Y113025D01*
X130804Y113203D01*
X131063Y113425D01*
X131285Y113684D01*
X131463Y113975D01*
X131593Y114289D01*
X131673Y114621D01*
X131693Y114961D01*
X131673Y115300D01*
X131593Y115632D01*
X131463Y115947D01*
X131285Y116237D01*
X131063Y116496D01*
X130804Y116718D01*
X130514Y116896D01*
X130199Y117026D01*
X129867Y117106D01*
X129528Y117133D01*
X129188Y117106D01*
X128856Y117026D01*
X128541Y116896D01*
X128251Y116718D01*
X127992Y116496D01*
X127770Y116237D01*
X127712Y116142D01*
X125984D01*
Y118898D01*
X131649D01*
X131707Y118802D01*
X131929Y118543D01*
X132188Y118322D01*
X132478Y118143D01*
X132793Y118013D01*
X133125Y117933D01*
X133465Y117907D01*
X133804Y117933D01*
X134136Y118013D01*
X134451Y118143D01*
X134741Y118322D01*
X135000Y118543D01*
X135222Y118802D01*
X135400Y119093D01*
X135530Y119408D01*
X135610Y119739D01*
X135630Y120079D01*
X135610Y120419D01*
X135530Y120750D01*
X135400Y121065D01*
X135222Y121355D01*
X135000Y121615D01*
X134741Y121836D01*
X134451Y122014D01*
X134136Y122144D01*
X133804Y122224D01*
X133465Y122251D01*
X133125Y122224D01*
X132793Y122144D01*
X132478Y122014D01*
X132188Y121836D01*
X131929Y121615D01*
X131707Y121355D01*
X131649Y121260D01*
X125984D01*
Y130133D01*
G37*
G36*
X143701Y159843D02*X151239D01*
X151407Y159437D01*
X151658Y159028D01*
X151970Y158663D01*
X152335Y158351D01*
X152744Y158100D01*
X153188Y157916D01*
X153655Y157804D01*
X154134Y157776D01*
X165636Y157804D01*
X166103Y157916D01*
X166547Y158100D01*
X166956Y158351D01*
X167322Y158663D01*
X167634Y159028D01*
X167866Y159408D01*
X167879Y154682D01*
X167977Y154275D01*
X168137Y153889D01*
X168355Y153532D01*
X168627Y153214D01*
X168945Y152942D01*
X169302Y152724D01*
X169688Y152564D01*
X170095Y152466D01*
X170512Y152441D01*
X170866Y152442D01*
Y145808D01*
X170855Y145669D01*
X170899Y145113D01*
X171029Y144571D01*
X171243Y144056D01*
X171534Y143580D01*
X171534Y143580D01*
X171896Y143156D01*
X172002Y143066D01*
X173540Y141528D01*
X173541Y141339D01*
X167068D01*
X166929Y141350D01*
X166373Y141306D01*
X165831Y141176D01*
X165316Y140962D01*
X164960Y140744D01*
X164939Y147160D01*
X164852Y147521D01*
X164710Y147865D01*
X164515Y148182D01*
X164274Y148464D01*
X163991Y148706D01*
X163674Y148900D01*
X163331Y149042D01*
X162969Y149129D01*
X162598Y149151D01*
X155929Y149129D01*
X155567Y149042D01*
X155223Y148900D01*
X154906Y148706D01*
X154624Y148464D01*
X154382Y148182D01*
X154188Y147865D01*
X154046Y147521D01*
X153959Y147160D01*
X153937Y146789D01*
X153959Y140242D01*
X154046Y139880D01*
X154188Y139537D01*
X154382Y139220D01*
X154624Y138937D01*
X154906Y138696D01*
X155223Y138501D01*
X155567Y138359D01*
X155929Y138272D01*
X156299Y138250D01*
X162393Y138270D01*
X159268Y135145D01*
X155929Y135134D01*
X155567Y135047D01*
X155223Y134905D01*
X154906Y134711D01*
X154624Y134469D01*
X154382Y134186D01*
X154188Y133869D01*
X154046Y133526D01*
X153959Y133164D01*
X153937Y132794D01*
X153959Y126247D01*
X154046Y125885D01*
X154188Y125542D01*
X154382Y125225D01*
X154509Y125077D01*
X148016Y118584D01*
X147981Y118554D01*
X147860Y118413D01*
X147763Y118254D01*
X147692Y118083D01*
X147649Y117902D01*
X147649Y117902D01*
X147634Y117717D01*
X147638Y117670D01*
Y113826D01*
X147634Y113780D01*
X147649Y113594D01*
X147692Y113413D01*
X147763Y113242D01*
X147860Y113083D01*
X147861Y113083D01*
X147981Y112942D01*
X148016Y112912D01*
X149526Y111402D01*
X149556Y111367D01*
X149697Y111246D01*
X149697Y111246D01*
X149856Y111149D01*
X150028Y111078D01*
X150208Y111035D01*
X150394Y111020D01*
X150440Y111024D01*
X154169D01*
X154142Y110910D01*
X154134Y110787D01*
X154142Y109364D01*
X154171Y109244D01*
X154218Y109129D01*
X154283Y109023D01*
X154363Y108929D01*
X154447Y108858D01*
X154363Y108786D01*
X154340Y108759D01*
X153945D01*
X153904Y108860D01*
X153726Y109151D01*
X153504Y109410D01*
X153245Y109631D01*
X152955Y109809D01*
X152640Y109940D01*
X152308Y110019D01*
X151969Y110046D01*
X151629Y110019D01*
X151297Y109940D01*
X150982Y109809D01*
X150692Y109631D01*
X150433Y109410D01*
X150211Y109151D01*
X150033Y108860D01*
X149903Y108545D01*
X149823Y108214D01*
X149796Y107874D01*
X149823Y107534D01*
X149903Y107203D01*
X150033Y106888D01*
X150211Y106597D01*
X150298Y106496D01*
X145669D01*
Y124488D01*
X147221Y124493D01*
X147583Y124580D01*
X147926Y124722D01*
X148243Y124916D01*
X148526Y125158D01*
X148767Y125440D01*
X148962Y125757D01*
X149104Y126101D01*
X149191Y126462D01*
X149213Y126833D01*
X149191Y133380D01*
X149104Y133742D01*
X148962Y134085D01*
X148767Y134402D01*
X148526Y134685D01*
X148243Y134926D01*
X147926Y135121D01*
X147583Y135263D01*
X147221Y135350D01*
X146850Y135372D01*
X143701Y135361D01*
Y138476D01*
X147221Y138488D01*
X147583Y138575D01*
X147926Y138717D01*
X148243Y138911D01*
X148526Y139153D01*
X148767Y139436D01*
X148962Y139753D01*
X149104Y140096D01*
X149191Y140458D01*
X149213Y140828D01*
X149191Y147375D01*
X149104Y147737D01*
X148962Y148080D01*
X148767Y148397D01*
X148526Y148680D01*
X148243Y148922D01*
X147926Y149116D01*
X147583Y149258D01*
X147221Y149345D01*
X146850Y149367D01*
X143701Y149357D01*
Y159843D01*
G37*
G36*
X133465D02*X143701D01*
Y149357D01*
X140181Y149345D01*
X139819Y149258D01*
X139475Y149116D01*
X139158Y148922D01*
X138876Y148680D01*
X138634Y148397D01*
X138440Y148080D01*
X138298Y147737D01*
X138211Y147375D01*
X138189Y147005D01*
X138211Y140458D01*
X138298Y140096D01*
X138440Y139753D01*
X138634Y139436D01*
X138876Y139153D01*
X139158Y138911D01*
X139475Y138717D01*
X139819Y138575D01*
X140181Y138488D01*
X140551Y138466D01*
X143701Y138476D01*
Y135361D01*
X143212Y135360D01*
X142306Y136266D01*
X142216Y136371D01*
X141791Y136734D01*
X141316Y137025D01*
X140801Y137239D01*
X140389Y137337D01*
X140258Y137369D01*
X139702Y137413D01*
X139564Y137402D01*
X134449D01*
X133893Y137369D01*
X133465Y137266D01*
Y138342D01*
X135950Y138346D01*
X136071Y138375D01*
X136185Y138422D01*
X136291Y138487D01*
X136385Y138567D01*
X136466Y138662D01*
X136531Y138767D01*
X136578Y138882D01*
X136607Y139002D01*
X136614Y139126D01*
X136607Y143281D01*
X136578Y143402D01*
X136531Y143516D01*
X136466Y143622D01*
X136385Y143716D01*
X136291Y143796D01*
X136185Y143861D01*
X136071Y143909D01*
X135950Y143938D01*
X135827Y143945D01*
X133465Y143941D01*
Y159843D01*
G37*
G36*
X125984D02*X133465D01*
Y143941D01*
X130979Y143938D01*
X130858Y143909D01*
X130744Y143861D01*
X130638Y143796D01*
X130544Y143716D01*
X130463Y143622D01*
X130399Y143516D01*
X130351Y143402D01*
X130322Y143281D01*
X130315Y143157D01*
X130322Y139002D01*
X130351Y138882D01*
X130399Y138767D01*
X130463Y138662D01*
X130544Y138567D01*
X130638Y138487D01*
X130744Y138422D01*
X130858Y138375D01*
X130979Y138346D01*
X131102Y138339D01*
X133465Y138342D01*
Y137266D01*
X133350Y137239D01*
X133269Y137205D01*
X126575D01*
X126545Y137203D01*
X126516Y137205D01*
X125984Y137200D01*
Y159843D01*
G37*
G36*
X185099Y69276D02*X179323Y63473D01*
X179158Y63205D01*
X179038Y62914D01*
X178964Y62608D01*
X178939Y62294D01*
X178964Y61980D01*
X179038Y61674D01*
X179158Y61383D01*
X179323Y61115D01*
X179531Y60880D01*
X184252Y56179D01*
Y52255D01*
X182608Y50611D01*
X182414Y50928D01*
X182164Y51210D01*
X175731Y57611D01*
X175675Y57645D01*
X175689Y57874D01*
X175637Y58754D01*
X175431Y59613D01*
X175093Y60429D01*
X174632Y61182D01*
X174058Y61853D01*
X173387Y62427D01*
X172634Y62888D01*
X171818Y63226D01*
X170959Y63432D01*
X170079Y63502D01*
X169198Y63432D01*
X168340Y63226D01*
X167524Y62888D01*
X166771Y62427D01*
X166099Y61853D01*
X165526Y61182D01*
X165065Y60429D01*
X164727Y59613D01*
X164520Y58754D01*
X164451Y57874D01*
X164520Y56994D01*
X164727Y56135D01*
X164985Y55512D01*
X150711D01*
X150572Y55523D01*
X150016Y55479D01*
X149473Y55349D01*
X148958Y55135D01*
X148483Y54844D01*
X148482Y54844D01*
X148058Y54482D01*
X147968Y54376D01*
X143977Y50385D01*
X140026Y50372D01*
X139665Y50285D01*
X139321Y50143D01*
X139004Y49948D01*
X138721Y49707D01*
X138480Y49424D01*
X138286Y49107D01*
X138143Y48764D01*
X138057Y48402D01*
X138035Y48031D01*
X138057Y41362D01*
X138143Y41000D01*
X138286Y40657D01*
X138480Y40340D01*
X138721Y40057D01*
X139004Y39815D01*
X139321Y39621D01*
X139665Y39479D01*
X140026Y39392D01*
X140397Y39370D01*
X146944Y39392D01*
X147305Y39479D01*
X147649Y39621D01*
X147966Y39815D01*
X148249Y40057D01*
X148490Y40340D01*
X148684Y40657D01*
X148827Y41000D01*
X148914Y41362D01*
X148935Y41732D01*
X148924Y45310D01*
X152039Y48425D01*
X152057D01*
X152052Y48402D01*
X152030Y48031D01*
X152052Y41362D01*
X152139Y41000D01*
X152281Y40657D01*
X152475Y40340D01*
X152717Y40057D01*
X152999Y39815D01*
X153316Y39621D01*
X153660Y39479D01*
X154021Y39392D01*
X154392Y39370D01*
X157969Y39382D01*
X159601Y37750D01*
X159692Y37644D01*
X160115Y37282D01*
X160116Y37282D01*
X160591Y36991D01*
X161106Y36777D01*
X161649Y36647D01*
X162066Y36614D01*
X125984D01*
Y46382D01*
X128667Y46385D01*
X128787Y46414D01*
X128902Y46462D01*
X129008Y46526D01*
X129102Y46607D01*
X129182Y46701D01*
X129247Y46807D01*
X129294Y46921D01*
X129323Y47042D01*
X129331Y47165D01*
X129323Y53194D01*
X129294Y53315D01*
X129247Y53429D01*
X129182Y53535D01*
X129102Y53629D01*
X129008Y53710D01*
X128902Y53775D01*
X128787Y53822D01*
X128667Y53851D01*
X128543Y53858D01*
X125984Y53855D01*
Y56382D01*
X128667Y56385D01*
X128787Y56414D01*
X128902Y56462D01*
X129008Y56526D01*
X129102Y56607D01*
X129182Y56701D01*
X129247Y56807D01*
X129294Y56921D01*
X129323Y57042D01*
X129331Y57165D01*
X129323Y63194D01*
X129294Y63315D01*
X129247Y63429D01*
X129182Y63535D01*
X129102Y63629D01*
X129008Y63710D01*
X128902Y63775D01*
X128787Y63822D01*
X128667Y63851D01*
X128543Y63858D01*
X127165Y63856D01*
Y71959D01*
X127578Y71962D01*
X127789Y72012D01*
X127990Y72095D01*
X128175Y72209D01*
X128340Y72349D01*
X128480Y72514D01*
X128594Y72699D01*
X128677Y72900D01*
X128727Y73111D01*
X128740Y73327D01*
X128727Y75787D01*
X128677Y75998D01*
X128594Y76198D01*
X128480Y76383D01*
X128340Y76548D01*
X128175Y76689D01*
X128008Y76791D01*
X128175Y76894D01*
X128340Y77034D01*
X128480Y77199D01*
X128594Y77384D01*
X128677Y77585D01*
X128727Y77796D01*
X128740Y78012D01*
X128738Y78346D01*
X130721D01*
X130721Y78189D01*
X130772Y77978D01*
X130855Y77778D01*
X130968Y77593D01*
X131109Y77428D01*
X131274Y77287D01*
X131459Y77174D01*
X131659Y77091D01*
X131870Y77040D01*
X132087Y77028D01*
X134271Y77040D01*
X134482Y77091D01*
X134683Y77174D01*
X134868Y77287D01*
X135033Y77428D01*
X135173Y77593D01*
X135287Y77778D01*
X135370Y77978D01*
X135420Y78189D01*
X135433Y78406D01*
X135420Y80866D01*
X135370Y81077D01*
X135287Y81277D01*
X135173Y81462D01*
X135033Y81627D01*
X134868Y81768D01*
X134701Y81870D01*
X134868Y81972D01*
X135033Y82113D01*
X135173Y82278D01*
X135287Y82463D01*
X135370Y82663D01*
X135420Y82874D01*
X135433Y83091D01*
X135423Y85032D01*
X139170Y88780D01*
X158224D01*
X158282Y88684D01*
X158504Y88425D01*
X158763Y88203D01*
X159053Y88025D01*
X159368Y87895D01*
X159700Y87815D01*
X160039Y87789D01*
X160379Y87815D01*
X160711Y87895D01*
X161025Y88025D01*
X161316Y88203D01*
X161575Y88425D01*
X161797Y88684D01*
X161975Y88975D01*
X162105Y89289D01*
X162185Y89621D01*
X162205Y89961D01*
X162185Y90300D01*
X162105Y90632D01*
X161975Y90947D01*
X161797Y91237D01*
X161575Y91496D01*
X161316Y91718D01*
X161025Y91896D01*
X160711Y92026D01*
X160379Y92106D01*
X160039Y92133D01*
X159700Y92106D01*
X159368Y92026D01*
X159053Y91896D01*
X158763Y91718D01*
X158504Y91496D01*
X158282Y91237D01*
X158224Y91142D01*
X138727D01*
X138681Y91145D01*
X138496Y91131D01*
X138315Y91087D01*
X138143Y91016D01*
X137985Y90919D01*
X137984Y90919D01*
X137843Y90798D01*
X137813Y90763D01*
X133761Y86711D01*
X131870Y86700D01*
X131659Y86649D01*
X131459Y86566D01*
X131274Y86453D01*
X131109Y86312D01*
X130968Y86147D01*
X130855Y85962D01*
X130772Y85762D01*
X130721Y85551D01*
X130712Y85394D01*
X129308D01*
X128085Y86617D01*
X130078Y86627D01*
X130289Y86678D01*
X130490Y86761D01*
X130675Y86874D01*
X130840Y87015D01*
X130980Y87180D01*
X131094Y87365D01*
X131177Y87565D01*
X131227Y87776D01*
X131240Y87992D01*
X131227Y90177D01*
X131177Y90388D01*
X131094Y90588D01*
X130980Y90773D01*
X130840Y90938D01*
X130675Y91079D01*
X130490Y91192D01*
X130289Y91275D01*
X130078Y91326D01*
X129862Y91339D01*
X127402Y91326D01*
X127191Y91275D01*
X126991Y91192D01*
X126806Y91079D01*
X126641Y90938D01*
X126500Y90773D01*
X126398Y90606D01*
X126295Y90773D01*
X126155Y90938D01*
X125990Y91079D01*
X125984Y91082D01*
Y93626D01*
X128667Y93629D01*
X128787Y93658D01*
X128902Y93706D01*
X129008Y93770D01*
X129102Y93851D01*
X129182Y93945D01*
X129247Y94051D01*
X129294Y94165D01*
X129323Y94286D01*
X129331Y94409D01*
X129323Y100439D01*
X129294Y100559D01*
X129247Y100674D01*
X129182Y100779D01*
X129102Y100873D01*
X129008Y100954D01*
X128902Y101019D01*
X128787Y101066D01*
X128667Y101095D01*
X128543Y101102D01*
X125984Y101099D01*
Y103626D01*
X128667Y103629D01*
X128787Y103658D01*
X128902Y103706D01*
X129008Y103770D01*
X129102Y103851D01*
X129182Y103945D01*
X129247Y104051D01*
X129294Y104165D01*
X129323Y104286D01*
X129331Y104409D01*
X129328Y106693D01*
X131017D01*
X131017Y106674D01*
X131067Y106463D01*
X131150Y106262D01*
X131264Y106077D01*
X131405Y105912D01*
X131569Y105772D01*
X131754Y105658D01*
X131955Y105575D01*
X132166Y105525D01*
X132382Y105512D01*
X134842Y105525D01*
X135053Y105575D01*
X135253Y105658D01*
X135438Y105772D01*
X135603Y105912D01*
X135744Y106077D01*
X135846Y106244D01*
X135949Y106077D01*
X136090Y105912D01*
X136254Y105772D01*
X136439Y105658D01*
X136640Y105575D01*
X136851Y105525D01*
X137067Y105512D01*
X138605Y105520D01*
X138616Y105350D01*
X138746Y104807D01*
X138959Y104292D01*
X139251Y103816D01*
X139613Y103392D01*
X140037Y103030D01*
X140512Y102739D01*
X141028Y102525D01*
X141570Y102395D01*
X142126Y102351D01*
X142682Y102395D01*
X143224Y102525D01*
X143740Y102739D01*
X144215Y103030D01*
X144639Y103392D01*
X144936Y103740D01*
X154446D01*
X154363Y103669D01*
X154283Y103575D01*
X154218Y103469D01*
X154171Y103355D01*
X154142Y103234D01*
X154134Y103111D01*
X154142Y101688D01*
X154171Y101568D01*
X154218Y101453D01*
X154283Y101347D01*
X154363Y101253D01*
X154447Y101182D01*
X154363Y101110D01*
X154283Y101016D01*
X154218Y100910D01*
X154171Y100796D01*
X154142Y100675D01*
X154134Y100552D01*
X154142Y99129D01*
X154171Y99009D01*
X154218Y98894D01*
X154283Y98788D01*
X154363Y98694D01*
X154447Y98623D01*
X154363Y98551D01*
X154283Y98457D01*
X154218Y98351D01*
X154171Y98237D01*
X154142Y98116D01*
X154134Y97993D01*
X154142Y96572D01*
X154109Y96552D01*
X153944Y96411D01*
X153803Y96246D01*
X153690Y96061D01*
X153607Y95861D01*
X153556Y95650D01*
X153544Y95434D01*
X153556Y93918D01*
X153607Y93708D01*
X153690Y93507D01*
X153803Y93322D01*
X153944Y93157D01*
X154109Y93016D01*
X154294Y92903D01*
X154495Y92820D01*
X154705Y92770D01*
X154922Y92757D01*
X161043Y92770D01*
X161254Y92820D01*
X161356Y92863D01*
X161388Y92787D01*
X161517Y92575D01*
X161678Y92387D01*
X161867Y92226D01*
X162078Y92096D01*
X162307Y92002D01*
X162548Y91944D01*
X162795Y91929D01*
X167375Y91934D01*
X167232Y91875D01*
X166915Y91680D01*
X166632Y91439D01*
X166391Y91156D01*
X166196Y90839D01*
X166054Y90496D01*
X165967Y90134D01*
X165945Y89764D01*
X165958Y81978D01*
X165720Y82256D01*
X165061Y82819D01*
X164321Y83273D01*
X163520Y83605D01*
X162676Y83807D01*
X161811Y83875D01*
X160946Y83807D01*
X160103Y83605D01*
X159301Y83273D01*
X158561Y82819D01*
X157902Y82256D01*
X157589Y81890D01*
X157066D01*
X157065Y82457D01*
X156978Y82819D01*
X156836Y83162D01*
X156641Y83479D01*
X156400Y83762D01*
X156117Y84004D01*
X155800Y84198D01*
X155457Y84340D01*
X155095Y84427D01*
X154724Y84449D01*
X150417Y84427D01*
X150055Y84340D01*
X149712Y84198D01*
X149395Y84004D01*
X149112Y83762D01*
X148870Y83479D01*
X148676Y83162D01*
X148534Y82819D01*
X148447Y82457D01*
X148425Y82087D01*
X148447Y72858D01*
X148534Y72496D01*
X148676Y72153D01*
X148870Y71836D01*
X149112Y71553D01*
X149395Y71311D01*
X149712Y71117D01*
X150055Y70975D01*
X150417Y70888D01*
X150425Y70888D01*
X150384Y70870D01*
X150265Y70798D01*
X150159Y70707D01*
X150069Y70601D01*
X149996Y70482D01*
X149942Y70353D01*
X149910Y70218D01*
X149902Y70079D01*
X149910Y61081D01*
X149942Y60946D01*
X149996Y60817D01*
X150069Y60698D01*
X150159Y60592D01*
X150265Y60502D01*
X150384Y60429D01*
X150513Y60375D01*
X150648Y60343D01*
X150787Y60335D01*
X154863Y60343D01*
X154999Y60375D01*
X155128Y60429D01*
X155247Y60502D01*
X155353Y60592D01*
X155443Y60698D01*
X155516Y60817D01*
X155569Y60946D01*
X155602Y61081D01*
X155610Y61220D01*
X155602Y70218D01*
X155569Y70353D01*
X155516Y70482D01*
X155443Y70601D01*
X155353Y70707D01*
X155247Y70798D01*
X155128Y70870D01*
X155085Y70888D01*
X155095Y70888D01*
X155457Y70975D01*
X155800Y71117D01*
X156117Y71311D01*
X156400Y71553D01*
X156641Y71836D01*
X156836Y72153D01*
X156978Y72496D01*
X157065Y72858D01*
X157087Y73228D01*
X157083Y74803D01*
X157589D01*
X157902Y74437D01*
X158561Y73874D01*
X159301Y73420D01*
X160103Y73088D01*
X160946Y72886D01*
X161811Y72818D01*
X162676Y72886D01*
X163520Y73088D01*
X164321Y73420D01*
X165061Y73874D01*
X165720Y74437D01*
X166033Y74803D01*
X166546D01*
X166632Y74703D01*
X166915Y74461D01*
X167232Y74267D01*
X167575Y74125D01*
X167937Y74038D01*
X168308Y74016D01*
X174583Y74038D01*
X174945Y74125D01*
X175288Y74267D01*
X175605Y74461D01*
X175888Y74703D01*
X176130Y74985D01*
X176324Y75302D01*
X176466Y75646D01*
X176553Y76007D01*
X176575Y76378D01*
X176562Y84632D01*
X178155Y86225D01*
X178171Y76007D01*
X178258Y75646D01*
X178400Y75302D01*
X178595Y74985D01*
X178836Y74703D01*
X179119Y74461D01*
X179436Y74267D01*
X179779Y74125D01*
X180141Y74038D01*
X180512Y74016D01*
X186787Y74038D01*
X187149Y74125D01*
X187492Y74267D01*
X187809Y74461D01*
X188092Y74703D01*
X188194Y74822D01*
X188196Y72950D01*
X188225Y72830D01*
X188273Y72715D01*
X188337Y72610D01*
X188418Y72516D01*
X188512Y72435D01*
X188618Y72370D01*
X188732Y72323D01*
X188853Y72294D01*
X188976Y72287D01*
X195399Y72294D01*
X195520Y72323D01*
X195634Y72370D01*
X195740Y72435D01*
X195834Y72516D01*
X195915Y72610D01*
X195979Y72715D01*
X196027Y72830D01*
X196056Y72950D01*
X196063Y73074D01*
X196056Y79374D01*
X196027Y79494D01*
X195979Y79609D01*
X195915Y79715D01*
X195834Y79809D01*
X195740Y79889D01*
X195634Y79954D01*
X195520Y80002D01*
X195399Y80030D01*
X195276Y80038D01*
X188853Y80030D01*
X188773Y80011D01*
X188767Y83465D01*
X188838D01*
X188976Y83454D01*
X189532Y83497D01*
X190075Y83628D01*
X190590Y83841D01*
X191066Y84132D01*
X191288Y84322D01*
X195708Y84339D01*
X196130Y84440D01*
X196531Y84606D01*
X196900Y84833D01*
X197230Y85115D01*
X197512Y85444D01*
X197671Y85704D01*
X197685Y81318D01*
X197762Y80998D01*
X197887Y80694D01*
X198059Y80413D01*
X198273Y80163D01*
X198523Y79949D01*
X198804Y79777D01*
X199108Y79651D01*
X199213Y79626D01*
Y75652D01*
X193179Y68110D01*
X189509D01*
X189370Y68121D01*
X189084Y68099D01*
X187693Y69485D01*
X187424Y69649D01*
X187133Y69770D01*
X186827Y69843D01*
X186513Y69868D01*
X186200Y69843D01*
X185893Y69770D01*
X185603Y69649D01*
X185334Y69485D01*
X185099Y69276D01*
G37*
G36*
X125984Y116142D02*X118157D01*
X118110Y116145D01*
X117925Y116131D01*
X117744Y116087D01*
X117572Y116016D01*
X117414Y115919D01*
X117414Y115919D01*
X117272Y115798D01*
X117242Y115763D01*
X113681Y112202D01*
X113532Y112190D01*
X113446Y112169D01*
X118154Y116878D01*
X118158Y116881D01*
X120174Y118898D01*
X125984D01*
Y116142D01*
G37*
G36*
Y91082D02*X125805Y91192D01*
X125604Y91275D01*
X125393Y91326D01*
X125177Y91339D01*
X123373Y91329D01*
X119806Y94896D01*
X120079Y94875D01*
X120449Y94904D01*
X120811Y94991D01*
X121154Y95133D01*
X121471Y95327D01*
X121754Y95569D01*
X121996Y95851D01*
X122190Y96168D01*
X122195Y96181D01*
X122643D01*
X122645Y94286D01*
X122674Y94165D01*
X122721Y94051D01*
X122786Y93945D01*
X122867Y93851D01*
X122961Y93770D01*
X123067Y93706D01*
X123181Y93658D01*
X123302Y93629D01*
X123425Y93622D01*
X125984Y93626D01*
Y91082D01*
G37*
G36*
Y111099D02*X123302Y111095D01*
X123181Y111066D01*
X123067Y111019D01*
X122961Y110954D01*
X122867Y110873D01*
X122786Y110779D01*
X122721Y110674D01*
X122674Y110559D01*
X122645Y110439D01*
X122638Y110315D01*
X122645Y104286D01*
X122674Y104165D01*
X122721Y104051D01*
X122786Y103945D01*
X122867Y103851D01*
X122961Y103770D01*
X123067Y103706D01*
X123181Y103658D01*
X123302Y103629D01*
X123425Y103622D01*
X125984Y103626D01*
Y101099D01*
X123302Y101095D01*
X123181Y101066D01*
X123067Y101019D01*
X122961Y100954D01*
X122867Y100873D01*
X122786Y100779D01*
X122721Y100674D01*
X122674Y100559D01*
X122645Y100439D01*
X122638Y100315D01*
X122640Y98543D01*
X122053D01*
X121996Y98637D01*
X121754Y98920D01*
X121471Y99161D01*
X121154Y99355D01*
X120811Y99498D01*
X120449Y99584D01*
X120079Y99614D01*
X119708Y99584D01*
X119347Y99498D01*
X119003Y99355D01*
X118686Y99161D01*
X118403Y98920D01*
X118162Y98637D01*
X117968Y98320D01*
X117825Y97976D01*
X117738Y97615D01*
X117709Y97244D01*
X117731Y96971D01*
X115354Y99348D01*
Y110534D01*
X118599Y113780D01*
X125984D01*
Y111099D01*
G37*
G36*
Y36614D02*X104153D01*
Y115360D01*
X107426Y115365D01*
X107607Y115409D01*
X107779Y115480D01*
X107937Y115577D01*
X108079Y115698D01*
X108199Y115839D01*
X108297Y115998D01*
X108368Y116169D01*
X108411Y116350D01*
X108422Y116535D01*
X108411Y123020D01*
X108368Y123201D01*
X108297Y123373D01*
X108199Y123531D01*
X108079Y123672D01*
X107937Y123793D01*
X107779Y123890D01*
X107607Y123961D01*
X107426Y124005D01*
X107241Y124016D01*
X104153Y124010D01*
Y134178D01*
X104225Y134208D01*
X104542Y134402D01*
X104825Y134643D01*
X105067Y134926D01*
X105261Y135243D01*
X105403Y135587D01*
X105490Y135948D01*
X105512Y136319D01*
X105490Y139249D01*
X105403Y139610D01*
X105261Y139954D01*
X105067Y140271D01*
X104825Y140553D01*
X104542Y140795D01*
X104225Y140989D01*
X104153Y141019D01*
Y142129D01*
X104331Y142115D01*
X104887Y142159D01*
X105429Y142289D01*
X105944Y142502D01*
X106420Y142794D01*
X106836Y143164D01*
X123515Y159843D01*
X125984D01*
Y137200D01*
X123870Y137181D01*
X123478Y137087D01*
X123106Y136933D01*
X123051Y136899D01*
X122996Y136933D01*
X122624Y137087D01*
X122232Y137181D01*
X121831Y137205D01*
X119797Y137187D01*
X119488Y137205D01*
X114534D01*
X114462Y137249D01*
X114118Y137391D01*
X113756Y137478D01*
X113386Y137500D01*
X108684Y137478D01*
X108323Y137391D01*
X107979Y137249D01*
X107662Y137055D01*
X107380Y136813D01*
X107138Y136531D01*
X106944Y136214D01*
X106802Y135870D01*
X106715Y135508D01*
X106693Y135138D01*
X106715Y132208D01*
X106802Y131847D01*
X106944Y131503D01*
X107138Y131186D01*
X107380Y130903D01*
X107662Y130662D01*
X107979Y130468D01*
X108323Y130325D01*
X108684Y130238D01*
X109055Y130217D01*
X110945Y130225D01*
X111255Y130151D01*
X111811Y130118D01*
X119488D01*
X119537Y130121D01*
X119587Y130118D01*
X122232Y130142D01*
X122624Y130236D01*
X122996Y130390D01*
X123051Y130424D01*
X123106Y130390D01*
X123478Y130236D01*
X123870Y130142D01*
X124272Y130118D01*
X125984Y130133D01*
Y121260D01*
X119731D01*
X119685Y121263D01*
X119500Y121249D01*
X119319Y121206D01*
X119147Y121134D01*
X118989Y121037D01*
X118988Y121037D01*
X118847Y120916D01*
X118817Y120881D01*
X116589Y118653D01*
X116585Y118649D01*
X110221Y112285D01*
X110186Y112255D01*
X110065Y112114D01*
X109968Y111955D01*
X109897Y111783D01*
X109853Y111603D01*
X109853Y111602D01*
X109839Y111417D01*
X109843Y111371D01*
Y82723D01*
X109839Y82677D01*
X109853Y82492D01*
X109897Y82311D01*
X109968Y82139D01*
X110065Y81981D01*
X110065Y81981D01*
X110186Y81839D01*
X110221Y81809D01*
X113388Y78642D01*
X113399Y76614D01*
X113449Y76404D01*
X113532Y76203D01*
X113646Y76018D01*
X113786Y75853D01*
X113951Y75712D01*
X114136Y75599D01*
X114337Y75516D01*
X114548Y75465D01*
X114764Y75453D01*
X116704Y75464D01*
X118522Y73646D01*
X118552Y73611D01*
X118693Y73491D01*
X118693Y73490D01*
X118852Y73393D01*
X119024Y73322D01*
X119204Y73279D01*
X119390Y73264D01*
X119436Y73268D01*
X124028D01*
X124028Y73111D01*
X124079Y72900D01*
X124162Y72699D01*
X124275Y72514D01*
X124416Y72349D01*
X124581Y72209D01*
X124766Y72095D01*
X124803Y72080D01*
Y63853D01*
X123302Y63851D01*
X123181Y63822D01*
X123067Y63775D01*
X122961Y63710D01*
X122867Y63629D01*
X122786Y63535D01*
X122721Y63429D01*
X122674Y63315D01*
X122645Y63194D01*
X122638Y63071D01*
X122645Y57042D01*
X122674Y56921D01*
X122721Y56807D01*
X122786Y56701D01*
X122867Y56607D01*
X122961Y56526D01*
X123067Y56462D01*
X123181Y56414D01*
X123302Y56385D01*
X123425Y56378D01*
X125984Y56382D01*
Y53855D01*
X123302Y53851D01*
X123181Y53822D01*
X123067Y53775D01*
X122961Y53710D01*
X122867Y53629D01*
X122786Y53535D01*
X122721Y53429D01*
X122674Y53315D01*
X122645Y53194D01*
X122638Y53071D01*
X122645Y47042D01*
X122674Y46921D01*
X122721Y46807D01*
X122786Y46701D01*
X122867Y46607D01*
X122961Y46526D01*
X123067Y46462D01*
X123181Y46414D01*
X123302Y46385D01*
X123425Y46378D01*
X125984Y46382D01*
Y36614D01*
G37*
G36*
X104153Y141019D02*X103882Y141131D01*
X103520Y141218D01*
X103150Y141240D01*
X101965Y141235D01*
X100822Y142378D01*
X101121Y142502D01*
X101597Y142794D01*
X101919Y143069D01*
X102242Y142794D01*
X102717Y142502D01*
X103232Y142289D01*
X103775Y142159D01*
X104153Y142129D01*
Y141019D01*
G37*
G36*
Y36614D02*X98425D01*
Y128156D01*
X98460Y128135D01*
X98575Y128087D01*
X98695Y128058D01*
X98819Y128051D01*
X103273Y128058D01*
X103394Y128087D01*
X103508Y128135D01*
X103614Y128200D01*
X103708Y128280D01*
X103789Y128374D01*
X103853Y128480D01*
X103901Y128595D01*
X103930Y128715D01*
X103937Y128839D01*
X103930Y131521D01*
X103901Y131642D01*
X103853Y131756D01*
X103789Y131862D01*
X103708Y131956D01*
X103614Y132037D01*
X103508Y132101D01*
X103394Y132149D01*
X103273Y132178D01*
X103150Y132185D01*
X98695Y132178D01*
X98575Y132149D01*
X98460Y132101D01*
X98425Y132080D01*
Y133984D01*
X98448Y133979D01*
X98819Y133957D01*
X103520Y133979D01*
X103882Y134065D01*
X104153Y134178D01*
Y124010D01*
X100879Y124005D01*
X100698Y123961D01*
X100527Y123890D01*
X100368Y123793D01*
X100227Y123672D01*
X100106Y123531D01*
X100009Y123373D01*
X99938Y123201D01*
X99894Y123020D01*
X99883Y122835D01*
X99894Y116350D01*
X99938Y116169D01*
X100009Y115998D01*
X100106Y115839D01*
X100227Y115698D01*
X100368Y115577D01*
X100527Y115480D01*
X100698Y115409D01*
X100879Y115365D01*
X101065Y115354D01*
X104153Y115360D01*
Y36614D01*
G37*
G36*
X33045Y80055D02*X33169Y79949D01*
X33450Y79777D01*
X33754Y79651D01*
X34074Y79574D01*
X34402Y79555D01*
X36220Y79561D01*
Y66975D01*
X36217Y66929D01*
X36231Y66744D01*
X36275Y66563D01*
X36346Y66391D01*
X36443Y66233D01*
X36443Y66233D01*
X36564Y66091D01*
X36599Y66061D01*
X54250Y48410D01*
X54280Y48375D01*
X54422Y48254D01*
X54422Y48254D01*
X54580Y48157D01*
X54752Y48086D01*
X54933Y48042D01*
X55118Y48028D01*
X55164Y48032D01*
X68898D01*
Y36614D01*
X62962D01*
X59261Y39216D01*
X55183Y42450D01*
X51278Y45890D01*
X47554Y49525D01*
X44022Y53348D01*
X40691Y57347D01*
X37571Y61512D01*
X34669Y65832D01*
X33045Y68539D01*
Y80055D01*
G37*
G36*
Y90889D02*X33306Y90667D01*
X33405Y89487D01*
X33169Y89342D01*
X33045Y89237D01*
Y90889D01*
G37*
G36*
Y119467D02*X33117Y119450D01*
X33381Y119429D01*
X33209Y119388D01*
X33045Y119320D01*
Y119467D01*
G37*
G36*
X53532Y147519D02*X44443Y138430D01*
X44337Y138340D01*
X43975Y137916D01*
X43684Y137440D01*
X43470Y136925D01*
X43340Y136383D01*
X43296Y135827D01*
X43307Y135688D01*
Y125483D01*
X36964Y119140D01*
X36657Y119267D01*
Y120203D01*
X36917Y120362D01*
X37526Y120883D01*
X38046Y121492D01*
X38465Y122175D01*
X38772Y122915D01*
X38959Y123695D01*
X39006Y124493D01*
X38959Y125292D01*
X38772Y126071D01*
X38465Y126811D01*
X38046Y127495D01*
X37526Y128104D01*
X36917Y128624D01*
X36657Y128784D01*
Y132308D01*
X36700Y132316D01*
X36812Y132353D01*
X36916Y132407D01*
X37011Y132477D01*
X37094Y132561D01*
X37163Y132657D01*
X37214Y132764D01*
X37362Y133171D01*
X37466Y133593D01*
X37528Y134022D01*
X37549Y134456D01*
X37528Y134889D01*
X37466Y135318D01*
X37362Y135740D01*
X37218Y136149D01*
X37166Y136255D01*
X37097Y136352D01*
X37014Y136436D01*
X36918Y136507D01*
X36813Y136561D01*
X36700Y136599D01*
X36657Y136606D01*
Y143994D01*
X36677Y144417D01*
X36657Y144841D01*
Y177275D01*
X38222Y179552D01*
X41446Y183754D01*
X44887Y187782D01*
X48533Y191625D01*
X51544Y194482D01*
X51562Y183545D01*
X51636Y183239D01*
X51756Y182948D01*
X51921Y182680D01*
X52125Y182440D01*
X52364Y182236D01*
X52633Y182071D01*
X52924Y181951D01*
X53230Y181877D01*
X53544Y181859D01*
X60965Y181868D01*
X61071Y181423D01*
X61391Y180650D01*
X61829Y179937D01*
X62372Y179301D01*
X63008Y178758D01*
X63721Y178321D01*
X64494Y178000D01*
X65308Y177805D01*
X66142Y177756D01*
X68898D01*
Y173689D01*
X68880Y173661D01*
X68667Y173146D01*
X68537Y172603D01*
X68493Y172047D01*
X68504Y171908D01*
Y168536D01*
X68504Y168536D01*
X53230Y168517D01*
X52924Y168444D01*
X52633Y168323D01*
X52364Y168159D01*
X52125Y167954D01*
X51921Y167715D01*
X51756Y167447D01*
X51636Y167156D01*
X51562Y166850D01*
X51544Y166536D01*
X51562Y155198D01*
X51636Y154892D01*
X51756Y154601D01*
X51921Y154333D01*
X52125Y154093D01*
X52364Y153889D01*
X52633Y153724D01*
X52924Y153604D01*
X53230Y153530D01*
X53544Y153512D01*
X54084Y153512D01*
X54021Y153410D01*
X53973Y153295D01*
X53944Y153175D01*
X53937Y153051D01*
X53939Y149618D01*
X53940Y147911D01*
X53794Y147781D01*
X53532Y147519D01*
G37*
G36*
X34914Y145647D02*X34949Y145544D01*
X35048Y145272D01*
X35117Y144992D01*
X35158Y144706D01*
X35172Y144417D01*
X35158Y144129D01*
X35117Y143843D01*
X35048Y143562D01*
X34952Y143290D01*
X34914Y143178D01*
X34914Y143176D01*
Y145647D01*
G37*
G36*
Y174685D02*X35221Y175186D01*
X36657Y177275D01*
Y144841D01*
X36656Y144851D01*
X36594Y145280D01*
X36490Y145701D01*
X36347Y146111D01*
X36294Y146217D01*
X36225Y146314D01*
X36142Y146398D01*
X36047Y146469D01*
X35941Y146523D01*
X35829Y146561D01*
X35712Y146580D01*
X35593Y146581D01*
X35476Y146563D01*
X35363Y146527D01*
X35257Y146474D01*
X35160Y146405D01*
X35076Y146322D01*
X35005Y146227D01*
X34951Y146121D01*
X34914Y146011D01*
Y152232D01*
X34957Y152239D01*
X35069Y152276D01*
X35173Y152331D01*
X35268Y152401D01*
X35351Y152485D01*
X35420Y152581D01*
X35471Y152687D01*
X35619Y153095D01*
X35723Y153516D01*
X35785Y153946D01*
X35806Y154379D01*
X35785Y154813D01*
X35723Y155242D01*
X35619Y155663D01*
X35476Y156073D01*
X35423Y156179D01*
X35354Y156276D01*
X35271Y156360D01*
X35175Y156430D01*
X35070Y156485D01*
X34958Y156522D01*
X34914Y156530D01*
Y174685D01*
G37*
G36*
X36657Y128784D02*X36234Y129043D01*
X35493Y129350D01*
X34914Y129489D01*
Y130384D01*
X34940Y130402D01*
X35025Y130486D01*
X35095Y130581D01*
X35150Y130686D01*
X35187Y130799D01*
X35206Y130916D01*
X35207Y131034D01*
X35190Y131152D01*
X35154Y131265D01*
X35101Y131371D01*
X35032Y131467D01*
X34948Y131552D01*
X34914Y131577D01*
Y137338D01*
X34946Y137362D01*
X35029Y137446D01*
X35098Y137542D01*
X35151Y137648D01*
X35186Y137760D01*
X35204Y137877D01*
X35203Y137995D01*
X35184Y138111D01*
X35146Y138223D01*
X35092Y138328D01*
X35022Y138423D01*
X34938Y138506D01*
X34914Y138523D01*
Y142844D01*
X34917Y142827D01*
X34954Y142715D01*
X35008Y142610D01*
X35079Y142515D01*
X35163Y142432D01*
X35259Y142363D01*
X35364Y142310D01*
X35477Y142275D01*
X35593Y142257D01*
X35711Y142258D01*
X35828Y142277D01*
X35940Y142315D01*
X36045Y142369D01*
X36140Y142439D01*
X36223Y142523D01*
X36291Y142619D01*
X36342Y142726D01*
X36490Y143133D01*
X36594Y143555D01*
X36656Y143984D01*
X36657Y143994D01*
Y136606D01*
X36583Y136618D01*
X36465Y136619D01*
X36348Y136601D01*
X36235Y136566D01*
X36128Y136513D01*
X36032Y136444D01*
X35948Y136360D01*
X35877Y136265D01*
X35822Y136160D01*
X35785Y136047D01*
X35766Y135930D01*
X35765Y135811D01*
X35782Y135694D01*
X35820Y135582D01*
X35919Y135311D01*
X35988Y135030D01*
X36030Y134744D01*
X36044Y134456D01*
X36030Y134167D01*
X35988Y133881D01*
X35919Y133600D01*
X35824Y133328D01*
X35786Y133216D01*
X35768Y133099D01*
X35769Y132981D01*
X35788Y132865D01*
X35826Y132753D01*
X35880Y132648D01*
X35950Y132553D01*
X36034Y132470D01*
X36130Y132401D01*
X36236Y132349D01*
X36348Y132313D01*
X36465Y132295D01*
X36583Y132296D01*
X36657Y132308D01*
Y128784D01*
G37*
G36*
X34914Y138523D02*X34842Y138575D01*
X34735Y138625D01*
X34328Y138774D01*
X33906Y138877D01*
X33477Y138940D01*
X33045Y138961D01*
Y139998D01*
X33456Y140099D01*
X33866Y140243D01*
X33972Y140295D01*
X34068Y140364D01*
X34153Y140447D01*
X34223Y140543D01*
X34278Y140648D01*
X34315Y140761D01*
X34335Y140878D01*
X34336Y140996D01*
X34318Y141113D01*
X34282Y141227D01*
X34229Y141333D01*
X34160Y141429D01*
X34077Y141514D01*
X33981Y141584D01*
X33876Y141639D01*
X33764Y141676D01*
X33647Y141695D01*
X33528Y141696D01*
X33411Y141679D01*
X33299Y141641D01*
X33045Y141548D01*
Y147286D01*
X33300Y147197D01*
X33411Y147159D01*
X33528Y147142D01*
X33646Y147143D01*
X33763Y147162D01*
X33875Y147199D01*
X33980Y147254D01*
X34075Y147324D01*
X34157Y147408D01*
X34226Y147504D01*
X34279Y147609D01*
X34315Y147722D01*
X34332Y147839D01*
X34331Y147957D01*
X34312Y148073D01*
X34275Y148185D01*
X34220Y148290D01*
X34150Y148385D01*
X34066Y148468D01*
X33970Y148537D01*
X33864Y148587D01*
X33456Y148736D01*
X33045Y148837D01*
Y150230D01*
X33101Y150257D01*
X33197Y150326D01*
X33282Y150409D01*
X33352Y150505D01*
X33407Y150610D01*
X33444Y150722D01*
X33464Y150839D01*
X33464Y150958D01*
X33447Y151075D01*
X33411Y151188D01*
X33358Y151294D01*
X33289Y151391D01*
X33206Y151475D01*
X33110Y151546D01*
X33045Y151579D01*
Y157183D01*
X33108Y157216D01*
X33203Y157286D01*
X33286Y157370D01*
X33355Y157466D01*
X33408Y157571D01*
X33443Y157684D01*
X33461Y157801D01*
X33460Y157919D01*
X33441Y158035D01*
X33403Y158147D01*
X33349Y158252D01*
X33279Y158347D01*
X33195Y158430D01*
X33099Y158498D01*
X33045Y158524D01*
Y171636D01*
X34914Y174685D01*
Y156530D01*
X34841Y156542D01*
X34722Y156543D01*
X34605Y156525D01*
X34492Y156489D01*
X34386Y156436D01*
X34289Y156367D01*
X34205Y156284D01*
X34134Y156188D01*
X34080Y156083D01*
X34042Y155971D01*
X34023Y155854D01*
X34022Y155735D01*
X34040Y155618D01*
X34078Y155506D01*
X34176Y155234D01*
X34245Y154954D01*
X34287Y154668D01*
X34301Y154379D01*
X34287Y154091D01*
X34245Y153805D01*
X34176Y153524D01*
X34081Y153251D01*
X34043Y153140D01*
X34025Y153023D01*
X34026Y152905D01*
X34046Y152788D01*
X34083Y152676D01*
X34137Y152572D01*
X34207Y152477D01*
X34291Y152394D01*
X34387Y152325D01*
X34493Y152272D01*
X34605Y152237D01*
X34722Y152219D01*
X34840Y152220D01*
X34914Y152232D01*
Y146011D01*
X34913Y146009D01*
X34894Y145892D01*
X34893Y145773D01*
X34911Y145656D01*
X34914Y145647D01*
Y143176D01*
X34897Y143061D01*
X34897Y142943D01*
X34914Y142844D01*
Y138523D01*
G37*
G36*
Y131577D02*X34853Y131622D01*
X34748Y131677D01*
X34635Y131714D01*
X34518Y131734D01*
X34400Y131734D01*
X34282Y131717D01*
X34170Y131679D01*
X33899Y131580D01*
X33618Y131511D01*
X33332Y131469D01*
X33045Y131456D01*
Y137455D01*
X33332Y137442D01*
X33618Y137400D01*
X33899Y137331D01*
X34171Y137235D01*
X34283Y137198D01*
X34400Y137180D01*
X34518Y137181D01*
X34634Y137200D01*
X34746Y137238D01*
X34851Y137292D01*
X34914Y137338D01*
Y131577D01*
G37*
G36*
Y129489D02*X34714Y129537D01*
X33915Y129600D01*
X33117Y129537D01*
X33045Y129520D01*
Y129950D01*
X33477Y129971D01*
X33906Y130034D01*
X34328Y130137D01*
X34737Y130281D01*
X34844Y130333D01*
X34914Y130384D01*
Y129489D01*
G37*
G36*
X36657Y119267D02*X36365Y119388D01*
X35586Y119575D01*
X35321Y119596D01*
X35493Y119637D01*
X36234Y119944D01*
X36657Y120203D01*
Y119267D01*
G37*
G36*
X29431Y157257D02*X29491Y157213D01*
X29597Y157158D01*
X29709Y157120D01*
X29826Y157101D01*
X29945Y157100D01*
X30062Y157118D01*
X30174Y157156D01*
X30446Y157255D01*
X30726Y157324D01*
X31012Y157365D01*
X31301Y157379D01*
X31589Y157365D01*
X31875Y157324D01*
X32156Y157255D01*
X32429Y157159D01*
X32540Y157121D01*
X32657Y157104D01*
X32775Y157105D01*
X32891Y157124D01*
X33003Y157161D01*
X33045Y157183D01*
Y151579D01*
X33005Y151600D01*
X32892Y151638D01*
X32775Y151657D01*
X32657Y151658D01*
X32539Y151640D01*
X32427Y151602D01*
X32156Y151504D01*
X31875Y151435D01*
X31589Y151393D01*
X31301Y151379D01*
X31012Y151393D01*
X30726Y151435D01*
X30446Y151504D01*
X30173Y151599D01*
X30061Y151637D01*
X29945Y151655D01*
X29827Y151654D01*
X29710Y151634D01*
X29598Y151597D01*
X29493Y151543D01*
X29431Y151496D01*
Y157257D01*
G37*
G36*
Y164976D02*X29926Y166014D01*
X32453Y170669D01*
X33045Y171636D01*
Y158524D01*
X32992Y158549D01*
X32585Y158697D01*
X32164Y158801D01*
X31734Y158863D01*
X31301Y158884D01*
X30867Y158863D01*
X30438Y158801D01*
X30017Y158697D01*
X29607Y158554D01*
X29501Y158501D01*
X29431Y158451D01*
Y164976D01*
G37*
G36*
Y122069D02*X29784Y121492D01*
X30305Y120883D01*
X30914Y120362D01*
X31597Y119944D01*
X32337Y119637D01*
X33045Y119467D01*
Y119320D01*
X32469Y119081D01*
X31786Y118663D01*
X31176Y118142D01*
X30656Y117533D01*
X30237Y116850D01*
X29931Y116109D01*
X29744Y115330D01*
X29681Y114531D01*
X29744Y113733D01*
X29931Y112954D01*
X30237Y112213D01*
X30656Y111530D01*
X31176Y110921D01*
X31576Y110580D01*
X31810Y107902D01*
X31527Y107571D01*
X31109Y106888D01*
X30802Y106148D01*
X30615Y105368D01*
X30552Y104570D01*
X30615Y103771D01*
X30802Y102992D01*
X31109Y102251D01*
X31527Y101568D01*
X32048Y100959D01*
X32447Y100618D01*
X32682Y97940D01*
X32399Y97609D01*
X31980Y96926D01*
X31674Y96185D01*
X31487Y95406D01*
X31424Y94607D01*
X31487Y93809D01*
X31674Y93030D01*
X31980Y92289D01*
X32399Y91606D01*
X32919Y90997D01*
X33045Y90889D01*
Y89237D01*
X32919Y89128D01*
X32705Y88878D01*
X32533Y88598D01*
X32407Y88294D01*
X32330Y87974D01*
X32311Y87646D01*
X32330Y81318D01*
X32407Y80998D01*
X32533Y80694D01*
X32705Y80413D01*
X32919Y80163D01*
X33045Y80055D01*
Y68539D01*
X31992Y70295D01*
X29549Y74890D01*
X29431Y75144D01*
Y122069D01*
G37*
G36*
X33045Y129520D02*X32337Y129350D01*
X31597Y129043D01*
X30914Y128624D01*
X30305Y128104D01*
X29784Y127495D01*
X29431Y126917D01*
Y132305D01*
X29504Y132293D01*
X29623Y132292D01*
X29740Y132310D01*
X29853Y132345D01*
X29959Y132398D01*
X30055Y132467D01*
X30140Y132551D01*
X30210Y132646D01*
X30265Y132751D01*
X30302Y132864D01*
X30322Y132981D01*
X30323Y133100D01*
X30305Y133217D01*
X30267Y133329D01*
X30168Y133600D01*
X30099Y133881D01*
X30058Y134167D01*
X30044Y134456D01*
X30058Y134744D01*
X30099Y135030D01*
X30168Y135311D01*
X30264Y135583D01*
X30302Y135695D01*
X30319Y135812D01*
X30318Y135930D01*
X30299Y136046D01*
X30262Y136158D01*
X30207Y136263D01*
X30137Y136358D01*
X30053Y136441D01*
X29957Y136510D01*
X29852Y136562D01*
X29739Y136598D01*
X29622Y136616D01*
X29504Y136615D01*
X29431Y136603D01*
Y142825D01*
X29431Y142826D01*
X29450Y142943D01*
X29451Y143061D01*
X29433Y143179D01*
X29431Y143187D01*
Y145661D01*
X29448Y145774D01*
X29447Y145892D01*
X29431Y145988D01*
Y150311D01*
X29503Y150260D01*
X29609Y150209D01*
X30017Y150061D01*
X30438Y149957D01*
X30867Y149895D01*
X31301Y149874D01*
X31734Y149895D01*
X32164Y149957D01*
X32585Y150061D01*
X32994Y150204D01*
X33045Y150230D01*
Y148837D01*
X33035Y148839D01*
X32605Y148902D01*
X32172Y148923D01*
X31739Y148902D01*
X31309Y148839D01*
X30888Y148736D01*
X30478Y148592D01*
X30372Y148540D01*
X30276Y148471D01*
X30191Y148387D01*
X30121Y148292D01*
X30066Y148187D01*
X30029Y148074D01*
X30009Y147957D01*
X30008Y147838D01*
X30026Y147721D01*
X30062Y147608D01*
X30115Y147502D01*
X30184Y147406D01*
X30267Y147321D01*
X30363Y147251D01*
X30468Y147196D01*
X30581Y147159D01*
X30698Y147139D01*
X30816Y147138D01*
X30933Y147156D01*
X31046Y147194D01*
X31317Y147293D01*
X31598Y147362D01*
X31883Y147403D01*
X32172Y147417D01*
X32461Y147403D01*
X32747Y147362D01*
X33027Y147293D01*
X33045Y147286D01*
Y141548D01*
X33027Y141542D01*
X32747Y141473D01*
X32461Y141431D01*
X32172Y141417D01*
X31883Y141431D01*
X31598Y141473D01*
X31317Y141542D01*
X31044Y141637D01*
X30933Y141675D01*
X30816Y141693D01*
X30698Y141692D01*
X30581Y141673D01*
X30469Y141635D01*
X30365Y141581D01*
X30270Y141511D01*
X30187Y141427D01*
X30118Y141331D01*
X30065Y141225D01*
X30030Y141113D01*
X30012Y140996D01*
X30013Y140878D01*
X30032Y140761D01*
X30069Y140649D01*
X30124Y140545D01*
X30194Y140450D01*
X30278Y140367D01*
X30374Y140298D01*
X30480Y140247D01*
X30888Y140099D01*
X31309Y139995D01*
X31739Y139933D01*
X32172Y139912D01*
X32605Y139933D01*
X33035Y139995D01*
X33045Y139998D01*
Y138961D01*
X33044Y138961D01*
X32610Y138940D01*
X32181Y138877D01*
X31760Y138774D01*
X31350Y138630D01*
X31244Y138578D01*
X31147Y138509D01*
X31063Y138425D01*
X30992Y138330D01*
X30938Y138225D01*
X30900Y138112D01*
X30881Y137995D01*
X30880Y137877D01*
X30898Y137759D01*
X30934Y137646D01*
X30987Y137540D01*
X31056Y137444D01*
X31139Y137359D01*
X31234Y137289D01*
X31340Y137234D01*
X31452Y137197D01*
X31569Y137177D01*
X31688Y137177D01*
X31805Y137194D01*
X31917Y137232D01*
X32189Y137331D01*
X32469Y137400D01*
X32755Y137442D01*
X33044Y137456D01*
X33045Y137455D01*
Y131456D01*
X33044Y131456D01*
X32755Y131469D01*
X32469Y131511D01*
X32189Y131580D01*
X31916Y131676D01*
X31804Y131713D01*
X31688Y131731D01*
X31569Y131730D01*
X31453Y131711D01*
X31341Y131674D01*
X31236Y131619D01*
X31141Y131549D01*
X31058Y131465D01*
X30990Y131369D01*
X30937Y131263D01*
X30901Y131151D01*
X30884Y131034D01*
X30884Y130916D01*
X30904Y130800D01*
X30941Y130688D01*
X30995Y130583D01*
X31065Y130488D01*
X31150Y130405D01*
X31246Y130336D01*
X31352Y130286D01*
X31760Y130137D01*
X32181Y130034D01*
X32610Y129971D01*
X33044Y129950D01*
X33045Y129950D01*
Y129520D01*
G37*
G36*
X29392Y145545D02*X29430Y145657D01*
X29431Y145661D01*
Y143187D01*
X29395Y143291D01*
X29296Y143562D01*
X29228Y143843D01*
X29186Y144129D01*
X29172Y144417D01*
X29186Y144706D01*
X29228Y144992D01*
X29296Y145272D01*
X29392Y145545D01*
G37*
G36*
X27688Y161322D02*X29431Y164976D01*
Y158451D01*
X29404Y158432D01*
X29320Y158349D01*
X29250Y158254D01*
X29195Y158148D01*
X29157Y158036D01*
X29138Y157919D01*
X29137Y157800D01*
X29155Y157683D01*
X29191Y157570D01*
X29244Y157464D01*
X29313Y157367D01*
X29396Y157283D01*
X29431Y157257D01*
Y151496D01*
X29398Y151473D01*
X29315Y151389D01*
X29247Y151293D01*
X29194Y151187D01*
X29158Y151074D01*
X29141Y150958D01*
X29142Y150840D01*
X29161Y150723D01*
X29198Y150611D01*
X29252Y150506D01*
X29323Y150411D01*
X29407Y150329D01*
X29431Y150311D01*
Y145988D01*
X29427Y146008D01*
X29390Y146120D01*
X29336Y146225D01*
X29266Y146320D01*
X29182Y146403D01*
X29085Y146471D01*
X28980Y146524D01*
X28867Y146560D01*
X28751Y146577D01*
X28633Y146577D01*
X28516Y146557D01*
X28404Y146520D01*
X28299Y146466D01*
X28204Y146396D01*
X28121Y146311D01*
X28053Y146215D01*
X28002Y146109D01*
X27854Y145701D01*
X27750Y145280D01*
X27688Y144851D01*
X27688Y144849D01*
Y152229D01*
X27761Y152216D01*
X27880Y152216D01*
X27997Y152233D01*
X28110Y152269D01*
X28216Y152322D01*
X28312Y152391D01*
X28397Y152474D01*
X28467Y152570D01*
X28522Y152675D01*
X28559Y152788D01*
X28579Y152905D01*
X28580Y153023D01*
X28562Y153140D01*
X28524Y153253D01*
X28425Y153524D01*
X28356Y153805D01*
X28315Y154091D01*
X28301Y154379D01*
X28315Y154668D01*
X28356Y154954D01*
X28425Y155234D01*
X28521Y155507D01*
X28559Y155619D01*
X28576Y155735D01*
X28575Y155853D01*
X28556Y155970D01*
X28519Y156082D01*
X28464Y156187D01*
X28394Y156282D01*
X28310Y156364D01*
X28214Y156433D01*
X28109Y156486D01*
X27996Y156522D01*
X27879Y156539D01*
X27761Y156538D01*
X27688Y156526D01*
Y161322D01*
G37*
G36*
X29431Y126917D02*X29366Y126811D01*
X29059Y126071D01*
X28872Y125292D01*
X28809Y124493D01*
X28872Y123695D01*
X29059Y122915D01*
X29366Y122175D01*
X29431Y122069D01*
Y75144D01*
X27688Y78873D01*
Y143985D01*
X27688Y143984D01*
X27750Y143555D01*
X27854Y143133D01*
X27997Y142724D01*
X28050Y142617D01*
X28119Y142521D01*
X28202Y142436D01*
X28298Y142366D01*
X28403Y142311D01*
X28515Y142274D01*
X28632Y142255D01*
X28751Y142254D01*
X28868Y142271D01*
X28981Y142307D01*
X29087Y142360D01*
X29184Y142429D01*
X29268Y142513D01*
X29339Y142608D01*
X29393Y142713D01*
X29431Y142825D01*
Y136603D01*
X29388Y136595D01*
X29276Y136558D01*
X29171Y136504D01*
X29076Y136434D01*
X28993Y136350D01*
X28924Y136254D01*
X28874Y136147D01*
X28725Y135740D01*
X28622Y135318D01*
X28559Y134889D01*
X28538Y134456D01*
X28559Y134022D01*
X28622Y133593D01*
X28725Y133171D01*
X28869Y132762D01*
X28921Y132656D01*
X28990Y132559D01*
X29074Y132475D01*
X29169Y132404D01*
X29274Y132350D01*
X29387Y132312D01*
X29431Y132305D01*
Y126917D01*
G37*
G36*
X27688Y78873D02*X27345Y79605D01*
X25387Y84427D01*
X23679Y89343D01*
X22226Y94340D01*
X21032Y99406D01*
X20100Y104526D01*
X19433Y109687D01*
X19031Y114876D01*
X18904Y119818D01*
X18921Y119888D01*
X18932Y120079D01*
X19036Y125374D01*
X19452Y130655D01*
X20143Y135907D01*
X21109Y141115D01*
X22345Y146266D01*
X23850Y151345D01*
X25618Y156339D01*
X27645Y161233D01*
X27688Y161322D01*
Y156526D01*
X27645Y156519D01*
X27533Y156482D01*
X27428Y156427D01*
X27333Y156357D01*
X27250Y156273D01*
X27182Y156177D01*
X27131Y156071D01*
X26982Y155663D01*
X26879Y155242D01*
X26816Y154813D01*
X26796Y154379D01*
X26816Y153946D01*
X26879Y153516D01*
X26982Y153095D01*
X27126Y152685D01*
X27179Y152579D01*
X27248Y152483D01*
X27331Y152398D01*
X27426Y152328D01*
X27532Y152273D01*
X27644Y152236D01*
X27688Y152229D01*
Y144849D01*
X27667Y144417D01*
X27688Y143985D01*
Y78873D01*
G37*
G36*
X90551Y142627D02*X96063Y137115D01*
Y50394D01*
X93894D01*
X93890Y53194D01*
X93861Y53315D01*
X93814Y53429D01*
X93749Y53535D01*
X93669Y53629D01*
X93574Y53710D01*
X93469Y53775D01*
X93354Y53822D01*
X93234Y53851D01*
X93110Y53858D01*
X90551Y53855D01*
Y56382D01*
X93234Y56385D01*
X93354Y56414D01*
X93469Y56462D01*
X93574Y56526D01*
X93669Y56607D01*
X93749Y56701D01*
X93814Y56807D01*
X93861Y56921D01*
X93890Y57042D01*
X93898Y57165D01*
X93890Y63194D01*
X93861Y63315D01*
X93814Y63429D01*
X93749Y63535D01*
X93669Y63629D01*
X93574Y63710D01*
X93469Y63775D01*
X93354Y63822D01*
X93234Y63851D01*
X93110Y63858D01*
X91732Y63856D01*
Y68359D01*
X91736Y68406D01*
X91721Y68591D01*
X91711Y68634D01*
X91678Y68772D01*
X91607Y68943D01*
X91510Y69102D01*
X91389Y69243D01*
X91354Y69273D01*
X90551Y70076D01*
Y93626D01*
X93234Y93629D01*
X93354Y93658D01*
X93469Y93706D01*
X93574Y93770D01*
X93669Y93851D01*
X93749Y93945D01*
X93814Y94051D01*
X93861Y94165D01*
X93890Y94286D01*
X93898Y94409D01*
X93890Y100439D01*
X93861Y100559D01*
X93814Y100674D01*
X93749Y100779D01*
X93669Y100873D01*
X93574Y100954D01*
X93469Y101019D01*
X93354Y101066D01*
X93234Y101095D01*
X93110Y101102D01*
X90551Y101099D01*
Y103626D01*
X93234Y103629D01*
X93354Y103658D01*
X93469Y103706D01*
X93574Y103770D01*
X93669Y103851D01*
X93749Y103945D01*
X93814Y104051D01*
X93861Y104165D01*
X93890Y104286D01*
X93898Y104409D01*
X93890Y110439D01*
X93861Y110559D01*
X93814Y110674D01*
X93749Y110779D01*
X93669Y110873D01*
X93574Y110954D01*
X93469Y111019D01*
X93354Y111066D01*
X93234Y111095D01*
X93110Y111102D01*
X90551Y111099D01*
Y115360D01*
X93431Y115365D01*
X93612Y115409D01*
X93784Y115480D01*
X93942Y115577D01*
X94083Y115698D01*
X94204Y115839D01*
X94301Y115998D01*
X94372Y116169D01*
X94416Y116350D01*
X94427Y116535D01*
X94416Y123020D01*
X94372Y123201D01*
X94301Y123373D01*
X94204Y123531D01*
X94083Y123672D01*
X93942Y123793D01*
X93784Y123890D01*
X93612Y123961D01*
X93431Y124005D01*
X93246Y124016D01*
X90551Y124011D01*
Y142627D01*
G37*
G36*
Y70076D02*X86244Y74383D01*
X86240Y79100D01*
X86218Y79191D01*
X86182Y79279D01*
X86132Y79359D01*
X86071Y79431D01*
X85999Y79492D01*
X85919Y79542D01*
X85831Y79578D01*
X85740Y79600D01*
X85646Y79606D01*
X83551Y79600D01*
X83460Y79578D01*
X83372Y79542D01*
X83292Y79492D01*
X83220Y79431D01*
X83159Y79359D01*
X83109Y79279D01*
X83073Y79191D01*
X83051Y79100D01*
X83046Y79006D01*
X83050Y73894D01*
X82505Y73349D01*
X82500Y79100D01*
X82478Y79191D01*
X82442Y79279D01*
X82392Y79359D01*
X82331Y79431D01*
X82259Y79492D01*
X82179Y79542D01*
X82091Y79578D01*
X82000Y79600D01*
X81906Y79606D01*
X79811Y79600D01*
X79720Y79578D01*
X79632Y79542D01*
X79552Y79492D01*
X79480Y79431D01*
X79419Y79359D01*
X79369Y79279D01*
X79333Y79191D01*
X79311Y79100D01*
X79306Y79006D01*
X79311Y73111D01*
X79333Y73020D01*
X79369Y72932D01*
X79419Y72852D01*
X79480Y72780D01*
X79552Y72719D01*
X79632Y72669D01*
X79720Y72633D01*
X79811Y72611D01*
X79906Y72606D01*
X81767Y72610D01*
X79134Y69977D01*
Y91142D01*
X79826D01*
X83046Y87921D01*
X83051Y82711D01*
X83073Y82620D01*
X83109Y82532D01*
X83159Y82452D01*
X83220Y82380D01*
X83292Y82319D01*
X83372Y82269D01*
X83460Y82233D01*
X83551Y82211D01*
X83646Y82206D01*
X85740Y82211D01*
X85831Y82233D01*
X85919Y82269D01*
X85999Y82319D01*
X86071Y82380D01*
X86132Y82452D01*
X86182Y82532D01*
X86218Y82620D01*
X86240Y82711D01*
X86246Y82806D01*
X86240Y88700D01*
X86218Y88791D01*
X86182Y88879D01*
X86132Y88959D01*
X86071Y89031D01*
X85999Y89092D01*
X85919Y89142D01*
X85831Y89178D01*
X85740Y89200D01*
X85646Y89206D01*
X85104Y89204D01*
X81183Y93125D01*
X81153Y93161D01*
X81011Y93281D01*
X80853Y93378D01*
X80681Y93450D01*
X80544Y93483D01*
X80500Y93493D01*
X80315Y93508D01*
X80269Y93504D01*
X79134D01*
Y96059D01*
X79134D01*
X79180Y96063D01*
X87210D01*
X87212Y94286D01*
X87241Y94165D01*
X87288Y94051D01*
X87353Y93945D01*
X87434Y93851D01*
X87528Y93770D01*
X87634Y93706D01*
X87748Y93658D01*
X87869Y93629D01*
X87992Y93622D01*
X90551Y93626D01*
Y70076D01*
G37*
G36*
Y53855D02*X87869Y53851D01*
X87748Y53822D01*
X87634Y53775D01*
X87528Y53710D01*
X87434Y53629D01*
X87353Y53535D01*
X87288Y53429D01*
X87241Y53315D01*
X87212Y53194D01*
X87205Y53071D01*
X87208Y50394D01*
X83196D01*
X83196Y50413D01*
X83145Y50624D01*
X83062Y50824D01*
X82949Y51009D01*
X82808Y51174D01*
X82643Y51315D01*
X82458Y51428D01*
X82258Y51511D01*
X82047Y51562D01*
X81831Y51575D01*
X79370Y51562D01*
X79159Y51511D01*
X79134Y51501D01*
Y66637D01*
X84892Y72395D01*
X89370Y67916D01*
Y63853D01*
X87869Y63851D01*
X87748Y63822D01*
X87634Y63775D01*
X87528Y63710D01*
X87434Y63629D01*
X87353Y63535D01*
X87288Y63429D01*
X87241Y63315D01*
X87212Y63194D01*
X87205Y63071D01*
X87212Y57042D01*
X87241Y56921D01*
X87288Y56807D01*
X87353Y56701D01*
X87434Y56607D01*
X87528Y56526D01*
X87634Y56462D01*
X87748Y56414D01*
X87869Y56385D01*
X87992Y56378D01*
X90551Y56382D01*
Y53855D01*
G37*
G36*
X84138Y149040D02*X90551Y142627D01*
Y124011D01*
X86884Y124005D01*
X86703Y123961D01*
X86531Y123890D01*
X86373Y123793D01*
X86232Y123672D01*
X86111Y123531D01*
X86014Y123373D01*
X85943Y123201D01*
X85899Y123020D01*
X85888Y122835D01*
X85899Y116350D01*
X85943Y116169D01*
X86014Y115998D01*
X86111Y115839D01*
X86232Y115698D01*
X86373Y115577D01*
X86531Y115480D01*
X86703Y115409D01*
X86884Y115365D01*
X87069Y115354D01*
X90551Y115360D01*
Y111099D01*
X87869Y111095D01*
X87748Y111066D01*
X87634Y111019D01*
X87528Y110954D01*
X87434Y110873D01*
X87353Y110779D01*
X87288Y110674D01*
X87241Y110559D01*
X87212Y110439D01*
X87205Y110315D01*
X87212Y104286D01*
X87241Y104165D01*
X87288Y104051D01*
X87353Y103945D01*
X87434Y103851D01*
X87528Y103770D01*
X87634Y103706D01*
X87748Y103658D01*
X87869Y103629D01*
X87992Y103622D01*
X90551Y103626D01*
Y101099D01*
X87869Y101095D01*
X87748Y101066D01*
X87634Y101019D01*
X87528Y100954D01*
X87434Y100873D01*
X87353Y100779D01*
X87288Y100674D01*
X87241Y100559D01*
X87212Y100439D01*
X87205Y100315D01*
X87207Y98425D01*
X79623D01*
X79134Y98914D01*
Y128931D01*
X83588Y128934D01*
X83709Y128963D01*
X83823Y129011D01*
X83929Y129076D01*
X84023Y129156D01*
X84104Y129250D01*
X84168Y129356D01*
X84216Y129470D01*
X84245Y129591D01*
X84252Y129715D01*
X84245Y136551D01*
X84216Y136671D01*
X84168Y136786D01*
X84104Y136891D01*
X84023Y136986D01*
X83929Y137066D01*
X83823Y137131D01*
X83709Y137178D01*
X83588Y137207D01*
X83465Y137215D01*
X79134Y137211D01*
Y141135D01*
X83588Y141139D01*
X83709Y141168D01*
X83823Y141216D01*
X83929Y141280D01*
X84023Y141361D01*
X84104Y141455D01*
X84168Y141561D01*
X84216Y141675D01*
X84245Y141796D01*
X84252Y141919D01*
X84245Y148755D01*
X84216Y148876D01*
X84168Y148990D01*
X84138Y149040D01*
G37*
G36*
X79134Y93504D02*X63826D01*
X63780Y93508D01*
X63594Y93493D01*
X63413Y93450D01*
X63242Y93378D01*
X63083Y93281D01*
X63083Y93281D01*
X62942Y93161D01*
X62912Y93125D01*
X59296Y89510D01*
X59261Y89479D01*
X59140Y89338D01*
X59043Y89180D01*
X58972Y89008D01*
X58928Y88827D01*
X58914Y88642D01*
X58917Y88595D01*
Y85027D01*
X58898Y85027D01*
X58687Y84976D01*
X58487Y84893D01*
X58302Y84780D01*
X58137Y84639D01*
X57996Y84474D01*
X57883Y84289D01*
X57800Y84089D01*
X57749Y83878D01*
X57736Y83661D01*
X57749Y81477D01*
X57800Y81266D01*
X57883Y81065D01*
X57996Y80880D01*
X58137Y80716D01*
X58302Y80575D01*
X58487Y80461D01*
X58687Y80378D01*
X58898Y80328D01*
X59055Y80318D01*
Y79516D01*
X58898Y79515D01*
X58687Y79464D01*
X58487Y79381D01*
X58302Y79268D01*
X58137Y79127D01*
X57996Y78962D01*
X57894Y78795D01*
X57791Y78962D01*
X57651Y79127D01*
X57486Y79268D01*
X57301Y79381D01*
X57100Y79464D01*
X56889Y79515D01*
X56693Y79526D01*
Y122740D01*
X58785Y122744D01*
X58905Y122772D01*
X59020Y122820D01*
X59126Y122885D01*
X59220Y122965D01*
X59300Y123059D01*
X59365Y123165D01*
X59413Y123280D01*
X59442Y123400D01*
X59449Y123524D01*
X59442Y135655D01*
X59413Y135776D01*
X59365Y135890D01*
X59300Y135996D01*
X59220Y136090D01*
X59126Y136170D01*
X59020Y136235D01*
X58905Y136283D01*
X58785Y136312D01*
X58661Y136319D01*
X56693Y136315D01*
Y140259D01*
X58785Y140263D01*
X58905Y140292D01*
X59020Y140340D01*
X59126Y140404D01*
X59220Y140485D01*
X59300Y140579D01*
X59365Y140685D01*
X59413Y140799D01*
X59442Y140920D01*
X59449Y141043D01*
X59449Y141524D01*
X59449Y141535D01*
X64814D01*
X64961Y141524D01*
X65107Y141535D01*
X74115D01*
X74164Y141455D01*
X74245Y141361D01*
X74339Y141280D01*
X74445Y141216D01*
X74559Y141168D01*
X74680Y141139D01*
X74803Y141132D01*
X79134Y141135D01*
Y137211D01*
X74680Y137207D01*
X74559Y137178D01*
X74445Y137131D01*
X74339Y137066D01*
X74245Y136986D01*
X74164Y136891D01*
X74099Y136786D01*
X74052Y136671D01*
X74023Y136551D01*
X74016Y136427D01*
X74023Y129591D01*
X74052Y129470D01*
X74099Y129356D01*
X74164Y129250D01*
X74245Y129156D01*
X74339Y129076D01*
X74445Y129011D01*
X74559Y128963D01*
X74680Y128934D01*
X74803Y128927D01*
X79134Y128931D01*
Y98914D01*
X62912Y115136D01*
X62970Y115377D01*
X62992Y115748D01*
X62970Y116119D01*
X62883Y116480D01*
X62741Y116824D01*
X62547Y117141D01*
X62305Y117424D01*
X62023Y117665D01*
X61706Y117859D01*
X61362Y118002D01*
X61001Y118088D01*
X60630Y118118D01*
X60259Y118088D01*
X59898Y118002D01*
X59554Y117859D01*
X59237Y117665D01*
X58954Y117424D01*
X58713Y117141D01*
X58519Y116824D01*
X58376Y116480D01*
X58290Y116119D01*
X58260Y115748D01*
X58290Y115377D01*
X58376Y115016D01*
X58519Y114672D01*
X58713Y114355D01*
X58954Y114073D01*
X59237Y113831D01*
X59554Y113637D01*
X59898Y113495D01*
X60259Y113408D01*
X60630Y113379D01*
X61001Y113408D01*
X61242Y113466D01*
X78266Y96442D01*
X78296Y96406D01*
X78437Y96286D01*
X78437Y96286D01*
X78596Y96188D01*
X78768Y96117D01*
X78949Y96074D01*
X79134Y96059D01*
Y93504D01*
G37*
G36*
X56693Y79526D02*X56673Y79528D01*
X54732Y79518D01*
X48425Y85824D01*
Y91253D01*
X48445Y91253D01*
X48655Y91304D01*
X48856Y91387D01*
X49041Y91500D01*
X49206Y91641D01*
X49347Y91806D01*
X49460Y91991D01*
X49543Y92191D01*
X49594Y92402D01*
X49606Y92618D01*
X49594Y95078D01*
X49543Y95289D01*
X49460Y95490D01*
X49347Y95675D01*
X49206Y95840D01*
X49041Y95980D01*
X48874Y96083D01*
X49041Y96185D01*
X49206Y96326D01*
X49347Y96491D01*
X49460Y96676D01*
X49543Y96876D01*
X49594Y97087D01*
X49606Y97303D01*
X49594Y99763D01*
X49543Y99974D01*
X49460Y100175D01*
X49347Y100360D01*
X49206Y100525D01*
X49041Y100666D01*
X48856Y100779D01*
X48655Y100862D01*
X48445Y100912D01*
X48425Y100914D01*
Y104163D01*
X48989Y104165D01*
X49154Y104205D01*
X49312Y104270D01*
X49457Y104359D01*
X49587Y104470D01*
X49698Y104599D01*
X49787Y104745D01*
X49852Y104902D01*
X49892Y105068D01*
X49902Y105238D01*
X49892Y108724D01*
X49852Y108890D01*
X49787Y109047D01*
X49698Y109193D01*
X49587Y109322D01*
X49457Y109433D01*
X49312Y109522D01*
X49243Y109550D01*
X49312Y109579D01*
X49457Y109668D01*
X49587Y109779D01*
X49698Y109908D01*
X49787Y110053D01*
X49852Y110211D01*
X49892Y110377D01*
X49902Y110546D01*
X49892Y114033D01*
X49852Y114199D01*
X49787Y114356D01*
X49698Y114501D01*
X49587Y114631D01*
X49457Y114742D01*
X49312Y114831D01*
X49154Y114896D01*
X48989Y114936D01*
X48819Y114946D01*
X45499Y114936D01*
X45334Y114896D01*
X45176Y114831D01*
X45031Y114742D01*
X44901Y114631D01*
X44791Y114501D01*
X44702Y114356D01*
X44636Y114199D01*
X44597Y114033D01*
X44587Y113863D01*
X44597Y110377D01*
X44636Y110211D01*
X44702Y110053D01*
X44791Y109908D01*
X44901Y109779D01*
X45031Y109668D01*
X45176Y109579D01*
X45245Y109550D01*
X45176Y109522D01*
X45031Y109433D01*
X44901Y109322D01*
X44791Y109193D01*
X44702Y109047D01*
X44636Y108890D01*
X44597Y108724D01*
X44587Y108554D01*
X44597Y105068D01*
X44636Y104902D01*
X44702Y104745D01*
X44791Y104599D01*
X44901Y104470D01*
X45031Y104359D01*
X45176Y104270D01*
X45334Y104205D01*
X45499Y104165D01*
X45669Y104155D01*
X46063Y104156D01*
Y100913D01*
X46044Y100912D01*
X45833Y100862D01*
X45632Y100779D01*
X45447Y100666D01*
X45282Y100525D01*
X45142Y100360D01*
X45028Y100175D01*
X44945Y99974D01*
X44895Y99763D01*
X44882Y99547D01*
X44895Y97087D01*
X44945Y96876D01*
X45028Y96676D01*
X45142Y96491D01*
X45282Y96326D01*
X45447Y96185D01*
X45614Y96083D01*
X45447Y95980D01*
X45282Y95840D01*
X45142Y95675D01*
X45028Y95490D01*
X44945Y95289D01*
X44895Y95078D01*
X44885Y94921D01*
X41602D01*
X41573Y95406D01*
X41386Y96185D01*
X41080Y96926D01*
X40661Y97609D01*
X40141Y98218D01*
X39741Y98559D01*
X39507Y101237D01*
X39789Y101568D01*
X40208Y102251D01*
X40515Y102992D01*
X40702Y103771D01*
X40749Y104570D01*
X40702Y105368D01*
X40515Y106148D01*
X40208Y106888D01*
X39789Y107571D01*
X39269Y108180D01*
X38869Y108522D01*
X38635Y111199D01*
X38666Y111235D01*
X38980Y111365D01*
X39455Y111656D01*
X39879Y112018D01*
X39970Y112124D01*
X49258Y121412D01*
X49364Y121503D01*
X49726Y121926D01*
X49726Y121927D01*
X50017Y122402D01*
X50231Y122917D01*
X50361Y123460D01*
X50405Y124016D01*
X50394Y124155D01*
Y134359D01*
X56293Y140259D01*
X56693Y140259D01*
Y136315D01*
X54601Y136312D01*
X54480Y136283D01*
X54366Y136235D01*
X54260Y136170D01*
X54166Y136090D01*
X54085Y135996D01*
X54021Y135890D01*
X53973Y135776D01*
X53944Y135655D01*
X53937Y135532D01*
X53944Y123400D01*
X53973Y123280D01*
X54021Y123165D01*
X54085Y123059D01*
X54166Y122965D01*
X54260Y122885D01*
X54366Y122820D01*
X54480Y122772D01*
X54601Y122744D01*
X54724Y122736D01*
X56693Y122740D01*
Y79526D01*
G37*
G36*
X79134Y69977D02*X77166Y68009D01*
Y72608D01*
X78260Y72611D01*
X78351Y72633D01*
X78439Y72669D01*
X78519Y72719D01*
X78591Y72780D01*
X78652Y72852D01*
X78702Y72932D01*
X78738Y73020D01*
X78760Y73111D01*
X78766Y73206D01*
X78760Y79100D01*
X78738Y79191D01*
X78702Y79279D01*
X78652Y79359D01*
X78591Y79431D01*
X78519Y79492D01*
X78439Y79542D01*
X78351Y79578D01*
X78260Y79600D01*
X78166Y79606D01*
X77166Y79603D01*
Y82208D01*
X78260Y82211D01*
X78351Y82233D01*
X78439Y82269D01*
X78519Y82319D01*
X78591Y82380D01*
X78652Y82452D01*
X78702Y82532D01*
X78738Y82620D01*
X78760Y82711D01*
X78766Y82806D01*
X78760Y88700D01*
X78738Y88791D01*
X78702Y88879D01*
X78652Y88959D01*
X78591Y89031D01*
X78519Y89092D01*
X78439Y89142D01*
X78351Y89178D01*
X78260Y89200D01*
X78166Y89206D01*
X77166Y89203D01*
Y91142D01*
X79134D01*
Y69977D01*
G37*
G36*
X77166Y68009D02*X73330Y64173D01*
X67448D01*
X67448Y64193D01*
X67397Y64404D01*
X67314Y64604D01*
X67201Y64789D01*
X67060Y64954D01*
X66895Y65095D01*
X66710Y65208D01*
X66510Y65291D01*
X66299Y65342D01*
X66083Y65354D01*
X63622Y65342D01*
X63411Y65291D01*
X63211Y65208D01*
X63026Y65095D01*
X62861Y64954D01*
X62720Y64789D01*
X62618Y64622D01*
X62516Y64789D01*
X62375Y64954D01*
X62210Y65095D01*
X62025Y65208D01*
X61825Y65291D01*
X61614Y65342D01*
X61417Y65353D01*
Y74815D01*
X61574Y74816D01*
X61785Y74867D01*
X61986Y74950D01*
X62171Y75063D01*
X62336Y75204D01*
X62477Y75369D01*
X62590Y75554D01*
X62673Y75754D01*
X62724Y75965D01*
X62736Y76181D01*
X62724Y78366D01*
X62673Y78577D01*
X62590Y78777D01*
X62477Y78962D01*
X62336Y79127D01*
X62171Y79268D01*
X61986Y79381D01*
X61785Y79464D01*
X61574Y79515D01*
X61417Y79524D01*
Y80327D01*
X61574Y80328D01*
X61785Y80378D01*
X61986Y80461D01*
X62171Y80575D01*
X62336Y80716D01*
X62476Y80880D01*
X62579Y81047D01*
X62681Y80880D01*
X62822Y80716D01*
X62987Y80575D01*
X63172Y80461D01*
X63372Y80378D01*
X63583Y80328D01*
X63799Y80315D01*
X66260Y80328D01*
X66470Y80378D01*
X66671Y80461D01*
X66856Y80575D01*
X67021Y80716D01*
X67162Y80880D01*
X67275Y81065D01*
X67358Y81266D01*
X67408Y81477D01*
X67421Y81693D01*
X67408Y83878D01*
X67358Y84089D01*
X67275Y84289D01*
X67162Y84474D01*
X67021Y84639D01*
X66856Y84780D01*
X66671Y84893D01*
X66470Y84976D01*
X66260Y85027D01*
X66043Y85039D01*
X63583Y85027D01*
X63372Y84976D01*
X63172Y84893D01*
X62987Y84780D01*
X62822Y84639D01*
X62681Y84474D01*
X62579Y84307D01*
X62476Y84474D01*
X62336Y84639D01*
X62171Y84780D01*
X61986Y84893D01*
X61785Y84976D01*
X61574Y85027D01*
X61358Y85039D01*
X61280Y85039D01*
Y88152D01*
X64269Y91142D01*
X77166D01*
Y89203D01*
X76071Y89200D01*
X75980Y89178D01*
X75892Y89142D01*
X75812Y89092D01*
X75740Y89031D01*
X75679Y88959D01*
X75629Y88879D01*
X75593Y88791D01*
X75571Y88700D01*
X75566Y88606D01*
X75571Y82711D01*
X75593Y82620D01*
X75629Y82532D01*
X75679Y82452D01*
X75740Y82380D01*
X75812Y82319D01*
X75892Y82269D01*
X75980Y82233D01*
X76071Y82211D01*
X76166Y82206D01*
X77166Y82208D01*
Y79603D01*
X76071Y79600D01*
X75980Y79578D01*
X75892Y79542D01*
X75812Y79492D01*
X75740Y79431D01*
X75679Y79359D01*
X75629Y79279D01*
X75593Y79191D01*
X75571Y79100D01*
X75566Y79006D01*
X75571Y73111D01*
X75593Y73020D01*
X75629Y72932D01*
X75679Y72852D01*
X75740Y72780D01*
X75812Y72719D01*
X75892Y72669D01*
X75980Y72633D01*
X76071Y72611D01*
X76166Y72606D01*
X77166Y72608D01*
Y68009D01*
G37*
G36*
X79134Y51501D02*X78959Y51428D01*
X78774Y51315D01*
X78609Y51174D01*
X78468Y51009D01*
X78366Y50843D01*
X78264Y51009D01*
X78123Y51174D01*
X77958Y51315D01*
X77773Y51428D01*
X77573Y51511D01*
X77362Y51562D01*
X77146Y51575D01*
X74685Y51562D01*
X74474Y51511D01*
X74274Y51428D01*
X74089Y51315D01*
X73924Y51174D01*
X73783Y51009D01*
X73670Y50824D01*
X73587Y50624D01*
X73536Y50413D01*
X73535Y50394D01*
X55607D01*
X38583Y67418D01*
Y79568D01*
X40730Y79574D01*
X41050Y79651D01*
X41354Y79777D01*
X41634Y79949D01*
X41884Y80163D01*
X42098Y80413D01*
X42270Y80694D01*
X42396Y80998D01*
X42473Y81318D01*
X42492Y81646D01*
X42473Y87974D01*
X42396Y88294D01*
X42270Y88598D01*
X42098Y88878D01*
X41884Y89128D01*
X41634Y89342D01*
X41354Y89514D01*
X41050Y89640D01*
X40730Y89717D01*
X40496Y89731D01*
X40367Y91262D01*
X40661Y91606D01*
X41080Y92289D01*
X41191Y92559D01*
X44894D01*
X44895Y92402D01*
X44945Y92191D01*
X45028Y91991D01*
X45142Y91806D01*
X45282Y91641D01*
X45447Y91500D01*
X45632Y91387D01*
X45833Y91304D01*
X46044Y91253D01*
X46063Y91252D01*
Y85381D01*
X46059Y85335D01*
X46074Y85149D01*
X46117Y84969D01*
X46188Y84797D01*
X46286Y84638D01*
X46286Y84638D01*
X46406Y84497D01*
X46442Y84467D01*
X53053Y77856D01*
X53064Y75965D01*
X53115Y75754D01*
X53198Y75554D01*
X53311Y75369D01*
X53452Y75204D01*
X53617Y75063D01*
X53802Y74950D01*
X54002Y74867D01*
X54213Y74816D01*
X54429Y74803D01*
X56889Y74816D01*
X57100Y74867D01*
X57301Y74950D01*
X57486Y75063D01*
X57651Y75204D01*
X57791Y75369D01*
X57894Y75535D01*
X57996Y75369D01*
X58137Y75204D01*
X58302Y75063D01*
X58487Y74950D01*
X58687Y74867D01*
X58898Y74816D01*
X59055Y74807D01*
Y65342D01*
X58937Y65342D01*
X58726Y65291D01*
X58526Y65208D01*
X58341Y65095D01*
X58176Y64954D01*
X58035Y64789D01*
X57922Y64604D01*
X57839Y64404D01*
X57788Y64193D01*
X57787Y64173D01*
X54646D01*
X54561Y64208D01*
X54350Y64259D01*
X54134Y64272D01*
X51949Y64259D01*
X51738Y64208D01*
X51538Y64125D01*
X51353Y64012D01*
X51188Y63871D01*
X51047Y63706D01*
X50934Y63521D01*
X50851Y63321D01*
X50800Y63110D01*
X50787Y62894D01*
X50800Y60433D01*
X50851Y60222D01*
X50934Y60022D01*
X51047Y59837D01*
X51188Y59672D01*
X51353Y59531D01*
X51520Y59429D01*
X51353Y59327D01*
X51188Y59186D01*
X51047Y59021D01*
X50934Y58836D01*
X50851Y58636D01*
X50800Y58425D01*
X50787Y58209D01*
X50800Y55748D01*
X50851Y55537D01*
X50934Y55337D01*
X51047Y55152D01*
X51188Y54987D01*
X51353Y54846D01*
X51538Y54733D01*
X51738Y54650D01*
X51949Y54599D01*
X52165Y54587D01*
X54350Y54599D01*
X54561Y54650D01*
X54761Y54733D01*
X54946Y54846D01*
X55111Y54987D01*
X55252Y55152D01*
X55365Y55337D01*
X55448Y55537D01*
X55499Y55748D01*
X55508Y55906D01*
X57788D01*
X57788Y55886D01*
X57839Y55675D01*
X57922Y55475D01*
X58035Y55290D01*
X58176Y55125D01*
X58341Y54984D01*
X58526Y54871D01*
X58726Y54788D01*
X58937Y54737D01*
X59154Y54724D01*
X61614Y54737D01*
X61825Y54788D01*
X62025Y54871D01*
X62210Y54984D01*
X62375Y55125D01*
X62516Y55290D01*
X62618Y55457D01*
X62720Y55290D01*
X62861Y55125D01*
X63026Y54984D01*
X63211Y54871D01*
X63411Y54788D01*
X63622Y54737D01*
X63839Y54724D01*
X66299Y54737D01*
X66510Y54788D01*
X66710Y54871D01*
X66895Y54984D01*
X67060Y55125D01*
X67201Y55290D01*
X67314Y55475D01*
X67397Y55675D01*
X67448Y55886D01*
X67461Y56102D01*
X67448Y58287D01*
X67397Y58498D01*
X67314Y58698D01*
X67201Y58883D01*
X67060Y59048D01*
X66895Y59189D01*
X66710Y59302D01*
X66510Y59385D01*
X66299Y59436D01*
X66142Y59445D01*
Y60642D01*
X66299Y60643D01*
X66510Y60693D01*
X66710Y60776D01*
X66895Y60890D01*
X67060Y61030D01*
X67201Y61195D01*
X67314Y61380D01*
X67397Y61581D01*
X67448Y61792D01*
X67449Y61811D01*
X73773D01*
X73819Y61807D01*
X74004Y61822D01*
X74004Y61822D01*
X74185Y61865D01*
X74357Y61937D01*
X74515Y62034D01*
X74657Y62154D01*
X74687Y62190D01*
X79134Y66637D01*
Y51501D01*
G37*
G36*
X56693Y140259D02*X58785Y140263D01*
X58905Y140292D01*
X59020Y140340D01*
X59126Y140404D01*
X59220Y140485D01*
X59300Y140579D01*
X59365Y140685D01*
X59413Y140799D01*
X59442Y140920D01*
X59449Y141043D01*
X59449Y141339D01*
X68898D01*
Y109151D01*
X62912Y115136D01*
X62970Y115377D01*
X62992Y115748D01*
X62970Y116119D01*
X62883Y116480D01*
X62741Y116824D01*
X62547Y117141D01*
X62305Y117424D01*
X62023Y117665D01*
X61706Y117859D01*
X61362Y118002D01*
X61001Y118088D01*
X60630Y118118D01*
X60259Y118088D01*
X59898Y118002D01*
X59554Y117859D01*
X59237Y117665D01*
X58954Y117424D01*
X58713Y117141D01*
X58519Y116824D01*
X58376Y116480D01*
X58290Y116119D01*
X58260Y115748D01*
X58290Y115377D01*
X58376Y115016D01*
X58519Y114672D01*
X58713Y114355D01*
X58954Y114073D01*
X59237Y113831D01*
X59554Y113637D01*
X59898Y113495D01*
X60259Y113408D01*
X60630Y113379D01*
X61001Y113408D01*
X61242Y113466D01*
X68898Y105810D01*
Y93504D01*
X63826D01*
X63780Y93508D01*
X63594Y93493D01*
X63413Y93450D01*
X63242Y93378D01*
X63083Y93281D01*
X63083Y93281D01*
X62942Y93161D01*
X62912Y93125D01*
X59296Y89510D01*
X59261Y89479D01*
X59140Y89338D01*
X59043Y89180D01*
X58972Y89008D01*
X58928Y88827D01*
X58914Y88642D01*
X58917Y88595D01*
Y85027D01*
X58898Y85027D01*
X58687Y84976D01*
X58487Y84893D01*
X58302Y84780D01*
X58137Y84639D01*
X57996Y84474D01*
X57883Y84289D01*
X57800Y84089D01*
X57749Y83878D01*
X57736Y83661D01*
X57749Y81477D01*
X57800Y81266D01*
X57883Y81065D01*
X57996Y80880D01*
X58137Y80716D01*
X58302Y80575D01*
X58487Y80461D01*
X58687Y80378D01*
X58898Y80328D01*
X59055Y80318D01*
Y79516D01*
X58898Y79515D01*
X58687Y79464D01*
X58487Y79381D01*
X58302Y79268D01*
X58137Y79127D01*
X57996Y78962D01*
X57894Y78795D01*
X57791Y78962D01*
X57651Y79127D01*
X57486Y79268D01*
X57301Y79381D01*
X57100Y79464D01*
X56889Y79515D01*
X56693Y79526D01*
Y122740D01*
X58785Y122744D01*
X58905Y122772D01*
X59020Y122820D01*
X59126Y122885D01*
X59220Y122965D01*
X59300Y123059D01*
X59365Y123165D01*
X59413Y123280D01*
X59442Y123400D01*
X59449Y123524D01*
X59442Y135655D01*
X59413Y135776D01*
X59365Y135890D01*
X59300Y135996D01*
X59220Y136090D01*
X59126Y136170D01*
X59020Y136235D01*
X58905Y136283D01*
X58785Y136312D01*
X58661Y136319D01*
X56693Y136315D01*
Y140259D01*
G37*
G36*
X46063Y100913D02*X46044Y100912D01*
X45833Y100862D01*
X45632Y100779D01*
X45447Y100666D01*
X45282Y100525D01*
X45142Y100360D01*
X45028Y100175D01*
X44945Y99974D01*
X44895Y99763D01*
X44882Y99547D01*
X44895Y97087D01*
X44945Y96876D01*
X45028Y96676D01*
X45142Y96491D01*
X45282Y96326D01*
X45447Y96185D01*
X45614Y96083D01*
X45447Y95980D01*
X45282Y95840D01*
X45142Y95675D01*
X45028Y95490D01*
X44945Y95289D01*
X44895Y95078D01*
X44885Y94921D01*
X41602D01*
X41573Y95406D01*
X41386Y96185D01*
X41080Y96926D01*
X40661Y97609D01*
X40141Y98218D01*
X39741Y98559D01*
X39507Y101237D01*
X39789Y101568D01*
X40208Y102251D01*
X40515Y102992D01*
X40702Y103771D01*
X40749Y104570D01*
X40702Y105368D01*
X40515Y106148D01*
X40208Y106888D01*
X39789Y107571D01*
X39269Y108180D01*
X38869Y108522D01*
X38635Y111199D01*
X38666Y111235D01*
X38980Y111365D01*
X39455Y111656D01*
X39879Y112018D01*
X39970Y112124D01*
X49258Y121412D01*
X49364Y121503D01*
X49726Y121926D01*
X49726Y121927D01*
X50017Y122402D01*
X50231Y122917D01*
X50361Y123460D01*
X50405Y124016D01*
X50394Y124155D01*
Y134359D01*
X56293Y140259D01*
X56693Y140259D01*
Y136315D01*
X54601Y136312D01*
X54480Y136283D01*
X54366Y136235D01*
X54260Y136170D01*
X54166Y136090D01*
X54085Y135996D01*
X54021Y135890D01*
X53973Y135776D01*
X53944Y135655D01*
X53937Y135532D01*
X53944Y123400D01*
X53973Y123280D01*
X54021Y123165D01*
X54085Y123059D01*
X54166Y122965D01*
X54260Y122885D01*
X54366Y122820D01*
X54480Y122772D01*
X54601Y122744D01*
X54724Y122736D01*
X56693Y122740D01*
Y79526D01*
X56673Y79528D01*
X54732Y79518D01*
X48425Y85824D01*
Y91253D01*
X48445Y91253D01*
X48655Y91304D01*
X48856Y91387D01*
X49041Y91500D01*
X49206Y91641D01*
X49347Y91806D01*
X49460Y91991D01*
X49543Y92191D01*
X49594Y92402D01*
X49606Y92618D01*
X49594Y95078D01*
X49543Y95289D01*
X49460Y95490D01*
X49347Y95675D01*
X49206Y95840D01*
X49041Y95980D01*
X48874Y96083D01*
X49041Y96185D01*
X49206Y96326D01*
X49347Y96491D01*
X49460Y96676D01*
X49543Y96876D01*
X49594Y97087D01*
X49606Y97303D01*
X49594Y99763D01*
X49543Y99974D01*
X49460Y100175D01*
X49347Y100360D01*
X49206Y100525D01*
X49041Y100666D01*
X48856Y100779D01*
X48655Y100862D01*
X48445Y100912D01*
X48425Y100914D01*
Y104163D01*
X48989Y104165D01*
X49154Y104205D01*
X49312Y104270D01*
X49457Y104359D01*
X49587Y104470D01*
X49698Y104599D01*
X49787Y104745D01*
X49852Y104902D01*
X49892Y105068D01*
X49902Y105238D01*
X49892Y108724D01*
X49852Y108890D01*
X49787Y109047D01*
X49698Y109193D01*
X49587Y109322D01*
X49457Y109433D01*
X49312Y109522D01*
X49243Y109550D01*
X49312Y109579D01*
X49457Y109668D01*
X49587Y109779D01*
X49698Y109908D01*
X49787Y110053D01*
X49852Y110211D01*
X49892Y110377D01*
X49902Y110546D01*
X49892Y114033D01*
X49852Y114199D01*
X49787Y114356D01*
X49698Y114501D01*
X49587Y114631D01*
X49457Y114742D01*
X49312Y114831D01*
X49154Y114896D01*
X48989Y114936D01*
X48819Y114946D01*
X45499Y114936D01*
X45334Y114896D01*
X45176Y114831D01*
X45031Y114742D01*
X44901Y114631D01*
X44791Y114501D01*
X44702Y114356D01*
X44636Y114199D01*
X44597Y114033D01*
X44587Y113863D01*
X44597Y110377D01*
X44636Y110211D01*
X44702Y110053D01*
X44791Y109908D01*
X44901Y109779D01*
X45031Y109668D01*
X45176Y109579D01*
X45245Y109550D01*
X45176Y109522D01*
X45031Y109433D01*
X44901Y109322D01*
X44791Y109193D01*
X44702Y109047D01*
X44636Y108890D01*
X44597Y108724D01*
X44587Y108554D01*
X44597Y105068D01*
X44636Y104902D01*
X44702Y104745D01*
X44791Y104599D01*
X44901Y104470D01*
X45031Y104359D01*
X45176Y104270D01*
X45334Y104205D01*
X45499Y104165D01*
X45669Y104155D01*
X46063Y104156D01*
Y100913D01*
G37*
G36*
X96063Y51181D02*Y36614D01*
X68110D01*
Y48032D01*
X73536D01*
X73536Y48012D01*
X73587Y47801D01*
X73670Y47601D01*
X73783Y47416D01*
X73924Y47251D01*
X74089Y47110D01*
X74274Y46997D01*
X74474Y46914D01*
X74685Y46863D01*
X74902Y46850D01*
X77362Y46863D01*
X77573Y46914D01*
X77773Y46997D01*
X77958Y47110D01*
X78123Y47251D01*
X78264Y47416D01*
X78366Y47583D01*
X78468Y47416D01*
X78609Y47251D01*
X78774Y47110D01*
X78959Y46997D01*
X79159Y46914D01*
X79370Y46863D01*
X79587Y46850D01*
X82047Y46863D01*
X82258Y46914D01*
X82458Y46997D01*
X82643Y47110D01*
X82808Y47251D01*
X82949Y47416D01*
X83062Y47601D01*
X83145Y47801D01*
X83196Y48012D01*
X83197Y48031D01*
X87211D01*
X87212Y47042D01*
X87241Y46921D01*
X87288Y46807D01*
X87353Y46701D01*
X87434Y46607D01*
X87528Y46526D01*
X87634Y46462D01*
X87748Y46414D01*
X87869Y46385D01*
X87992Y46378D01*
X93234Y46385D01*
X93354Y46414D01*
X93469Y46462D01*
X93574Y46526D01*
X93669Y46607D01*
X93749Y46701D01*
X93814Y46807D01*
X93861Y46921D01*
X93890Y47042D01*
X93898Y47165D01*
X93893Y51181D01*
X96063D01*
G37*
G36*
X71654Y197244D02*X54686D01*
X56403Y198711D01*
X60606Y201936D01*
X64972Y204936D01*
X69488Y207704D01*
X71251Y208661D01*
X71654D01*
Y197244D01*
G37*
G36*
X212470Y161321D02*X212512Y161233D01*
X214539Y156339D01*
X216308Y151345D01*
X217056Y148819D01*
X212470D01*
Y152232D01*
X212513Y152239D01*
X212625Y152276D01*
X212730Y152331D01*
X212825Y152401D01*
X212907Y152485D01*
X212976Y152581D01*
X213027Y152687D01*
X213175Y153095D01*
X213279Y153516D01*
X213341Y153946D01*
X213362Y154379D01*
X213341Y154813D01*
X213279Y155242D01*
X213175Y155663D01*
X213032Y156073D01*
X212979Y156179D01*
X212910Y156276D01*
X212827Y156360D01*
X212731Y156430D01*
X212626Y156485D01*
X212514Y156522D01*
X212470Y156530D01*
Y161321D01*
G37*
G36*
X208859Y168543D02*X210232Y166014D01*
X212470Y161321D01*
Y156530D01*
X212397Y156542D01*
X212278Y156543D01*
X212161Y156525D01*
X212048Y156489D01*
X211942Y156436D01*
X211845Y156367D01*
X211761Y156284D01*
X211690Y156188D01*
X211636Y156083D01*
X211598Y155971D01*
X211579Y155854D01*
X211578Y155735D01*
X211596Y155618D01*
X211634Y155506D01*
X211732Y155234D01*
X211801Y154954D01*
X211843Y154668D01*
X211857Y154379D01*
X211843Y154091D01*
X211801Y153805D01*
X211732Y153524D01*
X211637Y153251D01*
X211599Y153140D01*
X211581Y153023D01*
X211582Y152905D01*
X211602Y152788D01*
X211639Y152676D01*
X211693Y152572D01*
X211763Y152477D01*
X211847Y152394D01*
X211943Y152325D01*
X212049Y152272D01*
X212162Y152237D01*
X212278Y152219D01*
X212396Y152220D01*
X212470Y152232D01*
Y148819D01*
X208931D01*
X208859Y148837D01*
Y149874D01*
X209290Y149895D01*
X209720Y149957D01*
X210141Y150061D01*
X210551Y150204D01*
X210657Y150257D01*
X210753Y150326D01*
X210838Y150409D01*
X210908Y150505D01*
X210963Y150610D01*
X211000Y150722D01*
X211020Y150839D01*
X211021Y150958D01*
X211003Y151075D01*
X210967Y151188D01*
X210914Y151294D01*
X210845Y151391D01*
X210762Y151475D01*
X210666Y151546D01*
X210561Y151600D01*
X210448Y151638D01*
X210331Y151657D01*
X210213Y151658D01*
X210096Y151640D01*
X209983Y151602D01*
X209712Y151504D01*
X209431Y151435D01*
X209146Y151393D01*
X208859Y151379D01*
Y157379D01*
X209146Y157365D01*
X209431Y157324D01*
X209712Y157255D01*
X209985Y157159D01*
X210096Y157121D01*
X210213Y157104D01*
X210331Y157105D01*
X210448Y157124D01*
X210560Y157161D01*
X210664Y157216D01*
X210759Y157286D01*
X210842Y157370D01*
X210911Y157466D01*
X210964Y157571D01*
X210999Y157684D01*
X211017Y157801D01*
X211016Y157919D01*
X210997Y158035D01*
X210960Y158147D01*
X210905Y158252D01*
X210835Y158347D01*
X210751Y158430D01*
X210655Y158498D01*
X210549Y158549D01*
X210141Y158697D01*
X209720Y158801D01*
X209290Y158863D01*
X208859Y158884D01*
Y168543D01*
G37*
G36*
X205244Y174684D02*X207704Y170669D01*
X208859Y168543D01*
Y158884D01*
X208857Y158884D01*
X208424Y158863D01*
X207994Y158801D01*
X207573Y158697D01*
X207163Y158554D01*
X207057Y158501D01*
X206961Y158432D01*
X206876Y158349D01*
X206806Y158254D01*
X206751Y158148D01*
X206714Y158036D01*
X206694Y157919D01*
X206693Y157800D01*
X206711Y157683D01*
X206747Y157570D01*
X206800Y157464D01*
X206869Y157367D01*
X206952Y157283D01*
X207048Y157213D01*
X207153Y157158D01*
X207265Y157120D01*
X207382Y157101D01*
X207501Y157100D01*
X207618Y157118D01*
X207730Y157156D01*
X208002Y157255D01*
X208282Y157324D01*
X208568Y157365D01*
X208857Y157379D01*
X208859Y157379D01*
Y151379D01*
X208857Y151379D01*
X208568Y151393D01*
X208282Y151435D01*
X208002Y151504D01*
X207729Y151599D01*
X207617Y151637D01*
X207501Y151655D01*
X207383Y151654D01*
X207266Y151634D01*
X207154Y151597D01*
X207049Y151543D01*
X206954Y151473D01*
X206872Y151389D01*
X206803Y151293D01*
X206750Y151187D01*
X206714Y151074D01*
X206697Y150958D01*
X206698Y150840D01*
X206717Y150723D01*
X206754Y150611D01*
X206809Y150506D01*
X206879Y150411D01*
X206963Y150329D01*
X207059Y150260D01*
X207165Y150209D01*
X207573Y150061D01*
X207994Y149957D01*
X208424Y149895D01*
X208857Y149874D01*
X208859Y149874D01*
Y148837D01*
X208848Y148839D01*
X208419Y148902D01*
X207985Y148923D01*
X207552Y148902D01*
X207123Y148839D01*
X207040Y148819D01*
X205244D01*
Y152229D01*
X205317Y152216D01*
X205436Y152216D01*
X205553Y152233D01*
X205666Y152269D01*
X205772Y152322D01*
X205869Y152391D01*
X205953Y152474D01*
X206024Y152570D01*
X206078Y152675D01*
X206116Y152788D01*
X206135Y152905D01*
X206136Y153023D01*
X206118Y153140D01*
X206080Y153253D01*
X205981Y153524D01*
X205912Y153805D01*
X205871Y154091D01*
X205857Y154379D01*
X205871Y154668D01*
X205912Y154954D01*
X205981Y155234D01*
X206077Y155507D01*
X206115Y155619D01*
X206132Y155735D01*
X206132Y155853D01*
X206112Y155970D01*
X206075Y156082D01*
X206021Y156187D01*
X205950Y156282D01*
X205866Y156364D01*
X205770Y156433D01*
X205665Y156486D01*
X205552Y156522D01*
X205436Y156539D01*
X205317Y156538D01*
X205244Y156526D01*
Y174684D01*
G37*
G36*
X190542Y186766D02*X190529Y190682D01*
X190442Y191044D01*
X190300Y191388D01*
X190106Y191705D01*
X189864Y191987D01*
X189582Y192229D01*
X189265Y192423D01*
X188921Y192565D01*
X188560Y192652D01*
X188189Y192674D01*
X182435Y192655D01*
X179910Y195180D01*
X179899Y197268D01*
X179813Y197630D01*
X179670Y197973D01*
X179476Y198290D01*
X179235Y198573D01*
X178952Y198815D01*
X178635Y199009D01*
X178291Y199151D01*
X177930Y199238D01*
X177559Y199260D01*
X175837Y199252D01*
X169927Y205163D01*
X169836Y205269D01*
X169412Y205631D01*
X169412Y205631D01*
X168936Y205923D01*
X168421Y206136D01*
X167879Y206266D01*
X167323Y206310D01*
X167303Y206309D01*
X167269Y206391D01*
X167074Y206708D01*
X166833Y206990D01*
X166550Y207232D01*
X166233Y207426D01*
X165890Y207568D01*
X165528Y207655D01*
X165157Y207677D01*
X153763Y207655D01*
X153402Y207568D01*
X153058Y207426D01*
X152741Y207232D01*
X152458Y206990D01*
X152217Y206708D01*
X152023Y206391D01*
X151880Y206047D01*
X151794Y205686D01*
X151772Y205315D01*
X151794Y199826D01*
X151880Y199465D01*
X152023Y199121D01*
X152217Y198804D01*
X152458Y198521D01*
X152741Y198280D01*
X153058Y198086D01*
X153402Y197943D01*
X153644Y197885D01*
X153371Y197820D01*
X153013Y197672D01*
X152683Y197469D01*
X152389Y197218D01*
X152137Y196923D01*
X151935Y196593D01*
X151786Y196235D01*
X151696Y195859D01*
X151673Y195472D01*
X151696Y189968D01*
X151786Y189592D01*
X151935Y189234D01*
X152137Y188904D01*
X152389Y188609D01*
X152650Y188386D01*
X120079D01*
X119245Y188337D01*
X118431Y188141D01*
X117658Y187821D01*
X116945Y187384D01*
X116309Y186841D01*
X115766Y186205D01*
X115328Y185491D01*
X115008Y184718D01*
X114813Y183905D01*
X114747Y183071D01*
X114813Y182237D01*
X115008Y181423D01*
X115328Y180650D01*
X115766Y179937D01*
X116309Y179301D01*
X116945Y178758D01*
X117658Y178321D01*
X118431Y178000D01*
X119245Y177805D01*
X120079Y177756D01*
X152650D01*
X152389Y177533D01*
X152137Y177238D01*
X151935Y176908D01*
X151786Y176550D01*
X151696Y176174D01*
X151673Y175787D01*
X151696Y170283D01*
X151786Y169907D01*
X151935Y169549D01*
X152137Y169219D01*
X152389Y168924D01*
X152683Y168672D01*
X152714Y168653D01*
X152335Y168421D01*
X151970Y168109D01*
X151658Y167744D01*
X151407Y167334D01*
X151239Y166929D01*
X122186D01*
X122047Y166940D01*
X121491Y166896D01*
X120949Y166766D01*
X120434Y166553D01*
X119958Y166261D01*
X119958Y166261D01*
X119534Y165899D01*
X119444Y165793D01*
X102469Y148819D01*
X101369D01*
X98425Y151763D01*
Y218901D01*
X99042Y219049D01*
X104251Y220014D01*
X109502Y220706D01*
X114783Y221121D01*
X119819Y221253D01*
X119888Y221236D01*
X120079Y221225D01*
X125374Y221121D01*
X130655Y220706D01*
X135907Y220014D01*
X141115Y219049D01*
X146266Y217812D01*
X151345Y216308D01*
X156339Y214539D01*
X161233Y212512D01*
X166014Y210232D01*
X170669Y207704D01*
X175186Y204936D01*
X179551Y201936D01*
X183754Y198711D01*
X187782Y195271D01*
X191625Y191625D01*
X195271Y187782D01*
X198711Y183754D01*
X201936Y179552D01*
X204936Y175186D01*
X205244Y174684D01*
Y156526D01*
X205201Y156519D01*
X205089Y156482D01*
X204984Y156427D01*
X204889Y156357D01*
X204806Y156273D01*
X204738Y156177D01*
X204687Y156071D01*
X204539Y155663D01*
X204435Y155242D01*
X204373Y154813D01*
X204352Y154379D01*
X204373Y153946D01*
X204435Y153516D01*
X204539Y153095D01*
X204682Y152685D01*
X204735Y152579D01*
X204804Y152483D01*
X204887Y152398D01*
X204982Y152328D01*
X205088Y152273D01*
X205200Y152236D01*
X205244Y152229D01*
Y148819D01*
X202829D01*
X203931Y171835D01*
X203948Y172068D01*
X203928Y172300D01*
X203927Y172435D01*
X203909Y172529D01*
X203901Y172624D01*
X203857Y172802D01*
X203823Y172983D01*
X203790Y173073D01*
X203768Y173165D01*
X203696Y173335D01*
X203634Y173508D01*
X203588Y173591D01*
X203551Y173679D01*
X203454Y173835D01*
X203366Y173996D01*
X203307Y174072D01*
X203257Y174153D01*
X203167Y174253D01*
X203024Y174437D01*
X202854Y174598D01*
X190542Y186766D01*
G37*
G36*
X202756Y61811D02*Y61764D01*
X202587Y61512D01*
X199466Y57347D01*
X196135Y53348D01*
X192604Y49525D01*
X188976Y45984D01*
Y46958D01*
X190203Y48184D01*
X190308Y48274D01*
X190670Y48698D01*
X190671Y48698D01*
X190962Y49174D01*
X191176Y49689D01*
X191306Y50231D01*
X191350Y50787D01*
X191339Y50926D01*
Y57568D01*
X194288Y60531D01*
X194453Y60799D01*
X194545Y61024D01*
X194660D01*
X194717Y61017D01*
X195274Y61034D01*
X195368Y61052D01*
X195438Y61056D01*
X195629Y61102D01*
X195822Y61139D01*
X195900Y61167D01*
X195980Y61187D01*
X196162Y61262D01*
X196347Y61329D01*
X196419Y61368D01*
X196495Y61400D01*
X196663Y61503D01*
X196835Y61598D01*
X196901Y61648D01*
X196971Y61691D01*
X197111Y61811D01*
X202756D01*
G37*
G36*
X211599Y150000D02*X216706D01*
X217812Y146266D01*
X219049Y141115D01*
X220014Y135907D01*
X220706Y130655D01*
X221121Y125374D01*
X221253Y120334D01*
X221238Y120269D01*
X221226Y120079D01*
X221126Y114876D01*
X220725Y109687D01*
X220057Y104526D01*
X219125Y99406D01*
X217931Y94340D01*
X216479Y89343D01*
X214771Y84427D01*
X212812Y79605D01*
X211599Y77009D01*
Y132031D01*
X211663Y132137D01*
X211970Y132878D01*
X212157Y133657D01*
X212204Y134456D01*
X212157Y135254D01*
X211970Y136033D01*
X211663Y136774D01*
X211599Y136880D01*
Y142270D01*
X211641Y142277D01*
X211753Y142315D01*
X211858Y142369D01*
X211953Y142439D01*
X212036Y142523D01*
X212105Y142619D01*
X212155Y142726D01*
X212304Y143133D01*
X212407Y143555D01*
X212470Y143984D01*
X212491Y144417D01*
X212470Y144851D01*
X212407Y145280D01*
X212304Y145701D01*
X212160Y146111D01*
X212108Y146217D01*
X212039Y146314D01*
X211955Y146398D01*
X211860Y146469D01*
X211755Y146523D01*
X211642Y146561D01*
X211599Y146568D01*
Y150000D01*
G37*
G36*
Y77009D02*X210608Y74890D01*
X208165Y70295D01*
X207987Y69998D01*
Y91979D01*
X208177Y92289D01*
X208484Y93030D01*
X208671Y93809D01*
X208718Y94607D01*
X208671Y95406D01*
X208484Y96185D01*
X208177Y96926D01*
X207987Y97236D01*
Y100854D01*
X208110Y100959D01*
X208630Y101568D01*
X209049Y102251D01*
X209356Y102992D01*
X209543Y103771D01*
X209590Y104570D01*
X209543Y105368D01*
X209356Y106148D01*
X209049Y106888D01*
X208630Y107571D01*
X208110Y108180D01*
X207987Y108285D01*
Y110165D01*
X208372Y110400D01*
X208981Y110921D01*
X209502Y111530D01*
X209920Y112213D01*
X210227Y112954D01*
X210414Y113733D01*
X210461Y114531D01*
X210414Y115330D01*
X210227Y116109D01*
X209920Y116850D01*
X209502Y117533D01*
X208981Y118142D01*
X208372Y118663D01*
X207987Y118898D01*
Y119706D01*
X208560Y119944D01*
X209244Y120362D01*
X209853Y120883D01*
X210373Y121492D01*
X210792Y122175D01*
X211098Y122915D01*
X211286Y123695D01*
X211333Y124493D01*
X211286Y125292D01*
X211098Y126071D01*
X210792Y126811D01*
X210373Y127495D01*
X209853Y128104D01*
X209244Y128624D01*
X208560Y129043D01*
X207987Y129280D01*
Y129430D01*
X208692Y129599D01*
X209432Y129906D01*
X210115Y130324D01*
X210724Y130845D01*
X211245Y131454D01*
X211599Y132031D01*
Y77009D01*
G37*
G36*
X207987Y149959D02*X207994Y149957D01*
X208424Y149895D01*
X208857Y149874D01*
X209290Y149895D01*
X209720Y149957D01*
X209894Y150000D01*
X211599D01*
Y146568D01*
X211525Y146580D01*
X211407Y146581D01*
X211289Y146563D01*
X211176Y146527D01*
X211070Y146474D01*
X210974Y146405D01*
X210889Y146322D01*
X210819Y146227D01*
X210764Y146121D01*
X210727Y146009D01*
X210707Y145892D01*
X210706Y145773D01*
X210724Y145656D01*
X210762Y145544D01*
X210861Y145272D01*
X210930Y144992D01*
X210972Y144706D01*
X210985Y144417D01*
X210972Y144129D01*
X210930Y143843D01*
X210861Y143562D01*
X210765Y143290D01*
X210728Y143178D01*
X210710Y143061D01*
X210711Y142943D01*
X210730Y142827D01*
X210767Y142715D01*
X210822Y142610D01*
X210892Y142515D01*
X210976Y142432D01*
X211072Y142363D01*
X211178Y142310D01*
X211290Y142275D01*
X211407Y142257D01*
X211525Y142258D01*
X211599Y142270D01*
Y136880D01*
X211245Y137457D01*
X210724Y138066D01*
X210115Y138587D01*
X209432Y139005D01*
X208692Y139312D01*
X207987Y139481D01*
Y139912D01*
X208419Y139933D01*
X208848Y139995D01*
X209270Y140099D01*
X209679Y140243D01*
X209785Y140295D01*
X209882Y140364D01*
X209966Y140447D01*
X210037Y140543D01*
X210091Y140648D01*
X210129Y140761D01*
X210148Y140878D01*
X210149Y140996D01*
X210131Y141113D01*
X210096Y141227D01*
X210042Y141333D01*
X209973Y141429D01*
X209890Y141514D01*
X209795Y141584D01*
X209689Y141639D01*
X209577Y141676D01*
X209460Y141695D01*
X209341Y141696D01*
X209224Y141679D01*
X209112Y141641D01*
X208841Y141542D01*
X208560Y141473D01*
X208274Y141431D01*
X207987Y141417D01*
Y147417D01*
X208274Y147403D01*
X208560Y147362D01*
X208841Y147293D01*
X209113Y147197D01*
X209225Y147159D01*
X209342Y147142D01*
X209460Y147143D01*
X209576Y147162D01*
X209688Y147199D01*
X209793Y147254D01*
X209888Y147324D01*
X209971Y147408D01*
X210039Y147504D01*
X210092Y147609D01*
X210128Y147722D01*
X210146Y147839D01*
X210145Y147957D01*
X210125Y148073D01*
X210088Y148185D01*
X210034Y148290D01*
X209964Y148385D01*
X209880Y148468D01*
X209784Y148537D01*
X209677Y148587D01*
X209270Y148736D01*
X208848Y148839D01*
X208419Y148902D01*
X207987Y148922D01*
Y149959D01*
G37*
G36*
Y129280D02*X207820Y129350D01*
X207647Y129391D01*
X207913Y129412D01*
X207987Y129430D01*
Y129280D01*
G37*
G36*
Y118898D02*X207689Y119081D01*
X206948Y119388D01*
X206776Y119429D01*
X207041Y119450D01*
X207820Y119637D01*
X207987Y119706D01*
Y118898D01*
G37*
G36*
Y108285D02*X207501Y108701D01*
X206817Y109119D01*
X206077Y109426D01*
X205905Y109467D01*
X206169Y109488D01*
X206948Y109675D01*
X207689Y109982D01*
X207987Y110165D01*
Y108285D01*
G37*
G36*
Y97236D02*X207759Y97609D01*
X207238Y98218D01*
X206629Y98739D01*
X205946Y99157D01*
X205205Y99464D01*
X205032Y99505D01*
X205298Y99526D01*
X206077Y99713D01*
X206817Y100020D01*
X207501Y100439D01*
X207987Y100854D01*
Y97236D01*
G37*
G36*
Y69998D02*X205489Y65832D01*
X202587Y61512D01*
X200156Y58268D01*
X196063D01*
Y61221D01*
X196162Y61262D01*
X196347Y61329D01*
X196419Y61368D01*
X196495Y61400D01*
X196663Y61503D01*
X196835Y61598D01*
X196901Y61648D01*
X196971Y61691D01*
X197121Y61819D01*
X197276Y61940D01*
X197323Y61992D01*
X197395Y62054D01*
X197757Y62478D01*
X197787Y62526D01*
X205488Y72152D01*
X205631Y72320D01*
X205765Y72538D01*
X205844Y72651D01*
X205880Y72725D01*
X205923Y72796D01*
X205998Y72977D01*
X206082Y73155D01*
X206105Y73235D01*
X206136Y73311D01*
X206182Y73502D01*
X206237Y73691D01*
X206247Y73773D01*
X206266Y73853D01*
X206275Y73991D01*
X206306Y74245D01*
X206299Y74466D01*
Y79626D01*
X206404Y79651D01*
X206708Y79777D01*
X206988Y79949D01*
X207239Y80163D01*
X207452Y80413D01*
X207624Y80694D01*
X207750Y80998D01*
X207827Y81318D01*
X207846Y81646D01*
X207827Y87974D01*
X207750Y88294D01*
X207624Y88598D01*
X207452Y88878D01*
X207239Y89128D01*
X206988Y89342D01*
X206708Y89514D01*
X206404Y89640D01*
X206084Y89717D01*
X205756Y89736D01*
X205135Y89734D01*
X205205Y89751D01*
X205946Y90058D01*
X206629Y90476D01*
X207238Y90997D01*
X207759Y91606D01*
X207987Y91979D01*
Y69998D01*
G37*
G36*
X204372Y150000D02*X207820D01*
X207987Y149959D01*
Y148922D01*
X207985Y148923D01*
X207552Y148902D01*
X207123Y148839D01*
X206701Y148736D01*
X206292Y148592D01*
X206186Y148540D01*
X206089Y148471D01*
X206005Y148387D01*
X205934Y148292D01*
X205880Y148187D01*
X205842Y148074D01*
X205823Y147957D01*
X205822Y147838D01*
X205840Y147721D01*
X205875Y147608D01*
X205928Y147502D01*
X205997Y147406D01*
X206081Y147321D01*
X206176Y147251D01*
X206281Y147196D01*
X206394Y147159D01*
X206511Y147139D01*
X206630Y147138D01*
X206747Y147156D01*
X206859Y147194D01*
X207130Y147293D01*
X207411Y147362D01*
X207697Y147403D01*
X207985Y147417D01*
X207987Y147417D01*
Y141417D01*
X207985Y141417D01*
X207697Y141431D01*
X207411Y141473D01*
X207130Y141542D01*
X206858Y141637D01*
X206746Y141675D01*
X206629Y141693D01*
X206511Y141692D01*
X206395Y141673D01*
X206283Y141635D01*
X206178Y141581D01*
X206083Y141511D01*
X206000Y141427D01*
X205931Y141331D01*
X205879Y141225D01*
X205843Y141113D01*
X205825Y140996D01*
X205826Y140878D01*
X205845Y140761D01*
X205883Y140649D01*
X205937Y140545D01*
X206007Y140450D01*
X206091Y140367D01*
X206187Y140298D01*
X206294Y140247D01*
X206701Y140099D01*
X207123Y139995D01*
X207552Y139933D01*
X207985Y139912D01*
X207987Y139912D01*
Y139481D01*
X207913Y139499D01*
X207114Y139562D01*
X206315Y139499D01*
X205536Y139312D01*
X204796Y139005D01*
X204372Y138746D01*
Y142267D01*
X204446Y142255D01*
X204564Y142254D01*
X204682Y142271D01*
X204795Y142307D01*
X204901Y142360D01*
X204997Y142429D01*
X205082Y142513D01*
X205152Y142608D01*
X205207Y142713D01*
X205244Y142826D01*
X205264Y142943D01*
X205264Y143061D01*
X205247Y143179D01*
X205209Y143291D01*
X205110Y143562D01*
X205041Y143843D01*
X204999Y144129D01*
X204985Y144417D01*
X204999Y144706D01*
X205041Y144992D01*
X205110Y145272D01*
X205205Y145545D01*
X205243Y145657D01*
X205261Y145774D01*
X205260Y145892D01*
X205241Y146008D01*
X205203Y146120D01*
X205149Y146225D01*
X205079Y146320D01*
X204995Y146403D01*
X204899Y146471D01*
X204793Y146524D01*
X204681Y146560D01*
X204564Y146577D01*
X204446Y146577D01*
X204372Y146564D01*
Y150000D01*
G37*
G36*
X202886D02*X204372D01*
Y146564D01*
X204330Y146557D01*
X204218Y146520D01*
X204113Y146466D01*
X204018Y146396D01*
X203935Y146311D01*
X203866Y146215D01*
X203816Y146109D01*
X203667Y145701D01*
X203564Y145280D01*
X203501Y144851D01*
X203480Y144417D01*
X203501Y143984D01*
X203564Y143555D01*
X203667Y143133D01*
X203811Y142724D01*
X203863Y142617D01*
X203932Y142521D01*
X204015Y142436D01*
X204111Y142366D01*
X204216Y142311D01*
X204329Y142274D01*
X204372Y142267D01*
Y138746D01*
X204112Y138587D01*
X203503Y138066D01*
X202983Y137457D01*
X202564Y136774D01*
X202257Y136033D01*
X202207Y135823D01*
X202886Y150000D01*
G37*
G36*
X88382Y161806D02*X88364Y166316D01*
X88277Y166677D01*
X88135Y167021D01*
X87941Y167338D01*
X87699Y167620D01*
X87416Y167862D01*
X87099Y168056D01*
X86756Y168198D01*
X86514Y168256D01*
X86786Y168322D01*
X87144Y168470D01*
X87474Y168672D01*
X87769Y168924D01*
X88020Y169219D01*
X88223Y169549D01*
X88371Y169907D01*
X88461Y170283D01*
X88484Y170669D01*
X88461Y176174D01*
X88371Y176550D01*
X88223Y176908D01*
X88020Y177238D01*
X87769Y177533D01*
X87474Y177784D01*
X87144Y177987D01*
X86786Y178135D01*
X86514Y178200D01*
X86756Y178258D01*
X87099Y178401D01*
X87416Y178595D01*
X87699Y178836D01*
X87941Y179119D01*
X88135Y179436D01*
X88277Y179780D01*
X88364Y180141D01*
X88386Y180512D01*
X88364Y186001D01*
X88277Y186362D01*
X88135Y186706D01*
X87941Y187023D01*
X87699Y187305D01*
X87416Y187547D01*
X87099Y187741D01*
X86756Y187883D01*
X86514Y187942D01*
X86786Y188007D01*
X87144Y188155D01*
X87474Y188358D01*
X87769Y188609D01*
X88020Y188904D01*
X88223Y189234D01*
X88371Y189592D01*
X88461Y189968D01*
X88484Y190354D01*
X88461Y195859D01*
X88371Y196235D01*
X88223Y196593D01*
X88020Y196923D01*
X87769Y197218D01*
X87474Y197469D01*
X87144Y197672D01*
X86786Y197820D01*
X86725Y197835D01*
X86786Y197849D01*
X87144Y197998D01*
X87474Y198200D01*
X87769Y198452D01*
X88020Y198746D01*
X88223Y199076D01*
X88371Y199434D01*
X88461Y199811D01*
X88484Y200197D01*
X88461Y205701D01*
X88371Y206078D01*
X88223Y206436D01*
X88020Y206766D01*
X87769Y207060D01*
X87474Y207312D01*
X87144Y207514D01*
X86786Y207662D01*
X86410Y207753D01*
X86024Y207776D01*
X74614Y207753D01*
X74237Y207662D01*
X73879Y207514D01*
X73549Y207312D01*
X73255Y207060D01*
X73003Y206766D01*
X72801Y206436D01*
X72653Y206078D01*
X72562Y205701D01*
X72539Y205315D01*
X72562Y199811D01*
X72653Y199434D01*
X72801Y199076D01*
X73003Y198746D01*
X73255Y198452D01*
X73549Y198200D01*
X73879Y197998D01*
X74237Y197849D01*
X74299Y197835D01*
X74237Y197820D01*
X73879Y197672D01*
X73549Y197469D01*
X73255Y197218D01*
X73003Y196923D01*
X72801Y196593D01*
X72653Y196235D01*
X72562Y195859D01*
X72539Y195472D01*
X72562Y189968D01*
X72653Y189592D01*
X72801Y189234D01*
X73003Y188904D01*
X73255Y188609D01*
X73516Y188386D01*
X71260D01*
Y208666D01*
X74143Y210232D01*
X78925Y212512D01*
X83819Y214539D01*
X88812Y216308D01*
X93891Y217812D01*
X99042Y219049D01*
X99213Y219080D01*
Y151181D01*
X99007D01*
X88382Y161806D01*
G37*
G54D12*X120079Y97244D02*X120197Y97362D01*
X125984D01*
X113780Y99252D02*X128819Y84213D01*
X133071D01*
X125984Y74193D02*Y60118D01*
X126378Y79272D02*X126634Y79528D01*
X133071D01*
X125984Y49606D02*X131890D01*
X123917Y88976D02*X117579Y82638D01*
X115748D01*
X111024Y82677D02*X115748Y77953D01*
Y78091D02*X119390Y74449D01*
X126378D01*
Y74587D02*X125984Y74193D01*
X128740Y88976D02*X134252D01*
X80571Y49213D02*X90157D01*
X90945Y50000D01*
X90551Y68406D02*Y60118D01*
X84449Y74508D02*X90551Y68406D01*
X64823Y57087D02*X64961Y57224D01*
Y62992D01*
X73819D01*
X84449Y73622D01*
X53287Y57087D02*X60276D01*
X75886Y49213D02*X55118D01*
X77165Y87606D02*Y90157D01*
X117420Y117814D02*X111024Y111417D01*
G54D13*X111811Y133661D02*X119488D01*
G54D12*X117323Y117717D02*X119685Y120079D01*
G54D14*X66463Y132998D02*X79331D01*
G54D12*X111024Y111417D02*Y82677D01*
X125984Y107362D02*X126260Y107087D01*
X113780Y110630D02*Y99252D01*
X133366Y107874D02*X126772D01*
X129528Y114961D02*X118110D01*
X113780Y110630D01*
X119685Y120079D02*X133268D01*
G54D13*X196850Y98031D02*X200394Y172047D01*
G54D12*X181004Y102362D02*X190551D01*
X183307Y107677D02*X185433D01*
X190551Y102362D02*X191732Y103543D01*
X183661Y110236D02*X189646D01*
X183208Y112696D02*X187696D01*
X189370Y114370D01*
X181299Y121654D02*Y117913D01*
X183405Y115255D02*X186121D01*
X189173Y118307D01*
G54D13*X200394Y172047D02*X185039Y187224D01*
X182855D01*
X175197Y183071D02*X191732Y166535D01*
X159646Y192913D02*X166929D01*
X182855Y187224D02*X167323Y202756D01*
X161417D01*
X175197Y187402D02*Y183071D01*
X166929Y192913D02*X169291Y190551D01*
Y181102D01*
X174409Y175984D01*
G54D12*X180906Y99902D02*X186318D01*
X182402Y105000D02*X188012D01*
X151082Y97343D02*X157677D01*
X151477Y99902D02*X157677D01*
X155374Y112696D02*X154883Y112205D01*
X150394D01*
X155275Y110236D02*X153543D01*
X155374Y107578D02*X152067D01*
X151969Y107480D01*
G54D13*X151181Y173228D02*X159646D01*
X159449Y143701D02*X143917D01*
X143701Y143917D01*
Y143701D02*X137992D01*
X156693Y163386D02*X122047D01*
X104331Y145669D01*
G54D14*X120079Y183071D02*X152756D01*
G54D13*X133465Y144685D02*Y141142D01*
X143639Y129921D02*X139702Y133858D01*
X134449D01*
X133465Y133661D02*X126575D01*
G54D12*X155906Y120079D02*Y117717D01*
X148819D02*X158661Y127559D01*
X150394Y112205D02*X148819Y113780D01*
Y117717D01*
X155374Y115255D02*X151869D01*
X151575Y114961D01*
X155276Y105118D02*X142126D01*
G54D13*Y129921D02*Y105906D01*
G54D12*X138051Y107874D02*X141732D01*
G54D13*X191732Y166535D02*Y159449D01*
X174409Y175984D02*Y145669D01*
X177165Y142913D01*
X180906Y132677D02*Y135236D01*
X178346Y137795D01*
X166929D01*
X159449Y130315D01*
G54D12*X173425Y131299D02*X165354Y123228D01*
X186318Y99902D02*X188976Y97244D01*
G54D13*X203628Y94607D02*X202756Y84646D01*
X196850Y98031D02*X192126Y90157D01*
X188976Y87008D01*
X192126Y81496D02*Y69685D01*
X202756Y84646D02*Y74409D01*
X194882Y64567D01*
X189370D01*
X186806Y62002D01*
Y62013D01*
X188976Y87008D02*X182677D01*
G54D12*X180906Y97343D02*Y94784D01*
Y94094D02*Y94488D01*
G54D13*X162992Y65650D02*Y58268D01*
X162205Y40157D02*X157480Y44882D01*
X186806Y62002D02*X187795Y61012D01*
Y50787D01*
X177165Y40157D01*
X174803Y50394D02*X167323D01*
X165748Y51969D01*
X150572D01*
X174612Y49809D02*X170079Y54342D01*
X177165Y40157D02*X162205D01*
X170079Y54342D02*Y58268D01*
X150572Y51969D02*X143485Y44882D01*
G54D12*X177559Y35433D02*X62598D01*
G54D13*X152756Y65650D02*Y59055D01*
X153445Y78346D02*X152756Y77657D01*
X153445Y78346D02*X171260D01*
G54D12*X133071Y84350D02*X138681Y89961D01*
X160039D01*
G54D13*X171260Y78346D02*Y86713D01*
G54D12*X160276Y94685D02*X163780D01*
G54D13*X171260Y86811D02*X173730D01*
X176968Y90049D01*
G54D12*X177362Y90551D02*X180906Y94094D01*
G54D14*X73622Y183071D02*X66142D01*
G54D13*X72047Y159449D02*Y172047D01*
X73228Y173228D01*
X80512D01*
G54D14*X66142Y183071D02*X61024Y188189D01*
G54D13*X99508Y145669D02*X81791Y163386D01*
X100591Y137598D02*X82677Y155512D01*
X81791Y163386D02*X80512D01*
X82677Y155512D02*X75984D01*
G54D14*X64961Y157087D02*Y145276D01*
G54D13*X75984Y155512D02*X72047Y159449D01*
G54D14*X78346Y145276D02*X57874D01*
X64567Y128740D02*X65478Y129652D01*
X64370Y128543D02*X57874D01*
G54D13*X90157Y119685D02*X85039D01*
X104153D02*X109843D01*
G54D12*X53150Y57224D02*X53287Y57087D01*
X53150Y61909D02*X54232Y62992D01*
X55118Y49213D02*X37402Y66929D01*
X54232Y62992D02*X60276D01*
X60413D02*X60236Y63169D01*
Y82677D01*
X37402Y66929D02*Y84646D01*
X55413Y77165D02*X47244Y85335D01*
Y93740D01*
X37756D01*
X37008Y94488D01*
G54D13*X37402Y84252D02*X36530Y94607D01*
G54D12*X47244Y98563D02*Y106896D01*
G54D13*X36530Y94607D02*X35658Y104570D01*
X34787Y114531D01*
X37366D01*
X46850Y124016D01*
Y135827D01*
G54D12*X47244Y112205D02*X52362D01*
X57598Y107362D02*X57480Y107480D01*
G54D13*X46850Y135827D02*X56299Y145276D01*
G54D12*X90551Y97362D02*X90433Y97244D01*
X65354Y87402D02*Y82677D01*
X60098D02*Y88642D01*
X63780Y92323D01*
X90433Y97244D02*X79134D01*
X90551Y107756D02*X85551D01*
X85433Y107874D01*
X80315Y92323D02*X84646Y87992D01*
X77165Y87606D03*
X79134Y97244D02*X60630Y115748D01*
X63780Y92323D02*X80315D01*
X120079Y222441D02*G75*G03X17717Y120079I0J-102362D01*G01*
X222441Y120079D02*G75*G03X120079Y222441I-102362J0D01*G01*
X177319Y35217D02*G75*G03X222441Y120079I-57240J84862D01*G01*
X17717D02*G75*G03X62839Y35217I102362J0D01*G01*
G54D15*X34787Y114531D03*
X33915Y124493D03*
X33044Y134456D03*
X32172Y144417D03*
G54D11*G36*
X34402Y87646D02*Y81646D01*
X40402D01*
Y87646D01*
X34402D01*
G37*
G54D15*X36530Y94607D03*
X35658Y104570D03*
X31301Y154379D03*
G54D11*G36*
X199756Y87646D02*Y81646D01*
X205756D01*
Y87646D01*
X199756D01*
G37*
G54D15*X203628Y94607D03*
X204499Y104570D03*
X205370Y114531D03*
X206242Y124493D03*
X207114Y134456D03*
X207985Y144417D03*
X208857Y154379D03*
G54D16*X125984Y97756D02*Y96969D01*
Y107756D02*Y106969D01*
G54D17*X138051Y107874D02*X138327D01*
X133366D02*X133642D01*
X125256Y133661D02*X125531D01*
X120571D02*X120846D01*
G54D18*X133118Y141142D02*X133811D01*
G54D19*X143639Y143917D02*X143762D01*
G54D20*X174449Y159862D02*Y159036D01*
G54D21*X177165Y143799D02*Y142028D01*
G54D19*X159387Y143701D02*X159510D01*
X159387Y129706D02*X159510D01*
G54D21*X173425Y133563D02*Y131791D01*
X180906Y133563D02*Y131791D01*
G54D20*X191693Y159862D02*Y159036D01*
G54D19*X184978Y173228D02*X185101D01*
X184978Y187224D02*X185101D01*
G54D18*X174850Y194882D02*X175543D01*
X174850Y187402D02*X175543D01*
G54D16*X156693Y163386D02*X162598D01*
X156693Y173228D02*X162598D01*
X156693Y183071D02*X162598D01*
X156693Y192913D02*X162598D01*
X156693Y202756D02*X162598D01*
G54D22*X152756Y80118D02*Y75197D01*
G54D23*X171260Y86811D02*Y79331D01*
G54D24*X155571Y94784D02*X160177D01*
G54D22*X152756Y68110D02*Y63189D01*
G54D11*G36*
X186513Y67862D02*X192665Y61710D01*
X187097Y56142D01*
X180946Y62294D01*
X186513Y67862D01*
G37*
G36*
X174320Y55669D02*X180472Y49517D01*
X174904Y43949D01*
X168752Y50101D01*
X174320Y55669D01*
G37*
G54D19*X157480Y44943D02*Y44820D01*
X143485Y44943D02*Y44820D01*
G54D16*X125984Y50512D02*Y49724D01*
Y60512D02*Y59724D01*
G54D17*X133071Y79665D02*Y79390D01*
Y84350D02*Y84075D01*
X126378Y79272D02*Y78996D01*
Y74587D02*Y74311D01*
X123917Y88976D02*X124193D01*
X128602D02*X128878D01*
G54D24*X178799Y94784D02*X183405D01*
X155571Y112696D02*X160177D01*
X178799D02*X183405D01*
X178799Y115255D02*X183405D01*
X178799Y117814D02*X183405D01*
G54D25*X165551Y116339D02*X173425D01*
G54D24*X155571Y110137D02*X160177D01*
X178799D02*X183405D01*
X178799Y105020D02*X183405D01*
X178799Y107578D02*X183405D01*
G54D26*X169488Y108858D02*Y103740D01*
G54D17*X175197Y112598D02*Y100000D01*
G54D24*X178799Y97343D02*X183405D01*
X178799Y99902D02*X183405D01*
X178799Y102461D02*X183405D01*
G54D19*X192065Y90157D02*X192187D01*
X192065Y76162D02*X192187D01*
G54D23*X183464Y86811D02*Y79331D01*
G54D24*X155571Y102461D02*X160177D01*
X155571Y99902D02*X160177D01*
X155571Y97343D02*X160177D01*
G54D25*X165551Y96260D02*X173425D01*
G54D18*X133118Y133661D02*X133811D01*
G54D19*X143639Y129921D02*X143762D01*
G54D24*X155571Y117814D02*X160177D01*
X155571Y115255D02*X160177D01*
X155571Y107578D02*X160177D01*
X155571Y105020D02*X160177D01*
G54D17*X163780Y112598D02*Y100000D01*
X47244Y98563D02*Y98287D01*
Y93878D02*Y93602D01*
G54D27*Y112288D02*Y112121D01*
Y106980D02*Y106813D01*
G54D17*X104193Y145669D02*X104469D01*
X99508D02*X99783D01*
G54D19*X90157Y119746D02*Y119624D01*
G54D28*X59056Y161024D02*X62992D01*
G54D16*X77559Y163386D02*X83465D01*
G54D28*X59056Y189371D02*X62992D01*
G54D16*X77559Y202756D02*X83465D01*
X77559Y192913D02*X83465D01*
X77559Y183071D02*X83465D01*
X77559Y173228D02*X83465D01*
G54D22*X56693Y151083D02*Y143012D01*
G54D29*X78159Y145276D02*X80108D01*
X78159Y133071D02*X80108D01*
G54D22*X56693Y133563D02*Y125492D01*
G54D16*X90551Y107756D02*Y106969D01*
Y97756D02*Y96969D01*
G54D21*X100098Y137598D02*X101870D01*
X100098Y130118D02*X101870D01*
X110335Y133858D02*X112106D01*
G54D17*X115748Y78091D02*Y77815D01*
Y82776D02*Y82500D01*
G54D19*X104153Y119746D02*Y119624D01*
G54D17*X80571Y49213D02*X80846D01*
X75886D02*X76161D01*
G54D16*X90551Y60512D02*Y59724D01*
Y50512D02*Y49724D01*
G54D17*X64823Y62992D02*X65098D01*
X64823Y57087D02*X65098D01*
X60138Y62992D02*X60413D01*
X53150Y61909D02*Y61634D01*
X60138Y57087D02*X60413D01*
X53150Y57224D02*Y56949D01*
X60098Y77165D02*X60374D01*
X55413D02*X55689D01*
X64783Y82677D02*X65059D01*
X60098D02*X60374D01*
G54D30*X77166Y78006D02*Y74206D01*
X80906Y78006D02*Y74206D01*
X84646Y78006D02*Y74206D01*
Y87606D02*Y83806D01*
X77166Y87606D02*Y83806D01*
G54D31*X180906Y121654D03*
X155906Y120079D03*
X166142Y122835D03*
X133465Y120079D03*
X165551Y116339D03*
X173425D03*
X189370Y114567D03*
G54D32*X188976Y143307D03*
G54D33*X144488Y173228D03*
X151575Y154724D03*
X120079Y183071D03*
G54D31*X129528Y114961D03*
G54D33*X64567Y129134D03*
G54D32*X60630Y115748D03*
G54D33*X137008Y58268D03*
X138189Y98425D03*
G54D31*X151575Y114961D03*
X151969Y107874D03*
X191732Y103543D03*
X189567Y97244D03*
X188189Y104921D03*
G54D32*X120079Y97244D03*
G54D31*X173425Y96457D03*
X165551Y101575D03*
X190157Y110827D03*
X185630Y107677D03*
X165551Y109055D03*
X173425D03*
X190157Y118307D03*
G54D33*X170079Y57874D03*
X161811Y78346D03*
G54D31*X160039Y89961D03*
G54D34*G54D35*G54D32*G54D34*G54D32*G54D35*G54D32*G54D34*G54D35*G54D34*G54D32*G54D34*G54D31*M02*
