G04 start of page 3 for group 1 idx 1 *
G04 Title: roomunit-psu, bottom *
G04 Creator: pcb 1.99z *
G04 CreationDate: tor 11 jun 2015 09:01:47 UTC *
G04 For: jonatan *
G04 Format: Gerber/RS-274X *
G04 PCB-Dimensions (mil): 2401.57 2401.57 *
G04 PCB-Coordinate-Origin: lower left *
%MOIN*%
%FSLAX25Y25*%
%LNBOTTOM*%
%ADD48C,0.0157*%
%ADD47C,0.0118*%
%ADD46C,0.0630*%
%ADD45C,0.0315*%
%ADD44C,0.0276*%
%ADD43R,0.0197X0.0197*%
%ADD42R,0.0315X0.0315*%
%ADD41R,0.0618X0.0618*%
%ADD40C,0.0600*%
%ADD39C,0.0591*%
%ADD38C,0.0236*%
%ADD37C,0.0079*%
%ADD36C,0.0001*%
G54D36*G36*
X68898Y207342D02*Y185738D01*
X68889Y185630D01*
X68898Y185522D01*
Y184520D01*
X68750Y183905D01*
X68684Y183071D01*
X68750Y182237D01*
X68898Y181622D01*
Y180620D01*
X68889Y180512D01*
X68898Y180404D01*
Y36614D01*
X62962D01*
X59261Y39216D01*
X55183Y42450D01*
X51278Y45890D01*
X47554Y49525D01*
X45901Y51315D01*
Y114872D01*
X46476Y114875D01*
X46687Y114926D01*
X46887Y115009D01*
X47072Y115122D01*
X47237Y115263D01*
X47378Y115428D01*
X47491Y115613D01*
X47574Y115813D01*
X47625Y116024D01*
X47638Y116240D01*
X47625Y118700D01*
X47574Y118911D01*
X47491Y119112D01*
X47378Y119297D01*
X47237Y119462D01*
X47072Y119602D01*
X46905Y119705D01*
X47072Y119807D01*
X47237Y119948D01*
X47378Y120113D01*
X47491Y120298D01*
X47574Y120498D01*
X47625Y120709D01*
X47634Y120866D01*
X53841D01*
X58348Y116360D01*
X58290Y116119D01*
X58260Y115748D01*
X58290Y115377D01*
X58376Y115016D01*
X58519Y114672D01*
X58713Y114355D01*
X58954Y114073D01*
X59237Y113831D01*
X59554Y113637D01*
X59898Y113495D01*
X60259Y113408D01*
X60630Y113379D01*
X61001Y113408D01*
X61362Y113495D01*
X61706Y113637D01*
X62023Y113831D01*
X62305Y114073D01*
X62547Y114355D01*
X62741Y114672D01*
X62883Y115016D01*
X62970Y115377D01*
X62992Y115748D01*
X62970Y116119D01*
X62883Y116480D01*
X62741Y116824D01*
X62547Y117141D01*
X62305Y117424D01*
X62023Y117665D01*
X61706Y117859D01*
X61362Y118002D01*
X61001Y118088D01*
X60630Y118118D01*
X60259Y118088D01*
X60018Y118030D01*
X55199Y122850D01*
X55168Y122885D01*
X55027Y123006D01*
X54869Y123103D01*
X54697Y123174D01*
X54559Y123207D01*
X54516Y123217D01*
X54331Y123232D01*
X54284Y123228D01*
X47626D01*
X47625Y123386D01*
X47574Y123596D01*
X47491Y123797D01*
X47378Y123982D01*
X47237Y124147D01*
X47072Y124288D01*
X46887Y124401D01*
X46687Y124484D01*
X46476Y124534D01*
X46260Y124547D01*
X45901Y124545D01*
Y188851D01*
X48533Y191625D01*
X52375Y195271D01*
X56403Y198711D01*
X60606Y201936D01*
X64972Y204936D01*
X68898Y207342D01*
G37*
G36*
X33045Y90889D02*X33529Y90476D01*
X34212Y90058D01*
X34952Y89751D01*
X35082Y89720D01*
X34074Y89717D01*
X33754Y89640D01*
X33450Y89514D01*
X33169Y89342D01*
X33045Y89237D01*
Y90889D01*
G37*
G36*
Y100201D02*X33340Y100020D01*
X34080Y99713D01*
X34859Y99526D01*
X35125Y99505D01*
X34952Y99464D01*
X34212Y99157D01*
X33529Y98739D01*
X33045Y98326D01*
Y100201D01*
G37*
G36*
Y109743D02*X33209Y109675D01*
X33988Y109488D01*
X34252Y109467D01*
X34080Y109426D01*
X33340Y109119D01*
X33045Y108939D01*
Y109743D01*
G37*
G36*
Y119467D02*X33117Y119450D01*
X33381Y119429D01*
X33209Y119388D01*
X33045Y119320D01*
Y119467D01*
G37*
G36*
X36657Y177275D02*X38222Y179552D01*
X41446Y183754D01*
X44887Y187782D01*
X45901Y188851D01*
Y124545D01*
X44456Y124537D01*
X43697Y125296D01*
X43667Y125331D01*
X43526Y125452D01*
X43526Y125452D01*
X43367Y125549D01*
X43196Y125620D01*
X43015Y125663D01*
X42830Y125678D01*
X42783Y125674D01*
X38867D01*
X38772Y126071D01*
X38465Y126811D01*
X38046Y127495D01*
X37526Y128104D01*
X36917Y128624D01*
X36657Y128784D01*
Y132308D01*
X36700Y132316D01*
X36812Y132353D01*
X36916Y132407D01*
X37011Y132477D01*
X37094Y132561D01*
X37163Y132657D01*
X37214Y132764D01*
X37362Y133171D01*
X37466Y133593D01*
X37528Y134022D01*
X37549Y134456D01*
X37528Y134889D01*
X37466Y135318D01*
X37362Y135740D01*
X37218Y136149D01*
X37166Y136255D01*
X37097Y136352D01*
X37014Y136436D01*
X36918Y136507D01*
X36813Y136561D01*
X36700Y136599D01*
X36657Y136606D01*
Y143994D01*
X36677Y144417D01*
X36657Y144841D01*
Y177275D01*
G37*
G36*
X34914Y142844D02*X34917Y142827D01*
X34954Y142715D01*
X35008Y142610D01*
X35079Y142515D01*
X35163Y142432D01*
X35259Y142363D01*
X35364Y142310D01*
X35477Y142275D01*
X35593Y142257D01*
X35711Y142258D01*
X35828Y142277D01*
X35940Y142315D01*
X36045Y142369D01*
X36140Y142439D01*
X36223Y142523D01*
X36291Y142619D01*
X36342Y142726D01*
X36490Y143133D01*
X36594Y143555D01*
X36656Y143984D01*
X36657Y143994D01*
Y136606D01*
X36583Y136618D01*
X36465Y136619D01*
X36348Y136601D01*
X36235Y136566D01*
X36128Y136513D01*
X36032Y136444D01*
X35948Y136360D01*
X35877Y136265D01*
X35822Y136160D01*
X35785Y136047D01*
X35766Y135930D01*
X35765Y135811D01*
X35782Y135694D01*
X35820Y135582D01*
X35919Y135311D01*
X35988Y135030D01*
X36030Y134744D01*
X36044Y134456D01*
X36030Y134167D01*
X35988Y133881D01*
X35919Y133600D01*
X35824Y133328D01*
X35786Y133216D01*
X35768Y133099D01*
X35769Y132981D01*
X35788Y132865D01*
X35826Y132753D01*
X35880Y132648D01*
X35950Y132553D01*
X36034Y132470D01*
X36130Y132401D01*
X36236Y132349D01*
X36348Y132313D01*
X36465Y132295D01*
X36583Y132296D01*
X36657Y132308D01*
Y128784D01*
X36234Y129043D01*
X35493Y129350D01*
X34914Y129489D01*
Y130384D01*
X34940Y130402D01*
X35025Y130486D01*
X35095Y130581D01*
X35150Y130686D01*
X35187Y130799D01*
X35206Y130916D01*
X35207Y131034D01*
X35190Y131152D01*
X35154Y131265D01*
X35101Y131371D01*
X35032Y131467D01*
X34948Y131552D01*
X34914Y131577D01*
Y137338D01*
X34946Y137362D01*
X35029Y137446D01*
X35098Y137542D01*
X35151Y137648D01*
X35186Y137760D01*
X35204Y137877D01*
X35203Y137995D01*
X35184Y138111D01*
X35146Y138223D01*
X35092Y138328D01*
X35022Y138423D01*
X34938Y138506D01*
X34914Y138523D01*
Y142844D01*
G37*
G36*
Y145647D02*X34949Y145544D01*
X35048Y145272D01*
X35117Y144992D01*
X35158Y144706D01*
X35172Y144417D01*
X35158Y144129D01*
X35117Y143843D01*
X35048Y143562D01*
X34952Y143290D01*
X34914Y143178D01*
X34914Y143176D01*
Y145647D01*
G37*
G36*
Y174685D02*X35221Y175186D01*
X36657Y177275D01*
Y144841D01*
X36656Y144851D01*
X36594Y145280D01*
X36490Y145701D01*
X36347Y146111D01*
X36294Y146217D01*
X36225Y146314D01*
X36142Y146398D01*
X36047Y146469D01*
X35941Y146523D01*
X35829Y146561D01*
X35712Y146580D01*
X35593Y146581D01*
X35476Y146563D01*
X35363Y146527D01*
X35257Y146474D01*
X35160Y146405D01*
X35076Y146322D01*
X35005Y146227D01*
X34951Y146121D01*
X34914Y146011D01*
Y152232D01*
X34957Y152239D01*
X35069Y152276D01*
X35173Y152331D01*
X35268Y152401D01*
X35351Y152485D01*
X35420Y152581D01*
X35471Y152687D01*
X35619Y153095D01*
X35723Y153516D01*
X35785Y153946D01*
X35806Y154379D01*
X35785Y154813D01*
X35723Y155242D01*
X35619Y155663D01*
X35476Y156073D01*
X35423Y156179D01*
X35354Y156276D01*
X35271Y156360D01*
X35175Y156430D01*
X35070Y156485D01*
X34958Y156522D01*
X34914Y156530D01*
Y174685D01*
G37*
G36*
Y131577D02*X34853Y131622D01*
X34748Y131677D01*
X34635Y131714D01*
X34518Y131734D01*
X34400Y131734D01*
X34282Y131717D01*
X34170Y131679D01*
X33899Y131580D01*
X33618Y131511D01*
X33332Y131469D01*
X33045Y131456D01*
Y137455D01*
X33332Y137442D01*
X33618Y137400D01*
X33899Y137331D01*
X34171Y137235D01*
X34283Y137198D01*
X34400Y137180D01*
X34518Y137181D01*
X34634Y137200D01*
X34746Y137238D01*
X34851Y137292D01*
X34914Y137338D01*
Y131577D01*
G37*
G36*
Y129489D02*X34714Y129537D01*
X33915Y129600D01*
X33117Y129537D01*
X33045Y129520D01*
Y129950D01*
X33477Y129971D01*
X33906Y130034D01*
X34328Y130137D01*
X34737Y130281D01*
X34844Y130333D01*
X34914Y130384D01*
Y129489D01*
G37*
G36*
X33045Y171636D02*X34914Y174685D01*
Y156530D01*
X34841Y156542D01*
X34722Y156543D01*
X34605Y156525D01*
X34492Y156489D01*
X34386Y156436D01*
X34289Y156367D01*
X34205Y156284D01*
X34134Y156188D01*
X34080Y156083D01*
X34042Y155971D01*
X34023Y155854D01*
X34022Y155735D01*
X34040Y155618D01*
X34078Y155506D01*
X34176Y155234D01*
X34245Y154954D01*
X34287Y154668D01*
X34301Y154379D01*
X34287Y154091D01*
X34245Y153805D01*
X34176Y153524D01*
X34081Y153251D01*
X34043Y153140D01*
X34025Y153023D01*
X34026Y152905D01*
X34046Y152788D01*
X34083Y152676D01*
X34137Y152572D01*
X34207Y152477D01*
X34291Y152394D01*
X34387Y152325D01*
X34493Y152272D01*
X34605Y152237D01*
X34722Y152219D01*
X34840Y152220D01*
X34914Y152232D01*
Y146011D01*
X34913Y146009D01*
X34894Y145892D01*
X34893Y145773D01*
X34911Y145656D01*
X34914Y145647D01*
Y143176D01*
X34897Y143061D01*
X34897Y142943D01*
X34914Y142844D01*
Y138523D01*
X34842Y138575D01*
X34735Y138625D01*
X34328Y138774D01*
X33906Y138877D01*
X33477Y138940D01*
X33045Y138961D01*
Y139998D01*
X33456Y140099D01*
X33866Y140243D01*
X33972Y140295D01*
X34068Y140364D01*
X34153Y140447D01*
X34223Y140543D01*
X34278Y140648D01*
X34315Y140761D01*
X34335Y140878D01*
X34336Y140996D01*
X34318Y141113D01*
X34282Y141227D01*
X34229Y141333D01*
X34160Y141429D01*
X34077Y141514D01*
X33981Y141584D01*
X33876Y141639D01*
X33764Y141676D01*
X33647Y141695D01*
X33528Y141696D01*
X33411Y141679D01*
X33299Y141641D01*
X33045Y141548D01*
Y147286D01*
X33300Y147197D01*
X33411Y147159D01*
X33528Y147142D01*
X33646Y147143D01*
X33763Y147162D01*
X33875Y147199D01*
X33980Y147254D01*
X34075Y147324D01*
X34157Y147408D01*
X34226Y147504D01*
X34279Y147609D01*
X34315Y147722D01*
X34332Y147839D01*
X34331Y147957D01*
X34312Y148073D01*
X34275Y148185D01*
X34220Y148290D01*
X34150Y148385D01*
X34066Y148468D01*
X33970Y148537D01*
X33864Y148587D01*
X33456Y148736D01*
X33045Y148837D01*
Y150230D01*
X33101Y150257D01*
X33197Y150326D01*
X33282Y150409D01*
X33352Y150505D01*
X33407Y150610D01*
X33444Y150722D01*
X33464Y150839D01*
X33464Y150958D01*
X33447Y151075D01*
X33411Y151188D01*
X33358Y151294D01*
X33289Y151391D01*
X33206Y151475D01*
X33110Y151546D01*
X33045Y151579D01*
Y157183D01*
X33108Y157216D01*
X33203Y157286D01*
X33286Y157370D01*
X33355Y157466D01*
X33408Y157571D01*
X33443Y157684D01*
X33461Y157801D01*
X33460Y157919D01*
X33441Y158035D01*
X33403Y158147D01*
X33349Y158252D01*
X33279Y158347D01*
X33195Y158430D01*
X33099Y158498D01*
X33045Y158524D01*
Y171636D01*
G37*
G36*
X45901Y51315D02*X44022Y53348D01*
X40691Y57347D01*
X37571Y61512D01*
X34669Y65832D01*
X33045Y68539D01*
Y80055D01*
X33169Y79949D01*
X33450Y79777D01*
X33754Y79651D01*
X34074Y79574D01*
X34402Y79555D01*
X40730Y79574D01*
X41050Y79651D01*
X41354Y79777D01*
X41634Y79949D01*
X41884Y80163D01*
X42098Y80413D01*
X42270Y80694D01*
X42396Y80998D01*
X42473Y81318D01*
X42492Y81646D01*
X42473Y87974D01*
X42396Y88294D01*
X42270Y88598D01*
X42098Y88878D01*
X41884Y89128D01*
X41634Y89342D01*
X41354Y89514D01*
X41050Y89640D01*
X40730Y89717D01*
X40402Y89736D01*
X38015Y89729D01*
X38108Y89751D01*
X38848Y90058D01*
X39531Y90476D01*
X40141Y90997D01*
X40661Y91606D01*
X41080Y92289D01*
X41386Y93030D01*
X41573Y93809D01*
X41620Y94607D01*
X41573Y95406D01*
X41386Y96185D01*
X41080Y96926D01*
X40661Y97609D01*
X40141Y98218D01*
X39531Y98739D01*
X38848Y99157D01*
X38108Y99464D01*
X37329Y99651D01*
X37063Y99672D01*
X37236Y99713D01*
X37976Y100020D01*
X38660Y100439D01*
X39269Y100959D01*
X39789Y101568D01*
X40208Y102251D01*
X40515Y102992D01*
X40702Y103771D01*
X40749Y104570D01*
X40702Y105368D01*
X40515Y106148D01*
X40208Y106888D01*
X39789Y107571D01*
X39269Y108180D01*
X38660Y108701D01*
X37976Y109119D01*
X37236Y109426D01*
X36457Y109613D01*
X36193Y109634D01*
X36365Y109675D01*
X37105Y109982D01*
X37788Y110400D01*
X38398Y110921D01*
X38918Y111530D01*
X39337Y112213D01*
X39643Y112954D01*
X39830Y113733D01*
X39878Y114531D01*
X39830Y115330D01*
X39643Y116109D01*
X39614Y116181D01*
X42925D01*
X42926Y116024D01*
X42977Y115813D01*
X43060Y115613D01*
X43173Y115428D01*
X43314Y115263D01*
X43479Y115122D01*
X43664Y115009D01*
X43864Y114926D01*
X44075Y114875D01*
X44291Y114862D01*
X45901Y114872D01*
Y51315D01*
G37*
G36*
X29431Y150311D02*X29503Y150260D01*
X29609Y150209D01*
X30017Y150061D01*
X30438Y149957D01*
X30867Y149895D01*
X31301Y149874D01*
X31734Y149895D01*
X32164Y149957D01*
X32585Y150061D01*
X32994Y150204D01*
X33045Y150230D01*
Y148837D01*
X33035Y148839D01*
X32605Y148902D01*
X32172Y148923D01*
X31739Y148902D01*
X31309Y148839D01*
X30888Y148736D01*
X30478Y148592D01*
X30372Y148540D01*
X30276Y148471D01*
X30191Y148387D01*
X30121Y148292D01*
X30066Y148187D01*
X30029Y148074D01*
X30009Y147957D01*
X30008Y147838D01*
X30026Y147721D01*
X30062Y147608D01*
X30115Y147502D01*
X30184Y147406D01*
X30267Y147321D01*
X30363Y147251D01*
X30468Y147196D01*
X30581Y147159D01*
X30698Y147139D01*
X30816Y147138D01*
X30933Y147156D01*
X31046Y147194D01*
X31317Y147293D01*
X31598Y147362D01*
X31883Y147403D01*
X32172Y147417D01*
X32461Y147403D01*
X32747Y147362D01*
X33027Y147293D01*
X33045Y147286D01*
Y141548D01*
X33027Y141542D01*
X32747Y141473D01*
X32461Y141431D01*
X32172Y141417D01*
X31883Y141431D01*
X31598Y141473D01*
X31317Y141542D01*
X31044Y141637D01*
X30933Y141675D01*
X30816Y141693D01*
X30698Y141692D01*
X30581Y141673D01*
X30469Y141635D01*
X30365Y141581D01*
X30270Y141511D01*
X30187Y141427D01*
X30118Y141331D01*
X30065Y141225D01*
X30030Y141113D01*
X30012Y140996D01*
X30013Y140878D01*
X30032Y140761D01*
X30069Y140649D01*
X30124Y140545D01*
X30194Y140450D01*
X30278Y140367D01*
X30374Y140298D01*
X30480Y140247D01*
X30888Y140099D01*
X31309Y139995D01*
X31739Y139933D01*
X32172Y139912D01*
X32605Y139933D01*
X33035Y139995D01*
X33045Y139998D01*
Y138961D01*
X33044Y138961D01*
X32610Y138940D01*
X32181Y138877D01*
X31760Y138774D01*
X31350Y138630D01*
X31244Y138578D01*
X31147Y138509D01*
X31063Y138425D01*
X30992Y138330D01*
X30938Y138225D01*
X30900Y138112D01*
X30881Y137995D01*
X30880Y137877D01*
X30898Y137759D01*
X30934Y137646D01*
X30987Y137540D01*
X31056Y137444D01*
X31139Y137359D01*
X31234Y137289D01*
X31340Y137234D01*
X31452Y137197D01*
X31569Y137177D01*
X31688Y137177D01*
X31805Y137194D01*
X31917Y137232D01*
X32189Y137331D01*
X32469Y137400D01*
X32755Y137442D01*
X33044Y137456D01*
X33045Y137455D01*
Y131456D01*
X33044Y131456D01*
X32755Y131469D01*
X32469Y131511D01*
X32189Y131580D01*
X31916Y131676D01*
X31804Y131713D01*
X31688Y131731D01*
X31569Y131730D01*
X31453Y131711D01*
X31341Y131674D01*
X31236Y131619D01*
X31141Y131549D01*
X31058Y131465D01*
X30990Y131369D01*
X30937Y131263D01*
X30901Y131151D01*
X30884Y131034D01*
X30884Y130916D01*
X30904Y130800D01*
X30941Y130688D01*
X30995Y130583D01*
X31065Y130488D01*
X31150Y130405D01*
X31246Y130336D01*
X31352Y130286D01*
X31760Y130137D01*
X32181Y130034D01*
X32610Y129971D01*
X33044Y129950D01*
X33045Y129950D01*
Y129520D01*
X32337Y129350D01*
X31597Y129043D01*
X30914Y128624D01*
X30305Y128104D01*
X29784Y127495D01*
X29431Y126917D01*
Y132305D01*
X29504Y132293D01*
X29623Y132292D01*
X29740Y132310D01*
X29853Y132345D01*
X29959Y132398D01*
X30055Y132467D01*
X30140Y132551D01*
X30210Y132646D01*
X30265Y132751D01*
X30302Y132864D01*
X30322Y132981D01*
X30323Y133100D01*
X30305Y133217D01*
X30267Y133329D01*
X30168Y133600D01*
X30099Y133881D01*
X30058Y134167D01*
X30044Y134456D01*
X30058Y134744D01*
X30099Y135030D01*
X30168Y135311D01*
X30264Y135583D01*
X30302Y135695D01*
X30319Y135812D01*
X30318Y135930D01*
X30299Y136046D01*
X30262Y136158D01*
X30207Y136263D01*
X30137Y136358D01*
X30053Y136441D01*
X29957Y136510D01*
X29852Y136562D01*
X29739Y136598D01*
X29622Y136616D01*
X29504Y136615D01*
X29431Y136603D01*
Y142825D01*
X29431Y142826D01*
X29450Y142943D01*
X29451Y143061D01*
X29433Y143179D01*
X29431Y143187D01*
Y145661D01*
X29448Y145774D01*
X29447Y145892D01*
X29431Y145988D01*
Y150311D01*
G37*
G36*
Y157257D02*X29491Y157213D01*
X29597Y157158D01*
X29709Y157120D01*
X29826Y157101D01*
X29945Y157100D01*
X30062Y157118D01*
X30174Y157156D01*
X30446Y157255D01*
X30726Y157324D01*
X31012Y157365D01*
X31301Y157379D01*
X31589Y157365D01*
X31875Y157324D01*
X32156Y157255D01*
X32429Y157159D01*
X32540Y157121D01*
X32657Y157104D01*
X32775Y157105D01*
X32891Y157124D01*
X33003Y157161D01*
X33045Y157183D01*
Y151579D01*
X33005Y151600D01*
X32892Y151638D01*
X32775Y151657D01*
X32657Y151658D01*
X32539Y151640D01*
X32427Y151602D01*
X32156Y151504D01*
X31875Y151435D01*
X31589Y151393D01*
X31301Y151379D01*
X31012Y151393D01*
X30726Y151435D01*
X30446Y151504D01*
X30173Y151599D01*
X30061Y151637D01*
X29945Y151655D01*
X29827Y151654D01*
X29710Y151634D01*
X29598Y151597D01*
X29493Y151543D01*
X29431Y151496D01*
Y157257D01*
G37*
G36*
Y164976D02*X29926Y166014D01*
X32453Y170669D01*
X33045Y171636D01*
Y158524D01*
X32992Y158549D01*
X32585Y158697D01*
X32164Y158801D01*
X31734Y158863D01*
X31301Y158884D01*
X30867Y158863D01*
X30438Y158801D01*
X30017Y158697D01*
X29607Y158554D01*
X29501Y158501D01*
X29431Y158451D01*
Y164976D01*
G37*
G36*
X33045Y68539D02*X31992Y70295D01*
X29549Y74890D01*
X29431Y75144D01*
Y122069D01*
X29784Y121492D01*
X30305Y120883D01*
X30914Y120362D01*
X31597Y119944D01*
X32337Y119637D01*
X33045Y119467D01*
Y119320D01*
X32469Y119081D01*
X31786Y118663D01*
X31176Y118142D01*
X30656Y117533D01*
X30237Y116850D01*
X29931Y116109D01*
X29744Y115330D01*
X29681Y114531D01*
X29744Y113733D01*
X29931Y112954D01*
X30237Y112213D01*
X30656Y111530D01*
X31176Y110921D01*
X31786Y110400D01*
X32469Y109982D01*
X33045Y109743D01*
Y108939D01*
X32657Y108701D01*
X32048Y108180D01*
X31527Y107571D01*
X31109Y106888D01*
X30802Y106148D01*
X30615Y105368D01*
X30552Y104570D01*
X30615Y103771D01*
X30802Y102992D01*
X31109Y102251D01*
X31527Y101568D01*
X32048Y100959D01*
X32657Y100439D01*
X33045Y100201D01*
Y98326D01*
X32919Y98218D01*
X32399Y97609D01*
X31980Y96926D01*
X31674Y96185D01*
X31487Y95406D01*
X31424Y94607D01*
X31487Y93809D01*
X31674Y93030D01*
X31980Y92289D01*
X32399Y91606D01*
X32919Y90997D01*
X33045Y90889D01*
Y89237D01*
X32919Y89128D01*
X32705Y88878D01*
X32533Y88598D01*
X32407Y88294D01*
X32330Y87974D01*
X32311Y87646D01*
X32330Y81318D01*
X32407Y80998D01*
X32533Y80694D01*
X32705Y80413D01*
X32919Y80163D01*
X33045Y80055D01*
Y68539D01*
G37*
G36*
X29392Y145545D02*X29430Y145657D01*
X29431Y145661D01*
Y143187D01*
X29395Y143291D01*
X29296Y143562D01*
X29228Y143843D01*
X29186Y144129D01*
X29172Y144417D01*
X29186Y144706D01*
X29228Y144992D01*
X29296Y145272D01*
X29392Y145545D01*
G37*
G36*
X27688Y161322D02*X29431Y164976D01*
Y158451D01*
X29404Y158432D01*
X29320Y158349D01*
X29250Y158254D01*
X29195Y158148D01*
X29157Y158036D01*
X29138Y157919D01*
X29137Y157800D01*
X29155Y157683D01*
X29191Y157570D01*
X29244Y157464D01*
X29313Y157367D01*
X29396Y157283D01*
X29431Y157257D01*
Y151496D01*
X29398Y151473D01*
X29315Y151389D01*
X29247Y151293D01*
X29194Y151187D01*
X29158Y151074D01*
X29141Y150958D01*
X29142Y150840D01*
X29161Y150723D01*
X29198Y150611D01*
X29252Y150506D01*
X29323Y150411D01*
X29407Y150329D01*
X29431Y150311D01*
Y145988D01*
X29427Y146008D01*
X29390Y146120D01*
X29336Y146225D01*
X29266Y146320D01*
X29182Y146403D01*
X29085Y146471D01*
X28980Y146524D01*
X28867Y146560D01*
X28751Y146577D01*
X28633Y146577D01*
X28516Y146557D01*
X28404Y146520D01*
X28299Y146466D01*
X28204Y146396D01*
X28121Y146311D01*
X28053Y146215D01*
X28002Y146109D01*
X27854Y145701D01*
X27750Y145280D01*
X27688Y144851D01*
X27688Y144849D01*
Y152229D01*
X27761Y152216D01*
X27880Y152216D01*
X27997Y152233D01*
X28110Y152269D01*
X28216Y152322D01*
X28312Y152391D01*
X28397Y152474D01*
X28467Y152570D01*
X28522Y152675D01*
X28559Y152788D01*
X28579Y152905D01*
X28580Y153023D01*
X28562Y153140D01*
X28524Y153253D01*
X28425Y153524D01*
X28356Y153805D01*
X28315Y154091D01*
X28301Y154379D01*
X28315Y154668D01*
X28356Y154954D01*
X28425Y155234D01*
X28521Y155507D01*
X28559Y155619D01*
X28576Y155735D01*
X28575Y155853D01*
X28556Y155970D01*
X28519Y156082D01*
X28464Y156187D01*
X28394Y156282D01*
X28310Y156364D01*
X28214Y156433D01*
X28109Y156486D01*
X27996Y156522D01*
X27879Y156539D01*
X27761Y156538D01*
X27688Y156526D01*
Y161322D01*
G37*
G36*
X29431Y75144D02*X27688Y78873D01*
Y143985D01*
X27688Y143984D01*
X27750Y143555D01*
X27854Y143133D01*
X27997Y142724D01*
X28050Y142617D01*
X28119Y142521D01*
X28202Y142436D01*
X28298Y142366D01*
X28403Y142311D01*
X28515Y142274D01*
X28632Y142255D01*
X28751Y142254D01*
X28868Y142271D01*
X28981Y142307D01*
X29087Y142360D01*
X29184Y142429D01*
X29268Y142513D01*
X29339Y142608D01*
X29393Y142713D01*
X29431Y142825D01*
Y136603D01*
X29388Y136595D01*
X29276Y136558D01*
X29171Y136504D01*
X29076Y136434D01*
X28993Y136350D01*
X28924Y136254D01*
X28874Y136147D01*
X28725Y135740D01*
X28622Y135318D01*
X28559Y134889D01*
X28538Y134456D01*
X28559Y134022D01*
X28622Y133593D01*
X28725Y133171D01*
X28869Y132762D01*
X28921Y132656D01*
X28990Y132559D01*
X29074Y132475D01*
X29169Y132404D01*
X29274Y132350D01*
X29387Y132312D01*
X29431Y132305D01*
Y126917D01*
X29366Y126811D01*
X29059Y126071D01*
X28872Y125292D01*
X28809Y124493D01*
X28872Y123695D01*
X29059Y122915D01*
X29366Y122175D01*
X29431Y122069D01*
Y75144D01*
G37*
G36*
X27688Y78873D02*X27345Y79605D01*
X25387Y84427D01*
X23679Y89343D01*
X22226Y94340D01*
X21032Y99406D01*
X20100Y104526D01*
X19433Y109687D01*
X19031Y114876D01*
X18904Y119818D01*
X18921Y119888D01*
X18932Y120079D01*
X19036Y125374D01*
X19452Y130655D01*
X20143Y135907D01*
X21109Y141115D01*
X22345Y146266D01*
X23850Y151345D01*
X25618Y156339D01*
X27645Y161233D01*
X27688Y161322D01*
Y156526D01*
X27645Y156519D01*
X27533Y156482D01*
X27428Y156427D01*
X27333Y156357D01*
X27250Y156273D01*
X27182Y156177D01*
X27131Y156071D01*
X26982Y155663D01*
X26879Y155242D01*
X26816Y154813D01*
X26796Y154379D01*
X26816Y153946D01*
X26879Y153516D01*
X26982Y153095D01*
X27126Y152685D01*
X27179Y152579D01*
X27248Y152483D01*
X27331Y152398D01*
X27426Y152328D01*
X27532Y152273D01*
X27644Y152236D01*
X27688Y152229D01*
Y144849D01*
X27667Y144417D01*
X27688Y143985D01*
Y78873D01*
G37*
G36*
X137186Y127559D02*X142913D01*
Y122835D01*
X137186D01*
Y127559D01*
G37*
G36*
X211637Y153251D02*X211599Y153140D01*
X211599Y153136D01*
Y155609D01*
X211634Y155506D01*
X211732Y155234D01*
X211801Y154954D01*
X211843Y154668D01*
X211857Y154379D01*
X211843Y154091D01*
X211801Y153805D01*
X211732Y153524D01*
X211637Y153251D01*
G37*
G36*
X211599Y163148D02*X212512Y161233D01*
X214539Y156339D01*
X216308Y151345D01*
X217812Y146266D01*
X219049Y141115D01*
X220014Y135907D01*
X220595Y131496D01*
X211599D01*
Y132031D01*
X211663Y132137D01*
X211970Y132878D01*
X212157Y133657D01*
X212204Y134456D01*
X212157Y135254D01*
X211970Y136033D01*
X211663Y136774D01*
X211599Y136880D01*
Y142270D01*
X211641Y142277D01*
X211753Y142315D01*
X211858Y142369D01*
X211953Y142439D01*
X212036Y142523D01*
X212105Y142619D01*
X212155Y142726D01*
X212304Y143133D01*
X212407Y143555D01*
X212470Y143984D01*
X212491Y144417D01*
X212470Y144851D01*
X212407Y145280D01*
X212304Y145701D01*
X212160Y146111D01*
X212108Y146217D01*
X212039Y146314D01*
X211955Y146398D01*
X211860Y146469D01*
X211755Y146523D01*
X211642Y146561D01*
X211599Y146568D01*
Y152807D01*
X211602Y152788D01*
X211639Y152676D01*
X211693Y152572D01*
X211763Y152477D01*
X211847Y152394D01*
X211943Y152325D01*
X212049Y152272D01*
X212162Y152237D01*
X212278Y152219D01*
X212396Y152220D01*
X212513Y152239D01*
X212625Y152276D01*
X212730Y152331D01*
X212825Y152401D01*
X212907Y152485D01*
X212976Y152581D01*
X213027Y152687D01*
X213175Y153095D01*
X213279Y153516D01*
X213341Y153946D01*
X213362Y154379D01*
X213341Y154813D01*
X213279Y155242D01*
X213175Y155663D01*
X213032Y156073D01*
X212979Y156179D01*
X212910Y156276D01*
X212827Y156360D01*
X212731Y156430D01*
X212626Y156485D01*
X212514Y156522D01*
X212397Y156542D01*
X212278Y156543D01*
X212161Y156525D01*
X212048Y156489D01*
X211942Y156436D01*
X211845Y156367D01*
X211761Y156284D01*
X211690Y156188D01*
X211636Y156083D01*
X211599Y155972D01*
Y163148D01*
G37*
G36*
Y131496D02*X211271D01*
X211599Y132031D01*
Y131496D01*
G37*
G36*
X207987Y170148D02*X210232Y166014D01*
X211599Y163148D01*
Y155972D01*
X211598Y155971D01*
X211579Y155854D01*
X211578Y155735D01*
X211596Y155618D01*
X211599Y155609D01*
Y153136D01*
X211581Y153023D01*
X211582Y152905D01*
X211599Y152807D01*
Y146568D01*
X211525Y146580D01*
X211407Y146581D01*
X211289Y146563D01*
X211176Y146527D01*
X211070Y146474D01*
X210974Y146405D01*
X210889Y146322D01*
X210819Y146227D01*
X210764Y146121D01*
X210727Y146009D01*
X210707Y145892D01*
X210706Y145773D01*
X210724Y145656D01*
X210762Y145544D01*
X210861Y145272D01*
X210930Y144992D01*
X210972Y144706D01*
X210985Y144417D01*
X210972Y144129D01*
X210930Y143843D01*
X210861Y143562D01*
X210765Y143290D01*
X210728Y143178D01*
X210710Y143061D01*
X210711Y142943D01*
X210730Y142827D01*
X210767Y142715D01*
X210822Y142610D01*
X210892Y142515D01*
X210976Y142432D01*
X211072Y142363D01*
X211178Y142310D01*
X211290Y142275D01*
X211407Y142257D01*
X211525Y142258D01*
X211599Y142270D01*
Y136880D01*
X211245Y137457D01*
X210724Y138066D01*
X210115Y138587D01*
X209432Y139005D01*
X208692Y139312D01*
X207987Y139481D01*
Y139912D01*
X208419Y139933D01*
X208848Y139995D01*
X209270Y140099D01*
X209679Y140243D01*
X209785Y140295D01*
X209882Y140364D01*
X209966Y140447D01*
X210037Y140543D01*
X210091Y140648D01*
X210129Y140761D01*
X210148Y140878D01*
X210149Y140996D01*
X210131Y141113D01*
X210096Y141227D01*
X210042Y141333D01*
X209973Y141429D01*
X209890Y141514D01*
X209795Y141584D01*
X209689Y141639D01*
X209577Y141676D01*
X209460Y141695D01*
X209341Y141696D01*
X209224Y141679D01*
X209112Y141641D01*
X208841Y141542D01*
X208560Y141473D01*
X208274Y141431D01*
X207987Y141417D01*
Y147417D01*
X208274Y147403D01*
X208560Y147362D01*
X208841Y147293D01*
X209113Y147197D01*
X209225Y147159D01*
X209342Y147142D01*
X209460Y147143D01*
X209576Y147162D01*
X209688Y147199D01*
X209793Y147254D01*
X209888Y147324D01*
X209971Y147408D01*
X210039Y147504D01*
X210092Y147609D01*
X210128Y147722D01*
X210146Y147839D01*
X210145Y147957D01*
X210125Y148073D01*
X210088Y148185D01*
X210034Y148290D01*
X209964Y148385D01*
X209880Y148468D01*
X209784Y148537D01*
X209677Y148587D01*
X209270Y148736D01*
X208848Y148839D01*
X208419Y148902D01*
X207987Y148922D01*
Y149959D01*
X207994Y149957D01*
X208424Y149895D01*
X208857Y149874D01*
X209290Y149895D01*
X209720Y149957D01*
X210141Y150061D01*
X210551Y150204D01*
X210657Y150257D01*
X210753Y150326D01*
X210838Y150409D01*
X210908Y150505D01*
X210963Y150610D01*
X211000Y150722D01*
X211020Y150839D01*
X211021Y150958D01*
X211003Y151075D01*
X210967Y151188D01*
X210914Y151294D01*
X210845Y151391D01*
X210762Y151475D01*
X210666Y151546D01*
X210561Y151600D01*
X210448Y151638D01*
X210331Y151657D01*
X210213Y151658D01*
X210096Y151640D01*
X209983Y151602D01*
X209712Y151504D01*
X209431Y151435D01*
X209146Y151393D01*
X208857Y151379D01*
X208568Y151393D01*
X208282Y151435D01*
X208002Y151504D01*
X207987Y151509D01*
Y157249D01*
X208002Y157255D01*
X208282Y157324D01*
X208568Y157365D01*
X208857Y157379D01*
X209146Y157365D01*
X209431Y157324D01*
X209712Y157255D01*
X209985Y157159D01*
X210096Y157121D01*
X210213Y157104D01*
X210331Y157105D01*
X210448Y157124D01*
X210560Y157161D01*
X210664Y157216D01*
X210759Y157286D01*
X210842Y157370D01*
X210911Y157466D01*
X210964Y157571D01*
X210999Y157684D01*
X211017Y157801D01*
X211016Y157919D01*
X210997Y158035D01*
X210960Y158147D01*
X210905Y158252D01*
X210835Y158347D01*
X210751Y158430D01*
X210655Y158498D01*
X210549Y158549D01*
X210141Y158697D01*
X209720Y158801D01*
X209290Y158863D01*
X208857Y158884D01*
X208424Y158863D01*
X207994Y158801D01*
X207987Y158799D01*
Y170148D01*
G37*
G36*
X204372Y176007D02*X204936Y175186D01*
X207704Y170669D01*
X207987Y170148D01*
Y158799D01*
X207573Y158697D01*
X207163Y158554D01*
X207057Y158501D01*
X206961Y158432D01*
X206876Y158349D01*
X206806Y158254D01*
X206751Y158148D01*
X206714Y158036D01*
X206694Y157919D01*
X206693Y157800D01*
X206711Y157683D01*
X206747Y157570D01*
X206800Y157464D01*
X206869Y157367D01*
X206952Y157283D01*
X207048Y157213D01*
X207153Y157158D01*
X207265Y157120D01*
X207382Y157101D01*
X207501Y157100D01*
X207618Y157118D01*
X207730Y157156D01*
X207987Y157249D01*
Y151509D01*
X207729Y151599D01*
X207617Y151637D01*
X207501Y151655D01*
X207383Y151654D01*
X207266Y151634D01*
X207154Y151597D01*
X207049Y151543D01*
X206954Y151473D01*
X206872Y151389D01*
X206803Y151293D01*
X206750Y151187D01*
X206714Y151074D01*
X206697Y150958D01*
X206698Y150840D01*
X206717Y150723D01*
X206754Y150611D01*
X206809Y150506D01*
X206879Y150411D01*
X206963Y150329D01*
X207059Y150260D01*
X207165Y150209D01*
X207573Y150061D01*
X207987Y149959D01*
Y148922D01*
X207985Y148923D01*
X207552Y148902D01*
X207123Y148839D01*
X206701Y148736D01*
X206292Y148592D01*
X206186Y148540D01*
X206089Y148471D01*
X206005Y148387D01*
X205934Y148292D01*
X205880Y148187D01*
X205842Y148074D01*
X205823Y147957D01*
X205822Y147838D01*
X205840Y147721D01*
X205875Y147608D01*
X205928Y147502D01*
X205997Y147406D01*
X206081Y147321D01*
X206176Y147251D01*
X206281Y147196D01*
X206394Y147159D01*
X206511Y147139D01*
X206630Y147138D01*
X206747Y147156D01*
X206859Y147194D01*
X207130Y147293D01*
X207411Y147362D01*
X207697Y147403D01*
X207985Y147417D01*
X207987Y147417D01*
Y141417D01*
X207985Y141417D01*
X207697Y141431D01*
X207411Y141473D01*
X207130Y141542D01*
X206858Y141637D01*
X206746Y141675D01*
X206629Y141693D01*
X206511Y141692D01*
X206395Y141673D01*
X206283Y141635D01*
X206178Y141581D01*
X206083Y141511D01*
X206000Y141427D01*
X205931Y141331D01*
X205879Y141225D01*
X205843Y141113D01*
X205825Y140996D01*
X205826Y140878D01*
X205845Y140761D01*
X205883Y140649D01*
X205937Y140545D01*
X206007Y140450D01*
X206091Y140367D01*
X206187Y140298D01*
X206294Y140247D01*
X206701Y140099D01*
X207123Y139995D01*
X207552Y139933D01*
X207985Y139912D01*
X207987Y139912D01*
Y139481D01*
X207913Y139499D01*
X207114Y139562D01*
X206315Y139499D01*
X205536Y139312D01*
X204796Y139005D01*
X204372Y138746D01*
Y142267D01*
X204446Y142255D01*
X204564Y142254D01*
X204682Y142271D01*
X204795Y142307D01*
X204901Y142360D01*
X204997Y142429D01*
X205082Y142513D01*
X205152Y142608D01*
X205207Y142713D01*
X205244Y142826D01*
X205264Y142943D01*
X205264Y143061D01*
X205247Y143179D01*
X205209Y143291D01*
X205110Y143562D01*
X205041Y143843D01*
X204999Y144129D01*
X204985Y144417D01*
X204999Y144706D01*
X205041Y144992D01*
X205110Y145272D01*
X205205Y145545D01*
X205243Y145657D01*
X205261Y145774D01*
X205260Y145892D01*
X205241Y146008D01*
X205203Y146120D01*
X205149Y146225D01*
X205079Y146320D01*
X204995Y146403D01*
X204899Y146471D01*
X204793Y146524D01*
X204681Y146560D01*
X204564Y146577D01*
X204446Y146577D01*
X204372Y146564D01*
Y153952D01*
X204373Y153946D01*
X204435Y153516D01*
X204539Y153095D01*
X204682Y152685D01*
X204735Y152579D01*
X204804Y152483D01*
X204887Y152398D01*
X204982Y152328D01*
X205088Y152273D01*
X205200Y152236D01*
X205317Y152216D01*
X205436Y152216D01*
X205553Y152233D01*
X205666Y152269D01*
X205772Y152322D01*
X205869Y152391D01*
X205953Y152474D01*
X206024Y152570D01*
X206078Y152675D01*
X206116Y152788D01*
X206135Y152905D01*
X206136Y153023D01*
X206118Y153140D01*
X206080Y153253D01*
X205981Y153524D01*
X205912Y153805D01*
X205871Y154091D01*
X205857Y154379D01*
X205871Y154668D01*
X205912Y154954D01*
X205981Y155234D01*
X206077Y155507D01*
X206115Y155619D01*
X206132Y155735D01*
X206132Y155853D01*
X206112Y155970D01*
X206075Y156082D01*
X206021Y156187D01*
X205950Y156282D01*
X205866Y156364D01*
X205770Y156433D01*
X205665Y156486D01*
X205552Y156522D01*
X205436Y156539D01*
X205317Y156538D01*
X205201Y156519D01*
X205089Y156482D01*
X204984Y156427D01*
X204889Y156357D01*
X204806Y156273D01*
X204738Y156177D01*
X204687Y156071D01*
X204539Y155663D01*
X204435Y155242D01*
X204373Y154813D01*
X204372Y154807D01*
Y176007D01*
G37*
G36*
X137186Y219777D02*X141115Y219049D01*
X146266Y217812D01*
X151345Y216308D01*
X156339Y214539D01*
X161233Y212512D01*
X166014Y210232D01*
X170669Y207704D01*
X175186Y204936D01*
X179551Y201936D01*
X183754Y198711D01*
X187782Y195271D01*
X191625Y191625D01*
X195271Y187782D01*
X198711Y183754D01*
X201936Y179552D01*
X204372Y176007D01*
Y154807D01*
X204352Y154379D01*
X204372Y153952D01*
Y146564D01*
X204330Y146557D01*
X204218Y146520D01*
X204113Y146466D01*
X204018Y146396D01*
X203935Y146311D01*
X203866Y146215D01*
X203816Y146109D01*
X203667Y145701D01*
X203564Y145280D01*
X203501Y144851D01*
X203480Y144417D01*
X203501Y143984D01*
X203564Y143555D01*
X203667Y143133D01*
X203811Y142724D01*
X203863Y142617D01*
X203932Y142521D01*
X204015Y142436D01*
X204111Y142366D01*
X204216Y142311D01*
X204329Y142274D01*
X204372Y142267D01*
Y138746D01*
X204112Y138587D01*
X203503Y138066D01*
X202983Y137457D01*
X202564Y136774D01*
X202257Y136033D01*
X202070Y135254D01*
X202008Y134456D01*
X202070Y133657D01*
X202257Y132878D01*
X202434Y132451D01*
X201479Y131496D01*
X196256D01*
X196260Y131555D01*
X196253Y133923D01*
X196224Y134043D01*
X196176Y134158D01*
X196111Y134263D01*
X196031Y134358D01*
X195937Y134438D01*
X195831Y134503D01*
X195717Y134550D01*
X195596Y134579D01*
X195472Y134587D01*
X193380Y134579D01*
X193260Y134550D01*
X193145Y134503D01*
X193040Y134438D01*
X192945Y134358D01*
X192865Y134263D01*
X192800Y134158D01*
X192753Y134043D01*
X192724Y133923D01*
X192717Y133799D01*
X192724Y131496D01*
X188382D01*
X188386Y131555D01*
X188379Y133923D01*
X188350Y134043D01*
X188302Y134158D01*
X188237Y134263D01*
X188157Y134358D01*
X188063Y134438D01*
X187957Y134503D01*
X187842Y134550D01*
X187722Y134579D01*
X187598Y134587D01*
X185506Y134579D01*
X185386Y134550D01*
X185271Y134503D01*
X185166Y134438D01*
X185071Y134358D01*
X184991Y134263D01*
X184926Y134158D01*
X184879Y134043D01*
X184850Y133923D01*
X184843Y133799D01*
X184850Y131496D01*
X174960D01*
X174269Y132187D01*
X174199Y132270D01*
X173869Y132551D01*
X173499Y132778D01*
X173098Y132944D01*
X172778Y133021D01*
X172677Y133045D01*
X172244Y133079D01*
X172136Y133071D01*
X157087D01*
X157087Y133071D01*
X137186D01*
Y219777D01*
G37*
G36*
X177246Y36614D02*X137186D01*
Y82289D01*
X140459Y82294D01*
X140640Y82338D01*
X140812Y82409D01*
X140970Y82506D01*
X141112Y82627D01*
X141232Y82768D01*
X141330Y82927D01*
X141401Y83098D01*
X141444Y83279D01*
X141455Y83465D01*
X141444Y89949D01*
X141401Y90130D01*
X141330Y90302D01*
X141232Y90460D01*
X141112Y90602D01*
X140970Y90722D01*
X140812Y90819D01*
X140640Y90891D01*
X140459Y90934D01*
X140274Y90945D01*
X137186Y90940D01*
Y112205D01*
X142913D01*
Y61024D01*
X165429D01*
X165065Y60429D01*
X164727Y59613D01*
X164520Y58754D01*
X164451Y57874D01*
X164520Y56994D01*
X164727Y56135D01*
X165065Y55319D01*
X165526Y54566D01*
X166099Y53895D01*
X166771Y53321D01*
X167524Y52860D01*
X168340Y52522D01*
X169198Y52316D01*
X170079Y52246D01*
X170959Y52316D01*
X171818Y52522D01*
X172634Y52860D01*
X173387Y53321D01*
X174058Y53895D01*
X174632Y54566D01*
X175093Y55319D01*
X175431Y56135D01*
X175637Y56994D01*
X175689Y57874D01*
X175637Y58754D01*
X175431Y59613D01*
X175093Y60429D01*
X174728Y61024D01*
X202221D01*
X199466Y57347D01*
X196135Y53348D01*
X192604Y49525D01*
X188880Y45890D01*
X184974Y42450D01*
X180897Y39216D01*
X177246Y36614D01*
G37*
G36*
X137186D02*X71260D01*
Y177779D01*
X71654Y177756D01*
X120079D01*
X120913Y177805D01*
X121726Y178000D01*
X122499Y178321D01*
X123212Y178758D01*
X123849Y179301D01*
X124392Y179937D01*
X124829Y180650D01*
X125149Y181423D01*
X125344Y182237D01*
X125410Y183071D01*
X125344Y183905D01*
X125149Y184718D01*
X124829Y185491D01*
X124392Y186205D01*
X123849Y186841D01*
X123212Y187384D01*
X122499Y187821D01*
X121726Y188141D01*
X120913Y188337D01*
X120079Y188386D01*
X71654D01*
X71260Y188363D01*
Y208666D01*
X74143Y210232D01*
X78925Y212512D01*
X83819Y214539D01*
X88812Y216308D01*
X93891Y217812D01*
X99042Y219049D01*
X104251Y220014D01*
X109502Y220706D01*
X114783Y221121D01*
X119819Y221253D01*
X119888Y221236D01*
X120079Y221225D01*
X125374Y221121D01*
X130655Y220706D01*
X135907Y220014D01*
X137186Y219777D01*
Y133071D01*
X137008D01*
X136575Y133045D01*
X136154Y132944D01*
X135753Y132778D01*
X135383Y132551D01*
X135053Y132270D01*
X134771Y131940D01*
X134545Y131570D01*
X134379Y131169D01*
X134278Y130747D01*
X134243Y130315D01*
X134278Y129883D01*
X134379Y129461D01*
X134409Y129387D01*
X119276Y114254D01*
X119241Y114224D01*
X119120Y114082D01*
X119023Y113924D01*
X118952Y113752D01*
X118909Y113571D01*
X118909Y113571D01*
X118894Y113386D01*
X118898Y113340D01*
Y99291D01*
X118686Y99161D01*
X118403Y98920D01*
X118162Y98637D01*
X117968Y98320D01*
X117825Y97976D01*
X117738Y97615D01*
X117709Y97244D01*
X117738Y96873D01*
X117825Y96512D01*
X117968Y96168D01*
X118162Y95851D01*
X118403Y95569D01*
X118686Y95327D01*
X119003Y95133D01*
X119347Y94991D01*
X119708Y94904D01*
X120079Y94875D01*
X120449Y94904D01*
X120811Y94991D01*
X121154Y95133D01*
X121471Y95327D01*
X121754Y95569D01*
X121996Y95851D01*
X122190Y96168D01*
X122332Y96512D01*
X122419Y96873D01*
X122441Y97244D01*
X122419Y97615D01*
X122332Y97976D01*
X122190Y98320D01*
X121996Y98637D01*
X121754Y98920D01*
X121471Y99161D01*
X121260Y99291D01*
Y112897D01*
X136080Y127716D01*
X136154Y127686D01*
X136575Y127585D01*
X137008Y127559D01*
X137186D01*
Y122835D01*
X133465D01*
X133032Y122809D01*
X132610Y122708D01*
X132210Y122542D01*
X131840Y122315D01*
X131510Y122033D01*
X131228Y121704D01*
X131001Y121334D01*
X130835Y120933D01*
X130734Y120511D01*
X130700Y120079D01*
X130734Y119646D01*
X130835Y119224D01*
X131001Y118824D01*
X131228Y118454D01*
X131510Y118124D01*
X131840Y117842D01*
X132045Y117717D01*
X129528D01*
X129095Y117691D01*
X128673Y117590D01*
X128273Y117424D01*
X127903Y117197D01*
X127573Y116915D01*
X127291Y116586D01*
X127064Y116216D01*
X126898Y115815D01*
X126797Y115393D01*
X126763Y114961D01*
X126797Y114528D01*
X126898Y114106D01*
X127064Y113706D01*
X127291Y113336D01*
X127573Y113006D01*
X127903Y112724D01*
X128273Y112498D01*
X128673Y112332D01*
X129095Y112230D01*
X129528Y112205D01*
X137186D01*
Y90940D01*
X133912Y90934D01*
X133732Y90891D01*
X133560Y90819D01*
X133401Y90722D01*
X133260Y90602D01*
X133139Y90460D01*
X133042Y90302D01*
X132971Y90130D01*
X132927Y89949D01*
X132917Y89764D01*
X132927Y83279D01*
X132971Y83098D01*
X133042Y82927D01*
X133139Y82768D01*
X133260Y82627D01*
X133401Y82506D01*
X133560Y82409D01*
X133732Y82338D01*
X133912Y82294D01*
X134098Y82283D01*
X137186Y82289D01*
Y36614D01*
G37*
G36*
X182500Y119399D02*X182530Y119417D01*
X182860Y119699D01*
X183142Y120029D01*
X183369Y120399D01*
X183535Y120799D01*
X183636Y121221D01*
X183670Y121654D01*
X183636Y122086D01*
X183535Y122508D01*
X183369Y122909D01*
X183142Y123278D01*
X182854Y123602D01*
X182500Y123956D01*
Y129134D01*
X184844D01*
X184843Y129114D01*
X184850Y126747D01*
X184879Y126626D01*
X184926Y126512D01*
X184991Y126406D01*
X185071Y126312D01*
X185166Y126231D01*
X185271Y126166D01*
X185386Y126119D01*
X185433Y126108D01*
Y117566D01*
X185429Y117520D01*
X185444Y117334D01*
X185487Y117154D01*
X185559Y116982D01*
X185656Y116823D01*
X185656Y116823D01*
X185776Y116682D01*
X185812Y116652D01*
X187289Y115174D01*
X187225Y114907D01*
X187198Y114567D01*
X187225Y114227D01*
X187304Y113896D01*
X187435Y113581D01*
X187613Y113290D01*
X187834Y113031D01*
X188093Y112810D01*
X188384Y112632D01*
X188699Y112501D01*
X188765Y112485D01*
X188622Y112363D01*
X188400Y112103D01*
X188222Y111813D01*
X188092Y111498D01*
X188012Y111167D01*
X187985Y110827D01*
X188012Y110487D01*
X188092Y110156D01*
X188222Y109841D01*
X188400Y109550D01*
X188622Y109291D01*
X188881Y109070D01*
X189171Y108891D01*
X189486Y108761D01*
X189818Y108681D01*
X190157Y108655D01*
X190497Y108681D01*
X190829Y108761D01*
X191144Y108891D01*
X191434Y109070D01*
X191693Y109291D01*
X191915Y109550D01*
X192093Y109841D01*
X192152Y109984D01*
X192137Y109921D01*
X192126Y109735D01*
X192131Y108071D01*
X189810D01*
X189764Y108075D01*
X189578Y108060D01*
X189398Y108017D01*
X189226Y107945D01*
X189067Y107848D01*
X189067Y107848D01*
X188926Y107728D01*
X188896Y107692D01*
X188289Y107085D01*
X188189Y107093D01*
X187849Y107067D01*
X187702Y107031D01*
X187775Y107337D01*
X187795Y107677D01*
X187775Y108017D01*
X187696Y108348D01*
X187565Y108663D01*
X187387Y108954D01*
X187166Y109213D01*
X186907Y109434D01*
X186616Y109612D01*
X186301Y109743D01*
X185970Y109822D01*
X185630Y109849D01*
X185290Y109822D01*
X184959Y109743D01*
X184644Y109612D01*
X184353Y109434D01*
X184094Y109213D01*
X183873Y108954D01*
X183814Y108858D01*
X182500D01*
Y119399D01*
G37*
G36*
X210215Y129134D02*X220825D01*
X221121Y125374D01*
X221253Y120334D01*
X221238Y120269D01*
X221226Y120079D01*
X221126Y114876D01*
X220725Y109687D01*
X220057Y104526D01*
X219125Y99406D01*
X217931Y94340D01*
X216479Y89343D01*
X214771Y84427D01*
X212812Y79605D01*
X210608Y74890D01*
X210215Y74150D01*
Y113005D01*
X210226Y113025D01*
X210278Y113181D01*
X210385Y113624D01*
X210446Y114076D01*
X210466Y114531D01*
X210446Y114987D01*
X210385Y115439D01*
X210283Y115884D01*
X210228Y116039D01*
X210215Y116064D01*
Y122375D01*
X210353Y122393D01*
X210511Y122438D01*
X210660Y122508D01*
X210797Y122600D01*
X210917Y122713D01*
X211018Y122843D01*
X211097Y122987D01*
X211150Y123142D01*
X211256Y123586D01*
X211317Y124038D01*
X211338Y124493D01*
X211317Y124949D01*
X211256Y125401D01*
X211155Y125846D01*
X211100Y126001D01*
X211020Y126146D01*
X210919Y126276D01*
X210798Y126389D01*
X210662Y126481D01*
X210512Y126551D01*
X210354Y126597D01*
X210215Y126614D01*
Y129134D01*
G37*
G36*
Y74150D02*X208472Y70872D01*
Y93001D01*
X208484Y93030D01*
X208671Y93809D01*
X208718Y94607D01*
X208671Y95406D01*
X208484Y96185D01*
X208472Y96214D01*
Y102452D01*
X208610Y102469D01*
X208768Y102515D01*
X208917Y102585D01*
X209054Y102677D01*
X209174Y102789D01*
X209275Y102919D01*
X209354Y103063D01*
X209407Y103219D01*
X209513Y103662D01*
X209574Y104114D01*
X209595Y104570D01*
X209574Y105025D01*
X209513Y105477D01*
X209412Y105922D01*
X209357Y106077D01*
X209277Y106222D01*
X209176Y106352D01*
X209056Y106465D01*
X208919Y106557D01*
X208770Y106627D01*
X208611Y106673D01*
X208472Y106691D01*
Y112782D01*
X208564Y112684D01*
X208694Y112582D01*
X208838Y112503D01*
X208992Y112447D01*
X209154Y112416D01*
X209318Y112411D01*
X209482Y112431D01*
X209640Y112477D01*
X209789Y112546D01*
X209925Y112639D01*
X210045Y112751D01*
X210146Y112881D01*
X210215Y113005D01*
Y74150D01*
G37*
G36*
X208472Y129134D02*X210215D01*
Y126614D01*
X210190Y126617D01*
X210025Y126612D01*
X209863Y126581D01*
X209708Y126525D01*
X209564Y126445D01*
X209433Y126344D01*
X209321Y126223D01*
X209228Y126086D01*
X209158Y125937D01*
X209112Y125779D01*
X209092Y125615D01*
X209097Y125450D01*
X209132Y125289D01*
X209194Y125028D01*
X209230Y124762D01*
X209242Y124493D01*
X209230Y124225D01*
X209194Y123959D01*
X209135Y123697D01*
X209100Y123536D01*
X209095Y123372D01*
X209115Y123209D01*
X209161Y123051D01*
X209231Y122902D01*
X209323Y122765D01*
X209435Y122645D01*
X209565Y122544D01*
X209709Y122465D01*
X209864Y122409D01*
X210026Y122378D01*
X210190Y122372D01*
X210215Y122375D01*
Y116064D01*
X210149Y116184D01*
X210047Y116314D01*
X209927Y116427D01*
X209790Y116519D01*
X209641Y116589D01*
X209482Y116635D01*
X209319Y116656D01*
X209154Y116650D01*
X208992Y116619D01*
X208836Y116563D01*
X208692Y116483D01*
X208562Y116382D01*
X208472Y116286D01*
Y129134D01*
G37*
G36*
Y70872D02*X208165Y70295D01*
X205489Y65832D01*
X203846Y63386D01*
X182500D01*
Y81102D01*
X197736D01*
X197762Y80998D01*
X197887Y80694D01*
X198059Y80413D01*
X198273Y80163D01*
X198523Y79949D01*
X198804Y79777D01*
X199108Y79651D01*
X199428Y79574D01*
X199756Y79555D01*
X206084Y79574D01*
X206404Y79651D01*
X206708Y79777D01*
X206988Y79949D01*
X207239Y80163D01*
X207452Y80413D01*
X207624Y80694D01*
X207750Y80998D01*
X207827Y81318D01*
X207846Y81646D01*
X207827Y87974D01*
X207750Y88294D01*
X207624Y88598D01*
X207452Y88878D01*
X207239Y89128D01*
X206988Y89342D01*
X206737Y89496D01*
X206839Y90656D01*
X207238Y90997D01*
X207759Y91606D01*
X208177Y92289D01*
X208472Y93001D01*
Y70872D01*
G37*
G36*
X204935Y127370D02*X204957Y127364D01*
X205121Y127343D01*
X205286Y127349D01*
X205447Y127383D01*
X205708Y127445D01*
X205974Y127481D01*
X206242Y127493D01*
X206510Y127481D01*
X206776Y127445D01*
X207038Y127386D01*
X207199Y127352D01*
X207363Y127346D01*
X207527Y127366D01*
X207685Y127412D01*
X207834Y127482D01*
X207970Y127574D01*
X208090Y127687D01*
X208191Y127816D01*
X208271Y127961D01*
X208327Y128115D01*
X208358Y128277D01*
X208363Y128441D01*
X208343Y128605D01*
X208297Y128763D01*
X208227Y128912D01*
X208135Y129048D01*
X208054Y129134D01*
X208472D01*
Y116286D01*
X208449Y116261D01*
X208356Y116125D01*
X208286Y115975D01*
X208241Y115817D01*
X208220Y115653D01*
X208226Y115488D01*
X208260Y115327D01*
X208322Y115066D01*
X208358Y114800D01*
X208370Y114531D01*
X208358Y114263D01*
X208322Y113997D01*
X208263Y113735D01*
X208229Y113575D01*
X208223Y113410D01*
X208244Y113247D01*
X208289Y113089D01*
X208359Y112940D01*
X208451Y112804D01*
X208472Y112782D01*
Y106691D01*
X208447Y106694D01*
X208282Y106688D01*
X208120Y106657D01*
X207965Y106601D01*
X207821Y106521D01*
X207691Y106420D01*
X207578Y106299D01*
X207485Y106163D01*
X207415Y106013D01*
X207369Y105855D01*
X207349Y105691D01*
X207354Y105526D01*
X207389Y105365D01*
X207451Y105104D01*
X207487Y104838D01*
X207499Y104570D01*
X207487Y104301D01*
X207451Y104035D01*
X207392Y103774D01*
X207357Y103613D01*
X207352Y103448D01*
X207372Y103285D01*
X207418Y103127D01*
X207488Y102978D01*
X207580Y102842D01*
X207693Y102722D01*
X207822Y102621D01*
X207966Y102541D01*
X208121Y102485D01*
X208283Y102454D01*
X208447Y102449D01*
X208472Y102452D01*
Y96214D01*
X208177Y96926D01*
X207759Y97609D01*
X207238Y98218D01*
X206629Y98739D01*
X205946Y99157D01*
X205205Y99464D01*
X205034Y99505D01*
X205407Y99556D01*
X205852Y99657D01*
X206007Y99712D01*
X206151Y99792D01*
X206282Y99893D01*
X206394Y100013D01*
X206487Y100150D01*
X206557Y100299D01*
X206603Y100458D01*
X206623Y100622D01*
X206618Y100787D01*
X206587Y100949D01*
X206530Y101104D01*
X206451Y101248D01*
X206349Y101378D01*
X206229Y101491D01*
X206092Y101584D01*
X205943Y101654D01*
X205784Y101699D01*
X205621Y101720D01*
X205456Y101714D01*
X205295Y101680D01*
X205034Y101618D01*
X204935Y101604D01*
Y107535D01*
X205034Y107522D01*
X205295Y107462D01*
X205456Y107428D01*
X205621Y107422D01*
X205784Y107443D01*
X205942Y107489D01*
X206091Y107558D01*
X206227Y107651D01*
X206347Y107763D01*
X206448Y107893D01*
X206528Y108037D01*
X206584Y108192D01*
X206615Y108353D01*
X206620Y108518D01*
X206600Y108681D01*
X206554Y108839D01*
X206484Y108988D01*
X206392Y109124D01*
X206280Y109244D01*
X206150Y109345D01*
X206006Y109425D01*
X205888Y109465D01*
X206278Y109517D01*
X206723Y109619D01*
X206878Y109674D01*
X207023Y109753D01*
X207153Y109855D01*
X207266Y109975D01*
X207358Y110112D01*
X207428Y110261D01*
X207474Y110420D01*
X207494Y110583D01*
X207489Y110748D01*
X207458Y110910D01*
X207402Y111066D01*
X207322Y111210D01*
X207221Y111340D01*
X207100Y111453D01*
X206964Y111545D01*
X206814Y111616D01*
X206656Y111661D01*
X206492Y111682D01*
X206327Y111676D01*
X206166Y111642D01*
X205905Y111579D01*
X205639Y111544D01*
X205370Y111531D01*
X205102Y111544D01*
X204935Y111566D01*
Y117497D01*
X205102Y117519D01*
X205370Y117531D01*
X205639Y117519D01*
X205905Y117484D01*
X206167Y117424D01*
X206327Y117390D01*
X206492Y117384D01*
X206655Y117405D01*
X206813Y117450D01*
X206962Y117520D01*
X207098Y117612D01*
X207218Y117725D01*
X207319Y117855D01*
X207399Y117999D01*
X207455Y118153D01*
X207486Y118315D01*
X207491Y118479D01*
X207471Y118643D01*
X207425Y118801D01*
X207356Y118950D01*
X207263Y119086D01*
X207151Y119206D01*
X207021Y119307D01*
X206877Y119387D01*
X206760Y119426D01*
X207150Y119479D01*
X207594Y119580D01*
X207750Y119635D01*
X207894Y119715D01*
X208025Y119816D01*
X208137Y119937D01*
X208230Y120074D01*
X208300Y120223D01*
X208346Y120381D01*
X208366Y120545D01*
X208361Y120710D01*
X208330Y120872D01*
X208273Y121027D01*
X208194Y121172D01*
X208092Y121302D01*
X207972Y121415D01*
X207835Y121507D01*
X207686Y121577D01*
X207527Y121623D01*
X207364Y121644D01*
X207199Y121638D01*
X207038Y121604D01*
X206776Y121541D01*
X206510Y121505D01*
X206242Y121493D01*
X205974Y121505D01*
X205708Y121541D01*
X205446Y121601D01*
X205285Y121635D01*
X205121Y121640D01*
X204958Y121620D01*
X204935Y121614D01*
Y127370D01*
G37*
G36*
X202269Y128946D02*X202458Y129134D01*
X204426D01*
X204347Y129050D01*
X204254Y128913D01*
X204184Y128764D01*
X204139Y128605D01*
X204118Y128441D01*
X204124Y128276D01*
X204155Y128114D01*
X204211Y127959D01*
X204291Y127815D01*
X204392Y127685D01*
X204512Y127572D01*
X204649Y127479D01*
X204798Y127409D01*
X204935Y127370D01*
Y121614D01*
X204799Y121574D01*
X204650Y121505D01*
X204514Y121412D01*
X204394Y121300D01*
X204293Y121170D01*
X204214Y121026D01*
X204158Y120871D01*
X204127Y120710D01*
X204121Y120545D01*
X204142Y120382D01*
X204187Y120224D01*
X204257Y120075D01*
X204349Y119939D01*
X204462Y119819D01*
X204592Y119718D01*
X204736Y119638D01*
X204853Y119598D01*
X204463Y119546D01*
X204018Y119444D01*
X203863Y119389D01*
X203718Y119310D01*
X203588Y119208D01*
X203475Y119088D01*
X203383Y118951D01*
X203313Y118802D01*
X203267Y118643D01*
X203246Y118480D01*
X203252Y118315D01*
X203283Y118153D01*
X203339Y117997D01*
X203419Y117853D01*
X203520Y117723D01*
X203641Y117610D01*
X203777Y117518D01*
X203927Y117447D01*
X204085Y117402D01*
X204249Y117381D01*
X204414Y117387D01*
X204575Y117421D01*
X204836Y117484D01*
X204935Y117497D01*
Y111566D01*
X204836Y111579D01*
X204574Y111639D01*
X204414Y111673D01*
X204249Y111679D01*
X204086Y111658D01*
X203928Y111613D01*
X203779Y111543D01*
X203643Y111451D01*
X203523Y111338D01*
X203421Y111208D01*
X203342Y111064D01*
X203286Y110910D01*
X203255Y110748D01*
X203249Y110584D01*
X203270Y110420D01*
X203316Y110262D01*
X203385Y110113D01*
X203478Y109977D01*
X203590Y109857D01*
X203720Y109756D01*
X203864Y109676D01*
X203981Y109637D01*
X203592Y109584D01*
X203147Y109483D01*
X202991Y109428D01*
X202847Y109348D01*
X202717Y109247D01*
X202604Y109126D01*
X202511Y108989D01*
X202441Y108840D01*
X202396Y108682D01*
X202375Y108518D01*
X202381Y108353D01*
X202412Y108191D01*
X202468Y108036D01*
X202548Y107891D01*
X202649Y107761D01*
X202769Y107648D01*
X202906Y107556D01*
X203055Y107486D01*
X203214Y107440D01*
X203378Y107419D01*
X203543Y107425D01*
X203704Y107459D01*
X203965Y107522D01*
X204231Y107558D01*
X204499Y107570D01*
X204767Y107558D01*
X204935Y107535D01*
Y101604D01*
X204767Y101582D01*
X204499Y101570D01*
X204231Y101582D01*
X203965Y101618D01*
X203703Y101677D01*
X203542Y101711D01*
X203378Y101717D01*
X203215Y101697D01*
X203057Y101651D01*
X202908Y101581D01*
X202771Y101489D01*
X202651Y101376D01*
X202550Y101246D01*
X202471Y101102D01*
X202415Y100948D01*
X202384Y100786D01*
X202378Y100622D01*
X202399Y100458D01*
X202444Y100300D01*
X202514Y100151D01*
X202606Y100015D01*
X202719Y99895D01*
X202849Y99794D01*
X202993Y99715D01*
X203114Y99673D01*
X202829Y99651D01*
X202269Y99517D01*
Y112778D01*
X202292Y112802D01*
X202384Y112938D01*
X202454Y113088D01*
X202500Y113246D01*
X202521Y113410D01*
X202515Y113575D01*
X202481Y113736D01*
X202418Y113997D01*
X202382Y114263D01*
X202370Y114531D01*
X202382Y114800D01*
X202418Y115066D01*
X202478Y115328D01*
X202512Y115488D01*
X202518Y115653D01*
X202497Y115816D01*
X202452Y115974D01*
X202382Y116123D01*
X202290Y116259D01*
X202269Y116281D01*
Y122372D01*
X202294Y122369D01*
X202459Y122375D01*
X202621Y122406D01*
X202776Y122462D01*
X202921Y122542D01*
X203051Y122643D01*
X203164Y122764D01*
X203256Y122900D01*
X203326Y123050D01*
X203372Y123208D01*
X203392Y123372D01*
X203387Y123537D01*
X203353Y123698D01*
X203290Y123959D01*
X203254Y124225D01*
X203242Y124493D01*
X203254Y124762D01*
X203290Y125028D01*
X203350Y125289D01*
X203384Y125450D01*
X203389Y125615D01*
X203369Y125778D01*
X203323Y125936D01*
X203253Y126085D01*
X203161Y126221D01*
X203049Y126341D01*
X202919Y126442D01*
X202775Y126522D01*
X202620Y126578D01*
X202459Y126609D01*
X202294Y126614D01*
X202269Y126611D01*
Y128946D01*
G37*
G36*
Y99517D02*X202050Y99464D01*
X201309Y99157D01*
X200626Y98739D01*
X200526Y98653D01*
Y102449D01*
X200551Y102446D01*
X200716Y102451D01*
X200878Y102482D01*
X201033Y102538D01*
X201178Y102618D01*
X201308Y102719D01*
X201421Y102840D01*
X201513Y102977D01*
X201583Y103126D01*
X201629Y103284D01*
X201649Y103448D01*
X201644Y103613D01*
X201610Y103774D01*
X201547Y104035D01*
X201511Y104301D01*
X201499Y104570D01*
X201511Y104838D01*
X201547Y105104D01*
X201607Y105366D01*
X201641Y105527D01*
X201646Y105691D01*
X201626Y105854D01*
X201580Y106012D01*
X201511Y106161D01*
X201418Y106298D01*
X201306Y106418D01*
X201176Y106519D01*
X201032Y106598D01*
X200877Y106654D01*
X200716Y106685D01*
X200551Y106691D01*
X200526Y106688D01*
Y112999D01*
X200592Y112879D01*
X200694Y112749D01*
X200814Y112636D01*
X200951Y112544D01*
X201100Y112474D01*
X201259Y112428D01*
X201422Y112407D01*
X201587Y112413D01*
X201749Y112444D01*
X201904Y112500D01*
X202049Y112580D01*
X202179Y112681D01*
X202269Y112778D01*
Y99517D01*
G37*
G36*
X200526Y127203D02*X202269Y128946D01*
Y126611D01*
X202131Y126594D01*
X201973Y126548D01*
X201824Y126478D01*
X201688Y126386D01*
X201568Y126274D01*
X201466Y126144D01*
X201387Y126000D01*
X201334Y125844D01*
X201228Y125401D01*
X201167Y124949D01*
X201146Y124493D01*
X201167Y124038D01*
X201228Y123586D01*
X201329Y123141D01*
X201384Y122986D01*
X201464Y122841D01*
X201565Y122711D01*
X201686Y122598D01*
X201822Y122506D01*
X201972Y122436D01*
X202130Y122390D01*
X202269Y122372D01*
Y116281D01*
X202177Y116379D01*
X202047Y116481D01*
X201903Y116560D01*
X201749Y116616D01*
X201587Y116647D01*
X201423Y116652D01*
X201259Y116632D01*
X201101Y116586D01*
X200952Y116517D01*
X200816Y116424D01*
X200696Y116312D01*
X200595Y116182D01*
X200526Y116058D01*
Y127203D01*
G37*
G36*
X182500Y106496D02*X183814D01*
X183873Y106400D01*
X184094Y106141D01*
X184353Y105920D01*
X184644Y105742D01*
X184959Y105611D01*
X185290Y105532D01*
X185630Y105505D01*
X185970Y105532D01*
X186117Y105567D01*
X186044Y105261D01*
X186017Y104921D01*
X186044Y104581D01*
X186123Y104250D01*
X186254Y103935D01*
X186432Y103645D01*
X186653Y103385D01*
X186912Y103164D01*
X187203Y102986D01*
X187518Y102856D01*
X187849Y102776D01*
X188189Y102749D01*
X188529Y102776D01*
X188860Y102856D01*
X189175Y102986D01*
X189466Y103164D01*
X189725Y103385D01*
X189946Y103645D01*
X190124Y103935D01*
X190255Y104250D01*
X190334Y104581D01*
X190354Y104921D01*
X190334Y105261D01*
X190255Y105592D01*
X190220Y105676D01*
X190253Y105709D01*
X192360D01*
X192469Y105581D01*
X192611Y105460D01*
X192769Y105363D01*
X192941Y105292D01*
X193122Y105249D01*
X193307Y105238D01*
X196642Y105249D01*
X196823Y105292D01*
X196995Y105363D01*
X197153Y105460D01*
X197294Y105581D01*
X197415Y105723D01*
X197512Y105881D01*
X197583Y106053D01*
X197627Y106234D01*
X197638Y106419D01*
X197627Y109921D01*
X197583Y110102D01*
X197512Y110273D01*
X197415Y110432D01*
X197294Y110573D01*
X197153Y110694D01*
X197092Y110731D01*
X197153Y110769D01*
X197294Y110890D01*
X197415Y111031D01*
X197512Y111190D01*
X197583Y111361D01*
X197627Y111542D01*
X197638Y111728D01*
X197627Y115229D01*
X197583Y115410D01*
X197525Y115551D01*
X197788D01*
X197835Y115548D01*
X198020Y115562D01*
X198020Y115562D01*
X198201Y115606D01*
X198373Y115677D01*
X198531Y115774D01*
X198672Y115895D01*
X198703Y115930D01*
X200015Y117242D01*
X200050Y117272D01*
X200171Y117414D01*
X200171Y117414D01*
X200268Y117572D01*
X200339Y117744D01*
X200383Y117925D01*
X200397Y118110D01*
X200394Y118157D01*
Y127070D01*
X200526Y127203D01*
Y116058D01*
X200515Y116038D01*
X200462Y115882D01*
X200356Y115439D01*
X200295Y114987D01*
X200275Y114531D01*
X200295Y114076D01*
X200356Y113624D01*
X200458Y113179D01*
X200513Y113024D01*
X200526Y112999D01*
Y106688D01*
X200388Y106670D01*
X200230Y106625D01*
X200081Y106555D01*
X199945Y106463D01*
X199825Y106350D01*
X199724Y106220D01*
X199644Y106076D01*
X199591Y105921D01*
X199485Y105477D01*
X199424Y105025D01*
X199404Y104570D01*
X199424Y104114D01*
X199485Y103662D01*
X199586Y103217D01*
X199641Y103062D01*
X199721Y102917D01*
X199822Y102787D01*
X199943Y102674D01*
X200079Y102582D01*
X200229Y102512D01*
X200387Y102466D01*
X200526Y102449D01*
Y98653D01*
X200017Y98218D01*
X199497Y97609D01*
X199078Y96926D01*
X198771Y96185D01*
X198584Y95406D01*
X198521Y94607D01*
X198584Y93809D01*
X198771Y93030D01*
X199078Y92289D01*
X199497Y91606D01*
X199779Y91275D01*
X199643Y89718D01*
X199428Y89717D01*
X199108Y89640D01*
X198804Y89514D01*
X198523Y89342D01*
X198273Y89128D01*
X198059Y88878D01*
X197887Y88598D01*
X197762Y88294D01*
X197736Y88189D01*
X195669D01*
Y89018D01*
X195881Y89148D01*
X196164Y89389D01*
X196405Y89672D01*
X196599Y89989D01*
X196742Y90332D01*
X196829Y90694D01*
X196850Y91065D01*
X196829Y94752D01*
X196742Y95113D01*
X196632Y95377D01*
X196742Y95641D01*
X196829Y96003D01*
X196850Y96373D01*
X196829Y100060D01*
X196742Y100422D01*
X196599Y100765D01*
X196405Y101083D01*
X196164Y101365D01*
X195881Y101607D01*
X195564Y101801D01*
X195220Y101943D01*
X194859Y102030D01*
X194488Y102052D01*
X190968Y102030D01*
X190606Y101943D01*
X190263Y101801D01*
X189946Y101607D01*
X189663Y101365D01*
X189422Y101083D01*
X189358Y100979D01*
X188980Y100950D01*
X188408Y100812D01*
X187864Y100587D01*
X187362Y100279D01*
X186914Y99897D01*
X186532Y99449D01*
X186224Y98947D01*
X185999Y98403D01*
X185861Y97831D01*
X185815Y97244D01*
X185861Y96657D01*
X185999Y96085D01*
X186224Y95541D01*
X186532Y95039D01*
X186914Y94591D01*
X187362Y94209D01*
X187864Y93901D01*
X188408Y93676D01*
X188980Y93539D01*
X188981Y93538D01*
X188998Y90694D01*
X189085Y90332D01*
X189227Y89989D01*
X189422Y89672D01*
X189663Y89389D01*
X189946Y89148D01*
X190157Y89018D01*
Y88189D01*
X182500D01*
Y106496D01*
G37*
G36*
Y123956D02*X177323Y129134D01*
X182500D01*
Y123956D01*
G37*
G36*
X177802Y108858D02*X177756Y108862D01*
X177571Y108847D01*
X177390Y108804D01*
X177218Y108733D01*
X177060Y108636D01*
X177059Y108635D01*
X176918Y108515D01*
X176888Y108480D01*
X160488Y92080D01*
X160379Y92106D01*
X160039Y92133D01*
X159700Y92106D01*
X159368Y92026D01*
X159053Y91896D01*
X158763Y91718D01*
X158504Y91496D01*
X158282Y91237D01*
X158104Y90947D01*
X157974Y90632D01*
X157894Y90300D01*
X157867Y89961D01*
X157894Y89621D01*
X157974Y89289D01*
X158104Y88975D01*
X158282Y88684D01*
X158504Y88425D01*
X158763Y88203D01*
X159053Y88025D01*
X159368Y87895D01*
X159700Y87815D01*
X160039Y87789D01*
X160379Y87815D01*
X160711Y87895D01*
X161025Y88025D01*
X161316Y88203D01*
X161575Y88425D01*
X161797Y88684D01*
X161975Y88975D01*
X162105Y89289D01*
X162185Y89621D01*
X162205Y89961D01*
X162185Y90300D01*
X162158Y90409D01*
X178245Y106496D01*
X182500D01*
Y88189D01*
X168249D01*
X168110Y88200D01*
X167554Y88156D01*
X167012Y88026D01*
X166497Y87813D01*
X166021Y87521D01*
X166021Y87521D01*
X165597Y87159D01*
X165507Y87053D01*
X162291Y83837D01*
X161811Y83875D01*
X160946Y83807D01*
X160103Y83605D01*
X159301Y83273D01*
X158561Y82819D01*
X157902Y82256D01*
X157338Y81596D01*
X156885Y80856D01*
X156553Y80055D01*
X156350Y79211D01*
X156282Y78346D01*
X156350Y77482D01*
X156553Y76638D01*
X156885Y75836D01*
X157338Y75097D01*
X157902Y74437D01*
X158561Y73874D01*
X159301Y73420D01*
X160103Y73088D01*
X160946Y72886D01*
X161811Y72818D01*
X162676Y72886D01*
X163520Y73088D01*
X164321Y73420D01*
X165061Y73874D01*
X165720Y74437D01*
X166284Y75097D01*
X166737Y75836D01*
X167069Y76638D01*
X167272Y77482D01*
X167323Y78346D01*
X167295Y78819D01*
X169578Y81102D01*
X182500D01*
Y63386D01*
X171153D01*
X170959Y63432D01*
X170079Y63502D01*
X169198Y63432D01*
X169005Y63386D01*
X151181D01*
Y82289D01*
X154455Y82294D01*
X154635Y82338D01*
X154807Y82409D01*
X154966Y82506D01*
X155107Y82627D01*
X155228Y82768D01*
X155325Y82927D01*
X155396Y83098D01*
X155439Y83279D01*
X155450Y83465D01*
X155439Y89949D01*
X155396Y90130D01*
X155325Y90302D01*
X155228Y90460D01*
X155107Y90602D01*
X154966Y90722D01*
X154807Y90819D01*
X154635Y90891D01*
X154455Y90934D01*
X154269Y90945D01*
X151181Y90940D01*
Y105856D01*
X151297Y105808D01*
X151629Y105729D01*
X151969Y105702D01*
X152308Y105729D01*
X152640Y105808D01*
X152955Y105939D01*
X153245Y106117D01*
X153504Y106338D01*
X153726Y106597D01*
X153904Y106888D01*
X154034Y107203D01*
X154114Y107534D01*
X154134Y107874D01*
X154114Y108214D01*
X154034Y108545D01*
X153904Y108860D01*
X153879Y108901D01*
X165693Y120716D01*
X165802Y120689D01*
X166142Y120663D01*
X166482Y120689D01*
X166813Y120769D01*
X167128Y120899D01*
X167418Y121077D01*
X167678Y121299D01*
X167899Y121558D01*
X168077Y121849D01*
X168207Y122163D01*
X168287Y122495D01*
X168307Y122835D01*
X168287Y123174D01*
X168207Y123506D01*
X168077Y123821D01*
X167899Y124111D01*
X167678Y124371D01*
X167418Y124592D01*
X167128Y124770D01*
X166813Y124900D01*
X166482Y124980D01*
X166142Y125007D01*
X165802Y124980D01*
X165471Y124900D01*
X165156Y124770D01*
X164865Y124592D01*
X164606Y124371D01*
X164385Y124111D01*
X164206Y123821D01*
X164076Y123506D01*
X163996Y123174D01*
X163970Y122835D01*
X163996Y122495D01*
X164023Y122386D01*
X151658Y110022D01*
X151629Y110019D01*
X151297Y109940D01*
X151181Y109892D01*
Y112205D01*
X151575D01*
X152007Y112230D01*
X152429Y112332D01*
X152830Y112498D01*
X153200Y112724D01*
X153530Y113006D01*
X153811Y113336D01*
X154038Y113706D01*
X154204Y114106D01*
X154305Y114528D01*
X154339Y114961D01*
X154305Y115393D01*
X154204Y115815D01*
X154038Y116216D01*
X153811Y116586D01*
X153530Y116915D01*
X153200Y117197D01*
X152994Y117323D01*
X155906D01*
X156338Y117348D01*
X156760Y117450D01*
X157161Y117616D01*
X157530Y117842D01*
X157860Y118124D01*
X158142Y118454D01*
X158369Y118824D01*
X158535Y119224D01*
X158636Y119646D01*
X158670Y120079D01*
X158636Y120511D01*
X158535Y120933D01*
X158369Y121334D01*
X158142Y121704D01*
X157860Y122033D01*
X157530Y122315D01*
X157161Y122542D01*
X156760Y122708D01*
X156338Y122809D01*
X155906Y122835D01*
X151181D01*
Y127559D01*
X157087D01*
X157087Y127559D01*
X171103D01*
X178957Y119705D01*
X179281Y119417D01*
X179650Y119190D01*
X180051Y119024D01*
X180473Y118923D01*
X180906Y118889D01*
X181338Y118923D01*
X181760Y119024D01*
X182161Y119190D01*
X182500Y119399D01*
Y108858D01*
X177802D01*
G37*
G36*
X151181Y122835D02*X145276D01*
Y127559D01*
X151181D01*
Y122835D01*
G37*
G36*
Y63386D02*X145276D01*
Y112205D01*
X151181D01*
Y109892D01*
X150982Y109809D01*
X150692Y109631D01*
X150433Y109410D01*
X150211Y109151D01*
X150033Y108860D01*
X149903Y108545D01*
X149823Y108214D01*
X149796Y107874D01*
X149823Y107534D01*
X149903Y107203D01*
X150033Y106888D01*
X150211Y106597D01*
X150433Y106338D01*
X150692Y106117D01*
X150982Y105939D01*
X151181Y105856D01*
Y90940D01*
X147908Y90934D01*
X147727Y90891D01*
X147555Y90819D01*
X147397Y90722D01*
X147255Y90602D01*
X147134Y90460D01*
X147037Y90302D01*
X146966Y90130D01*
X146923Y89949D01*
X146912Y89764D01*
X146923Y83279D01*
X146966Y83098D01*
X147037Y82927D01*
X147134Y82768D01*
X147255Y82627D01*
X147397Y82506D01*
X147555Y82409D01*
X147727Y82338D01*
X147908Y82294D01*
X148093Y82283D01*
X151181Y82289D01*
Y63386D01*
G37*
G54D37*X157087Y130315D02*X137008D01*
X120079Y113386D01*
Y97244D01*
G54D38*X137186Y86614D02*X129528D01*
G54D37*X151575Y114961D02*X129528D01*
X133465Y120079D02*X155906D01*
X177559Y35433D02*X62598D01*
X177756Y107677D02*X160039Y89961D01*
X172244Y130315D02*X157087D01*
X166142Y122835D02*X151969Y108661D01*
X45276Y122047D02*X42830Y124493D01*
X33915D01*
G54D39*X76378Y183071D02*X66535D01*
G54D37*X45276Y117362D02*X37618D01*
X54331Y122047D02*X45276D01*
X71654Y180512D02*X74606D01*
X37618Y117362D02*X34787Y114531D01*
G54D39*X120079Y183071D02*X74016D01*
G54D37*X74606Y185630D02*X71654D01*
X60630Y115748D02*X54331Y122047D01*
G54D38*X203628Y94607D02*X202756Y84646D01*
G54D37*X192913Y92723D02*Y84646D01*
Y98031D02*X189961D01*
G54D38*X170079Y58661D02*Y65354D01*
X161811Y78346D02*X168110Y84646D01*
X202756D02*X168110D01*
X151181Y86614D02*X156693D01*
G54D37*X187992Y105118D02*X189764Y106890D01*
X194291D01*
X190157Y111024D02*X192126Y112992D01*
X195079Y113386D02*X197835D01*
X192126Y112992D02*Y115748D01*
X193110Y116732D01*
X197835D01*
X199213Y118110D01*
X190157Y114567D02*X189567D01*
X186614Y117520D01*
X185630Y107677D02*X177756D01*
X199213Y118110D02*Y127559D01*
X205709Y134055D01*
X194488Y132283D02*Y135433D01*
X186614Y132283D02*Y135827D01*
X190157Y118110D02*X190551Y118504D01*
X193110D01*
X194685Y120079D01*
Y127756D01*
X186614Y117520D02*Y127756D01*
X180906Y121654D02*X172244Y130315D01*
X120079Y222441D02*G75*G03X17717Y120079I0J-102362D01*G01*
X222441Y120079D02*G75*G03X120079Y222441I-102362J0D01*G01*
X177319Y35217D02*G75*G03X222441Y120079I-57240J84862D01*G01*
X17717D02*G75*G03X62839Y35217I102362J0D01*G01*
G54D40*X34787Y114531D03*
X33915Y124493D03*
X33044Y134456D03*
X32172Y144417D03*
G54D36*G36*
X34402Y87646D02*Y81646D01*
X40402D01*
Y87646D01*
X34402D01*
G37*
G54D40*X36530Y94607D03*
X35658Y104570D03*
X31301Y154379D03*
G54D36*G36*
X199756Y87646D02*Y81646D01*
X205756D01*
Y87646D01*
X199756D01*
G37*
G54D40*X203628Y94607D03*
X204499Y104570D03*
X205370Y114531D03*
X206242Y124493D03*
X207114Y134456D03*
X207985Y144417D03*
X208857Y154379D03*
G54D41*X151181Y86676D02*Y86553D01*
X137186Y86676D02*Y86553D01*
G54D42*X194882Y113469D02*Y113302D01*
Y108161D02*Y107994D01*
G54D43*X186614Y128130D02*Y127854D01*
X194488Y128130D02*Y127854D01*
G54D42*X192913Y98115D02*Y97948D01*
Y92806D02*Y92639D01*
G54D43*X186614Y132815D02*Y132539D01*
X194488Y132815D02*Y132539D01*
X45276Y122185D02*Y121909D01*
Y117500D02*Y117224D01*
G54D44*X180906Y121654D03*
X155906Y120079D03*
X166142Y122835D03*
X133465Y120079D03*
X165551Y116339D03*
X173425D03*
X189370Y114567D03*
G54D45*X188976Y143307D03*
G54D46*X144488Y173228D03*
X151575Y154724D03*
X120079Y183071D03*
G54D44*X129528Y114961D03*
G54D46*X64567Y129134D03*
G54D45*X60630Y115748D03*
G54D46*X137008Y58268D03*
X138189Y98425D03*
G54D44*X151575Y114961D03*
X151969Y107874D03*
X191732Y103543D03*
X189567Y97244D03*
X188189Y104921D03*
G54D45*X120079Y97244D03*
G54D44*X173425Y96457D03*
X165551Y101575D03*
X190157Y110827D03*
X185630Y107677D03*
X165551Y109055D03*
X173425D03*
X190157Y118307D03*
G54D46*X170079Y57874D03*
X161811Y78346D03*
G54D44*X160039Y89961D03*
G54D47*G54D48*G54D45*G54D47*G54D45*G54D48*G54D45*G54D47*G54D48*G54D47*G54D45*G54D47*G54D44*M02*
