G04 start of page 7 for group -4062 idx -4062 *
G04 Title: roomunit-psu, soldermask *
G04 Creator: pcb 1.99z *
G04 CreationDate: tor 11 jun 2015 09:01:47 UTC *
G04 For: jonatan *
G04 Format: Gerber/RS-274X *
G04 PCB-Dimensions (mil): 2401.57 2401.57 *
G04 PCB-Coordinate-Origin: lower left *
%MOIN*%
%FSLAX25Y25*%
%LNBOTTOMMASK*%
%ADD74R,0.0276X0.0276*%
%ADD73R,0.0394X0.0394*%
%ADD72R,0.0696X0.0696*%
%ADD71C,0.0001*%
%ADD70C,0.0685*%
G54D70*X34787Y114531D03*
X33915Y124493D03*
X33044Y134456D03*
X32172Y144417D03*
G54D71*G36*
X33976Y88071D02*Y81220D01*
X40827D01*
Y88071D01*
X33976D01*
G37*
G54D70*X36530Y94607D03*
X35658Y104570D03*
X31301Y154379D03*
G54D71*G36*
X199331Y88071D02*Y81220D01*
X206181D01*
Y88071D01*
X199331D01*
G37*
G54D70*X203628Y94607D03*
X204499Y104570D03*
X205370Y114531D03*
X206242Y124493D03*
X207114Y134456D03*
X207985Y144417D03*
X208857Y154379D03*
G54D72*X151181Y86676D02*Y86553D01*
X137186Y86676D02*Y86553D01*
G54D73*X194882Y113469D02*Y113302D01*
Y108161D02*Y107994D01*
G54D74*X186614Y128130D02*Y127854D01*
X194488Y128130D02*Y127854D01*
G54D73*X192913Y98115D02*Y97948D01*
Y92806D02*Y92639D01*
G54D74*X186614Y132815D02*Y132539D01*
X194488Y132815D02*Y132539D01*
X45276Y122185D02*Y121909D01*
Y117500D02*Y117224D01*
M02*
