M48
INCH
T53C0.031
T52C0.016
T51C0.012
T50C0.028
%
T51
X012953Y011496
X013346Y012008
X015157Y011496
X015197Y010787
X015591Y012008
X016004Y008996
X016555Y011634
X016555Y010906
X016555Y010157
X016614Y012283
X017343Y011634
X017343Y010906
X017343Y009646
X018091Y012165
X018563Y010768
X018819Y010492
X018937Y011457
X018957Y009724
X019016Y011831
X019016Y011083
X019173Y010354
T52
X006063Y011575
X012008Y009724
X018898Y014331
T50
X003130Y015438
X003217Y014442
X003304Y013446
X003392Y012449
X003479Y011453
X003566Y010457
X003653Y009461
X003740Y008465
X020276Y008465
X020363Y009461
X020450Y010457
X020537Y011453
X020624Y012449
X020711Y013446
X020799Y014442
X020886Y015438
T53
X006457Y012913
X012008Y018307
X013701Y005827
X013819Y009843
X014449Y017323
X015157Y015472
X016181Y007835
X017008Y005787
M30
